<svg id="svg" version="1.1" xmlns="http://www.w3.org/2000/svg" xmlns:xlink="http://www.w3.org/1999/xlink" width="400" height="400" viewBox="0, 0, 400,400"><g id="svgg"><path id="path0" d="M337.600 149.007 C 331.750 149.511,327.143 150.116,324.200 150.766 C 323.320 150.960,321.700 151.315,320.600 151.555 C 317.580 152.212,314.192 153.139,310.200 154.402 C 296.592 158.706,280.338 166.965,263.400 178.184 C 255.151 183.648,250.633 186.815,239.932 194.636 C 215.642 212.389,216.613 211.699,206.800 218.178 C 174.920 239.224,151.476 247.572,124.200 247.588 C 119.337 247.591,114.396 247.356,111.600 246.989 C 109.070 246.657,106.045 246.272,104.878 246.134 L 102.756 245.883 103.033 247.042 C 103.185 247.679,103.428 248.380,103.572 248.600 C 103.716 248.820,104.063 249.720,104.343 250.600 C 104.623 251.480,105.008 252.560,105.198 253.000 C 105.387 253.440,106.377 256.140,107.398 259.000 C 109.587 265.134,110.600 267.894,111.638 270.553 C 112.057 271.628,112.406 272.708,112.413 272.953 C 112.454 274.309,113.941 275.200,116.164 275.200 C 117.394 275.200,118.400 275.380,118.400 275.600 C 118.400 275.835,119.792 276.000,121.776 276.000 C 123.633 276.000,125.264 276.180,125.400 276.400 C 125.553 276.648,129.204 276.800,135.024 276.800 C 141.008 276.800,144.400 276.655,144.400 276.400 C 144.400 276.165,145.792 276.000,147.776 276.000 C 149.633 276.000,151.264 275.820,151.400 275.600 C 151.536 275.380,152.616 275.200,153.800 275.200 C 154.984 275.200,156.064 275.020,156.200 274.800 C 156.336 274.580,157.146 274.400,158.000 274.400 C 158.854 274.400,159.664 274.220,159.800 274.000 C 159.936 273.780,160.746 273.600,161.600 273.600 C 162.454 273.600,163.264 273.420,163.400 273.200 C 163.536 272.980,164.029 272.800,164.495 272.800 C 165.267 272.800,166.887 272.368,169.000 271.598 C 169.440 271.437,171.870 270.637,174.400 269.819 C 176.930 269.001,179.360 268.190,179.800 268.017 C 180.862 267.598,184.420 266.005,185.295 265.556 C 185.677 265.360,186.262 265.200,186.595 265.200 C 186.928 265.200,187.200 265.020,187.200 264.800 C 187.200 264.580,187.560 264.400,188.000 264.400 C 188.440 264.400,188.800 264.220,188.800 264.000 C 188.800 263.780,189.034 263.600,189.320 263.600 C 190.056 263.600,191.993 262.659,191.997 262.300 C 191.999 262.135,192.360 262.000,192.800 262.000 C 193.240 262.000,193.600 261.820,193.600 261.600 C 193.600 261.380,193.960 261.200,194.400 261.200 C 194.840 261.200,195.200 261.054,195.200 260.875 C 195.200 260.696,195.830 260.302,196.600 260.000 C 197.370 259.698,198.000 259.304,198.000 259.125 C 198.000 258.946,198.360 258.800,198.800 258.800 C 199.240 258.800,199.601 258.665,199.603 258.500 C 199.608 258.068,201.648 257.182,202.056 257.435 C 202.245 257.552,202.400 257.367,202.400 257.024 C 202.400 256.680,202.737 256.400,203.151 256.400 C 203.564 256.400,204.126 256.130,204.400 255.800 C 204.674 255.470,205.236 255.200,205.649 255.200 C 206.072 255.200,206.400 254.919,206.400 254.557 C 206.400 254.173,206.623 254.000,206.956 254.128 C 207.262 254.245,207.884 253.994,208.339 253.571 C 208.794 253.147,209.404 252.800,209.695 252.800 C 209.986 252.800,210.483 252.440,210.800 252.000 C 211.117 251.560,211.631 251.200,211.941 251.200 C 212.252 251.200,212.797 250.884,213.153 250.497 C 213.509 250.111,214.340 249.527,215.000 249.200 C 215.660 248.873,216.491 248.289,216.847 247.903 C 217.203 247.516,217.698 247.200,217.947 247.200 C 218.196 247.200,218.400 247.020,218.400 246.800 C 218.400 246.580,218.670 246.400,219.000 246.400 C 219.330 246.400,219.600 246.220,219.600 246.000 C 219.600 245.780,219.870 245.600,220.200 245.600 C 220.530 245.600,220.800 245.420,220.800 245.200 C 220.800 244.980,221.030 244.800,221.312 244.800 C 221.593 244.800,222.083 244.440,222.400 244.000 C 222.717 243.560,223.257 243.200,223.600 243.200 C 223.943 243.200,224.483 242.840,224.800 242.400 C 225.117 241.960,225.562 241.600,225.788 241.600 C 226.015 241.599,226.723 241.149,227.362 240.600 C 228.001 240.050,228.664 239.600,228.834 239.600 C 229.004 239.600,229.381 239.371,229.671 239.091 C 229.962 238.812,231.460 237.693,233.000 236.606 C 234.540 235.519,236.149 234.308,236.575 233.915 C 237.002 233.522,237.505 233.200,237.694 233.200 C 237.882 233.200,238.486 232.750,239.036 232.200 C 239.586 231.650,240.200 231.200,240.400 231.200 C 240.600 231.200,241.214 230.750,241.764 230.200 C 242.314 229.650,242.907 229.200,243.082 229.200 C 243.257 229.199,243.940 228.734,244.600 228.165 C 245.260 227.596,246.295 226.837,246.900 226.479 C 247.505 226.121,248.000 225.686,248.000 225.514 C 248.000 225.341,248.255 225.200,248.567 225.200 C 248.878 225.200,249.193 225.055,249.267 224.877 C 249.340 224.699,250.300 223.946,251.400 223.203 C 252.500 222.460,253.490 221.736,253.600 221.594 C 253.710 221.452,255.600 220.097,257.800 218.583 C 260.000 217.070,262.149 215.509,262.575 215.116 C 263.002 214.722,263.587 214.400,263.875 214.400 C 264.164 214.400,264.400 214.220,264.400 214.000 C 264.400 213.780,264.578 213.600,264.795 213.600 C 265.167 213.600,266.215 212.840,267.416 211.700 C 267.706 211.425,268.136 211.200,268.371 211.200 C 268.607 211.200,268.800 211.020,268.800 210.800 C 268.800 210.580,269.070 210.400,269.400 210.400 C 269.730 210.400,270.000 210.220,270.000 210.000 C 270.000 209.780,270.270 209.600,270.600 209.600 C 270.930 209.600,271.200 209.420,271.200 209.200 C 271.200 208.980,271.436 208.800,271.725 208.800 C 272.013 208.800,272.636 208.440,273.108 208.000 C 273.580 207.560,274.154 207.200,274.383 207.200 C 274.612 207.200,274.800 207.020,274.800 206.800 C 274.800 206.580,275.070 206.400,275.400 206.400 C 275.730 206.400,276.000 206.220,276.000 206.000 C 276.000 205.780,276.236 205.600,276.525 205.600 C 276.813 205.600,277.455 205.222,277.951 204.760 C 278.447 204.298,278.950 204.017,279.069 204.136 C 279.188 204.255,279.660 204.003,280.118 203.576 C 280.576 203.149,281.187 202.800,281.475 202.800 C 281.764 202.800,282.000 202.620,282.000 202.400 C 282.000 202.180,282.270 202.000,282.600 202.000 C 282.930 202.000,283.200 201.854,283.200 201.675 C 283.200 201.496,283.830 201.102,284.600 200.800 C 285.370 200.498,286.000 200.104,286.000 199.925 C 286.000 199.746,286.270 199.600,286.600 199.600 C 286.930 199.600,287.200 199.420,287.200 199.200 C 287.200 198.980,287.470 198.800,287.800 198.800 C 288.130 198.800,288.400 198.620,288.400 198.400 C 288.400 198.180,288.760 198.000,289.200 198.000 C 289.640 198.000,290.000 197.854,290.000 197.675 C 290.000 197.496,290.630 197.102,291.400 196.800 C 292.170 196.498,292.800 196.104,292.800 195.925 C 292.800 195.746,293.070 195.600,293.400 195.600 C 293.730 195.600,294.000 195.420,294.000 195.200 C 294.000 194.980,294.360 194.800,294.800 194.800 C 295.240 194.800,295.600 194.620,295.600 194.400 C 295.600 194.180,295.960 194.000,296.400 194.000 C 296.840 194.000,297.200 193.820,297.200 193.600 C 297.200 193.380,297.470 193.200,297.800 193.200 C 298.130 193.200,298.400 193.020,298.400 192.800 C 298.400 192.580,298.835 192.400,299.367 192.400 C 299.898 192.400,300.393 192.258,300.467 192.085 C 300.583 191.810,305.071 189.459,305.600 189.395 C 305.710 189.382,306.181 189.159,306.647 188.900 C 307.113 188.640,307.623 188.557,307.780 188.713 C 307.937 188.870,308.300 188.677,308.588 188.284 C 308.875 187.891,309.265 187.605,309.455 187.649 C 309.645 187.692,310.160 187.592,310.600 187.427 C 311.948 186.922,313.365 186.324,314.095 185.953 C 314.477 185.759,315.152 185.600,315.595 185.600 C 316.038 185.600,316.400 185.420,316.400 185.200 C 316.400 184.980,316.749 184.800,317.176 184.800 C 317.603 184.800,318.064 184.620,318.200 184.400 C 318.336 184.180,318.966 184.000,319.600 184.000 C 320.234 184.000,320.864 183.820,321.000 183.600 C 321.136 183.380,321.676 183.200,322.200 183.200 C 322.724 183.200,323.264 183.020,323.400 182.800 C 323.536 182.580,324.177 182.400,324.824 182.400 C 325.471 182.400,326.000 182.220,326.000 182.000 C 326.000 181.780,326.619 181.600,327.376 181.600 C 328.133 181.600,328.864 181.420,329.000 181.200 C 329.136 180.980,329.856 180.800,330.600 180.800 C 331.344 180.800,332.064 180.620,332.200 180.400 C 332.336 180.180,333.247 180.000,334.224 180.000 C 335.201 180.000,336.000 179.820,336.000 179.600 C 336.000 179.378,337.059 179.200,338.376 179.200 C 339.683 179.200,340.864 179.020,341.000 178.800 C 341.136 178.580,342.846 178.400,344.800 178.400 C 346.754 178.400,348.464 178.220,348.600 178.000 C 348.751 177.756,351.871 177.600,356.624 177.600 C 361.541 177.600,364.400 177.747,364.400 178.000 C 364.400 178.238,365.922 178.400,368.167 178.400 C 370.238 178.400,371.993 178.567,372.067 178.771 C 372.140 178.974,373.370 179.189,374.800 179.246 L 377.400 179.352 377.524 177.876 C 377.596 177.025,377.469 176.400,377.224 176.400 C 376.991 176.400,376.800 175.860,376.800 175.200 C 376.800 174.540,376.620 174.000,376.400 174.000 C 376.180 174.000,376.000 173.550,376.000 173.000 C 376.000 172.450,375.820 172.000,375.600 172.000 C 375.380 172.000,375.200 171.550,375.200 171.000 C 375.200 170.450,375.020 170.000,374.800 170.000 C 374.580 170.000,374.400 169.460,374.400 168.800 C 374.400 168.140,374.220 167.600,374.000 167.600 C 373.780 167.600,373.600 167.238,373.600 166.795 C 373.600 166.352,373.420 165.632,373.200 165.195 C 372.980 164.758,372.620 164.042,372.400 163.605 C 372.180 163.168,372.000 162.536,372.000 162.200 C 372.000 161.864,371.829 161.277,371.619 160.895 C 371.409 160.513,370.841 159.030,370.356 157.600 C 368.140 151.071,368.124 151.038,366.935 150.711 C 364.736 150.108,357.731 149.240,351.692 148.822 C 344.783 148.345,345.389 148.337,337.600 149.007 " stroke="none" fill="#922be3" fill-rule="evenodd"></path><path id="path1" d="M327.400 119.828 C 326.740 119.917,324.310 120.189,322.000 120.432 C 301.224 122.619,275.375 133.403,251.600 149.802 C 250.610 150.485,248.000 152.285,245.800 153.804 C 243.600 155.322,234.240 162.057,225.000 168.770 C 193.919 191.350,178.561 201.007,162.710 207.937 C 140.437 217.673,115.642 221.081,95.245 217.209 C 94.060 216.984,92.935 216.800,92.745 216.800 C 91.936 216.800,92.299 218.000,96.827 230.300 C 97.252 231.455,97.978 233.435,98.439 234.700 C 98.900 235.965,99.422 237.360,99.599 237.800 C 99.775 238.240,100.136 239.230,100.400 240.000 C 102.350 245.678,102.476 245.851,104.865 246.133 C 106.039 246.272,109.070 246.657,111.600 246.989 C 123.353 248.532,139.708 247.419,152.047 244.238 C 170.058 239.595,185.470 232.260,206.800 218.178 C 216.613 211.699,215.642 212.389,239.932 194.636 C 250.633 186.815,255.151 183.648,263.400 178.184 C 284.364 164.298,303.876 155.181,320.200 151.642 C 335.529 148.318,347.857 147.782,361.800 149.832 C 367.740 150.705,367.383 150.716,367.534 149.654 C 367.607 149.133,367.472 148.512,367.234 148.274 C 366.995 148.035,366.800 147.426,366.800 146.920 C 366.800 146.414,366.620 146.000,366.400 146.000 C 366.180 146.000,366.000 145.460,366.000 144.800 C 366.000 144.140,365.820 143.600,365.600 143.600 C 365.380 143.600,365.200 143.150,365.200 142.600 C 365.200 142.050,365.020 141.600,364.800 141.600 C 364.580 141.600,364.400 141.150,364.400 140.600 C 364.400 140.050,364.220 139.600,364.000 139.600 C 363.780 139.600,363.600 139.060,363.600 138.400 C 363.600 137.740,363.420 137.200,363.200 137.200 C 362.980 137.200,362.800 136.750,362.800 136.200 C 362.800 135.650,362.620 135.200,362.400 135.200 C 362.180 135.200,362.000 134.750,362.000 134.200 C 362.000 133.650,361.820 133.200,361.600 133.200 C 361.380 133.200,361.200 132.660,361.200 132.000 C 361.200 131.340,361.020 130.800,360.800 130.800 C 360.580 130.800,360.400 130.350,360.400 129.800 C 360.400 129.250,360.220 128.800,360.000 128.800 C 359.780 128.800,359.600 128.260,359.600 127.600 C 359.600 126.940,359.420 126.400,359.200 126.400 C 358.980 126.400,358.800 125.950,358.800 125.400 C 358.800 124.850,358.599 124.400,358.353 124.400 C 358.093 124.400,357.986 123.984,358.098 123.400 C 358.226 122.729,358.110 122.400,357.745 122.400 C 357.445 122.400,357.200 122.240,357.200 122.043 C 357.200 120.780,333.434 119.013,327.400 119.828 " stroke="none" fill="#255cda" fill-rule="evenodd"></path><path id="path2" d="M336.054 63.505 C 336.002 64.377,336.122 64.731,337.138 66.695 C 337.392 67.187,337.600 67.864,337.600 68.200 C 337.600 68.536,337.759 69.123,337.953 69.505 C 338.148 69.887,338.532 70.740,338.807 71.400 C 339.844 73.888,340.180 74.461,340.333 74.002 C 340.419 73.743,340.290 73.330,340.045 73.085 C 339.800 72.840,339.600 72.226,339.600 71.720 C 339.600 71.214,339.420 70.800,339.200 70.800 C 338.980 70.800,338.800 70.438,338.800 69.995 C 338.800 69.552,338.592 68.787,338.338 68.295 C 337.342 66.369,337.200 65.983,337.200 65.205 C 337.200 64.762,337.033 64.400,336.828 64.400 C 336.623 64.400,336.378 63.995,336.282 63.500 L 336.109 62.600 336.054 63.505 M317.600 90.658 C 308.900 91.092,298.377 93.154,288.600 96.341 C 280.585 98.953,275.730 100.999,266.800 105.526 C 252.806 112.619,241.364 120.040,216.064 138.430 C 212.909 140.724,209.129 143.459,207.664 144.508 C 206.199 145.558,204.713 146.657,204.362 146.951 C 204.011 147.245,202.661 148.229,201.362 149.136 C 200.063 150.044,197.470 151.878,195.600 153.212 C 167.686 173.125,143.632 184.445,121.800 187.943 C 120.260 188.190,117.650 188.607,116.000 188.870 C 111.995 189.508,94.392 189.504,90.000 188.864 C 81.095 187.566,81.609 187.887,79.665 182.400 C 79.002 180.530,77.895 177.470,77.204 175.600 C 76.513 173.730,75.048 169.680,73.948 166.600 C 72.026 161.220,70.111 156.718,70.629 158.800 C 70.766 159.350,72.312 163.760,74.064 168.600 C 79.469 183.530,80.307 185.762,81.454 188.275 C 81.974 189.417,82.400 190.455,82.400 190.583 C 82.400 190.954,86.803 202.928,87.221 203.695 C 87.430 204.077,87.600 204.664,87.600 205.000 C 87.600 205.336,87.759 205.923,87.953 206.305 C 88.548 207.474,89.123 208.923,89.657 210.600 C 89.937 211.480,90.277 212.380,90.411 212.600 C 90.546 212.820,90.897 213.766,91.193 214.702 C 91.799 216.625,92.225 216.815,97.600 217.562 C 122.617 221.042,146.449 216.568,171.600 203.672 C 185.381 196.607,198.371 188.116,225.000 168.770 C 234.240 162.057,243.600 155.322,245.800 153.804 C 248.000 152.285,250.610 150.485,251.600 149.802 C 275.315 133.444,299.808 123.194,322.000 120.340 C 330.193 119.287,352.404 119.999,356.148 121.435 C 356.895 121.722,357.418 120.858,356.845 120.285 C 356.600 120.040,356.400 119.437,356.400 118.944 C 356.400 118.451,356.217 117.934,355.993 117.796 C 355.770 117.658,355.690 117.377,355.817 117.173 C 355.943 116.969,355.779 116.420,355.453 115.955 C 355.127 115.489,354.956 114.859,355.073 114.554 C 355.190 114.249,355.086 114.000,354.843 114.000 C 354.599 114.000,354.400 113.460,354.400 112.800 C 354.400 112.140,354.220 111.600,354.000 111.600 C 353.780 111.600,353.600 111.150,353.600 110.600 C 353.600 110.050,353.420 109.600,353.200 109.600 C 352.980 109.600,352.800 109.150,352.800 108.600 C 352.800 108.050,352.620 107.600,352.400 107.600 C 352.180 107.600,352.000 107.060,352.000 106.400 C 352.000 105.740,351.820 105.200,351.600 105.200 C 351.380 105.200,351.200 104.649,351.200 103.976 C 351.200 103.263,351.033 102.856,350.800 103.000 C 350.567 103.144,350.400 102.737,350.400 102.024 C 350.400 101.351,350.220 100.800,350.000 100.800 C 349.780 100.800,349.600 100.350,349.600 99.800 C 349.600 99.250,349.420 98.800,349.200 98.800 C 348.980 98.800,348.800 98.350,348.800 97.800 C 348.800 97.250,348.620 96.800,348.400 96.800 C 348.180 96.800,348.000 96.260,348.000 95.600 C 348.000 94.940,347.820 94.400,347.600 94.400 C 347.380 94.400,347.200 94.117,347.200 93.771 C 347.200 92.901,346.387 92.220,345.200 92.095 C 344.650 92.037,342.760 91.812,341.000 91.596 C 333.082 90.624,324.871 90.295,317.600 90.658 " stroke="none" fill="#83bb4c" fill-rule="evenodd"></path><path id="path3" d="M284.699 3.300 C 284.580 3.659,283.558 3.773,281.087 3.705 C 279.139 3.651,277.535 3.781,277.397 4.005 C 277.263 4.222,276.083 4.400,274.776 4.400 C 273.459 4.400,272.400 4.578,272.400 4.800 C 272.400 5.020,271.590 5.200,270.600 5.200 C 269.610 5.200,268.800 5.380,268.800 5.600 C 268.800 5.820,267.990 6.000,267.000 6.000 C 266.010 6.000,265.200 6.180,265.200 6.400 C 265.200 6.620,264.570 6.800,263.800 6.800 C 263.030 6.800,262.400 6.980,262.400 7.200 C 262.400 7.420,261.770 7.600,261.000 7.600 C 260.230 7.600,259.600 7.780,259.600 8.000 C 259.600 8.220,259.060 8.400,258.400 8.400 C 257.740 8.400,257.200 8.599,257.200 8.842 C 257.200 9.114,256.604 9.227,255.649 9.136 C 254.519 9.028,254.150 9.126,254.291 9.494 C 254.409 9.800,254.163 10.000,253.666 10.000 C 253.216 10.000,252.736 10.180,252.600 10.400 C 252.464 10.620,251.924 10.800,251.400 10.800 C 250.876 10.800,250.326 10.996,250.178 11.235 C 250.031 11.474,249.582 11.584,249.181 11.479 C 248.769 11.371,248.355 11.541,248.229 11.870 C 248.106 12.189,247.841 12.349,247.641 12.225 C 247.326 12.031,246.275 12.453,243.105 14.050 C 242.723 14.243,242.138 14.400,241.805 14.400 C 241.472 14.400,241.200 14.580,241.200 14.800 C 241.200 15.020,240.840 15.200,240.400 15.200 C 239.960 15.200,239.600 15.380,239.600 15.600 C 239.600 15.820,239.240 16.000,238.800 16.000 C 238.360 16.000,238.000 16.180,238.000 16.400 C 238.000 16.620,237.640 16.800,237.200 16.800 C 236.760 16.800,236.400 16.980,236.400 17.200 C 236.400 17.420,236.040 17.600,235.600 17.600 C 235.160 17.600,234.800 17.746,234.800 17.925 C 234.800 18.104,234.170 18.498,233.400 18.800 C 232.630 19.102,232.000 19.496,232.000 19.675 C 232.000 19.854,231.640 20.000,231.200 20.000 C 230.760 20.000,230.400 20.180,230.400 20.400 C 230.400 20.620,230.040 20.800,229.600 20.800 C 229.160 20.800,228.800 20.980,228.800 21.200 C 228.800 21.420,228.522 21.600,228.183 21.600 C 227.844 21.600,227.180 21.960,226.708 22.400 C 226.236 22.840,225.613 23.200,225.325 23.200 C 225.036 23.200,224.800 23.380,224.800 23.600 C 224.800 23.820,224.440 24.000,224.000 24.000 C 223.560 24.000,223.200 24.180,223.200 24.400 C 223.200 24.620,222.930 24.800,222.600 24.800 C 222.270 24.800,222.000 24.980,222.000 25.200 C 222.000 25.420,221.730 25.600,221.400 25.600 C 221.070 25.600,220.800 25.780,220.800 26.000 C 220.800 26.220,220.522 26.400,220.183 26.400 C 219.844 26.400,219.180 26.760,218.708 27.200 C 218.236 27.640,217.613 28.000,217.325 28.000 C 217.036 28.000,216.800 28.180,216.800 28.400 C 216.800 28.620,216.626 28.800,216.412 28.800 C 216.199 28.800,214.773 29.610,213.242 30.600 C 211.712 31.590,210.266 32.400,210.030 32.400 C 209.793 32.400,209.600 32.550,209.600 32.732 C 209.600 32.915,209.105 33.320,208.500 33.632 C 207.895 33.945,207.051 34.515,206.625 34.900 C 206.198 35.285,205.613 35.600,205.325 35.600 C 205.036 35.600,204.800 35.750,204.800 35.932 C 204.800 36.115,204.305 36.519,203.700 36.830 C 203.095 37.140,202.309 37.711,201.953 38.097 C 201.597 38.484,201.102 38.800,200.853 38.800 C 200.604 38.800,200.400 38.980,200.400 39.200 C 200.400 39.420,200.170 39.600,199.888 39.600 C 199.607 39.600,199.117 39.960,198.800 40.400 C 198.483 40.840,197.943 41.200,197.600 41.200 C 197.257 41.200,196.717 41.560,196.400 42.000 C 196.083 42.440,195.593 42.800,195.312 42.800 C 195.030 42.800,194.800 42.980,194.800 43.200 C 194.800 43.420,194.596 43.600,194.347 43.600 C 194.098 43.600,193.567 43.977,193.168 44.437 C 192.769 44.897,192.278 45.172,192.077 45.048 C 191.877 44.924,191.236 45.357,190.653 46.011 C 190.071 46.665,189.359 47.200,189.072 47.200 C 188.785 47.200,188.032 47.740,187.400 48.400 C 186.768 49.060,186.042 49.600,185.787 49.600 C 185.532 49.600,184.998 49.960,184.600 50.400 C 184.202 50.840,183.623 51.200,183.314 51.200 C 183.006 51.200,182.864 51.380,183.000 51.600 C 183.136 51.820,183.006 52.000,182.712 52.000 C 182.417 52.000,181.917 52.360,181.600 52.800 C 181.283 53.240,180.775 53.600,180.472 53.600 C 180.169 53.600,179.417 54.140,178.800 54.800 C 178.183 55.460,177.508 56.000,177.299 56.000 C 177.090 56.000,176.394 56.495,175.752 57.100 C 175.111 57.705,174.094 58.455,173.493 58.768 C 172.892 59.080,172.400 59.485,172.400 59.668 C 172.400 59.850,172.157 60.000,171.859 60.000 C 171.562 60.000,170.754 60.540,170.063 61.200 C 169.372 61.860,168.671 62.400,168.504 62.400 C 168.337 62.401,167.677 62.851,167.038 63.400 C 166.399 63.950,165.769 64.400,165.638 64.400 C 165.507 64.401,164.877 64.851,164.238 65.400 C 163.599 65.950,162.952 66.400,162.800 66.400 C 162.648 66.400,162.001 66.850,161.362 67.400 C 160.723 67.949,160.015 68.399,159.788 68.400 C 159.562 68.400,159.117 68.760,158.800 69.200 C 158.483 69.640,157.969 70.000,157.659 70.000 C 157.348 70.000,156.803 70.316,156.447 70.703 C 156.091 71.089,155.305 71.660,154.700 71.970 C 154.095 72.281,153.600 72.685,153.600 72.868 C 153.600 73.050,153.330 73.200,153.000 73.200 C 152.670 73.200,152.400 73.380,152.400 73.600 C 152.400 73.820,152.130 74.000,151.800 74.000 C 151.470 74.000,151.200 74.180,151.200 74.400 C 151.200 74.620,151.007 74.800,150.772 74.800 C 150.537 74.800,149.559 75.340,148.600 76.000 C 147.641 76.660,146.678 77.200,146.461 77.200 C 146.244 77.200,146.007 77.335,145.933 77.500 C 145.763 77.884,141.755 80.304,138.400 82.048 C 136.970 82.792,135.740 83.535,135.667 83.700 C 135.593 83.865,135.188 84.000,134.767 84.000 C 134.345 84.000,134.000 84.180,134.000 84.400 C 134.000 84.620,133.640 84.800,133.200 84.800 C 132.760 84.800,132.400 84.980,132.400 85.200 C 132.400 85.420,132.130 85.600,131.800 85.600 C 131.470 85.600,131.200 85.780,131.200 86.000 C 131.200 86.220,130.840 86.400,130.400 86.400 C 129.960 86.400,129.600 86.580,129.600 86.800 C 129.600 87.020,129.240 87.200,128.800 87.200 C 128.360 87.200,128.000 87.380,128.000 87.600 C 128.000 87.820,127.640 88.000,127.200 88.000 C 126.760 88.000,126.400 88.180,126.400 88.400 C 126.400 88.620,126.040 88.800,125.600 88.800 C 125.160 88.800,124.800 88.980,124.800 89.200 C 124.800 89.420,124.440 89.600,124.000 89.600 C 123.560 89.600,123.200 89.780,123.200 90.000 C 123.200 90.220,122.750 90.400,122.200 90.400 C 121.650 90.400,121.200 90.580,121.200 90.800 C 121.200 91.020,120.840 91.200,120.400 91.200 C 119.960 91.200,119.600 91.380,119.600 91.600 C 119.600 91.820,119.150 92.000,118.600 92.000 C 118.050 92.000,117.600 92.201,117.600 92.447 C 117.600 92.707,117.184 92.814,116.600 92.702 C 115.898 92.568,115.600 92.687,115.600 93.102 C 115.600 93.490,115.334 93.624,114.826 93.491 C 114.361 93.369,113.960 93.527,113.822 93.887 C 113.663 94.300,113.285 94.408,112.596 94.235 C 111.858 94.050,111.600 94.144,111.600 94.600 C 111.600 95.056,111.342 95.150,110.604 94.965 C 109.896 94.787,109.536 94.900,109.362 95.355 C 109.196 95.787,108.824 95.921,108.213 95.767 C 107.627 95.621,107.230 95.745,107.086 96.121 C 106.940 96.500,106.506 96.633,105.832 96.504 C 105.221 96.387,104.800 96.489,104.800 96.753 C 104.800 96.999,104.170 97.200,103.400 97.200 C 102.630 97.200,102.000 97.380,102.000 97.600 C 102.000 97.820,101.370 98.000,100.600 98.000 C 99.830 98.000,99.200 98.180,99.200 98.400 C 99.200 98.620,98.379 98.800,97.376 98.800 C 96.263 98.800,95.649 98.956,95.800 99.200 C 95.952 99.447,95.271 99.600,94.024 99.600 C 92.911 99.600,92.000 99.780,92.000 100.000 C 92.000 100.222,90.933 100.400,89.600 100.400 C 88.267 100.400,87.200 100.578,87.200 100.800 C 87.200 101.035,85.800 101.200,83.800 101.200 C 81.800 101.200,80.400 101.365,80.400 101.600 C 80.400 101.855,77.067 102.000,71.200 102.000 C 65.333 102.000,62.000 101.855,62.000 101.600 C 62.000 101.363,60.533 101.200,58.400 101.200 C 56.267 101.200,54.800 101.037,54.800 100.800 C 54.800 100.578,53.733 100.400,52.400 100.400 C 49.752 100.400,49.507 100.737,50.450 103.081 C 50.697 103.697,51.057 104.605,51.250 105.100 C 51.442 105.595,51.762 106.405,51.960 106.900 C 52.157 107.395,52.536 108.430,52.800 109.200 C 53.064 109.970,53.424 110.960,53.600 111.400 C 53.776 111.840,54.136 112.830,54.400 113.600 C 54.664 114.370,55.033 115.360,55.218 115.800 C 55.507 116.485,59.638 127.951,61.231 132.490 C 61.518 133.309,61.828 133.905,61.919 133.814 C 62.010 133.723,61.770 132.824,61.385 131.815 C 60.449 129.364,60.446 129.365,66.295 130.236 C 82.674 132.675,103.296 130.519,120.400 124.579 C 139.961 117.787,155.751 108.552,188.400 84.807 C 205.268 72.540,208.600 70.143,212.600 67.394 C 214.800 65.883,217.680 63.903,219.000 62.994 C 239.775 48.693,260.866 38.800,279.082 34.812 C 295.962 31.117,322.039 31.428,325.291 35.364 C 325.899 36.099,325.983 36.116,325.991 35.500 C 325.996 35.115,325.820 34.800,325.600 34.800 C 325.380 34.800,325.200 34.361,325.200 33.824 C 325.200 33.287,325.020 32.736,324.800 32.600 C 324.580 32.464,324.400 31.913,324.400 31.376 C 324.400 30.839,324.220 30.400,324.000 30.400 C 323.780 30.400,323.600 29.986,323.600 29.480 C 323.600 28.974,323.457 28.389,323.282 28.180 C 323.107 27.971,322.735 27.080,322.455 26.200 C 322.176 25.320,321.806 24.240,321.632 23.800 C 321.006 22.209,319.882 18.966,319.414 17.400 C 318.812 15.386,318.441 14.386,317.971 13.505 C 317.767 13.123,317.600 12.358,317.600 11.805 C 317.600 11.252,317.420 10.800,317.200 10.800 C 316.980 10.800,316.800 10.350,316.800 9.800 C 316.800 9.250,316.620 8.800,316.400 8.800 C 316.180 8.800,316.000 8.350,316.000 7.800 C 316.000 7.250,315.820 6.800,315.600 6.800 C 315.380 6.800,315.200 6.440,315.200 6.000 C 315.200 5.413,314.933 5.200,314.200 5.200 C 313.650 5.200,313.200 5.020,313.200 4.800 C 313.200 4.574,312.067 4.400,310.600 4.400 C 309.170 4.400,308.000 4.227,308.000 4.016 C 308.000 3.794,306.572 3.667,304.621 3.716 C 302.352 3.772,301.078 3.636,300.741 3.300 C 300.375 2.935,298.169 2.800,292.553 2.800 C 286.760 2.800,284.825 2.923,284.699 3.300 M326.006 36.900 C 326.020 38.042,326.788 38.626,326.794 37.500 C 326.797 36.895,326.620 36.400,326.400 36.400 C 326.180 36.400,326.003 36.625,326.006 36.900 M326.806 39.300 C 326.820 40.442,327.588 41.026,327.594 39.900 C 327.597 39.295,327.420 38.800,327.200 38.800 C 326.980 38.800,326.803 39.025,326.806 39.300 M327.606 41.500 C 327.624 42.377,328.388 42.959,328.394 42.100 C 328.397 41.605,328.220 41.200,328.000 41.200 C 327.780 41.200,327.603 41.335,327.606 41.500 M328.400 43.329 C 328.400 43.589,329.677 47.431,330.085 48.400 C 330.658 49.758,331.031 50.744,331.600 52.400 C 332.182 54.093,332.771 55.560,333.247 56.495 C 333.441 56.877,333.600 57.464,333.600 57.800 C 333.600 58.136,333.759 58.723,333.953 59.105 C 334.398 59.980,335.056 61.579,335.361 62.525 C 335.503 62.966,335.784 63.134,336.077 62.952 C 336.452 62.720,336.453 62.618,336.080 62.493 C 335.816 62.405,335.600 61.898,335.600 61.367 C 335.600 60.835,335.420 60.400,335.200 60.400 C 334.980 60.400,334.800 59.950,334.800 59.400 C 334.800 58.850,334.620 58.400,334.400 58.400 C 334.180 58.400,334.000 57.860,334.000 57.200 C 334.000 56.540,333.820 56.000,333.600 56.000 C 333.380 56.000,333.200 55.638,333.200 55.195 C 333.200 54.752,332.992 53.987,332.738 53.495 C 331.742 51.569,331.600 51.183,331.600 50.405 C 331.600 49.962,331.420 49.600,331.200 49.600 C 330.980 49.600,330.800 49.150,330.800 48.600 C 330.800 48.050,330.620 47.600,330.400 47.600 C 330.180 47.600,330.000 47.060,330.000 46.400 C 330.000 45.740,329.820 45.200,329.600 45.200 C 329.380 45.200,329.200 44.750,329.200 44.200 C 329.200 43.650,329.020 43.200,328.800 43.200 C 328.580 43.200,328.400 43.258,328.400 43.329 M69.015 154.048 C 69.669 156.109,70.795 158.292,70.536 157.000 C 70.405 156.340,70.140 155.629,69.948 155.420 C 69.757 155.211,69.600 154.727,69.600 154.344 C 69.600 153.961,69.401 153.524,69.157 153.374 C 68.852 153.185,68.808 153.395,69.015 154.048 " stroke="none" fill="#eb4c5c" fill-rule="evenodd"></path><path id="path4" d="M280.626 3.158 C 280.279 3.720,281.573 4.041,283.058 3.763 C 285.176 3.365,285.052 2.800,282.847 2.800 C 281.747 2.800,280.748 2.961,280.626 3.158 M300.972 3.155 C 301.296 3.680,303.800 4.065,304.973 3.771 C 306.695 3.339,305.685 2.800,303.153 2.800 C 301.833 2.800,300.851 2.960,300.972 3.155 M274.000 4.000 C 274.000 4.220,274.720 4.400,275.600 4.400 C 276.480 4.400,277.200 4.220,277.200 4.000 C 277.200 3.780,276.480 3.600,275.600 3.600 C 274.720 3.600,274.000 3.780,274.000 4.000 M308.400 4.000 C 308.400 4.220,309.221 4.400,310.224 4.400 C 311.337 4.400,311.951 4.244,311.800 4.000 C 311.664 3.780,310.843 3.600,309.976 3.600 C 309.109 3.600,308.400 3.780,308.400 4.000 M269.400 4.800 C 269.251 5.042,269.796 5.200,270.776 5.200 C 271.669 5.200,272.400 5.020,272.400 4.800 C 272.400 4.580,271.781 4.400,271.024 4.400 C 270.267 4.400,269.536 4.580,269.400 4.800 M313.200 4.800 C 313.200 5.020,313.650 5.200,314.200 5.200 C 314.822 5.200,315.200 5.427,315.200 5.800 C 315.200 6.130,315.380 6.400,315.600 6.400 C 316.152 6.400,316.102 5.462,315.520 4.880 C 314.940 4.300,313.200 4.240,313.200 4.800 M265.800 5.600 C 265.653 5.838,266.129 6.000,266.976 6.000 C 267.759 6.000,268.400 5.820,268.400 5.600 C 268.400 5.380,267.871 5.200,267.224 5.200 C 266.577 5.200,265.936 5.380,265.800 5.600 M262.600 6.400 C 262.464 6.620,261.821 6.800,261.171 6.800 C 260.521 6.800,259.677 6.967,259.295 7.171 C 258.913 7.375,258.240 7.676,257.800 7.841 C 257.058 8.119,257.071 8.153,257.987 8.310 C 258.530 8.402,259.040 8.281,259.120 8.039 C 259.201 7.798,259.972 7.600,260.833 7.600 C 261.695 7.600,262.400 7.420,262.400 7.200 C 262.400 6.980,263.030 6.800,263.800 6.800 C 264.570 6.800,265.200 6.620,265.200 6.400 C 265.200 6.180,264.671 6.000,264.024 6.000 C 263.377 6.000,262.736 6.180,262.600 6.400 M316.000 7.576 C 316.000 8.003,316.180 8.464,316.400 8.600 C 316.627 8.740,316.800 8.404,316.800 7.824 C 316.800 7.261,316.620 6.800,316.400 6.800 C 316.180 6.800,316.000 7.149,316.000 7.576 M254.480 8.880 C 254.216 9.144,254.000 9.237,254.000 9.086 C 254.000 8.808,249.982 10.125,248.705 10.821 C 248.323 11.030,247.826 11.200,247.601 11.200 C 247.376 11.200,246.338 11.578,245.296 12.041 C 244.253 12.503,242.680 13.201,241.800 13.591 C 238.161 15.204,228.777 19.995,228.400 20.432 C 228.290 20.560,227.615 20.919,226.900 21.230 C 226.185 21.541,225.600 21.931,225.600 22.098 C 225.600 22.264,225.364 22.400,225.075 22.400 C 224.787 22.400,224.164 22.760,223.692 23.200 C 223.220 23.640,222.556 24.000,222.217 24.000 C 221.878 24.000,221.600 24.180,221.600 24.400 C 221.600 24.620,221.240 24.800,220.800 24.800 C 220.360 24.800,220.000 24.953,220.000 25.139 C 220.000 25.326,219.280 25.803,218.400 26.200 C 217.520 26.597,216.800 27.074,216.800 27.261 C 216.800 27.447,216.612 27.600,216.382 27.600 C 216.152 27.600,214.630 28.500,213.000 29.600 C 211.370 30.700,209.914 31.600,209.765 31.600 C 209.616 31.600,209.203 31.916,208.847 32.303 C 208.491 32.689,207.705 33.260,207.100 33.570 C 206.495 33.881,206.000 34.285,206.000 34.468 C 206.000 34.650,205.775 34.800,205.500 34.800 C 204.840 34.801,202.603 36.736,202.909 37.042 C 203.040 37.173,203.553 36.902,204.049 36.440 C 204.545 35.978,205.187 35.600,205.475 35.600 C 205.764 35.600,206.000 35.450,206.000 35.268 C 206.000 35.085,206.495 34.680,207.100 34.368 C 207.705 34.055,208.549 33.485,208.975 33.100 C 209.402 32.715,209.987 32.400,210.275 32.400 C 210.564 32.400,210.800 32.220,210.800 32.000 C 210.800 31.780,210.997 31.600,211.239 31.600 C 211.480 31.600,213.196 30.610,215.052 29.400 C 216.909 28.190,218.601 27.200,218.814 27.200 C 219.026 27.200,219.200 27.054,219.200 26.875 C 219.200 26.696,219.830 26.302,220.600 26.000 C 221.370 25.698,222.000 25.304,222.000 25.125 C 222.000 24.946,222.270 24.800,222.600 24.800 C 222.930 24.800,223.200 24.620,223.200 24.400 C 223.200 24.180,223.560 24.000,224.000 24.000 C 224.440 24.000,224.800 23.820,224.800 23.600 C 224.800 23.380,225.070 23.200,225.400 23.200 C 225.730 23.200,226.000 23.020,226.000 22.800 C 226.000 22.580,226.270 22.400,226.600 22.400 C 226.930 22.400,227.200 22.220,227.200 22.000 C 227.200 21.780,227.560 21.600,228.000 21.600 C 228.440 21.600,228.800 21.420,228.800 21.200 C 228.800 20.980,229.160 20.800,229.600 20.800 C 230.040 20.800,230.400 20.664,230.400 20.498 C 230.400 20.331,230.985 19.941,231.700 19.630 C 232.415 19.319,233.090 18.960,233.200 18.832 C 233.606 18.360,235.208 17.600,235.795 17.600 C 236.128 17.600,236.401 17.465,236.403 17.300 C 236.407 16.941,238.344 16.000,239.080 16.000 C 239.366 16.000,239.600 15.820,239.600 15.600 C 239.600 15.380,239.960 15.200,240.400 15.200 C 240.840 15.200,241.200 15.020,241.200 14.800 C 241.200 14.580,241.560 14.400,242.000 14.400 C 242.440 14.400,242.800 14.220,242.800 14.000 C 242.800 13.780,243.079 13.600,243.419 13.600 C 243.760 13.600,244.774 13.245,245.674 12.810 C 246.573 12.376,247.466 12.117,247.657 12.235 C 247.849 12.354,248.118 12.159,248.254 11.802 C 248.391 11.446,248.733 11.242,249.013 11.350 C 249.293 11.457,249.847 11.307,250.244 11.017 C 250.642 10.727,251.181 10.571,251.443 10.672 C 251.705 10.772,252.038 10.662,252.183 10.427 C 252.328 10.192,252.887 10.000,253.424 10.000 C 253.961 10.000,254.400 9.820,254.400 9.600 C 254.400 9.380,254.940 9.200,255.600 9.200 C 256.260 9.200,256.800 9.020,256.800 8.800 C 256.800 8.240,255.060 8.300,254.480 8.880 M316.800 10.000 C 316.800 10.440,316.980 10.800,317.200 10.800 C 317.420 10.800,317.600 11.340,317.600 12.000 C 317.600 12.660,317.780 13.200,318.000 13.200 C 318.220 13.200,318.400 13.650,318.400 14.200 C 318.400 14.750,318.580 15.200,318.800 15.200 C 319.020 15.200,319.200 15.639,319.200 16.176 C 319.200 16.713,319.380 17.264,319.600 17.400 C 319.820 17.536,320.000 18.087,320.000 18.624 C 320.000 19.161,320.180 19.600,320.400 19.600 C 320.620 19.600,320.800 19.954,320.800 20.386 C 320.800 21.271,321.822 24.636,322.413 25.695 C 322.626 26.077,322.800 26.752,322.800 27.195 C 322.800 27.638,322.980 28.000,323.200 28.000 C 323.420 28.000,323.600 28.439,323.600 28.976 C 323.600 29.513,323.780 30.064,324.000 30.200 C 324.220 30.336,324.400 30.887,324.400 31.424 C 324.400 31.961,324.580 32.400,324.800 32.400 C 325.020 32.400,325.200 32.940,325.200 33.600 C 325.200 34.260,325.380 34.800,325.600 34.800 C 325.820 34.800,326.000 35.160,326.000 35.600 C 326.000 36.040,326.180 36.400,326.400 36.400 C 326.620 36.400,326.800 36.940,326.800 37.600 C 326.800 38.260,326.980 38.800,327.200 38.800 C 327.420 38.800,327.600 39.340,327.600 40.000 C 327.600 40.660,327.780 41.200,328.000 41.200 C 328.220 41.200,328.400 41.650,328.400 42.200 C 328.400 42.750,328.580 43.200,328.800 43.200 C 329.020 43.200,329.200 43.650,329.200 44.200 C 329.200 44.750,329.380 45.200,329.600 45.200 C 329.820 45.200,330.000 45.740,330.000 46.400 C 330.000 47.060,330.180 47.600,330.400 47.600 C 330.620 47.600,330.800 48.050,330.800 48.600 C 330.800 49.150,330.980 49.600,331.200 49.600 C 331.420 49.600,331.600 49.962,331.600 50.405 C 331.600 50.848,331.780 51.568,332.000 52.005 C 332.220 52.442,332.580 53.158,332.800 53.595 C 333.020 54.032,333.200 54.752,333.200 55.195 C 333.200 55.638,333.380 56.000,333.600 56.000 C 333.820 56.000,334.000 56.540,334.000 57.200 C 334.000 57.860,334.180 58.400,334.400 58.400 C 334.620 58.400,334.800 58.850,334.800 59.400 C 334.800 59.950,334.980 60.400,335.200 60.400 C 335.420 60.400,335.600 60.850,335.600 61.400 C 335.600 61.950,335.780 62.400,336.000 62.400 C 336.220 62.400,336.400 62.850,336.400 63.400 C 336.400 63.950,336.580 64.400,336.800 64.400 C 337.020 64.400,337.200 64.762,337.200 65.205 C 337.200 65.648,337.380 66.368,337.600 66.805 C 337.820 67.242,338.180 67.958,338.400 68.395 C 338.620 68.832,338.800 69.552,338.800 69.995 C 338.800 70.438,338.980 70.800,339.200 70.800 C 339.420 70.800,339.600 71.239,339.600 71.776 C 339.600 72.313,339.796 72.874,340.035 73.022 C 340.274 73.169,340.383 73.621,340.277 74.026 C 340.171 74.431,340.241 74.815,340.431 74.881 C 340.621 74.946,340.837 75.400,340.911 75.890 C 340.985 76.379,341.171 76.904,341.323 77.056 C 341.475 77.209,341.600 77.753,341.600 78.267 C 341.600 78.780,341.780 79.200,342.000 79.200 C 342.220 79.200,342.400 78.750,342.400 78.200 C 342.400 77.650,342.240 77.200,342.044 77.200 C 341.848 77.200,341.597 76.615,341.486 75.900 C 341.209 74.117,338.683 66.927,337.553 64.705 C 337.359 64.323,337.200 63.659,337.200 63.229 C 337.200 62.799,337.020 62.336,336.800 62.200 C 336.580 62.064,336.400 61.513,336.400 60.976 C 336.400 60.439,336.220 60.000,336.000 60.000 C 335.780 60.000,335.600 59.638,335.600 59.195 C 335.600 58.752,335.420 58.032,335.200 57.595 C 334.980 57.158,334.620 56.442,334.400 56.005 C 334.180 55.568,334.000 54.848,334.000 54.405 C 334.000 53.962,333.820 53.600,333.600 53.600 C 333.380 53.600,333.200 53.161,333.200 52.624 C 333.200 52.087,333.020 51.536,332.800 51.400 C 332.580 51.264,332.400 50.801,332.400 50.371 C 332.400 49.941,332.241 49.277,332.047 48.895 C 331.852 48.513,331.471 47.660,331.200 47.000 C 330.929 46.340,330.548 45.487,330.353 45.105 C 330.159 44.723,330.000 44.048,330.000 43.605 C 330.000 43.162,329.820 42.800,329.600 42.800 C 329.380 42.800,329.200 42.361,329.200 41.824 C 329.200 41.287,329.020 40.736,328.800 40.600 C 328.580 40.464,328.400 40.003,328.400 39.576 C 328.400 39.149,328.220 38.800,328.000 38.800 C 327.780 38.800,327.600 38.260,327.600 37.600 C 327.600 36.940,327.420 36.400,327.200 36.400 C 326.980 36.400,326.800 35.860,326.800 35.200 C 326.800 34.540,326.620 34.000,326.400 34.000 C 326.180 34.000,326.000 33.728,326.000 33.395 C 326.000 33.062,325.844 32.477,325.654 32.095 C 325.464 31.713,324.824 29.870,324.233 28.000 C 323.237 24.849,322.753 23.536,322.021 22.000 C 321.863 21.670,321.485 20.545,321.180 19.500 C 320.875 18.455,320.485 17.600,320.313 17.600 C 320.141 17.600,320.000 17.060,320.000 16.400 C 320.000 15.740,319.820 15.200,319.600 15.200 C 319.380 15.200,319.200 14.838,319.200 14.395 C 319.200 13.617,319.058 13.231,318.062 11.305 C 317.808 10.813,317.600 10.138,317.600 9.805 C 317.600 9.472,317.420 9.200,317.200 9.200 C 316.980 9.200,316.800 9.560,316.800 10.000 M200.860 37.842 C 200.562 38.178,200.423 38.556,200.550 38.683 C 200.828 38.961,202.000 38.046,202.000 37.551 C 202.000 37.020,201.465 37.157,200.860 37.842 M198.000 40.000 C 197.230 40.659,196.452 41.199,196.271 41.199 C 195.898 41.200,194.800 42.224,194.800 42.571 C 194.800 43.115,195.872 42.732,196.400 42.000 C 196.717 41.560,197.207 41.200,197.488 41.200 C 197.770 41.200,198.000 41.020,198.000 40.800 C 198.000 40.580,198.193 40.400,198.429 40.400 C 198.878 40.400,200.000 39.421,200.000 39.029 C 200.000 38.533,199.338 38.855,198.000 40.000 M192.861 43.547 C 192.072 44.232,191.695 45.200,192.218 45.200 C 192.502 45.200,194.400 43.302,194.400 43.018 C 194.400 42.579,193.701 42.819,192.861 43.547 M189.600 46.000 C 188.830 46.659,188.063 47.199,187.896 47.199 C 187.729 47.200,187.028 47.740,186.337 48.400 C 184.740 49.926,185.371 49.967,187.209 48.457 C 187.974 47.828,188.960 47.193,189.400 47.047 C 190.213 46.775,191.902 44.799,191.319 44.801 C 191.143 44.801,190.370 45.341,189.600 46.000 M183.660 50.242 C 182.931 51.066,183.400 51.457,184.181 50.676 C 184.521 50.336,184.800 49.954,184.800 49.829 C 184.800 49.409,184.206 49.624,183.660 50.242 M180.800 52.400 C 180.030 53.059,179.215 53.599,178.988 53.599 C 178.762 53.600,178.317 53.960,178.000 54.400 C 177.683 54.840,177.233 55.200,177.000 55.200 C 176.767 55.200,176.317 55.560,176.000 56.000 C 175.683 56.440,175.227 56.800,174.987 56.800 C 174.747 56.800,174.185 57.141,173.738 57.557 C 173.291 57.974,172.402 58.589,171.762 58.924 C 171.123 59.258,170.240 59.862,169.800 60.266 C 169.360 60.670,168.505 61.255,167.900 61.568 C 167.295 61.880,166.800 62.263,166.800 62.419 C 166.800 62.575,166.260 62.927,165.600 63.200 C 164.940 63.473,164.400 63.813,164.400 63.954 C 164.400 64.095,163.680 64.656,162.800 65.200 C 161.920 65.744,161.200 66.326,161.200 66.494 C 161.200 66.662,160.970 66.800,160.688 66.800 C 160.407 66.800,159.917 67.160,159.600 67.600 C 159.283 68.040,158.743 68.400,158.400 68.400 C 158.057 68.400,157.517 68.760,157.200 69.200 C 156.883 69.640,156.343 70.000,156.000 70.000 C 155.657 70.000,155.117 70.360,154.800 70.800 C 154.483 71.240,153.943 71.600,153.600 71.600 C 153.257 71.600,152.717 71.960,152.400 72.400 C 152.083 72.840,151.543 73.200,151.200 73.200 C 150.857 73.200,150.317 73.560,150.000 74.000 C 149.683 74.440,149.118 74.800,148.745 74.800 C 148.372 74.800,148.007 74.938,147.933 75.106 C 147.762 75.499,142.864 78.400,142.371 78.400 C 142.167 78.400,142.000 78.558,142.000 78.751 C 142.000 78.945,141.460 79.327,140.800 79.600 C 140.140 79.873,139.600 80.255,139.600 80.449 C 139.600 80.642,139.255 80.800,138.833 80.800 C 138.412 80.800,138.007 80.935,137.933 81.100 C 137.766 81.476,135.636 82.775,134.700 83.071 C 133.951 83.309,133.732 84.000,134.405 84.000 C 134.801 84.000,136.402 83.198,136.800 82.800 C 136.910 82.690,138.080 82.067,139.400 81.415 C 140.720 80.763,141.890 80.120,142.000 79.985 C 142.110 79.851,143.010 79.304,144.000 78.770 C 144.990 78.237,145.860 77.665,145.933 77.500 C 146.007 77.335,146.322 77.200,146.633 77.200 C 146.945 77.200,147.200 77.020,147.200 76.800 C 147.200 76.580,147.470 76.400,147.800 76.400 C 148.130 76.400,148.400 76.220,148.400 76.000 C 148.400 75.780,148.670 75.600,149.000 75.600 C 149.330 75.600,149.600 75.441,149.600 75.247 C 149.600 75.052,149.915 74.793,150.300 74.671 C 151.141 74.405,153.171 73.189,153.902 72.514 C 154.192 72.247,154.963 71.713,155.615 71.328 C 156.267 70.943,156.800 70.486,156.800 70.314 C 156.800 70.141,157.036 70.000,157.325 70.000 C 157.613 70.000,158.236 69.640,158.708 69.200 C 159.180 68.760,159.754 68.400,159.983 68.400 C 160.212 68.400,160.400 68.220,160.400 68.000 C 160.400 67.780,160.670 67.600,161.000 67.600 C 161.330 67.600,161.600 67.462,161.600 67.294 C 161.600 67.126,162.320 66.544,163.200 66.000 C 164.080 65.456,164.800 64.874,164.800 64.706 C 164.800 64.538,164.992 64.400,165.227 64.400 C 165.461 64.400,166.243 63.950,166.964 63.400 C 167.686 62.850,168.395 62.400,168.541 62.400 C 168.688 62.400,169.372 61.860,170.063 61.200 C 170.754 60.540,171.522 60.000,171.771 60.000 C 172.020 60.000,172.483 59.640,172.800 59.200 C 173.117 58.760,173.580 58.400,173.829 58.400 C 174.078 58.400,174.846 57.860,175.537 57.200 C 176.228 56.540,176.974 56.000,177.196 56.000 C 177.418 56.000,177.600 55.820,177.600 55.600 C 177.600 55.380,177.830 55.200,178.112 55.200 C 178.393 55.200,178.883 54.840,179.200 54.400 C 179.517 53.960,179.962 53.600,180.188 53.600 C 180.657 53.599,182.800 51.838,182.800 51.453 C 182.800 50.933,182.160 51.236,180.800 52.400 M32.500 71.521 C 31.345 71.587,30.400 71.812,30.400 72.021 C 30.400 72.229,30.040 72.400,29.600 72.400 C 29.160 72.400,28.800 72.580,28.800 72.800 C 28.800 73.020,28.480 73.200,28.088 73.200 C 27.697 73.200,27.117 73.560,26.800 74.000 C 26.483 74.440,25.987 74.800,25.699 74.800 C 25.411 74.800,25.054 75.115,24.907 75.499 C 24.759 75.883,24.233 76.603,23.739 77.098 C 18.846 81.990,20.817 92.175,27.569 96.895 C 28.478 97.530,28.491 97.587,27.769 97.815 C 25.378 98.570,25.145 99.568,26.558 103.000 L 27.546 105.400 29.207 105.321 C 30.120 105.277,31.127 105.027,31.443 104.764 C 31.760 104.501,32.060 104.357,32.110 104.443 C 32.968 105.934,33.200 106.521,33.200 107.195 C 33.200 107.638,33.380 108.000,33.600 108.000 C 33.820 108.000,34.000 108.362,34.000 108.805 C 34.000 109.248,34.180 109.968,34.400 110.405 C 34.620 110.842,34.980 111.558,35.200 111.995 C 35.420 112.432,35.600 113.152,35.600 113.595 C 35.600 114.038,35.780 114.400,36.000 114.400 C 36.220 114.400,36.400 114.839,36.400 115.376 C 36.400 115.913,36.580 116.464,36.800 116.600 C 37.020 116.736,37.200 117.287,37.200 117.824 C 37.200 118.361,37.380 118.800,37.600 118.800 C 37.820 118.800,38.000 119.239,38.000 119.776 C 38.000 120.313,38.180 120.864,38.400 121.000 C 38.620 121.136,38.800 121.597,38.800 122.024 C 38.800 122.451,38.980 122.800,39.200 122.800 C 39.420 122.800,39.600 123.340,39.600 124.000 C 39.600 124.660,39.780 125.200,40.000 125.200 C 40.220 125.200,40.400 125.549,40.400 125.976 C 40.400 126.403,40.580 126.864,40.800 127.000 C 41.020 127.136,41.200 127.687,41.200 128.224 C 41.200 128.761,41.380 129.200,41.600 129.200 C 41.820 129.200,42.000 129.740,42.000 130.400 C 42.000 131.060,42.180 131.600,42.400 131.600 C 42.620 131.600,42.800 131.956,42.800 132.392 C 42.800 133.103,43.481 135.213,44.417 137.400 C 44.605 137.840,45.173 139.460,45.679 141.000 C 46.185 142.540,46.734 143.860,46.899 143.933 C 47.065 144.007,47.200 144.466,47.200 144.953 C 47.200 145.441,47.343 146.011,47.518 146.220 C 47.693 146.429,48.065 147.320,48.345 148.200 C 48.876 149.874,49.450 151.322,50.047 152.495 C 50.241 152.877,50.400 153.552,50.400 153.995 C 50.400 154.438,50.580 154.800,50.800 154.800 C 51.020 154.800,51.200 155.162,51.200 155.605 C 51.200 156.048,51.408 156.813,51.662 157.305 C 52.658 159.231,52.800 159.617,52.800 160.395 C 52.800 160.838,52.980 161.200,53.200 161.200 C 53.420 161.200,53.600 161.740,53.600 162.400 C 53.600 163.060,53.780 163.600,54.000 163.600 C 54.220 163.600,54.400 164.050,54.400 164.600 C 54.400 165.150,54.580 165.600,54.800 165.600 C 55.020 165.600,55.200 165.962,55.200 166.405 C 55.200 166.848,55.408 167.613,55.662 168.105 C 56.658 170.031,56.800 170.417,56.800 171.195 C 56.800 171.638,56.980 172.000,57.200 172.000 C 57.420 172.000,57.600 172.362,57.600 172.805 C 57.600 173.248,57.771 173.923,57.981 174.305 C 58.333 174.947,60.039 179.718,61.448 184.000 C 61.774 184.990,62.199 186.160,62.394 186.600 C 62.588 187.040,62.976 188.120,63.255 189.000 C 63.535 189.880,63.907 190.771,64.082 190.980 C 64.257 191.189,64.400 191.686,64.400 192.085 C 64.400 192.484,64.559 193.123,64.753 193.505 C 64.948 193.887,65.329 194.740,65.600 195.400 C 65.871 196.060,66.252 196.913,66.447 197.295 C 66.641 197.677,66.800 198.341,66.800 198.771 C 66.800 199.201,66.980 199.664,67.200 199.800 C 67.420 199.936,67.600 200.476,67.600 201.000 C 67.600 201.524,67.744 202.042,67.921 202.151 C 68.097 202.260,68.490 203.261,68.793 204.375 C 69.096 205.489,69.492 206.400,69.672 206.400 C 69.853 206.400,70.000 206.762,70.000 207.205 C 70.000 207.648,70.180 208.368,70.400 208.805 C 70.620 209.242,70.980 209.958,71.200 210.395 C 71.420 210.832,71.600 211.464,71.600 211.800 C 71.600 212.136,71.808 212.813,72.062 213.305 C 73.058 215.231,73.200 215.617,73.200 216.395 C 73.200 216.838,73.380 217.200,73.600 217.200 C 73.820 217.200,74.000 217.639,74.000 218.176 C 74.000 218.713,74.180 219.264,74.400 219.400 C 74.620 219.536,74.800 220.076,74.800 220.600 C 74.800 221.124,74.980 221.664,75.200 221.800 C 75.420 221.936,75.600 222.399,75.600 222.829 C 75.600 223.259,75.773 223.923,75.985 224.305 C 76.196 224.687,77.016 226.890,77.807 229.200 C 78.598 231.510,79.397 233.760,79.582 234.200 C 79.768 234.640,80.136 235.630,80.400 236.400 C 80.982 238.093,81.571 239.560,82.047 240.495 C 82.241 240.877,82.400 241.516,82.400 241.915 C 82.400 242.314,82.543 242.811,82.718 243.020 C 82.893 243.229,83.265 244.120,83.545 245.000 C 83.824 245.880,84.221 247.005,84.426 247.500 C 84.632 247.995,85.001 248.895,85.247 249.500 C 85.492 250.105,85.852 250.913,86.047 251.295 C 86.241 251.677,86.400 252.341,86.400 252.771 C 86.400 253.201,86.580 253.664,86.800 253.800 C 87.020 253.936,87.200 254.397,87.200 254.824 C 87.200 255.251,87.380 255.600,87.600 255.600 C 87.820 255.600,88.000 256.140,88.000 256.800 C 88.000 257.460,88.180 258.000,88.400 258.000 C 88.620 258.000,88.800 258.362,88.800 258.805 C 88.800 259.248,88.980 259.968,89.200 260.405 C 89.420 260.842,89.780 261.558,90.000 261.995 C 90.220 262.432,90.400 263.152,90.400 263.595 C 90.400 264.038,90.580 264.400,90.800 264.400 C 91.020 264.400,91.200 264.839,91.200 265.376 C 91.200 265.913,91.380 266.464,91.600 266.600 C 91.820 266.736,92.000 267.199,92.000 267.629 C 92.000 268.059,92.168 268.723,92.374 269.105 C 92.580 269.487,93.222 271.240,93.800 273.000 C 94.379 274.760,95.020 276.605,95.226 277.100 C 95.961 278.870,96.326 279.820,96.800 281.200 C 97.382 282.893,97.971 284.360,98.447 285.295 C 98.641 285.677,98.800 286.264,98.800 286.600 C 98.800 286.936,98.959 287.523,99.153 287.905 C 99.348 288.287,99.729 289.140,100.000 289.800 C 100.271 290.460,100.652 291.313,100.847 291.695 C 101.041 292.077,101.200 292.752,101.200 293.195 C 101.200 293.638,101.380 294.000,101.600 294.000 C 101.820 294.000,102.000 294.439,102.000 294.976 C 102.000 295.513,102.180 296.064,102.400 296.200 C 102.620 296.336,102.800 296.887,102.800 297.424 C 102.800 297.961,102.980 298.400,103.200 298.400 C 103.420 298.400,103.600 298.762,103.600 299.205 C 103.600 299.648,103.780 300.368,104.000 300.805 C 104.220 301.242,104.580 301.958,104.800 302.395 C 105.020 302.832,105.200 303.552,105.200 303.995 C 105.200 304.438,105.380 304.800,105.600 304.800 C 105.820 304.800,106.000 305.162,106.000 305.605 C 106.000 306.048,106.180 306.768,106.400 307.205 C 106.620 307.642,106.980 308.358,107.200 308.795 C 107.420 309.232,107.600 309.952,107.600 310.395 C 107.600 310.838,107.780 311.200,108.000 311.200 C 108.220 311.200,108.400 311.740,108.400 312.400 C 108.400 313.060,108.560 313.600,108.755 313.600 C 108.950 313.600,109.198 314.095,109.307 314.700 C 109.489 315.706,112.392 324.318,113.185 326.200 C 113.370 326.640,113.917 328.080,114.400 329.400 C 114.883 330.720,115.429 332.160,115.613 332.600 C 115.797 333.040,116.176 334.120,116.455 335.000 C 116.735 335.880,117.107 336.771,117.282 336.980 C 117.457 337.189,117.600 337.686,117.600 338.085 C 117.600 338.484,117.808 339.213,118.062 339.705 C 119.034 341.584,119.200 342.007,119.200 342.600 C 119.200 343.193,119.366 343.616,120.338 345.495 C 120.592 345.987,120.800 346.741,120.800 347.171 C 120.800 347.601,120.980 348.064,121.200 348.200 C 121.420 348.336,121.600 348.797,121.600 349.224 C 121.600 349.651,121.780 350.000,122.000 350.000 C 122.220 350.000,122.400 350.540,122.400 351.200 C 122.400 351.860,122.580 352.400,122.800 352.400 C 123.020 352.400,123.200 352.839,123.200 353.376 C 123.200 353.913,123.380 354.464,123.600 354.600 C 123.820 354.736,124.000 355.276,124.000 355.800 C 124.000 356.324,124.180 356.864,124.400 357.000 C 124.620 357.136,124.800 357.597,124.800 358.024 C 124.800 358.451,124.980 358.800,125.200 358.800 C 125.420 358.800,125.600 359.220,125.600 359.733 C 125.600 360.247,125.706 360.773,125.836 360.902 C 125.965 361.032,126.777 363.267,127.640 365.869 C 128.503 368.471,129.369 370.960,129.564 371.400 C 129.760 371.840,130.136 372.830,130.400 373.600 C 130.664 374.370,131.024 375.360,131.200 375.800 C 131.376 376.240,131.736 377.230,132.000 378.000 C 132.582 379.693,133.171 381.160,133.647 382.095 C 133.841 382.477,134.000 383.064,134.000 383.400 C 134.000 383.736,134.180 384.368,134.400 384.805 C 134.620 385.242,134.980 385.958,135.200 386.395 C 135.420 386.832,135.600 387.552,135.600 387.995 C 135.600 388.438,135.780 388.800,136.000 388.800 C 136.220 388.800,136.400 389.250,136.400 389.800 C 136.400 390.350,136.580 390.800,136.800 390.800 C 137.020 390.800,137.200 391.340,137.200 392.000 C 137.200 392.660,137.380 393.200,137.600 393.200 C 137.820 393.200,138.000 393.549,138.000 393.976 C 138.000 394.403,138.180 394.864,138.400 395.000 C 138.620 395.136,138.800 395.687,138.800 396.224 L 138.800 397.200 148.447 397.200 C 157.446 397.200,158.079 397.153,157.887 396.500 C 157.591 395.492,155.208 388.747,154.814 387.800 C 154.631 387.360,154.264 386.370,154.000 385.600 C 153.188 383.236,152.204 380.785,151.553 379.505 C 151.359 379.123,151.200 378.448,151.200 378.005 C 151.200 377.562,151.020 377.200,150.800 377.200 C 150.580 377.200,150.400 376.761,150.400 376.224 C 150.400 375.687,150.220 375.136,150.000 375.000 C 149.780 374.864,149.600 374.401,149.600 373.971 C 149.600 373.541,149.420 372.832,149.200 372.395 C 148.980 371.958,148.620 371.242,148.400 370.805 C 148.180 370.368,148.000 369.648,148.000 369.205 C 148.000 368.762,147.820 368.400,147.600 368.400 C 147.380 368.400,147.200 368.038,147.200 367.595 C 147.200 367.152,147.020 366.432,146.800 365.995 C 146.580 365.558,146.220 364.842,146.000 364.405 C 145.780 363.968,145.600 363.259,145.600 362.829 C 145.600 362.399,145.420 361.936,145.200 361.800 C 144.980 361.664,144.800 361.203,144.800 360.776 C 144.800 360.349,144.620 360.000,144.400 360.000 C 144.180 360.000,144.000 359.460,144.000 358.800 C 144.000 358.140,143.820 357.600,143.600 357.600 C 143.380 357.600,143.200 357.251,143.200 356.824 C 143.200 356.397,143.020 355.936,142.800 355.800 C 142.580 355.664,142.400 355.124,142.400 354.600 C 142.400 354.076,142.220 353.536,142.000 353.400 C 141.780 353.264,141.600 352.801,141.600 352.371 C 141.600 351.941,141.424 351.277,141.209 350.895 C 140.995 350.513,139.995 347.770,138.989 344.800 C 137.982 341.830,136.881 338.680,136.541 337.800 C 136.202 336.920,135.654 335.390,135.323 334.400 C 134.992 333.410,134.559 332.429,134.361 332.220 C 134.162 332.011,134.000 331.514,134.000 331.115 C 134.000 330.716,133.820 330.032,133.600 329.595 C 133.380 329.158,133.020 328.442,132.800 328.005 C 132.580 327.568,132.400 326.859,132.400 326.429 C 132.400 325.999,132.220 325.536,132.000 325.400 C 131.780 325.264,131.600 324.801,131.600 324.371 C 131.600 323.941,131.420 323.232,131.200 322.795 C 130.980 322.358,130.620 321.642,130.400 321.205 C 130.180 320.768,130.000 320.136,130.000 319.800 C 130.000 319.464,129.820 318.832,129.600 318.395 C 129.380 317.958,129.020 317.242,128.800 316.805 C 128.580 316.368,128.400 315.659,128.400 315.229 C 128.400 314.799,128.220 314.336,128.000 314.200 C 127.780 314.064,127.600 313.603,127.600 313.176 C 127.600 312.749,127.420 312.400,127.200 312.400 C 126.980 312.400,126.800 311.860,126.800 311.200 C 126.800 310.540,126.620 310.000,126.400 310.000 C 126.180 310.000,126.000 309.728,126.000 309.395 C 126.000 309.062,125.832 308.477,125.627 308.095 C 125.421 307.713,125.022 306.545,124.739 305.500 C 124.457 304.455,124.105 303.600,123.958 303.600 C 123.811 303.600,123.604 303.105,123.499 302.500 C 123.192 300.745,119.791 291.146,118.753 289.105 C 118.559 288.723,118.400 288.136,118.400 287.800 C 118.400 287.464,118.220 286.832,118.000 286.395 C 117.780 285.958,117.420 285.242,117.200 284.805 C 116.980 284.368,116.800 283.659,116.800 283.229 C 116.800 282.799,116.620 282.336,116.400 282.200 C 116.180 282.064,116.000 281.603,116.000 281.176 C 116.000 280.749,115.820 280.400,115.600 280.400 C 115.380 280.400,115.200 279.860,115.200 279.200 C 115.200 278.540,115.041 278.000,114.847 278.000 C 114.652 278.000,114.407 277.550,114.302 277.000 C 114.100 275.943,116.795 275.421,117.400 276.400 C 117.536 276.620,118.976 276.800,120.600 276.800 C 122.224 276.800,123.664 276.980,123.800 277.200 C 124.136 277.744,145.464 277.744,145.800 277.200 C 145.936 276.980,147.376 276.800,149.000 276.800 C 150.624 276.800,152.064 276.620,152.200 276.400 C 152.336 276.180,153.337 276.000,154.424 276.000 C 155.511 276.000,156.400 275.820,156.400 275.600 C 156.400 275.380,157.165 275.198,158.100 275.195 C 159.596 275.191,163.227 274.406,167.600 273.139 C 168.370 272.917,169.497 272.638,170.105 272.521 C 170.713 272.404,171.308 272.149,171.429 271.954 C 171.549 271.759,172.087 271.600,172.624 271.600 C 173.161 271.600,173.600 271.420,173.600 271.200 C 173.600 270.980,174.140 270.800,174.800 270.800 C 175.460 270.800,176.000 270.653,176.000 270.472 C 176.000 270.292,176.900 269.900,178.000 269.600 C 179.100 269.300,180.000 268.908,180.000 268.728 C 180.000 268.547,180.349 268.400,180.776 268.400 C 181.203 268.400,181.664 268.220,181.800 268.000 C 181.936 267.780,182.487 267.600,183.024 267.600 C 183.561 267.600,184.000 267.420,184.000 267.200 C 184.000 266.980,184.360 266.800,184.800 266.800 C 185.240 266.800,185.600 266.620,185.600 266.400 C 185.600 266.180,185.960 266.000,186.400 266.000 C 186.840 266.000,187.200 265.820,187.200 265.600 C 187.200 265.380,187.560 265.200,188.000 265.200 C 188.440 265.200,188.800 265.020,188.800 264.800 C 188.800 264.580,189.065 264.400,189.389 264.400 C 189.713 264.400,190.748 263.942,191.689 263.382 C 192.630 262.823,193.715 262.262,194.100 262.136 C 194.956 261.856,195.026 261.200,194.200 261.200 C 193.870 261.200,193.600 261.380,193.600 261.600 C 193.600 261.820,193.240 262.000,192.800 262.000 C 192.360 262.000,191.999 262.135,191.997 262.300 C 191.993 262.659,190.056 263.600,189.320 263.600 C 189.034 263.600,188.800 263.780,188.800 264.000 C 188.800 264.220,188.440 264.400,188.000 264.400 C 187.560 264.400,187.200 264.580,187.200 264.800 C 187.200 265.020,186.928 265.200,186.595 265.200 C 186.262 265.200,185.677 265.360,185.295 265.556 C 184.420 266.005,180.862 267.598,179.800 268.017 C 179.360 268.190,176.930 269.001,174.400 269.819 C 171.870 270.637,169.440 271.437,169.000 271.598 C 166.887 272.368,165.267 272.800,164.495 272.800 C 164.029 272.800,163.536 272.980,163.400 273.200 C 163.264 273.420,162.454 273.600,161.600 273.600 C 160.746 273.600,159.936 273.780,159.800 274.000 C 159.664 274.220,158.854 274.400,158.000 274.400 C 157.146 274.400,156.336 274.580,156.200 274.800 C 156.064 275.020,154.984 275.200,153.800 275.200 C 152.616 275.200,151.536 275.380,151.400 275.600 C 151.264 275.820,149.633 276.000,147.776 276.000 C 145.792 276.000,144.400 276.165,144.400 276.400 C 144.400 276.655,141.008 276.800,135.024 276.800 C 129.204 276.800,125.553 276.648,125.400 276.400 C 125.264 276.180,123.633 276.000,121.776 276.000 C 119.792 276.000,118.400 275.835,118.400 275.600 C 118.400 275.380,117.394 275.200,116.164 275.200 C 113.941 275.200,112.454 274.309,112.413 272.953 C 112.406 272.708,112.057 271.628,111.638 270.553 C 110.600 267.894,109.587 265.134,107.398 259.000 C 106.377 256.140,105.393 253.440,105.211 253.000 C 105.030 252.560,104.664 251.570,104.400 250.800 C 104.136 250.030,103.782 249.040,103.613 248.600 C 103.445 248.160,102.907 246.720,102.419 245.400 C 101.930 244.080,101.384 242.640,101.205 242.200 C 101.027 241.760,100.664 240.770,100.400 240.000 C 100.136 239.230,99.775 238.240,99.599 237.800 C 99.422 237.360,98.900 235.965,98.439 234.700 C 97.978 233.435,97.252 231.455,96.827 230.300 C 93.427 221.065,92.400 218.043,92.400 217.281 C 92.400 216.796,92.249 216.400,92.064 216.400 C 91.879 216.400,91.487 215.635,91.192 214.700 C 90.897 213.765,90.546 212.820,90.411 212.600 C 90.277 212.380,89.937 211.480,89.657 210.600 C 89.123 208.923,88.548 207.474,87.953 206.305 C 87.759 205.923,87.600 205.336,87.600 205.000 C 87.600 204.664,87.430 204.077,87.221 203.695 C 86.803 202.928,82.400 190.954,82.400 190.583 C 82.400 190.455,81.974 189.417,81.454 188.275 C 80.578 186.355,80.170 185.311,78.025 179.500 C 76.554 175.515,70.907 159.794,70.086 157.400 C 69.156 154.684,64.289 141.144,62.395 136.000 C 61.707 134.130,60.814 131.610,60.410 130.400 C 60.007 129.190,58.479 124.960,57.015 121.000 C 55.550 117.040,54.084 112.990,53.756 112.000 C 53.428 111.010,53.006 109.840,52.819 109.400 C 52.631 108.960,52.118 107.610,51.677 106.400 C 51.236 105.190,50.736 103.840,50.565 103.400 C 49.756 101.320,49.331 98.000,49.874 98.000 C 50.169 98.000,50.723 97.833,51.105 97.629 C 51.487 97.425,52.119 97.159,52.509 97.038 C 53.890 96.610,53.856 95.659,52.353 92.705 C 52.159 92.323,52.000 91.726,52.000 91.377 C 52.000 90.068,50.010 89.014,49.400 90.000 C 49.264 90.220,48.893 90.400,48.576 90.400 C 47.911 90.400,47.761 88.195,48.400 87.800 C 48.620 87.664,48.800 86.404,48.800 85.000 C 48.800 83.596,48.620 82.336,48.400 82.200 C 48.180 82.064,48.000 81.423,48.000 80.776 C 48.000 80.129,47.820 79.600,47.600 79.600 C 47.380 79.600,47.200 79.240,47.200 78.800 C 47.200 78.360,47.020 78.000,46.800 78.000 C 46.580 78.000,46.400 77.730,46.400 77.400 C 46.400 77.070,46.250 76.800,46.068 76.800 C 45.885 76.800,45.494 76.350,45.200 75.800 C 44.906 75.250,44.459 74.800,44.208 74.800 C 43.956 74.800,43.401 74.485,42.973 74.100 C 40.626 71.987,37.552 71.230,32.500 71.521 M342.400 80.400 C 342.400 80.840,342.580 81.200,342.800 81.200 C 343.020 81.200,343.200 80.840,343.200 80.400 C 343.200 79.960,343.020 79.600,342.800 79.600 C 342.580 79.600,342.400 79.960,342.400 80.400 M343.200 82.376 C 343.200 82.829,343.380 83.200,343.600 83.200 C 343.820 83.200,344.000 82.941,344.000 82.624 C 344.000 82.307,343.820 81.936,343.600 81.800 C 343.380 81.664,343.200 81.923,343.200 82.376 M344.000 84.576 C 344.000 85.139,344.180 85.600,344.400 85.600 C 344.620 85.600,344.800 85.251,344.800 84.824 C 344.800 84.397,344.620 83.936,344.400 83.800 C 344.173 83.660,344.000 83.996,344.000 84.576 M132.400 84.400 C 132.400 84.620,132.040 84.800,131.600 84.800 C 131.160 84.800,130.800 84.980,130.800 85.200 C 130.800 85.420,130.440 85.600,130.000 85.600 C 129.560 85.600,129.200 85.746,129.200 85.925 C 129.200 86.104,128.570 86.498,127.800 86.800 C 127.030 87.102,126.400 87.496,126.400 87.675 C 126.400 87.854,126.040 88.000,125.600 88.000 C 125.160 88.000,124.800 88.180,124.800 88.400 C 124.800 88.620,124.440 88.800,124.000 88.800 C 123.560 88.800,123.200 88.980,123.200 89.200 C 123.200 89.420,122.840 89.600,122.400 89.600 C 121.960 89.600,121.600 89.780,121.600 90.000 C 121.600 90.220,121.960 90.400,122.400 90.400 C 122.840 90.400,123.200 90.220,123.200 90.000 C 123.200 89.780,123.560 89.600,124.000 89.600 C 124.440 89.600,124.800 89.420,124.800 89.200 C 124.800 88.980,125.160 88.800,125.600 88.800 C 126.040 88.800,126.400 88.620,126.400 88.400 C 126.400 88.180,126.760 88.000,127.200 88.000 C 127.640 88.000,128.000 87.820,128.000 87.600 C 128.000 87.380,128.360 87.200,128.800 87.200 C 129.240 87.200,129.600 87.020,129.600 86.800 C 129.600 86.580,129.960 86.400,130.400 86.400 C 130.840 86.400,131.200 86.220,131.200 86.000 C 131.200 85.780,131.470 85.600,131.800 85.600 C 132.130 85.600,132.400 85.420,132.400 85.200 C 132.400 84.980,132.771 84.800,133.224 84.800 C 133.677 84.800,133.936 84.620,133.800 84.400 C 133.664 84.180,133.293 84.000,132.976 84.000 C 132.659 84.000,132.400 84.180,132.400 84.400 M344.800 86.976 C 344.800 87.539,344.980 88.000,345.200 88.000 C 345.420 88.000,345.600 87.651,345.600 87.224 C 345.600 86.797,345.420 86.336,345.200 86.200 C 344.973 86.060,344.800 86.396,344.800 86.976 M120.000 90.800 C 120.000 91.020,120.270 91.200,120.600 91.200 C 120.930 91.200,121.200 91.020,121.200 90.800 C 121.200 90.580,120.930 90.400,120.600 90.400 C 120.270 90.400,120.000 90.580,120.000 90.800 M346.400 91.576 C 346.400 92.249,346.580 92.800,346.800 92.800 C 347.020 92.800,347.200 93.160,347.200 93.600 C 347.200 94.040,347.380 94.400,347.600 94.400 C 347.820 94.400,348.000 94.141,348.000 93.824 C 348.000 93.507,347.820 93.136,347.600 93.000 C 347.380 92.864,347.200 92.324,347.200 91.800 C 347.200 91.276,347.020 90.736,346.800 90.600 C 346.567 90.456,346.400 90.863,346.400 91.576 M117.800 91.600 C 117.664 91.820,117.203 92.000,116.776 92.000 C 116.349 92.000,116.000 92.180,116.000 92.400 C 116.000 92.620,116.360 92.800,116.800 92.800 C 117.240 92.800,117.600 92.620,117.600 92.400 C 117.600 92.180,118.050 92.000,118.600 92.000 C 119.150 92.000,119.600 91.820,119.600 91.600 C 119.600 91.380,119.251 91.200,118.824 91.200 C 118.397 91.200,117.936 91.380,117.800 91.600 M114.667 92.667 C 114.206 93.127,114.375 93.600,115.000 93.600 C 115.330 93.600,115.600 93.330,115.600 93.000 C 115.600 92.375,115.127 92.206,114.667 92.667 M112.226 93.558 C 112.104 93.755,112.256 94.013,112.563 94.131 C 113.150 94.356,113.600 94.096,113.600 93.533 C 113.600 93.087,112.505 93.106,112.226 93.558 M110.200 94.400 C 110.064 94.620,110.039 94.800,110.144 94.800 C 110.249 94.800,110.619 94.909,110.967 95.043 C 111.382 95.202,111.600 95.065,111.600 94.643 C 111.600 93.937,110.594 93.763,110.200 94.400 M108.066 95.151 C 107.658 95.409,107.723 95.539,108.340 95.700 C 108.822 95.826,109.234 95.687,109.362 95.356 C 109.598 94.739,108.892 94.627,108.066 95.151 M348.000 96.000 C 348.000 96.440,348.180 96.800,348.400 96.800 C 348.620 96.800,348.800 96.440,348.800 96.000 C 348.800 95.560,348.620 95.200,348.400 95.200 C 348.180 95.200,348.000 95.560,348.000 96.000 M105.600 96.000 C 105.132 96.302,105.243 96.389,106.100 96.394 C 106.705 96.397,107.200 96.220,107.200 96.000 C 107.200 95.494,106.383 95.494,105.600 96.000 M102.800 96.800 C 102.800 97.020,103.160 97.200,103.600 97.200 C 104.040 97.200,104.400 97.020,104.400 96.800 C 104.400 96.580,104.040 96.400,103.600 96.400 C 103.160 96.400,102.800 96.580,102.800 96.800 M100.200 97.600 C 100.059 97.828,100.404 98.000,101.000 98.000 C 101.596 98.000,101.941 97.828,101.800 97.600 C 101.664 97.380,101.304 97.200,101.000 97.200 C 100.696 97.200,100.336 97.380,100.200 97.600 M348.800 98.000 C 348.800 98.440,348.980 98.800,349.200 98.800 C 349.420 98.800,349.600 98.440,349.600 98.000 C 349.600 97.560,349.420 97.200,349.200 97.200 C 348.980 97.200,348.800 97.560,348.800 98.000 M97.200 98.400 C 97.200 98.620,97.650 98.800,98.200 98.800 C 98.750 98.800,99.200 98.620,99.200 98.400 C 99.200 98.180,98.750 98.000,98.200 98.000 C 97.650 98.000,97.200 98.180,97.200 98.400 M93.600 99.200 C 93.600 99.420,94.050 99.600,94.600 99.600 C 95.150 99.600,95.600 99.420,95.600 99.200 C 95.600 98.980,95.150 98.800,94.600 98.800 C 94.050 98.800,93.600 98.980,93.600 99.200 M50.000 100.000 C 50.000 100.220,50.630 100.400,51.400 100.400 C 52.170 100.400,52.800 100.220,52.800 100.000 C 52.800 99.780,52.170 99.600,51.400 99.600 C 50.630 99.600,50.000 99.780,50.000 100.000 M89.400 100.000 C 89.253 100.238,89.729 100.400,90.576 100.400 C 91.359 100.400,92.000 100.220,92.000 100.000 C 92.000 99.780,91.471 99.600,90.824 99.600 C 90.177 99.600,89.536 99.780,89.400 100.000 M349.600 100.200 C 349.600 100.530,349.780 100.800,350.000 100.800 C 350.220 100.800,350.400 100.530,350.400 100.200 C 350.400 99.870,350.220 99.600,350.000 99.600 C 349.780 99.600,349.600 99.870,349.600 100.200 M55.200 100.800 C 55.200 101.020,56.021 101.200,57.024 101.200 C 58.137 101.200,58.751 101.044,58.600 100.800 C 58.464 100.580,57.643 100.400,56.776 100.400 C 55.909 100.400,55.200 100.580,55.200 100.800 M83.800 100.800 C 83.649 101.044,84.263 101.200,85.376 101.200 C 86.379 101.200,87.200 101.020,87.200 100.800 C 87.200 100.580,86.491 100.400,85.624 100.400 C 84.757 100.400,83.936 100.580,83.800 100.800 M62.200 101.600 C 62.353 101.847,65.804 102.000,71.224 102.000 C 76.808 102.000,80.000 101.855,80.000 101.600 C 80.000 101.345,76.725 101.200,70.976 101.200 C 65.063 101.200,62.038 101.338,62.200 101.600 M350.400 102.400 C 350.400 103.147,350.507 103.253,350.880 102.880 C 351.253 102.507,351.253 102.293,350.880 101.920 C 350.507 101.547,350.400 101.653,350.400 102.400 M351.200 104.400 C 351.200 104.840,351.380 105.200,351.600 105.200 C 351.820 105.200,352.000 104.840,352.000 104.400 C 352.000 103.960,351.820 103.600,351.600 103.600 C 351.380 103.600,351.200 103.960,351.200 104.400 M352.000 106.800 C 352.000 107.240,352.180 107.600,352.400 107.600 C 352.620 107.600,352.800 107.240,352.800 106.800 C 352.800 106.360,352.620 106.000,352.400 106.000 C 352.180 106.000,352.000 106.360,352.000 106.800 M352.800 108.776 C 352.800 109.229,352.980 109.600,353.200 109.600 C 353.420 109.600,353.600 109.341,353.600 109.024 C 353.600 108.707,353.420 108.336,353.200 108.200 C 352.980 108.064,352.800 108.323,352.800 108.776 M353.600 110.776 C 353.600 111.229,353.780 111.600,354.000 111.600 C 354.220 111.600,354.400 111.341,354.400 111.024 C 354.400 110.707,354.220 110.336,354.000 110.200 C 353.780 110.064,353.600 110.323,353.600 110.776 M354.400 112.976 C 354.400 113.539,354.580 114.000,354.800 114.000 C 355.020 114.000,355.200 113.651,355.200 113.224 C 355.200 112.797,355.020 112.336,354.800 112.200 C 354.573 112.060,354.400 112.396,354.400 112.976 M355.054 114.679 C 354.913 114.820,355.075 115.361,355.415 115.879 C 355.755 116.398,355.933 116.985,355.810 117.184 C 355.687 117.382,355.770 117.658,355.993 117.796 C 356.217 117.934,356.400 118.476,356.400 119.000 C 356.400 119.524,356.585 120.067,356.811 120.207 C 357.036 120.346,357.195 120.672,357.163 120.930 C 357.034 121.974,357.232 122.400,357.843 122.400 C 358.293 122.400,358.403 122.190,358.210 121.700 C 358.059 121.315,357.674 120.190,357.355 119.200 C 357.036 118.210,356.600 117.087,356.387 116.705 C 356.174 116.323,356.000 115.749,356.000 115.429 C 356.000 114.755,355.430 114.303,355.054 114.679 M358.000 123.600 C 358.000 124.040,358.180 124.400,358.400 124.400 C 358.620 124.400,358.800 124.040,358.800 123.600 C 358.800 123.160,358.620 122.800,358.400 122.800 C 358.180 122.800,358.000 123.160,358.000 123.600 M358.800 125.600 C 358.800 126.040,358.980 126.400,359.200 126.400 C 359.420 126.400,359.600 126.040,359.600 125.600 C 359.600 125.160,359.420 124.800,359.200 124.800 C 358.980 124.800,358.800 125.160,358.800 125.600 M359.600 127.776 C 359.600 128.339,359.780 128.800,360.000 128.800 C 360.220 128.800,360.400 129.250,360.400 129.800 C 360.400 130.350,360.580 130.800,360.800 130.800 C 361.020 130.800,361.200 131.340,361.200 132.000 C 361.200 132.660,361.380 133.200,361.600 133.200 C 361.820 133.200,362.000 133.650,362.000 134.200 C 362.000 134.750,362.180 135.200,362.400 135.200 C 362.620 135.200,362.800 134.750,362.800 134.200 C 362.800 133.650,362.620 133.200,362.400 133.200 C 362.180 133.200,362.000 132.838,362.000 132.395 C 362.000 131.952,361.792 131.187,361.538 130.695 C 360.571 128.825,360.400 128.394,360.400 127.829 C 360.400 127.509,360.220 127.136,360.000 127.000 C 359.773 126.860,359.600 127.196,359.600 127.776 M362.800 136.400 C 362.800 136.840,362.980 137.200,363.200 137.200 C 363.420 137.200,363.600 137.740,363.600 138.400 C 363.600 139.060,363.780 139.600,364.000 139.600 C 364.220 139.600,364.400 140.050,364.400 140.600 C 364.400 141.150,364.580 141.600,364.800 141.600 C 365.020 141.600,365.200 141.150,365.200 140.600 C 365.200 140.050,365.020 139.600,364.800 139.600 C 364.580 139.600,364.400 139.161,364.400 138.624 C 364.400 138.087,364.220 137.536,364.000 137.400 C 363.780 137.264,363.600 136.803,363.600 136.376 C 363.600 135.949,363.420 135.600,363.200 135.600 C 362.980 135.600,362.800 135.960,362.800 136.400 M365.200 142.800 C 365.200 143.240,365.380 143.600,365.600 143.600 C 365.820 143.600,366.000 143.240,366.000 142.800 C 366.000 142.360,365.820 142.000,365.600 142.000 C 365.380 142.000,365.200 142.360,365.200 142.800 M366.000 145.000 C 366.000 145.550,366.180 146.000,366.400 146.000 C 366.620 146.000,366.800 146.439,366.800 146.976 C 366.800 147.513,366.997 148.075,367.238 148.224 C 367.480 148.373,367.602 149.007,367.510 149.632 C 367.414 150.284,367.546 150.847,367.819 150.952 C 368.080 151.052,368.387 151.554,368.500 152.067 C 368.780 153.336,371.146 160.032,371.619 160.895 C 371.829 161.277,372.000 161.864,372.000 162.200 C 372.000 162.536,372.180 163.168,372.400 163.605 C 372.620 164.042,372.980 164.758,373.200 165.195 C 373.420 165.632,373.600 166.352,373.600 166.795 C 373.600 167.238,373.780 167.600,374.000 167.600 C 374.220 167.600,374.400 168.140,374.400 168.800 C 374.400 169.460,374.580 170.000,374.800 170.000 C 375.020 170.000,375.200 170.450,375.200 171.000 C 375.200 171.550,375.380 172.000,375.600 172.000 C 375.820 172.000,376.000 172.450,376.000 173.000 C 376.000 173.550,376.180 174.000,376.400 174.000 C 376.620 174.000,376.800 174.540,376.800 175.200 C 376.800 175.860,376.991 176.400,377.224 176.400 C 377.469 176.400,377.596 177.025,377.524 177.876 L 377.400 179.352 374.800 179.246 C 373.370 179.189,372.140 178.974,372.067 178.771 C 371.993 178.567,370.238 178.400,368.167 178.400 C 365.922 178.400,364.400 178.238,364.400 178.000 C 364.400 177.747,361.541 177.600,356.624 177.600 C 351.871 177.600,348.751 177.756,348.600 178.000 C 348.464 178.220,346.754 178.400,344.800 178.400 C 342.846 178.400,341.136 178.580,341.000 178.800 C 340.864 179.020,339.683 179.200,338.376 179.200 C 337.059 179.200,336.000 179.378,336.000 179.600 C 336.000 179.820,335.201 180.000,334.224 180.000 C 333.247 180.000,332.336 180.180,332.200 180.400 C 332.064 180.620,331.344 180.800,330.600 180.800 C 329.856 180.800,329.136 180.980,329.000 181.200 C 328.864 181.420,328.133 181.600,327.376 181.600 C 326.619 181.600,326.000 181.780,326.000 182.000 C 326.000 182.220,325.471 182.400,324.824 182.400 C 324.177 182.400,323.536 182.580,323.400 182.800 C 323.264 183.020,322.724 183.200,322.200 183.200 C 321.676 183.200,321.136 183.380,321.000 183.600 C 320.864 183.820,320.234 184.000,319.600 184.000 C 318.966 184.000,318.336 184.180,318.200 184.400 C 318.064 184.620,317.603 184.800,317.176 184.800 C 316.749 184.800,316.400 184.980,316.400 185.200 C 316.400 185.420,316.038 185.600,315.595 185.600 C 315.152 185.600,314.477 185.759,314.095 185.953 C 313.365 186.324,311.948 186.922,310.600 187.427 C 310.160 187.592,309.645 187.692,309.455 187.649 C 309.265 187.605,308.875 187.891,308.588 188.284 C 308.300 188.677,307.937 188.870,307.780 188.713 C 307.623 188.557,307.113 188.640,306.647 188.900 C 306.181 189.159,305.710 189.382,305.600 189.395 C 305.071 189.459,300.583 191.810,300.467 192.085 C 300.393 192.258,299.898 192.400,299.367 192.400 C 298.835 192.400,298.400 192.580,298.400 192.800 C 298.400 193.020,298.130 193.200,297.800 193.200 C 297.470 193.200,297.200 193.380,297.200 193.600 C 297.200 193.820,296.840 194.000,296.400 194.000 C 295.960 194.000,295.600 194.180,295.600 194.400 C 295.600 194.620,295.240 194.800,294.800 194.800 C 294.360 194.800,294.000 194.980,294.000 195.200 C 294.000 195.420,293.730 195.600,293.400 195.600 C 293.070 195.600,292.800 195.780,292.800 196.000 C 292.800 196.220,293.070 196.400,293.400 196.400 C 293.730 196.400,294.000 196.220,294.000 196.000 C 294.000 195.780,294.360 195.600,294.800 195.600 C 295.240 195.600,295.600 195.420,295.600 195.200 C 295.600 194.980,295.960 194.800,296.400 194.800 C 296.840 194.800,297.200 194.620,297.200 194.400 C 297.200 194.180,297.545 194.000,297.967 194.000 C 298.388 194.000,298.793 193.858,298.867 193.685 C 299.097 193.143,304.021 190.985,314.800 186.704 C 315.350 186.485,316.113 186.148,316.495 185.953 C 316.877 185.759,317.541 185.600,317.971 185.600 C 318.401 185.600,318.864 185.420,319.000 185.200 C 319.136 184.980,319.676 184.800,320.200 184.800 C 320.724 184.800,321.264 184.620,321.400 184.400 C 321.536 184.180,322.076 184.000,322.600 184.000 C 323.124 184.000,323.664 183.820,323.800 183.600 C 323.936 183.380,324.566 183.200,325.200 183.200 C 325.834 183.200,326.464 183.020,326.600 182.800 C 326.736 182.580,327.456 182.400,328.200 182.400 C 328.944 182.400,329.664 182.220,329.800 182.000 C 329.936 181.780,330.656 181.600,331.400 181.600 C 332.144 181.600,332.864 181.420,333.000 181.200 C 333.136 180.980,334.126 180.800,335.200 180.800 C 336.274 180.800,337.264 180.620,337.400 180.400 C 337.536 180.180,338.717 180.000,340.024 180.000 C 341.331 180.000,342.400 179.839,342.400 179.642 C 342.400 178.538,369.463 178.521,370.580 179.625 C 370.789 179.831,371.993 180.000,373.256 180.000 C 374.519 180.000,375.664 180.180,375.800 180.400 C 376.144 180.956,378.139 180.901,378.720 180.320 C 379.300 179.740,379.360 178.000,378.800 178.000 C 378.580 178.000,378.400 177.561,378.400 177.024 C 378.400 176.487,378.220 175.936,378.000 175.800 C 377.780 175.664,377.600 175.203,377.600 174.776 C 377.600 174.349,377.420 174.000,377.200 174.000 C 376.980 174.000,376.800 173.460,376.800 172.800 C 376.800 172.140,376.620 171.600,376.400 171.600 C 376.180 171.600,376.000 171.060,376.000 170.400 C 376.000 169.740,375.850 169.200,375.667 169.200 C 375.484 169.200,375.147 168.435,374.917 167.500 C 374.312 165.038,372.256 159.423,371.902 159.267 C 371.736 159.193,371.600 158.608,371.600 157.967 C 371.600 157.325,371.420 156.800,371.200 156.800 C 370.980 156.800,370.800 156.438,370.800 155.995 C 370.800 155.552,370.592 154.787,370.338 154.295 C 369.342 152.369,369.200 151.983,369.200 151.205 C 369.200 150.762,369.020 150.400,368.800 150.400 C 368.580 150.400,368.400 149.961,368.400 149.424 C 368.400 148.887,368.220 148.336,368.000 148.200 C 367.780 148.064,367.600 147.513,367.600 146.976 C 367.600 146.439,367.420 146.000,367.200 146.000 C 366.980 146.000,366.800 145.550,366.800 145.000 C 366.800 144.450,366.620 144.000,366.400 144.000 C 366.180 144.000,366.000 144.450,366.000 145.000 M290.900 196.944 C 290.405 197.189,290.000 197.527,290.000 197.695 C 290.000 197.863,289.640 198.000,289.200 198.000 C 288.760 198.000,288.400 198.180,288.400 198.400 C 288.400 198.620,288.130 198.800,287.800 198.800 C 287.470 198.800,287.200 198.980,287.200 199.200 C 287.200 199.420,286.930 199.600,286.600 199.600 C 286.270 199.600,286.000 199.780,286.000 200.000 C 286.000 200.220,286.270 200.400,286.600 200.400 C 286.930 200.400,287.200 200.220,287.200 200.000 C 287.200 199.780,287.393 199.600,287.628 199.600 C 287.863 199.600,288.841 199.060,289.800 198.400 C 290.759 197.740,291.737 197.200,291.972 197.200 C 292.207 197.200,292.400 197.020,292.400 196.800 C 292.400 196.322,292.097 196.351,290.900 196.944 M284.100 200.944 C 283.605 201.189,283.200 201.527,283.200 201.695 C 283.200 201.863,282.930 202.000,282.600 202.000 C 282.270 202.000,282.000 202.180,282.000 202.400 C 282.000 202.620,281.764 202.800,281.475 202.800 C 281.187 202.800,280.576 203.149,280.118 203.576 C 279.660 204.003,279.188 204.255,279.069 204.136 C 278.950 204.017,278.447 204.298,277.951 204.760 C 277.455 205.222,276.813 205.600,276.525 205.600 C 276.236 205.600,276.000 205.780,276.000 206.000 C 276.000 206.220,275.730 206.400,275.400 206.400 C 275.070 206.400,274.800 206.580,274.800 206.800 C 274.800 207.020,274.612 207.200,274.383 207.200 C 274.154 207.200,273.580 207.560,273.108 208.000 C 272.636 208.440,272.013 208.800,271.725 208.800 C 271.436 208.800,271.200 208.980,271.200 209.200 C 271.200 209.420,270.930 209.600,270.600 209.600 C 270.270 209.600,270.000 209.780,270.000 210.000 C 270.000 210.220,269.730 210.400,269.400 210.400 C 269.070 210.400,268.800 210.580,268.800 210.800 C 268.800 211.020,268.622 211.200,268.405 211.200 C 268.033 211.200,266.985 211.960,265.784 213.100 C 265.494 213.375,265.064 213.600,264.829 213.600 C 264.593 213.600,264.400 213.780,264.400 214.000 C 264.400 214.220,264.164 214.400,263.875 214.400 C 263.587 214.400,263.002 214.722,262.575 215.116 C 262.149 215.509,260.000 217.070,257.800 218.583 C 255.600 220.097,253.710 221.452,253.600 221.594 C 253.490 221.736,252.500 222.460,251.400 223.203 C 250.300 223.946,249.340 224.699,249.267 224.877 C 249.193 225.055,248.878 225.200,248.567 225.200 C 248.255 225.200,248.000 225.341,248.000 225.514 C 248.000 225.686,247.505 226.121,246.900 226.479 C 246.295 226.837,245.260 227.596,244.600 228.165 C 243.940 228.734,243.257 229.199,243.082 229.200 C 242.907 229.200,242.314 229.650,241.764 230.200 C 241.214 230.750,240.600 231.200,240.400 231.200 C 240.200 231.200,239.586 231.650,239.036 232.200 C 238.486 232.750,237.882 233.200,237.694 233.200 C 237.505 233.200,237.002 233.522,236.575 233.915 C 236.149 234.308,234.540 235.519,233.000 236.606 C 231.460 237.693,229.962 238.812,229.671 239.091 C 229.381 239.371,229.004 239.600,228.834 239.600 C 228.664 239.600,228.001 240.050,227.362 240.600 C 226.723 241.149,226.015 241.599,225.788 241.600 C 225.562 241.600,225.117 241.960,224.800 242.400 C 224.483 242.840,223.943 243.200,223.600 243.200 C 223.257 243.200,222.717 243.560,222.400 244.000 C 222.083 244.440,221.593 244.800,221.312 244.800 C 221.030 244.800,220.800 244.980,220.800 245.200 C 220.800 245.420,220.530 245.600,220.200 245.600 C 219.870 245.600,219.600 245.780,219.600 246.000 C 219.600 246.220,219.330 246.400,219.000 246.400 C 218.670 246.400,218.400 246.580,218.400 246.800 C 218.400 247.020,218.207 247.200,217.971 247.200 C 217.522 247.200,216.400 248.179,216.400 248.571 C 216.400 249.115,217.472 248.732,218.000 248.000 C 218.317 247.560,218.831 247.200,219.141 247.200 C 219.452 247.200,219.997 246.884,220.353 246.497 C 220.709 246.111,221.507 245.534,222.126 245.216 C 222.745 244.898,223.779 244.134,224.422 243.519 C 225.066 242.903,225.782 242.400,226.013 242.400 C 226.245 242.400,226.651 242.219,226.917 241.998 C 227.183 241.777,228.660 240.755,230.200 239.728 C 231.740 238.700,233.060 237.711,233.133 237.530 C 233.207 237.348,233.495 237.200,233.774 237.200 C 234.053 237.200,234.806 236.705,235.448 236.100 C 236.089 235.495,237.106 234.745,237.707 234.432 C 238.308 234.120,238.800 233.715,238.800 233.532 C 238.800 233.350,238.998 233.200,239.240 233.200 C 239.481 233.200,240.183 232.660,240.800 232.000 C 241.417 231.340,242.120 230.800,242.364 230.800 C 242.608 230.800,243.372 230.260,244.063 229.600 C 244.754 228.940,245.522 228.400,245.771 228.400 C 246.020 228.400,246.483 228.040,246.800 227.600 C 247.117 227.160,247.573 226.800,247.813 226.800 C 248.053 226.800,248.598 226.481,249.025 226.090 C 249.451 225.700,250.655 224.845,251.699 224.190 C 252.744 223.536,253.599 222.865,253.599 222.700 C 253.600 222.535,253.791 222.400,254.023 222.400 C 254.487 222.400,257.415 220.216,258.447 219.100 C 258.803 218.715,259.253 218.400,259.447 218.399 C 259.641 218.399,260.430 217.859,261.200 217.200 C 261.970 216.541,262.785 216.001,263.012 216.001 C 263.238 216.000,263.683 215.640,264.000 215.200 C 264.317 214.760,264.857 214.400,265.200 214.400 C 265.543 214.400,266.083 214.040,266.400 213.600 C 266.717 213.160,267.207 212.800,267.488 212.800 C 267.770 212.800,268.000 212.620,268.000 212.400 C 268.000 212.180,268.270 212.000,268.600 212.000 C 268.930 212.000,269.200 211.850,269.200 211.668 C 269.200 211.485,269.695 211.080,270.300 210.768 C 270.905 210.456,271.490 210.096,271.600 209.968 C 271.920 209.595,277.533 206.000,277.795 206.000 C 277.926 206.000,278.420 205.640,278.892 205.200 C 279.364 204.760,279.987 204.400,280.275 204.400 C 280.564 204.400,280.800 204.242,280.800 204.049 C 280.800 203.855,281.340 203.473,282.000 203.200 C 282.660 202.927,283.200 202.589,283.200 202.449 C 283.200 202.310,283.740 201.956,284.400 201.664 C 285.060 201.372,285.600 200.968,285.600 200.766 C 285.600 200.322,285.279 200.360,284.100 200.944 M214.606 249.324 C 214.169 249.586,213.518 250.115,213.159 250.500 C 212.800 250.885,212.289 251.200,212.025 251.200 C 211.412 251.200,210.230 252.363,210.533 252.667 C 210.659 252.792,211.053 252.604,211.410 252.248 C 211.766 251.891,212.211 251.600,212.400 251.600 C 212.589 251.600,212.981 251.375,213.271 251.100 C 213.562 250.825,214.295 250.345,214.900 250.032 C 215.505 249.720,216.000 249.315,216.000 249.132 C 216.000 248.688,215.566 248.748,214.606 249.324 M208.260 253.596 C 207.852 254.007,207.267 254.247,206.960 254.129 C 206.623 254.000,206.400 254.171,206.400 254.557 C 206.400 255.331,206.552 255.348,207.685 254.700 C 209.162 253.855,210.229 252.797,209.575 252.824 C 209.259 252.837,208.667 253.184,208.260 253.596 M204.400 255.800 C 204.126 256.130,203.564 256.400,203.151 256.400 C 202.733 256.400,202.400 256.680,202.400 257.033 C 202.400 257.382,202.535 257.602,202.700 257.523 C 204.816 256.509,206.000 255.792,206.000 255.526 C 206.000 254.979,204.929 255.163,204.400 255.800 M200.500 257.744 C 200.005 257.989,199.600 258.327,199.600 258.495 C 199.600 258.663,199.240 258.800,198.800 258.800 C 198.360 258.800,198.000 258.946,198.000 259.125 C 198.000 259.304,197.370 259.698,196.600 260.000 C 195.160 260.565,194.737 261.200,195.800 261.200 C 196.130 261.200,196.400 261.020,196.400 260.800 C 196.400 260.580,196.760 260.400,197.200 260.400 C 197.640 260.400,198.000 260.220,198.000 260.000 C 198.000 259.780,198.360 259.600,198.800 259.600 C 199.240 259.600,199.600 259.443,199.600 259.250 C 199.600 259.058,200.140 258.792,200.800 258.660 C 201.504 258.519,202.000 258.168,202.000 257.810 C 202.000 257.120,201.779 257.111,200.500 257.744 " stroke="none" fill="#3b4344" fill-rule="evenodd"></path><path id="path5" d="M295.808 32.430 C 290.047 32.841,285.629 33.460,280.000 34.643 C 275.493 35.590,274.100 35.958,267.969 37.822 C 254.518 41.911,235.203 51.840,219.000 62.994 C 217.680 63.903,214.800 65.883,212.600 67.394 C 208.600 70.143,205.268 72.540,188.400 84.807 C 155.751 108.552,139.961 117.787,120.400 124.579 C 103.296 130.519,82.674 132.675,66.295 130.236 C 63.488 129.818,61.084 129.582,60.955 129.712 C 60.708 129.959,61.403 132.127,64.061 139.400 C 64.946 141.820,66.031 144.790,66.474 146.000 C 66.916 147.210,67.422 148.560,67.599 149.000 C 67.775 149.440,68.136 150.430,68.400 151.200 C 68.963 152.839,69.562 154.337,70.019 155.251 C 70.199 155.609,70.463 156.531,70.608 157.301 C 70.811 158.386,71.065 158.701,71.735 158.703 C 72.211 158.705,74.760 159.038,77.400 159.442 C 83.442 160.366,100.688 160.501,106.000 159.665 C 119.124 157.598,128.196 155.182,137.800 151.194 C 138.240 151.012,139.410 150.539,140.400 150.143 C 143.865 148.760,157.451 141.694,163.000 138.390 C 173.551 132.107,183.038 125.596,205.400 109.294 C 240.265 83.875,256.330 74.456,276.180 67.795 C 292.886 62.190,313.499 59.957,327.600 62.226 C 329.690 62.562,332.120 62.943,333.000 63.073 C 333.880 63.203,334.915 63.471,335.300 63.668 C 336.086 64.072,336.161 63.905,335.647 62.895 C 335.452 62.513,335.071 61.660,334.800 61.000 C 334.529 60.340,334.148 59.487,333.953 59.105 C 333.759 58.723,333.600 58.136,333.600 57.800 C 333.600 57.464,333.441 56.877,333.247 56.495 C 332.771 55.560,332.182 54.093,331.600 52.400 C 331.138 51.054,330.829 50.248,330.031 48.300 C 329.828 47.805,329.305 46.320,328.867 45.000 C 325.873 35.965,325.363 34.877,323.817 34.237 C 322.355 33.632,317.253 32.941,310.242 32.399 C 304.556 31.959,302.325 31.964,295.808 32.430 " stroke="none" fill="#fb8334" fill-rule="evenodd"></path><path id="path6" d="M301.000 62.038 C 284.793 64.346,272.041 68.338,257.400 75.688 C 241.997 83.421,232.227 89.735,205.400 109.294 C 183.038 125.596,173.551 132.107,163.000 138.390 C 157.451 141.694,143.865 148.760,140.400 150.143 C 139.410 150.539,138.240 151.012,137.800 151.194 C 128.196 155.182,119.124 157.598,106.000 159.665 C 100.558 160.522,82.678 160.317,76.480 159.327 C 70.901 158.436,70.939 158.422,71.966 161.056 C 72.979 163.653,73.848 166.026,77.000 174.800 C 82.207 189.297,80.531 187.483,90.000 188.864 C 94.392 189.504,111.995 189.508,116.000 188.870 C 117.650 188.607,120.260 188.190,121.800 187.943 C 143.632 184.445,167.686 173.125,195.600 153.212 C 197.470 151.878,200.063 150.044,201.362 149.136 C 202.661 148.229,204.011 147.245,204.362 146.951 C 204.713 146.657,206.199 145.558,207.664 144.508 C 209.129 143.459,212.909 140.724,216.064 138.430 C 241.364 120.040,252.806 112.619,266.800 105.526 C 280.755 98.452,294.083 93.844,305.800 92.043 C 312.744 90.975,314.159 90.831,320.000 90.594 C 327.239 90.301,341.959 91.252,345.095 92.216 C 346.057 92.511,347.019 91.206,346.072 90.891 C 345.812 90.804,345.600 90.386,345.600 89.961 C 345.600 89.537,345.420 88.832,345.200 88.395 C 344.980 87.958,344.620 87.242,344.400 86.805 C 344.180 86.368,344.000 85.648,344.000 85.205 C 344.000 84.762,343.820 84.400,343.600 84.400 C 343.380 84.400,343.200 83.950,343.200 83.400 C 343.200 82.850,343.020 82.400,342.800 82.400 C 342.580 82.400,342.400 81.950,342.400 81.400 C 342.400 80.850,342.220 80.400,342.000 80.400 C 341.780 80.400,341.600 79.860,341.600 79.200 C 341.600 78.540,341.420 78.000,341.200 78.000 C 340.980 78.000,340.800 77.550,340.800 77.000 C 340.800 76.450,340.620 76.000,340.400 76.000 C 340.180 76.000,340.000 75.638,340.000 75.195 C 340.000 74.752,339.820 74.032,339.600 73.595 C 339.380 73.158,339.020 72.442,338.800 72.005 C 338.580 71.568,338.400 70.848,338.400 70.405 C 338.400 69.962,338.220 69.600,338.000 69.600 C 337.780 69.600,337.600 69.238,337.600 68.795 C 337.600 68.352,337.435 67.677,337.234 67.295 C 337.032 66.913,336.574 65.926,336.216 65.103 C 335.809 64.166,335.235 63.541,334.683 63.433 C 332.513 63.005,328.787 62.360,326.400 61.999 C 323.276 61.527,304.386 61.556,301.000 62.038 " stroke="none" fill="#f9cb34" fill-rule="evenodd"></path></g></svg>