<svg id="svg" version="1.1" xmlns="http://www.w3.org/2000/svg" xmlns:xlink="http://www.w3.org/1999/xlink" width="400" height="400" viewBox="0, 0, 400,400"><g id="svgg"><path id="path0" d="M112.422 45.886 C 111.645 46.153,110.950 46.549,110.878 46.766 C 110.805 46.984,110.308 47.755,109.772 48.481 C 109.236 49.206,108.687 50.115,108.552 50.500 C 108.417 50.885,108.148 51.200,107.953 51.200 C 107.759 51.200,107.600 51.560,107.600 52.000 C 107.600 52.440,107.453 52.800,107.274 52.800 C 106.864 52.800,105.200 55.882,105.200 56.641 C 105.200 56.953,104.660 57.772,104.000 58.463 C 103.340 59.154,102.800 60.018,102.800 60.384 C 102.800 60.750,102.479 61.398,102.087 61.825 C 101.695 62.251,101.060 63.267,100.676 64.083 C 100.293 64.899,99.815 65.667,99.615 65.791 C 99.414 65.915,98.997 66.507,98.687 67.108 C 98.376 67.709,97.555 69.218,96.861 70.462 C 96.168 71.706,95.600 72.980,95.600 73.292 C 95.600 73.605,95.184 74.252,94.675 74.730 C 94.166 75.208,93.503 76.229,93.200 76.999 C 92.898 77.770,92.504 78.400,92.325 78.400 C 92.146 78.400,92.000 78.670,92.000 79.000 C 92.000 79.330,91.820 79.600,91.600 79.600 C 91.380 79.600,91.200 79.836,91.200 80.125 C 91.200 80.413,90.840 81.036,90.400 81.508 C 89.960 81.980,89.600 82.734,89.600 83.183 C 89.600 83.632,89.448 84.000,89.263 84.000 C 89.077 84.000,88.492 84.855,87.963 85.900 C 87.433 86.945,86.865 87.860,86.700 87.933 C 86.535 88.007,86.400 88.519,86.400 89.073 C 86.400 89.675,85.918 90.529,85.200 91.200 C 84.540 91.817,84.000 92.569,84.000 92.872 C 84.000 93.175,83.640 93.683,83.200 94.000 C 82.760 94.317,82.400 94.801,82.400 95.076 C 82.400 95.555,81.526 97.238,79.947 99.800 C 79.540 100.460,78.902 101.585,78.530 102.300 C 78.157 103.015,77.719 103.600,77.558 103.600 C 77.396 103.600,77.136 104.185,76.981 104.900 C 76.825 105.615,76.271 106.630,75.749 107.155 C 75.227 107.680,74.800 108.468,74.800 108.908 C 74.800 109.347,74.471 109.997,74.070 110.353 C 73.668 110.709,73.084 111.585,72.772 112.300 C 72.460 113.015,72.069 113.600,71.902 113.600 C 71.736 113.600,71.600 113.960,71.600 114.400 C 71.600 114.840,71.441 115.200,71.247 115.200 C 71.053 115.200,70.419 116.171,69.838 117.359 C 69.257 118.546,68.516 119.738,68.191 120.008 C 67.866 120.277,67.600 120.916,67.600 121.426 C 67.600 121.937,67.273 122.590,66.873 122.877 C 66.474 123.165,65.709 124.210,65.173 125.200 C 64.638 126.190,64.065 127.060,63.900 127.133 C 63.735 127.207,63.596 127.477,63.591 127.733 C 63.586 127.990,63.230 128.650,62.800 129.200 C 62.370 129.750,62.014 130.487,62.009 130.839 C 62.004 131.190,61.671 131.857,61.269 132.320 C 60.867 132.784,60.210 133.891,59.808 134.782 C 59.407 135.672,58.926 136.400,58.739 136.400 C 58.553 136.400,58.400 136.732,58.400 137.138 C 58.400 137.544,58.075 138.170,57.678 138.529 C 57.281 138.889,56.707 139.817,56.403 140.591 C 56.099 141.366,55.704 142.000,55.525 142.000 C 55.346 142.000,55.200 142.360,55.200 142.800 C 55.200 143.240,55.020 143.600,54.800 143.600 C 54.580 143.600,54.396 143.825,54.391 144.100 C 54.386 144.375,54.030 145.050,53.600 145.600 C 53.170 146.150,52.814 146.896,52.809 147.257 C 52.804 147.619,52.550 148.010,52.244 148.128 C 51.743 148.320,51.230 149.127,49.848 151.897 C 49.601 152.390,49.265 152.795,49.100 152.797 C 48.935 152.799,48.800 153.147,48.800 153.571 C 48.800 153.996,48.553 154.590,48.252 154.891 C 47.950 155.192,47.385 156.060,46.996 156.820 C 46.607 157.579,46.151 158.290,45.983 158.400 C 45.815 158.510,45.020 159.860,44.216 161.400 C 41.769 166.088,41.030 167.367,40.300 168.175 C 39.915 168.602,39.600 169.339,39.600 169.813 C 39.600 170.288,39.240 171.002,38.800 171.400 C 38.360 171.798,38.000 172.284,38.000 172.479 C 38.000 172.674,37.640 173.220,37.200 173.692 C 36.760 174.164,36.400 174.901,36.400 175.329 C 36.400 175.756,36.085 176.399,35.700 176.757 C 34.793 177.601,34.000 179.024,34.000 179.807 C 34.000 180.147,33.734 180.527,33.410 180.652 C 33.085 180.776,32.573 181.355,32.271 181.939 C 31.970 182.523,31.155 184.018,30.461 185.262 C 29.768 186.506,29.200 187.768,29.200 188.066 C 29.200 188.364,28.759 189.083,28.221 189.664 C 27.682 190.245,26.852 191.548,26.377 192.560 C 25.901 193.572,25.352 194.400,25.156 194.400 C 24.960 194.400,24.800 194.636,24.800 194.925 C 24.800 195.213,24.440 195.836,24.000 196.308 C 22.842 197.551,22.842 201.965,24.000 202.800 C 24.440 203.117,24.800 203.697,24.800 204.088 C 24.800 204.480,24.959 204.800,25.153 204.800 C 25.347 204.800,25.981 205.745,26.561 206.900 C 27.141 208.055,28.138 209.810,28.776 210.800 C 29.415 211.790,29.951 212.881,29.969 213.225 C 29.986 213.568,30.321 214.198,30.713 214.625 C 31.105 215.051,31.740 216.067,32.124 216.883 C 32.507 217.699,32.992 218.471,33.200 218.600 C 33.408 218.729,33.889 219.501,34.269 220.317 C 34.649 221.133,35.283 222.091,35.680 222.447 C 36.076 222.803,36.400 223.373,36.400 223.714 C 36.400 224.054,36.535 224.393,36.700 224.467 C 36.865 224.540,37.433 225.455,37.963 226.500 C 38.492 227.545,39.077 228.400,39.263 228.400 C 39.448 228.400,39.600 228.760,39.600 229.200 C 39.600 229.640,39.780 230.000,40.000 230.000 C 40.220 230.000,40.400 230.360,40.400 230.800 C 40.400 231.240,40.580 231.600,40.800 231.600 C 41.020 231.600,41.200 231.960,41.200 232.400 C 41.200 232.840,41.380 233.200,41.600 233.200 C 41.820 233.200,42.000 233.378,42.000 233.596 C 42.000 233.814,42.810 235.255,43.800 236.800 C 44.790 238.345,45.600 239.876,45.600 240.204 C 45.600 240.532,45.753 240.800,45.939 240.800 C 46.126 240.800,46.604 241.521,47.001 242.402 C 47.398 243.284,47.966 244.206,48.262 244.451 C 48.558 244.697,48.800 245.196,48.800 245.561 C 48.800 245.925,49.160 246.483,49.600 246.800 C 50.040 247.117,50.400 247.609,50.400 247.894 C 50.400 248.587,51.238 250.041,52.100 250.843 C 52.485 251.201,52.800 251.788,52.800 252.147 C 52.800 252.506,52.946 252.800,53.125 252.800 C 53.304 252.800,53.698 253.430,54.000 254.200 C 54.302 254.970,54.696 255.600,54.875 255.600 C 55.054 255.600,55.200 255.960,55.200 256.400 C 55.200 256.840,55.380 257.200,55.600 257.200 C 55.820 257.200,56.000 257.443,56.000 257.741 C 56.000 258.038,56.540 258.846,57.200 259.537 C 57.881 260.249,58.400 261.227,58.400 261.796 C 58.400 262.348,58.559 262.800,58.753 262.800 C 58.947 262.800,59.577 263.745,60.152 264.900 C 60.726 266.055,61.349 267.270,61.536 267.600 C 61.723 267.930,62.084 268.605,62.338 269.100 C 63.248 270.872,63.811 271.771,64.500 272.555 C 64.885 272.993,65.200 273.587,65.200 273.875 C 65.200 274.164,65.380 274.400,65.600 274.400 C 65.820 274.400,66.000 274.717,66.000 275.104 C 66.000 275.491,66.360 276.032,66.800 276.307 C 67.240 276.582,67.600 277.233,67.600 277.754 C 67.600 278.276,67.866 278.923,68.192 279.193 C 68.893 279.776,70.000 281.898,70.000 282.661 C 70.000 282.958,70.180 283.200,70.400 283.200 C 70.620 283.200,70.800 283.470,70.800 283.800 C 70.800 284.130,70.980 284.400,71.200 284.400 C 71.420 284.400,71.600 284.670,71.600 285.000 C 71.600 285.330,71.780 285.600,72.000 285.600 C 72.220 285.600,72.400 285.870,72.400 286.200 C 72.400 286.530,72.580 286.800,72.800 286.800 C 73.020 286.800,73.200 287.078,73.200 287.417 C 73.200 287.756,73.560 288.420,74.000 288.892 C 74.440 289.364,74.800 290.085,74.800 290.494 C 74.800 290.902,75.250 291.686,75.800 292.236 C 76.350 292.786,76.804 293.453,76.809 293.718 C 76.814 293.983,77.170 294.650,77.600 295.200 C 78.030 295.750,78.386 296.481,78.391 296.825 C 78.396 297.168,78.751 297.826,79.180 298.286 C 79.609 298.747,80.364 299.996,80.858 301.062 C 81.351 302.128,81.856 303.090,81.978 303.200 C 82.101 303.310,82.456 303.895,82.768 304.500 C 83.080 305.105,83.485 305.600,83.668 305.600 C 83.850 305.600,84.002 305.915,84.004 306.300 C 84.006 306.685,84.546 307.425,85.204 307.945 C 85.997 308.572,86.400 309.250,86.400 309.957 C 86.400 310.565,86.744 311.271,87.200 311.600 C 87.640 311.917,88.000 312.553,88.000 313.013 C 88.000 313.473,88.360 314.236,88.800 314.708 C 89.240 315.180,89.600 315.844,89.600 316.183 C 89.600 316.522,89.746 316.800,89.925 316.800 C 90.104 316.800,90.498 317.430,90.800 318.200 C 91.102 318.970,91.496 319.600,91.675 319.600 C 91.854 319.600,92.000 319.870,92.000 320.200 C 92.000 320.530,92.160 320.800,92.357 320.800 C 92.553 320.800,92.983 321.475,93.314 322.300 C 93.644 323.125,94.294 324.143,94.757 324.562 C 95.221 324.981,95.604 325.701,95.609 326.162 C 95.614 326.623,95.970 327.450,96.400 328.000 C 96.830 328.550,97.186 329.225,97.191 329.500 C 97.196 329.775,97.336 330.000,97.502 330.000 C 97.669 330.000,98.054 330.585,98.359 331.300 C 98.664 332.015,99.219 332.960,99.591 333.400 C 99.963 333.840,100.565 334.850,100.927 335.645 C 101.289 336.440,101.859 337.317,102.193 337.594 C 102.527 337.871,102.800 338.409,102.800 338.790 C 102.800 339.170,103.340 340.046,104.000 340.737 C 104.660 341.428,105.200 342.264,105.200 342.596 C 105.200 342.928,105.380 343.200,105.600 343.200 C 105.820 343.200,106.000 343.560,106.000 344.000 C 106.000 344.440,106.180 344.800,106.400 344.800 C 106.620 344.800,106.800 345.120,106.800 345.512 C 106.800 345.903,107.160 346.483,107.600 346.800 C 108.040 347.117,108.400 347.811,108.400 348.341 C 108.400 348.872,108.730 349.597,109.133 349.953 C 109.536 350.309,110.187 351.095,110.579 351.700 C 110.971 352.305,111.526 352.800,111.813 352.800 C 112.099 352.800,112.393 352.979,112.467 353.198 C 112.653 353.755,288.146 353.762,288.332 353.205 C 288.406 352.982,288.649 352.800,288.873 352.800 C 289.475 352.800,291.467 350.550,292.070 349.188 C 292.359 348.535,292.731 348.000,292.898 348.000 C 293.064 348.000,293.200 347.640,293.200 347.200 C 293.200 346.760,293.380 346.400,293.600 346.400 C 293.820 346.400,294.000 346.040,294.000 345.600 C 294.000 345.160,294.180 344.800,294.400 344.800 C 294.620 344.800,294.800 344.440,294.800 344.000 C 294.800 343.560,294.980 343.200,295.200 343.200 C 295.420 343.200,295.600 342.880,295.600 342.488 C 295.600 342.097,295.960 341.517,296.400 341.200 C 296.840 340.883,297.200 340.427,297.200 340.187 C 297.200 339.947,297.515 339.402,297.900 338.975 C 298.285 338.549,298.864 337.660,299.186 337.000 C 299.508 336.340,300.093 335.322,300.486 334.738 C 300.879 334.154,301.200 333.389,301.200 333.038 C 301.200 332.687,301.352 332.400,301.537 332.400 C 301.723 332.400,302.308 331.545,302.837 330.500 C 303.367 329.455,303.935 328.540,304.100 328.467 C 304.265 328.393,304.400 328.020,304.400 327.636 C 304.400 327.253,304.841 326.525,305.379 326.019 C 305.918 325.514,306.472 324.584,306.610 323.954 C 306.748 323.325,307.023 322.709,307.220 322.588 C 307.417 322.466,307.889 321.699,308.269 320.883 C 308.649 320.067,309.283 319.109,309.680 318.753 C 310.076 318.397,310.400 317.895,310.400 317.636 C 310.400 317.378,310.760 316.780,311.200 316.308 C 311.640 315.836,312.000 315.073,312.000 314.613 C 312.000 314.153,312.360 313.517,312.800 313.200 C 313.256 312.871,313.600 312.165,313.600 311.557 C 313.600 310.850,314.003 310.172,314.796 309.545 C 315.454 309.025,315.994 308.223,315.996 307.762 C 315.998 307.301,316.360 306.598,316.800 306.200 C 317.240 305.802,317.600 305.256,317.600 304.987 C 317.600 304.718,317.873 304.271,318.207 303.994 C 318.541 303.717,319.115 302.840,319.482 302.045 C 319.849 301.250,320.475 300.171,320.874 299.646 C 321.273 299.121,321.600 298.384,321.600 298.008 C 321.600 297.632,321.960 296.998,322.400 296.600 C 322.840 296.202,323.200 295.454,323.200 294.938 C 323.200 294.406,323.440 294.000,323.753 294.000 C 324.058 294.000,324.407 293.685,324.529 293.300 C 324.825 292.364,326.124 290.234,326.500 290.067 C 326.665 289.993,326.800 289.603,326.800 289.200 C 326.800 288.797,326.935 288.407,327.100 288.333 C 327.265 288.260,327.833 287.345,328.363 286.300 C 328.892 285.255,329.477 284.400,329.663 284.400 C 329.848 284.400,330.000 284.130,330.000 283.800 C 330.000 283.470,330.180 283.200,330.400 283.200 C 330.620 283.200,330.800 282.660,330.800 282.000 C 330.800 281.207,331.001 280.800,331.392 280.800 C 331.718 280.800,332.107 280.305,332.256 279.700 C 332.406 279.095,332.859 278.309,333.264 277.953 C 333.669 277.597,334.000 277.012,334.000 276.653 C 334.000 276.294,334.180 276.000,334.400 276.000 C 334.620 276.000,334.800 275.680,334.800 275.288 C 334.800 274.897,335.160 274.317,335.600 274.000 C 336.040 273.683,336.400 273.197,336.400 272.919 C 336.400 272.642,337.011 271.460,337.758 270.292 C 338.505 269.125,339.515 267.321,340.002 266.285 C 340.489 265.248,341.048 264.400,341.244 264.400 C 341.440 264.400,341.600 263.932,341.600 263.360 C 341.600 262.721,342.062 261.889,342.800 261.200 C 343.460 260.583,344.000 259.791,344.000 259.440 C 344.000 259.088,344.150 258.800,344.332 258.800 C 344.515 258.800,344.856 258.395,345.090 257.900 C 345.325 257.405,345.997 255.967,346.585 254.705 C 347.173 253.442,347.870 252.272,348.133 252.105 C 348.396 251.937,349.042 250.945,349.568 249.900 C 350.095 248.855,350.677 248.000,350.863 248.000 C 351.048 248.000,351.200 247.699,351.200 247.331 C 351.200 246.964,351.454 246.379,351.765 246.031 C 352.076 245.684,352.850 244.410,353.486 243.200 C 355.698 238.988,357.279 236.400,357.638 236.400 C 357.837 236.400,358.000 236.040,358.000 235.600 C 358.000 235.160,358.180 234.800,358.400 234.800 C 358.620 234.800,358.800 234.522,358.800 234.183 C 358.800 233.844,359.160 233.180,359.600 232.708 C 360.040 232.236,360.400 231.516,360.400 231.108 C 360.400 230.700,360.760 229.980,361.200 229.508 C 361.640 229.036,362.000 228.413,362.000 228.125 C 362.000 227.836,362.152 227.600,362.337 227.600 C 362.523 227.600,363.105 226.745,363.632 225.700 C 364.158 224.655,364.691 223.710,364.815 223.600 C 364.940 223.490,365.352 222.733,365.731 221.919 C 366.110 221.104,366.640 220.197,366.910 219.903 C 367.543 219.214,368.206 218.082,370.136 214.400 C 371.001 212.750,372.000 211.022,372.355 210.560 C 372.710 210.097,373.540 208.526,374.200 207.067 C 374.860 205.608,375.670 204.322,376.000 204.208 C 376.622 203.993,377.600 202.229,377.600 201.320 C 377.600 201.034,377.780 200.800,378.000 200.800 C 378.220 200.800,378.400 200.260,378.400 199.600 C 378.400 198.940,378.220 198.400,378.000 198.400 C 377.780 198.400,377.600 198.040,377.600 197.600 C 377.600 197.160,377.420 196.800,377.200 196.800 C 376.980 196.800,376.800 196.480,376.800 196.088 C 376.800 195.697,376.440 195.117,376.000 194.800 C 375.560 194.483,375.200 193.985,375.200 193.694 C 375.200 193.402,374.766 192.730,374.236 192.199 C 373.705 191.669,373.156 190.710,373.015 190.068 C 372.874 189.426,372.318 188.486,371.779 187.981 C 371.241 187.475,370.800 186.732,370.800 186.330 C 370.800 185.929,370.620 185.600,370.400 185.600 C 370.180 185.600,370.000 185.317,370.000 184.972 C 370.000 184.627,369.460 183.559,368.800 182.600 C 368.140 181.641,367.600 180.617,367.600 180.324 C 367.600 180.032,367.240 179.568,366.800 179.293 C 366.360 179.018,366.000 178.435,366.000 177.997 C 366.000 177.558,365.820 177.200,365.600 177.200 C 365.380 177.200,365.200 176.880,365.200 176.488 C 365.200 176.097,364.840 175.517,364.400 175.200 C 363.960 174.883,363.600 174.343,363.600 174.000 C 363.600 173.657,363.240 173.117,362.800 172.800 C 362.360 172.483,362.000 171.847,362.000 171.387 C 362.000 170.927,361.640 170.164,361.200 169.692 C 360.760 169.220,360.400 168.556,360.400 168.217 C 360.400 167.878,360.220 167.600,360.000 167.600 C 359.780 167.600,359.600 167.240,359.600 166.800 C 359.600 166.360,359.464 166.000,359.298 166.000 C 359.131 166.000,358.745 165.415,358.439 164.700 C 358.134 163.985,357.611 163.084,357.277 162.697 C 356.599 161.911,356.312 161.429,354.616 158.232 C 353.965 157.004,353.290 156.000,353.116 156.000 C 352.942 156.000,352.800 155.640,352.800 155.200 C 352.800 154.760,352.662 154.400,352.494 154.400 C 352.326 154.400,351.887 153.704,351.518 152.853 C 351.150 152.001,350.605 151.056,350.309 150.753 C 350.012 150.449,349.448 149.514,349.055 148.676 C 348.661 147.838,348.083 147.053,347.770 146.933 C 347.456 146.813,347.200 146.500,347.200 146.237 C 347.200 145.535,346.248 143.607,345.900 143.603 C 345.735 143.601,345.600 143.240,345.600 142.800 C 345.600 142.360,345.420 142.000,345.200 142.000 C 344.980 142.000,344.800 141.680,344.800 141.288 C 344.800 140.897,344.440 140.317,344.000 140.000 C 343.560 139.683,343.200 139.103,343.200 138.712 C 343.200 138.267,342.900 138.000,342.400 138.000 C 341.741 138.000,341.600 137.733,341.600 136.488 C 341.600 135.435,341.357 134.802,340.800 134.400 C 340.360 134.083,340.000 133.576,340.000 133.273 C 340.000 132.971,339.668 132.246,339.263 131.662 C 338.858 131.078,338.254 130.060,337.920 129.400 C 336.436 126.461,335.427 124.800,335.126 124.800 C 334.947 124.800,334.800 124.440,334.800 124.000 C 334.800 123.560,334.620 123.200,334.400 123.200 C 334.180 123.200,334.000 122.913,334.000 122.563 C 334.000 122.212,333.640 121.831,333.200 121.716 C 332.653 121.573,332.400 121.170,332.400 120.442 C 332.400 119.835,332.055 119.128,331.600 118.800 C 331.160 118.483,330.800 117.991,330.800 117.706 C 330.800 117.221,330.044 115.643,329.599 115.200 C 329.489 115.090,329.129 114.460,328.800 113.800 C 328.471 113.140,328.109 112.510,327.995 112.400 C 327.882 112.290,327.358 111.345,326.832 110.300 C 326.305 109.255,325.723 108.400,325.537 108.400 C 325.352 108.400,325.200 108.122,325.200 107.782 C 325.200 107.442,324.750 106.714,324.200 106.164 C 323.650 105.614,323.200 104.825,323.200 104.410 C 323.200 103.996,322.966 103.419,322.680 103.129 C 322.394 102.838,321.699 101.700,321.134 100.600 C 319.087 96.609,318.774 96.076,318.192 95.593 C 317.866 95.323,317.600 94.764,317.600 94.351 C 317.600 93.938,317.462 93.600,317.294 93.600 C 317.126 93.600,316.676 92.879,316.294 91.997 C 315.913 91.116,315.150 90.004,314.600 89.525 C 314.050 89.047,313.600 88.222,313.600 87.690 C 313.600 87.062,313.321 86.652,312.800 86.516 C 312.233 86.368,312.000 85.970,312.000 85.153 C 312.000 84.519,311.820 84.000,311.600 84.000 C 311.380 84.000,311.200 83.640,311.200 83.200 C 311.200 82.760,311.020 82.400,310.800 82.400 C 310.580 82.400,310.400 82.130,310.400 81.800 C 310.400 81.470,310.220 81.200,310.000 81.200 C 309.780 81.200,309.600 80.930,309.600 80.600 C 309.600 80.270,309.454 80.000,309.275 80.000 C 309.096 80.000,308.702 79.370,308.400 78.600 C 308.098 77.830,307.718 77.200,307.556 77.200 C 307.394 77.200,307.041 76.530,306.771 75.711 C 306.248 74.128,305.531 73.200,304.829 73.200 C 304.593 73.200,304.400 72.875,304.400 72.479 C 304.400 71.563,302.549 67.821,301.781 67.184 C 301.461 66.919,301.200 66.386,301.200 66.000 C 301.200 65.614,300.921 65.066,300.580 64.784 C 300.239 64.501,299.618 63.518,299.200 62.600 C 298.782 61.682,298.161 60.699,297.820 60.416 C 297.479 60.134,297.200 59.630,297.200 59.298 C 297.200 58.966,296.885 58.403,296.500 58.047 C 295.664 57.274,294.000 54.156,294.000 53.362 C 294.000 53.053,293.820 52.800,293.600 52.800 C 293.380 52.800,293.200 52.564,293.200 52.275 C 293.200 51.987,292.840 51.364,292.400 50.892 C 291.960 50.420,291.600 49.838,291.600 49.599 C 291.600 49.359,291.195 48.744,290.700 48.232 C 290.205 47.720,289.487 46.918,289.104 46.450 C 288.701 45.958,287.943 45.599,287.304 45.599 C 128.856 45.402,113.758 45.426,112.422 45.886 M215.200 109.200 C 215.200 109.420,215.740 109.600,216.400 109.600 C 217.060 109.600,217.600 109.780,217.600 110.000 C 217.600 110.220,218.320 110.400,219.200 110.400 C 220.080 110.400,220.800 110.580,220.800 110.800 C 220.800 111.020,221.340 111.200,222.000 111.200 C 222.660 111.200,223.200 111.380,223.200 111.600 C 223.200 111.820,223.740 112.000,224.400 112.000 C 225.060 112.000,225.600 112.180,225.600 112.400 C 225.600 112.620,226.190 112.800,226.912 112.800 C 227.765 112.800,228.425 113.080,228.800 113.600 C 229.258 114.235,229.835 114.400,231.600 114.400 C 233.365 114.400,233.942 114.565,234.400 115.200 C 234.802 115.757,235.435 116.000,236.488 116.000 C 237.320 116.000,238.000 116.180,238.000 116.400 C 238.000 116.620,238.540 116.800,239.200 116.800 C 239.860 116.800,240.400 116.980,240.400 117.200 C 240.400 117.420,240.760 117.600,241.200 117.600 C 241.640 117.600,242.000 117.769,242.000 117.976 C 242.000 118.183,242.672 118.408,243.494 118.476 L 244.989 118.600 244.862 120.400 C 244.793 121.390,244.571 122.371,244.368 122.580 C 244.166 122.789,244.000 123.374,244.000 123.880 C 244.000 124.386,243.840 124.800,243.645 124.800 C 243.450 124.800,243.192 125.295,243.072 125.900 C 242.542 128.561,241.839 130.800,241.533 130.800 C 241.350 130.800,241.200 131.520,241.200 132.400 C 241.200 133.280,241.020 134.000,240.800 134.000 C 240.580 134.000,240.400 134.540,240.400 135.200 C 240.400 135.860,240.220 136.400,240.000 136.400 C 239.780 136.400,239.600 137.120,239.600 138.000 C 239.600 138.880,239.420 139.600,239.200 139.600 C 238.980 139.600,238.800 140.140,238.800 140.800 C 238.800 141.460,238.620 142.000,238.400 142.000 C 238.180 142.000,238.000 142.950,238.000 144.112 C 238.000 145.765,237.826 146.349,237.200 146.800 C 236.760 147.117,236.400 147.697,236.400 148.088 C 236.400 148.480,236.220 148.800,236.000 148.800 C 235.780 148.800,235.600 149.520,235.600 150.400 C 235.600 151.280,235.420 152.000,235.200 152.000 C 234.980 152.000,234.800 152.360,234.800 152.800 C 234.800 153.240,234.620 153.600,234.400 153.600 C 234.180 153.600,234.000 154.320,234.000 155.200 C 234.000 156.080,233.820 156.800,233.600 156.800 C 233.380 156.800,233.200 157.340,233.200 158.000 C 233.200 158.660,233.020 159.200,232.800 159.200 C 232.580 159.200,232.400 159.639,232.400 160.176 C 232.400 160.713,232.220 161.264,232.000 161.400 C 231.780 161.536,231.600 162.267,231.600 163.024 C 231.600 163.781,231.420 164.400,231.200 164.400 C 230.980 164.400,230.800 164.940,230.800 165.600 C 230.800 166.260,230.620 166.800,230.400 166.800 C 230.180 166.800,230.000 167.660,230.000 168.712 C 230.000 170.165,229.808 170.762,229.200 171.200 C 228.559 171.662,228.400 172.235,228.400 174.088 C 228.400 175.360,228.253 176.400,228.074 176.400 C 227.457 176.400,226.000 179.509,225.986 180.854 C 225.978 181.595,225.714 182.650,225.400 183.200 C 225.086 183.750,224.822 184.875,224.814 185.700 C 224.806 186.525,224.620 187.200,224.400 187.200 C 224.180 187.200,224.000 187.740,224.000 188.400 C 224.000 189.060,223.820 189.600,223.600 189.600 C 223.380 189.600,223.200 190.140,223.200 190.800 C 223.200 191.460,223.020 192.000,222.800 192.000 C 222.580 192.000,222.400 192.450,222.400 193.000 C 222.400 193.550,222.220 194.000,222.000 194.000 C 221.780 194.000,221.600 194.540,221.600 195.200 C 221.600 195.860,221.420 196.400,221.200 196.400 C 220.980 196.400,220.800 197.260,220.800 198.312 C 220.800 199.765,220.608 200.362,220.000 200.800 C 219.359 201.262,219.200 201.835,219.200 203.688 C 219.200 204.963,219.021 206.000,218.800 206.000 C 218.580 206.000,218.400 206.360,218.400 206.800 C 218.400 207.240,218.220 207.600,218.000 207.600 C 217.780 207.600,217.600 207.960,217.600 208.400 C 217.600 208.840,217.420 209.200,217.200 209.200 C 216.980 209.200,216.800 209.704,216.800 210.320 C 216.800 211.536,215.984 213.592,215.500 213.597 C 215.335 213.599,215.200 214.320,215.200 215.200 C 215.200 216.080,215.020 216.800,214.800 216.800 C 214.580 216.800,214.400 217.340,214.400 218.000 C 214.400 218.660,214.220 219.200,214.000 219.200 C 213.780 219.200,213.600 220.100,213.600 221.200 C 213.600 222.300,213.420 223.200,213.200 223.200 C 212.980 223.200,212.800 223.560,212.800 224.000 C 212.800 224.440,212.620 224.800,212.400 224.800 C 212.180 224.800,212.000 225.239,212.000 225.776 C 212.000 226.313,211.820 226.864,211.600 227.000 C 211.380 227.136,211.200 228.047,211.200 229.024 C 211.200 230.001,211.049 230.800,210.864 230.800 C 210.283 230.800,209.600 232.772,209.600 234.447 C 209.600 235.345,209.335 236.323,209.000 236.657 C 208.670 236.987,208.400 237.604,208.400 238.029 C 208.400 238.453,208.220 238.800,208.000 238.800 C 207.780 238.800,207.600 239.520,207.600 240.400 C 207.600 241.280,207.420 242.000,207.200 242.000 C 206.980 242.000,206.800 242.450,206.800 243.000 C 206.800 243.550,206.620 244.000,206.400 244.000 C 206.180 244.000,206.000 244.720,206.000 245.600 C 206.000 246.480,205.820 247.200,205.600 247.200 C 205.380 247.200,205.200 247.740,205.200 248.400 C 205.200 249.060,205.020 249.600,204.800 249.600 C 204.580 249.600,204.400 250.460,204.400 251.512 C 204.400 252.965,204.208 253.562,203.600 254.000 C 203.043 254.402,202.800 255.035,202.800 256.088 C 202.800 256.920,202.620 257.600,202.400 257.600 C 202.180 257.600,202.000 258.050,202.000 258.600 C 202.000 259.150,201.820 259.600,201.600 259.600 C 201.380 259.600,201.200 259.949,201.200 260.376 C 201.200 260.803,201.020 261.264,200.800 261.400 C 200.580 261.536,200.400 262.447,200.400 263.424 C 200.400 264.401,200.220 265.200,200.000 265.200 C 199.780 265.200,199.600 265.560,199.600 266.000 C 199.600 266.440,199.420 266.800,199.200 266.800 C 198.980 266.800,198.800 267.520,198.800 268.400 C 198.800 269.280,198.620 270.000,198.400 270.000 C 198.180 270.000,198.000 270.540,198.000 271.200 C 198.000 271.860,197.820 272.400,197.600 272.400 C 197.380 272.400,197.200 272.940,197.200 273.600 C 197.200 274.260,197.020 274.800,196.800 274.800 C 196.580 274.800,196.400 275.419,196.400 276.176 C 196.400 276.933,196.220 277.664,196.000 277.800 C 195.780 277.936,195.600 278.487,195.600 279.024 C 195.600 279.561,195.420 280.000,195.200 280.000 C 194.980 280.000,194.800 280.860,194.800 281.912 C 194.800 283.365,194.608 283.962,194.000 284.400 C 193.560 284.717,193.200 285.308,193.200 285.713 C 193.200 286.811,191.880 290.640,191.694 290.082 C 191.606 289.817,190.918 289.600,190.167 289.600 C 189.415 289.600,188.800 289.420,188.800 289.200 C 188.800 288.980,188.440 288.800,188.000 288.800 C 187.560 288.800,187.200 288.620,187.200 288.400 C 187.200 288.180,186.660 288.000,186.000 288.000 C 185.340 288.000,184.800 287.820,184.800 287.600 C 184.800 287.380,183.900 287.200,182.800 287.200 C 181.700 287.200,180.800 287.020,180.800 286.800 C 180.800 286.580,180.440 286.400,180.000 286.400 C 179.560 286.400,179.200 286.220,179.200 286.000 C 179.200 285.780,178.340 285.600,177.288 285.600 C 175.835 285.600,175.238 285.408,174.800 284.800 C 174.483 284.360,173.824 284.000,173.335 284.000 C 172.847 284.000,172.336 283.820,172.200 283.600 C 172.064 283.380,171.333 283.200,170.576 283.200 C 169.819 283.200,169.200 283.020,169.200 282.800 C 169.200 282.580,168.660 282.400,168.000 282.400 C 167.340 282.400,166.800 282.220,166.800 282.000 C 166.800 281.780,166.080 281.600,165.200 281.600 C 164.320 281.600,163.600 281.420,163.600 281.200 C 163.600 280.980,163.060 280.800,162.400 280.800 C 161.333 280.800,161.200 280.667,161.200 279.600 C 161.200 278.940,161.380 278.400,161.600 278.400 C 161.823 278.400,162.000 277.320,162.000 275.960 C 162.000 273.766,162.120 273.409,163.200 272.400 C 164.197 271.469,164.400 270.968,164.400 269.440 C 164.400 268.428,164.580 267.600,164.800 267.600 C 165.020 267.600,165.200 267.240,165.200 266.800 C 165.200 266.360,165.380 266.000,165.600 266.000 C 165.820 266.000,166.000 265.280,166.000 264.400 C 166.000 263.520,166.180 262.800,166.400 262.800 C 166.620 262.800,166.800 262.260,166.800 261.600 C 166.800 260.940,166.980 260.400,167.200 260.400 C 167.420 260.400,167.600 260.040,167.600 259.600 C 167.600 259.160,167.780 258.800,168.000 258.800 C 168.220 258.800,168.400 258.181,168.400 257.424 C 168.400 256.667,168.580 255.936,168.800 255.800 C 169.020 255.664,169.200 255.124,169.200 254.600 C 169.200 254.076,169.380 253.536,169.600 253.400 C 169.820 253.264,170.000 252.353,170.000 251.376 C 170.000 250.399,170.180 249.600,170.400 249.600 C 170.620 249.600,170.800 249.240,170.800 248.800 C 170.800 248.360,170.980 248.000,171.200 248.000 C 171.421 248.000,171.600 246.963,171.600 245.688 C 171.600 243.835,171.759 243.262,172.400 242.800 C 172.840 242.483,173.200 241.914,173.200 241.535 C 173.200 241.157,173.380 240.736,173.600 240.600 C 173.820 240.464,174.006 239.868,174.014 239.276 C 174.022 238.684,174.286 237.750,174.600 237.200 C 174.914 236.650,175.178 235.525,175.186 234.700 C 175.194 233.875,175.380 233.200,175.600 233.200 C 175.820 233.200,176.000 232.480,176.000 231.600 C 176.000 230.720,176.180 230.000,176.400 230.000 C 176.620 230.000,176.800 229.460,176.800 228.800 C 176.800 228.140,176.980 227.600,177.200 227.600 C 177.420 227.600,177.600 226.970,177.600 226.200 C 177.600 225.430,177.780 224.800,178.000 224.800 C 178.220 224.800,178.400 224.440,178.400 224.000 C 178.400 223.560,178.580 223.200,178.800 223.200 C 179.020 223.200,179.200 222.340,179.200 221.288 C 179.200 219.835,179.392 219.238,180.000 218.800 C 180.635 218.342,180.800 217.765,180.800 216.000 C 180.800 214.235,180.965 213.658,181.600 213.200 C 182.070 212.861,182.400 212.165,182.400 211.512 C 182.400 210.900,182.580 210.400,182.800 210.400 C 183.020 210.400,183.200 209.860,183.200 209.200 C 183.200 208.540,183.380 208.000,183.600 208.000 C 183.820 208.000,184.000 207.561,184.000 207.024 C 184.000 206.487,184.180 205.936,184.400 205.800 C 184.620 205.664,184.800 204.944,184.800 204.200 C 184.800 203.456,184.980 202.736,185.200 202.600 C 185.420 202.464,185.600 201.913,185.600 201.376 C 185.600 200.839,185.780 200.400,186.000 200.400 C 186.220 200.400,186.400 199.680,186.400 198.800 C 186.400 197.920,186.580 197.200,186.800 197.200 C 187.020 197.200,187.200 196.840,187.200 196.400 C 187.200 195.960,187.380 195.600,187.600 195.600 C 187.820 195.600,188.000 195.060,188.000 194.400 C 188.000 193.740,188.180 193.200,188.400 193.200 C 188.620 193.200,188.800 192.485,188.800 191.612 C 188.800 190.739,189.160 189.383,189.600 188.600 C 190.094 187.720,190.400 186.434,190.400 185.237 C 190.400 184.001,190.618 183.117,191.000 182.800 C 191.330 182.526,191.600 181.784,191.600 181.151 C 191.600 180.518,191.780 180.000,192.000 180.000 C 192.220 180.000,192.400 179.460,192.400 178.800 C 192.400 178.140,192.580 177.600,192.800 177.600 C 193.020 177.600,193.200 177.240,193.200 176.800 C 193.200 176.360,193.380 176.000,193.600 176.000 C 193.820 176.000,194.000 175.190,194.000 174.200 C 194.000 173.210,194.180 172.400,194.400 172.400 C 194.620 172.400,194.800 172.040,194.800 171.600 C 194.800 171.160,194.980 170.800,195.200 170.800 C 195.421 170.800,195.600 169.763,195.600 168.488 C 195.600 166.635,195.759 166.062,196.400 165.600 C 196.870 165.261,197.200 164.565,197.200 163.912 C 197.200 163.300,197.380 162.800,197.600 162.800 C 197.820 162.800,198.000 162.080,198.000 161.200 C 198.000 160.320,198.180 159.600,198.400 159.600 C 198.620 159.600,198.800 159.240,198.800 158.800 C 198.800 158.360,198.980 158.000,199.200 158.000 C 199.420 158.000,199.600 157.190,199.600 156.200 C 199.600 155.210,199.780 154.400,200.000 154.400 C 200.220 154.400,200.400 154.040,200.400 153.600 C 200.400 153.160,200.580 152.800,200.800 152.800 C 201.020 152.800,201.200 152.080,201.200 151.200 C 201.200 150.320,201.380 149.600,201.600 149.600 C 201.820 149.600,202.000 149.240,202.000 148.800 C 202.000 148.360,202.180 148.000,202.400 148.000 C 202.620 148.000,202.800 147.280,202.800 146.400 C 202.800 145.520,202.980 144.800,203.200 144.800 C 203.420 144.800,203.600 144.080,203.600 143.200 C 203.600 142.320,203.780 141.600,204.000 141.600 C 204.220 141.600,204.400 141.161,204.400 140.624 C 204.400 140.087,204.580 139.536,204.800 139.400 C 205.020 139.264,205.200 138.436,205.200 137.560 C 205.200 136.548,205.477 135.669,205.959 135.152 C 206.377 134.703,206.827 133.811,206.959 133.168 C 207.092 132.526,207.316 131.421,207.458 130.713 C 207.600 130.006,207.960 129.183,208.258 128.885 C 208.561 128.582,208.800 127.509,208.800 126.451 C 208.800 124.600,209.504 122.409,210.100 122.403 C 210.265 122.401,210.400 121.680,210.400 120.800 C 210.400 119.920,210.580 119.200,210.800 119.200 C 211.020 119.200,211.200 118.840,211.200 118.400 C 211.200 117.960,211.380 117.600,211.600 117.600 C 211.820 117.600,212.000 116.880,212.000 116.000 C 212.000 115.120,212.180 114.400,212.400 114.400 C 212.620 114.400,212.800 113.860,212.800 113.200 C 212.800 112.540,212.980 112.000,213.200 112.000 C 213.420 112.000,213.600 111.542,213.600 110.983 C 213.600 109.997,214.290 108.846,214.900 108.815 C 215.065 108.807,215.200 108.980,215.200 109.200 M136.400 149.200 C 136.400 162.800,136.262 170.000,136.000 170.000 C 135.780 170.000,135.600 170.360,135.600 170.800 C 135.600 171.333,135.333 171.600,134.800 171.600 C 134.267 171.600,134.000 171.867,134.000 172.400 C 134.000 172.840,133.738 173.200,133.419 173.200 C 132.743 173.200,128.400 177.175,128.400 177.794 C 128.400 178.023,127.995 178.388,127.500 178.605 C 127.005 178.822,126.422 179.405,126.205 179.900 C 125.988 180.395,125.670 180.800,125.499 180.800 C 124.916 180.800,119.200 186.784,119.200 187.394 C 119.200 187.727,118.934 188.000,118.610 188.000 C 117.921 188.000,112.000 193.690,112.000 194.352 C 112.000 194.598,111.759 194.800,111.464 194.800 C 110.106 194.800,108.400 197.509,108.400 199.666 L 108.400 201.754 118.012 211.277 C 123.298 216.515,127.798 220.800,128.012 220.800 C 128.225 220.800,128.400 221.036,128.400 221.324 C 128.400 221.612,130.200 223.573,132.400 225.682 L 136.400 229.517 136.400 249.759 C 136.400 260.891,136.260 270.000,136.088 270.000 C 135.917 270.000,135.517 269.640,135.200 269.200 C 134.883 268.760,134.303 268.400,133.912 268.400 C 133.467 268.400,133.200 268.100,133.200 267.600 C 133.200 267.067,132.933 266.800,132.400 266.800 C 131.942 266.800,131.600 266.533,131.600 266.176 C 131.600 265.674,128.223 262.170,124.400 258.705 C 124.070 258.406,123.051 257.315,122.137 256.280 C 121.222 255.246,120.187 254.400,119.837 254.400 C 119.486 254.400,119.200 254.127,119.200 253.793 C 119.200 253.104,114.248 248.000,113.579 248.000 C 113.015 248.000,112.000 246.984,112.000 246.420 C 112.000 245.829,106.329 240.416,105.700 240.407 C 105.425 240.403,105.200 240.040,105.200 239.600 C 105.200 239.139,104.933 238.800,104.571 238.800 C 103.850 238.800,102.800 237.865,102.800 237.222 C 102.800 236.553,96.893 230.800,96.206 230.800 C 95.873 230.800,95.600 230.517,95.600 230.171 C 95.600 229.363,94.637 228.400,93.829 228.400 C 93.483 228.400,93.200 228.162,93.200 227.870 C 93.200 227.224,87.805 221.600,87.185 221.600 C 86.536 221.600,85.600 220.554,85.600 219.829 C 85.600 219.467,85.261 219.200,84.800 219.200 C 84.350 219.200,84.000 218.933,84.000 218.591 C 84.000 217.799,79.801 213.600,79.009 213.600 C 78.667 213.600,78.400 213.250,78.400 212.800 C 78.400 212.339,78.133 212.000,77.771 212.000 C 77.112 212.000,76.009 211.090,75.988 210.529 C 75.981 210.348,74.991 209.210,73.788 208.000 C 72.585 206.790,71.600 205.665,71.600 205.500 C 71.600 205.335,71.317 205.200,70.971 205.200 C 70.239 205.200,69.200 204.262,69.200 203.600 C 69.200 202.938,68.161 202.000,67.429 202.000 C 67.067 202.000,66.800 201.661,66.800 201.200 C 66.800 200.667,66.533 200.400,66.000 200.400 C 65.560 200.400,65.200 200.220,65.200 200.000 C 65.200 199.780,65.380 199.600,65.600 199.600 C 65.820 199.600,66.000 199.327,66.000 198.994 C 66.000 198.426,72.497 191.600,73.038 191.600 C 73.401 191.600,75.185 189.855,75.193 189.491 C 75.206 188.908,79.583 184.800,80.191 184.800 C 80.526 184.800,80.800 184.517,80.800 184.171 C 80.800 183.363,81.763 182.400,82.571 182.400 C 82.933 182.400,83.200 182.061,83.200 181.600 C 83.200 181.067,83.467 180.800,84.000 180.800 C 84.450 180.800,84.800 180.533,84.800 180.191 C 84.800 179.399,88.999 175.200,89.791 175.200 C 90.126 175.200,90.400 174.956,90.400 174.658 C 90.400 173.887,96.606 167.600,97.367 167.600 C 97.733 167.600,98.000 167.263,98.000 166.800 C 98.000 166.267,98.267 166.000,98.800 166.000 C 99.250 166.000,99.600 165.733,99.600 165.391 C 99.600 165.057,100.586 163.797,101.791 162.591 C 102.997 161.386,104.257 160.400,104.591 160.400 C 104.926 160.400,105.207 160.085,105.215 159.700 C 105.223 159.315,106.033 158.371,107.015 157.602 C 107.997 156.833,108.800 155.978,108.800 155.702 C 108.800 155.426,109.160 155.200,109.600 155.200 C 110.052 155.200,110.400 154.933,110.400 154.587 C 110.400 154.249,111.024 153.349,111.787 152.587 C 112.549 151.824,113.449 151.200,113.787 151.200 C 114.133 151.200,114.400 150.852,114.400 150.400 C 114.400 149.867,114.667 149.600,115.200 149.600 C 115.661 149.600,116.000 149.333,116.000 148.971 C 116.000 148.626,116.257 148.086,116.571 147.771 C 116.886 147.457,117.426 147.200,117.771 147.200 C 118.117 147.200,118.400 146.926,118.400 146.591 C 118.400 146.015,122.499 141.600,123.035 141.600 C 123.397 141.600,125.185 139.858,125.193 139.496 C 125.202 139.116,135.691 128.476,136.100 128.432 C 136.265 128.414,136.400 137.760,136.400 149.200 M265.818 129.382 C 266.358 129.922,266.800 130.642,266.800 130.982 C 266.800 131.333,267.145 131.600,267.600 131.600 C 268.133 131.600,268.400 131.867,268.400 132.400 C 268.400 132.855,268.667 133.200,269.018 133.200 C 269.818 133.200,271.600 134.982,271.600 135.782 C 271.600 136.133,271.945 136.400,272.400 136.400 C 272.933 136.400,273.200 136.667,273.200 137.200 C 273.200 137.700,273.467 138.000,273.912 138.000 C 274.303 138.000,274.888 138.383,275.212 138.852 C 275.535 139.320,276.385 140.335,277.100 141.108 C 277.815 141.880,278.400 142.667,278.400 142.856 C 278.400 143.045,278.683 143.200,279.029 143.200 C 279.837 143.200,280.800 144.163,280.800 144.971 C 280.800 145.333,281.139 145.600,281.600 145.600 C 282.061 145.600,282.400 145.867,282.400 146.229 C 282.400 146.961,283.338 148.000,284.000 148.000 C 284.662 148.000,285.600 149.039,285.600 149.771 C 285.600 150.117,285.875 150.400,286.211 150.400 C 286.937 150.400,290.392 153.757,290.419 154.489 C 290.429 154.770,291.419 155.785,292.619 156.745 C 293.819 157.705,294.800 158.656,294.800 158.858 C 294.800 159.469,297.528 162.000,298.187 162.000 C 298.524 162.000,298.800 162.275,298.800 162.611 C 298.800 163.306,302.151 166.800,302.818 166.800 C 303.464 166.800,304.400 167.848,304.400 168.571 C 304.400 168.917,304.683 169.200,305.029 169.200 C 305.374 169.200,305.914 169.457,306.229 169.771 C 306.543 170.086,306.800 170.626,306.800 170.971 C 306.800 171.333,307.139 171.600,307.600 171.600 C 308.040 171.600,308.400 171.826,308.400 172.102 C 308.400 172.729,311.444 176.000,312.028 176.000 C 312.666 176.000,313.600 177.053,313.600 177.771 C 313.600 178.117,313.883 178.400,314.229 178.400 C 314.574 178.400,315.114 178.657,315.429 178.971 C 315.743 179.286,316.000 179.826,316.000 180.171 C 316.000 180.533,316.339 180.800,316.800 180.800 C 317.251 180.800,317.600 181.067,317.600 181.411 C 317.600 182.106,320.951 185.600,321.618 185.600 C 322.184 185.600,323.200 186.614,323.200 187.178 C 323.200 187.697,325.911 190.400,326.431 190.400 C 326.630 190.400,327.199 191.028,327.696 191.795 C 328.193 192.562,328.915 193.192,329.300 193.195 C 329.685 193.198,330.000 193.483,330.000 193.829 C 330.000 194.637,330.963 195.600,331.771 195.600 C 332.117 195.600,332.400 195.884,332.400 196.231 C 332.400 196.579,333.120 197.554,334.000 198.400 C 335.820 200.148,335.920 200.400,334.800 200.400 C 334.352 200.400,334.000 200.667,334.000 201.006 C 334.000 201.532,327.523 208.400,327.026 208.400 C 326.728 208.400,324.800 210.266,324.800 210.555 C 324.800 211.097,320.392 215.200,319.809 215.200 C 319.474 215.200,319.200 215.483,319.200 215.829 C 319.200 216.637,318.237 217.600,317.429 217.600 C 317.067 217.600,316.800 217.939,316.800 218.400 C 316.800 218.933,316.533 219.200,316.000 219.200 C 315.548 219.200,315.200 219.467,315.200 219.813 C 315.200 220.609,312.609 223.200,311.813 223.200 C 311.467 223.200,311.200 223.548,311.200 224.000 C 311.200 224.533,310.933 224.800,310.400 224.800 C 309.960 224.800,309.600 225.048,309.600 225.352 C 309.600 226.125,301.794 234.000,301.028 234.000 C 300.682 234.000,300.400 234.274,300.400 234.609 C 300.400 235.401,296.201 239.600,295.409 239.600 C 295.074 239.600,294.800 239.894,294.800 240.253 C 294.800 240.906,293.796 241.962,292.100 243.092 C 291.605 243.422,291.200 243.853,291.200 244.051 C 291.200 244.669,282.841 252.800,282.205 252.800 C 281.872 252.800,281.600 253.074,281.600 253.409 C 281.600 254.083,277.456 258.400,276.809 258.400 C 276.584 258.400,276.400 258.559,276.400 258.754 C 276.400 259.136,264.998 270.800,264.625 270.800 C 264.501 270.800,264.400 261.260,264.400 249.600 C 264.400 228.667,264.410 228.400,265.200 228.400 C 265.733 228.400,266.000 228.133,266.000 227.600 C 266.000 227.157,266.267 226.800,266.598 226.800 C 267.298 226.800,271.600 222.867,271.600 222.226 C 271.600 221.986,272.005 221.612,272.500 221.395 C 272.995 221.178,273.578 220.595,273.795 220.100 C 274.012 219.605,274.330 219.200,274.501 219.200 C 275.084 219.200,280.800 213.216,280.800 212.606 C 280.800 212.273,281.063 212.000,281.383 212.000 C 282.091 212.000,288.000 206.356,288.000 205.680 C 288.000 205.416,288.204 205.200,288.453 205.200 C 289.932 205.200,292.400 201.701,292.400 199.603 L 292.400 197.501 279.810 184.951 C 272.886 178.048,266.946 172.400,266.610 172.400 C 266.275 172.400,266.000 172.080,266.000 171.688 C 266.000 171.297,265.640 170.717,265.200 170.400 C 264.426 169.842,263.852 128.400,264.618 128.400 C 264.738 128.400,265.278 128.842,265.818 129.382 " stroke="none" fill="#046cfc" fill-rule="evenodd"></path><path id="path1" d="" stroke="none" fill="#086cfc" fill-rule="evenodd"></path></g></svg>