<svg id="svg" version="1.1" xmlns="http://www.w3.org/2000/svg" xmlns:xlink="http://www.w3.org/1999/xlink" width="400" height="400" viewBox="0, 0, 400,400"><g id="svgg"><path id="path0" d="M297.400 3.200 C 297.264 3.420,296.713 3.600,296.176 3.600 C 295.639 3.600,295.200 3.780,295.200 4.000 C 295.200 4.220,294.581 4.400,293.824 4.400 C 293.067 4.400,292.336 4.580,292.200 4.800 C 292.064 5.020,291.603 5.200,291.176 5.200 C 290.749 5.200,290.400 5.380,290.400 5.600 C 290.400 5.820,290.040 6.000,289.600 6.000 C 289.160 6.000,288.800 6.180,288.800 6.400 C 288.800 6.620,288.440 6.800,288.000 6.800 C 287.560 6.800,287.200 6.980,287.200 7.200 C 287.200 7.420,286.840 7.600,286.400 7.600 C 285.960 7.600,285.600 7.780,285.600 8.000 C 285.600 8.220,285.240 8.400,284.800 8.400 C 284.360 8.400,284.000 8.580,284.000 8.800 C 284.000 9.020,283.730 9.200,283.400 9.200 C 283.070 9.200,282.800 9.380,282.800 9.600 C 282.800 9.820,282.558 10.000,282.262 10.000 C 281.966 10.000,281.398 10.360,281.000 10.800 C 280.602 11.240,280.053 11.600,279.781 11.600 C 279.508 11.600,279.182 11.870,279.055 12.200 C 278.929 12.530,278.549 12.800,278.213 12.800 C 277.876 12.800,277.600 12.980,277.600 13.200 C 277.600 13.420,277.413 13.600,277.184 13.600 C 276.706 13.600,269.200 21.091,269.200 21.568 C 269.200 21.740,268.660 22.446,268.000 23.137 C 267.340 23.828,266.800 24.649,266.800 24.963 C 266.800 25.277,266.653 25.593,266.472 25.667 C 265.905 25.897,262.800 30.726,262.800 31.378 C 262.800 31.720,262.641 32.000,262.447 32.000 C 262.129 32.000,261.749 32.839,261.389 34.335 C 261.318 34.629,260.797 35.849,260.230 37.046 C 259.664 38.243,259.200 39.746,259.200 40.387 C 259.200 41.028,259.020 41.664,258.800 41.800 C 258.580 41.936,258.400 42.577,258.400 43.224 C 258.400 43.871,258.220 44.400,258.000 44.400 C 257.772 44.400,257.600 45.592,257.600 47.176 C 257.600 48.703,257.420 50.064,257.200 50.200 C 256.961 50.348,256.800 52.937,256.800 56.624 C 256.800 60.475,256.951 62.800,257.200 62.800 C 257.428 62.800,257.600 63.992,257.600 65.576 C 257.600 67.103,257.780 68.464,258.000 68.600 C 258.220 68.736,258.400 69.366,258.400 70.000 C 258.400 70.634,258.580 71.264,258.800 71.400 C 259.020 71.536,259.202 72.042,259.205 72.524 C 259.208 73.006,259.735 74.435,260.377 75.700 C 261.018 76.965,261.457 78.000,261.351 78.000 C 260.757 78.000,265.119 84.951,266.936 86.900 C 267.500 87.505,267.873 88.000,267.765 88.000 C 267.657 88.000,267.801 88.251,268.084 88.558 C 268.368 88.865,268.735 89.034,268.900 88.934 C 269.065 88.835,269.200 88.908,269.200 89.098 C 269.200 89.660,271.864 92.400,272.411 92.400 C 272.687 92.400,273.407 92.917,274.011 93.549 C 274.615 94.181,275.850 95.114,276.755 95.623 C 277.660 96.131,278.400 96.694,278.400 96.874 C 278.400 97.053,278.861 97.200,279.424 97.200 C 280.004 97.200,280.340 97.373,280.200 97.600 C 280.064 97.820,280.323 98.000,280.776 98.000 C 281.229 98.000,281.601 98.135,281.603 98.300 C 281.607 98.659,283.544 99.600,284.280 99.600 C 284.566 99.600,284.800 99.780,284.800 100.000 C 284.800 100.220,285.250 100.400,285.800 100.400 C 286.350 100.400,286.800 100.580,286.800 100.800 C 286.800 101.020,287.239 101.200,287.776 101.200 C 288.313 101.200,288.864 101.380,289.000 101.600 C 289.136 101.820,290.047 102.000,291.024 102.000 C 292.001 102.000,292.800 102.180,292.800 102.400 C 292.800 102.620,293.509 102.800,294.376 102.800 C 295.243 102.800,296.064 102.980,296.200 103.200 C 296.348 103.439,298.996 103.600,302.800 103.600 C 306.604 103.600,309.252 103.439,309.400 103.200 C 309.536 102.980,310.357 102.800,311.224 102.800 C 312.091 102.800,312.800 102.620,312.800 102.400 C 312.800 102.180,313.700 102.000,314.800 102.000 C 315.900 102.000,316.800 101.820,316.800 101.600 C 316.800 101.380,317.340 101.200,318.000 101.200 C 318.660 101.200,319.200 101.020,319.200 100.800 C 319.200 100.580,319.560 100.400,320.000 100.400 C 320.440 100.400,320.800 100.220,320.800 100.000 C 320.800 99.780,321.155 99.600,321.588 99.600 C 322.021 99.600,323.017 99.240,323.800 98.800 C 324.583 98.360,325.455 98.000,325.737 98.000 C 326.019 98.000,326.636 97.640,327.108 97.200 C 327.580 96.760,328.244 96.400,328.583 96.400 C 328.922 96.400,329.200 96.220,329.200 96.000 C 329.200 95.780,329.560 95.600,330.000 95.600 C 330.440 95.600,330.800 95.420,330.800 95.200 C 330.800 94.980,331.070 94.800,331.400 94.800 C 331.730 94.800,332.000 94.620,332.000 94.400 C 332.000 94.180,332.281 94.000,332.624 94.000 C 332.967 94.000,333.136 93.820,333.000 93.600 C 332.864 93.380,333.123 93.200,333.576 93.200 C 334.029 93.200,334.400 93.020,334.400 92.800 C 334.400 92.580,334.625 92.398,334.900 92.396 C 335.175 92.394,335.825 91.854,336.345 91.196 C 336.865 90.538,337.448 90.000,337.642 90.000 C 338.213 90.000,340.000 88.299,340.000 87.755 C 340.000 87.479,340.360 87.140,340.800 87.000 C 341.240 86.860,341.600 86.594,341.600 86.407 C 341.600 86.221,342.500 85.120,343.600 83.961 C 344.700 82.801,345.600 81.698,345.600 81.510 C 345.600 81.321,345.960 80.780,346.400 80.308 C 346.840 79.836,347.200 79.213,347.200 78.925 C 347.200 78.636,347.380 78.400,347.600 78.400 C 347.820 78.400,348.000 78.040,348.000 77.600 C 348.000 77.160,348.161 76.800,348.358 76.800 C 348.790 76.800,352.000 70.334,352.000 69.463 C 352.000 69.124,352.159 68.749,352.352 68.630 C 352.546 68.510,352.802 68.004,352.920 67.506 C 353.039 67.008,353.596 64.800,354.158 62.600 C 356.322 54.125,355.558 38.243,352.609 30.400 C 351.166 26.563,348.340 21.638,346.311 19.425 C 345.920 18.998,345.600 18.508,345.600 18.335 C 345.600 17.127,336.990 9.788,333.500 8.022 C 332.895 7.715,332.400 7.315,332.400 7.132 C 332.400 6.950,332.040 6.800,331.600 6.800 C 331.160 6.800,330.800 6.620,330.800 6.400 C 330.800 6.180,330.535 6.000,330.212 6.000 C 329.889 6.000,328.983 5.640,328.200 5.200 C 327.417 4.760,326.241 4.400,325.588 4.400 C 324.935 4.400,324.400 4.220,324.400 4.000 C 324.400 3.780,324.051 3.600,323.624 3.600 C 323.197 3.600,322.736 3.420,322.600 3.200 C 322.263 2.654,297.737 2.654,297.400 3.200 M154.200 8.000 C 154.064 8.220,153.243 8.400,152.376 8.400 C 151.509 8.400,150.800 8.559,150.800 8.753 C 150.800 8.948,150.485 9.189,150.100 9.290 C 149.715 9.390,149.220 9.531,149.000 9.603 C 146.916 10.282,140.400 16.431,140.400 17.719 C 140.400 17.996,140.040 18.483,139.600 18.800 C 139.130 19.139,138.800 19.835,138.800 20.488 C 138.800 21.100,138.620 21.600,138.400 21.600 C 138.180 21.600,138.000 21.960,138.000 22.400 C 138.000 22.840,137.820 23.200,137.600 23.200 C 137.380 23.200,137.200 23.740,137.200 24.400 C 137.200 25.060,137.020 25.600,136.800 25.600 C 136.578 25.600,136.400 26.659,136.400 27.976 C 136.400 29.283,136.220 30.464,136.000 30.600 C 135.775 30.739,135.600 32.663,135.600 35.000 C 135.600 37.337,135.775 39.261,136.000 39.400 C 136.220 39.536,136.400 40.807,136.400 42.224 C 136.400 43.675,136.575 44.800,136.800 44.800 C 137.020 44.800,137.200 45.340,137.200 46.000 C 137.200 46.660,137.380 47.200,137.600 47.200 C 137.820 47.200,138.000 47.650,138.000 48.200 C 138.000 48.750,138.180 49.200,138.400 49.200 C 138.620 49.200,138.800 49.790,138.800 50.512 C 138.800 51.365,139.080 52.025,139.600 52.400 C 140.040 52.717,140.400 53.387,140.400 53.888 C 140.400 54.390,140.580 54.800,140.800 54.800 C 141.020 54.800,141.200 54.978,141.200 55.195 C 141.200 55.634,142.223 56.974,143.300 57.946 C 143.685 58.294,144.000 58.808,144.000 59.089 C 144.000 59.370,144.270 59.600,144.600 59.600 C 144.930 59.600,145.200 59.780,145.200 60.000 C 145.200 60.220,145.430 60.400,145.712 60.400 C 145.993 60.400,146.483 60.760,146.800 61.200 C 147.117 61.640,147.614 62.000,147.905 62.000 C 148.196 62.000,148.820 62.360,149.292 62.800 C 149.764 63.240,150.488 63.600,150.899 63.600 C 151.311 63.600,151.536 63.780,151.400 64.000 C 151.264 64.220,151.513 64.400,151.953 64.400 C 152.393 64.400,152.864 64.580,153.000 64.800 C 153.136 65.020,153.687 65.200,154.224 65.200 C 154.761 65.200,155.200 65.387,155.200 65.615 C 155.200 65.884,157.229 66.011,161.000 65.978 C 164.190 65.949,166.800 65.763,166.800 65.563 C 166.800 65.363,167.160 65.200,167.600 65.200 C 168.040 65.200,168.400 65.020,168.400 64.800 C 168.400 64.580,168.760 64.400,169.200 64.400 C 169.640 64.400,170.000 64.220,170.000 64.000 C 170.000 63.780,170.360 63.600,170.800 63.600 C 171.240 63.600,171.600 63.420,171.600 63.200 C 171.600 62.980,171.808 62.800,172.062 62.800 C 172.668 62.800,177.600 57.764,177.600 57.145 C 177.600 56.882,177.717 56.784,177.860 56.927 C 178.196 57.263,179.171 55.986,179.187 55.188 C 179.194 54.852,179.560 54.317,180.000 54.000 C 180.440 53.683,180.800 53.024,180.800 52.535 C 180.800 52.047,180.980 51.536,181.200 51.400 C 181.420 51.264,181.600 50.803,181.600 50.376 C 181.600 49.949,181.780 49.600,182.000 49.600 C 182.220 49.600,182.400 49.071,182.400 48.424 C 182.400 47.777,182.580 47.136,182.800 47.000 C 183.045 46.849,183.200 43.670,183.200 38.800 C 183.200 33.930,183.045 30.751,182.800 30.600 C 182.580 30.464,182.400 29.733,182.400 28.976 C 182.400 28.219,182.220 27.600,182.000 27.600 C 181.780 27.600,181.600 27.150,181.600 26.600 C 181.600 26.050,181.420 25.600,181.200 25.600 C 180.980 25.600,180.800 25.186,180.800 24.680 C 180.800 23.626,179.947 21.608,179.500 21.603 C 179.335 21.601,179.200 21.328,179.200 20.995 C 179.200 20.223,178.401 18.796,177.500 17.957 C 177.115 17.599,176.800 17.084,176.800 16.813 C 176.800 15.455,170.248 10.428,167.300 9.526 C 166.365 9.239,165.600 8.869,165.600 8.703 C 165.600 8.536,164.790 8.400,163.800 8.400 C 162.810 8.400,162.000 8.220,162.000 8.000 C 162.000 7.762,160.475 7.600,158.224 7.600 C 156.137 7.600,154.337 7.779,154.200 8.000 M210.580 8.736 C 210.371 8.921,209.570 9.310,208.800 9.601 C 208.030 9.891,206.980 10.505,206.468 10.965 C 205.955 11.424,205.415 11.767,205.268 11.727 C 204.607 11.546,198.800 17.789,198.800 18.680 C 198.800 18.966,198.648 19.200,198.463 19.200 C 198.277 19.200,197.692 20.055,197.163 21.100 C 196.633 22.145,196.065 23.060,195.900 23.133 C 195.735 23.207,195.600 23.666,195.600 24.153 C 195.600 24.641,195.450 25.211,195.267 25.420 C 194.608 26.172,193.200 30.131,193.200 31.230 C 193.200 31.847,193.032 32.457,192.827 32.583 C 191.952 33.124,192.041 46.975,192.925 47.859 C 193.076 48.010,193.200 48.536,193.200 49.029 C 193.200 49.946,194.761 53.294,195.300 53.533 C 195.465 53.607,195.600 53.882,195.600 54.144 C 195.600 54.407,196.149 55.247,196.821 56.011 C 199.772 59.368,200.773 60.400,201.080 60.400 C 201.260 60.400,201.632 60.760,201.907 61.200 C 202.182 61.640,202.593 62.000,202.820 62.000 C 203.047 62.000,203.620 62.360,204.092 62.800 C 204.564 63.240,205.367 63.600,205.875 63.600 C 206.384 63.600,206.800 63.780,206.800 64.000 C 206.800 64.220,207.160 64.400,207.600 64.400 C 208.040 64.400,208.400 64.580,208.400 64.800 C 208.400 65.020,208.940 65.200,209.600 65.200 C 210.260 65.200,210.800 65.380,210.800 65.600 C 210.800 65.851,213.333 66.000,217.600 66.000 C 221.867 66.000,224.400 65.851,224.400 65.600 C 224.400 65.380,224.760 65.200,225.200 65.200 C 225.640 65.200,226.000 65.020,226.000 64.800 C 226.000 64.580,226.540 64.400,227.200 64.400 C 227.860 64.400,228.400 64.220,228.400 64.000 C 228.400 63.780,228.687 63.600,229.037 63.600 C 229.388 63.600,229.769 63.240,229.884 62.800 C 229.999 62.360,230.321 62.000,230.598 62.000 C 231.117 62.000,236.400 57.023,236.400 56.535 C 236.400 56.385,236.699 55.933,237.064 55.529 C 238.176 54.301,240.873 49.095,240.913 48.100 C 240.924 47.825,241.083 47.600,241.267 47.600 C 241.450 47.600,241.600 46.970,241.600 46.200 C 241.600 45.430,241.780 44.800,242.000 44.800 C 242.220 44.800,242.400 44.260,242.400 43.600 C 242.400 42.940,242.580 42.400,242.800 42.400 C 243.020 42.400,243.200 41.500,243.200 40.400 C 243.200 39.257,243.382 38.400,243.624 38.400 C 244.426 38.400,243.595 26.291,242.758 25.774 C 242.561 25.652,242.400 25.203,242.400 24.776 C 242.400 24.349,242.220 24.000,242.000 24.000 C 241.780 24.000,241.600 23.623,241.600 23.162 C 241.600 22.701,241.266 21.846,240.857 21.262 C 240.448 20.678,240.043 20.000,239.957 19.755 C 239.301 17.895,233.349 12.025,232.100 12.007 C 231.825 12.003,231.600 11.809,231.600 11.576 C 231.600 11.343,231.420 11.264,231.200 11.400 C 230.980 11.536,230.800 11.478,230.800 11.272 C 230.800 10.916,229.128 10.071,227.949 9.832 C 227.377 9.716,226.442 9.392,224.881 8.767 C 223.731 8.307,211.096 8.279,210.580 8.736 M316.065 14.167 C 320.532 15.030,325.798 16.985,328.600 18.822 C 329.260 19.255,330.115 19.718,330.500 19.851 C 330.885 19.984,331.200 20.279,331.200 20.507 C 331.200 20.912,334.343 24.018,336.758 26.000 C 337.428 26.550,337.981 27.197,337.988 27.438 C 337.995 27.679,338.360 28.202,338.800 28.600 C 339.243 29.001,339.600 29.832,339.600 30.462 C 339.600 31.088,339.780 31.600,340.000 31.600 C 340.220 31.600,340.400 31.960,340.400 32.400 C 340.400 32.840,340.580 33.200,340.800 33.200 C 341.020 33.200,341.200 33.520,341.200 33.912 C 341.200 34.303,341.560 34.883,342.000 35.200 C 342.470 35.539,342.800 36.235,342.800 36.888 C 342.800 37.500,342.980 38.000,343.200 38.000 C 343.753 38.000,343.701 39.048,343.100 40.018 C 342.717 40.635,342.711 40.894,343.074 41.120 C 343.335 41.282,343.673 42.357,343.825 43.508 C 343.978 44.658,344.260 45.600,344.452 45.600 C 344.643 45.600,344.800 46.140,344.800 46.800 L 344.800 48.000 307.400 48.000 C 270.267 48.000,270.000 47.994,270.000 47.200 C 270.000 46.760,270.180 46.400,270.400 46.400 C 270.620 46.400,270.800 45.860,270.800 45.200 C 270.800 44.540,270.980 44.000,271.200 44.000 C 271.420 44.000,271.600 43.640,271.600 43.200 C 271.600 42.760,271.780 42.400,272.000 42.400 C 272.220 42.400,272.400 42.145,272.400 41.833 C 272.400 41.522,272.606 41.198,272.857 41.114 C 273.192 41.003,273.176 40.703,272.800 40.000 C 272.424 39.297,272.408 38.997,272.743 38.886 C 272.994 38.802,273.200 38.388,273.200 37.967 C 273.200 37.545,273.380 37.200,273.600 37.200 C 273.820 37.200,274.000 36.922,274.000 36.583 C 274.000 36.006,274.256 35.602,275.500 34.215 C 275.775 33.908,276.000 33.414,276.000 33.117 C 276.000 32.820,276.360 32.317,276.800 32.000 C 277.240 31.683,277.600 31.003,277.600 30.490 C 277.600 29.288,283.987 23.116,286.063 22.312 C 286.472 22.153,287.007 21.583,287.252 21.046 C 287.497 20.508,287.991 19.968,288.349 19.846 C 288.707 19.723,289.270 19.441,289.600 19.218 C 295.772 15.047,308.271 12.662,316.065 14.167 M160.959 20.381 C 161.816 20.579,162.626 20.890,162.759 21.072 C 162.891 21.253,163.540 21.661,164.200 21.979 C 165.618 22.661,170.000 26.776,170.000 27.425 C 170.000 27.673,170.360 28.202,170.800 28.600 C 171.390 29.134,171.600 29.832,171.600 31.262 C 171.600 32.328,171.780 33.200,172.000 33.200 C 172.220 33.200,172.400 33.920,172.400 34.800 C 172.400 35.680,172.580 36.400,172.800 36.400 C 173.020 36.400,173.200 37.109,173.200 37.976 C 173.200 38.843,173.020 39.664,172.800 39.800 C 172.580 39.936,172.400 41.477,172.400 43.224 C 172.400 45.075,172.233 46.400,172.000 46.400 C 171.780 46.400,171.600 46.760,171.600 47.200 C 171.600 47.982,171.333 48.000,159.800 48.000 L 148.000 48.000 148.000 46.800 C 148.000 46.140,147.820 45.600,147.600 45.600 C 147.380 45.600,147.200 44.970,147.200 44.200 C 147.200 43.430,147.020 42.800,146.800 42.800 C 146.580 42.800,146.400 42.181,146.400 41.424 C 146.400 40.667,146.220 39.936,146.000 39.800 C 145.780 39.664,145.600 38.314,145.600 36.800 C 145.600 35.286,145.780 33.936,146.000 33.800 C 146.220 33.664,146.400 32.694,146.400 31.644 C 146.400 28.629,150.349 22.400,152.261 22.400 C 152.532 22.400,153.021 22.020,153.346 21.556 C 154.296 20.200,157.828 19.655,160.959 20.381 M222.355 21.089 C 222.490 21.285,223.230 21.689,224.000 21.987 C 224.770 22.286,225.772 22.860,226.226 23.265 C 226.680 23.669,227.227 24.000,227.441 24.000 C 228.830 24.000,232.400 29.035,232.400 30.995 C 232.400 31.768,232.580 32.400,232.800 32.400 C 233.037 32.400,233.200 33.859,233.200 35.976 C 233.200 37.943,233.020 39.664,232.800 39.800 C 232.580 39.936,232.400 40.487,232.400 41.024 C 232.400 41.561,232.220 42.000,232.000 42.000 C 231.780 42.000,231.600 42.450,231.600 43.000 C 231.600 43.550,231.420 44.000,231.200 44.000 C 230.980 44.000,230.800 44.540,230.800 45.200 C 230.800 45.860,230.620 46.400,230.400 46.400 C 230.180 46.400,230.000 46.760,230.000 47.200 C 230.000 47.984,229.733 48.000,216.800 48.000 C 203.867 48.000,203.600 47.984,203.600 47.200 C 203.600 46.760,203.420 46.400,203.200 46.400 C 202.968 46.400,202.800 45.093,202.800 43.280 C 202.800 41.333,202.612 39.961,202.300 39.630 C 201.900 39.206,201.900 39.063,202.300 38.917 C 202.575 38.816,202.800 38.208,202.800 37.567 C 202.800 36.925,202.980 36.400,203.200 36.400 C 203.420 36.400,203.600 35.860,203.600 35.200 C 203.600 34.540,203.780 34.000,204.000 34.000 C 204.220 34.000,204.400 33.640,204.400 33.200 C 204.400 32.760,204.580 32.400,204.800 32.400 C 205.020 32.400,205.200 31.768,205.200 30.995 C 205.200 30.222,205.425 29.199,205.700 28.721 C 206.873 26.685,211.040 22.400,211.847 22.400 C 212.151 22.400,212.400 22.220,212.400 22.000 C 212.400 21.780,212.670 21.600,213.000 21.600 C 213.330 21.600,213.600 21.432,213.600 21.227 C 213.600 20.418,221.807 20.289,222.355 21.089 M97.800 31.703 C 96.920 32.139,95.887 32.654,95.505 32.848 C 95.123 33.042,94.540 33.200,94.209 33.200 C 93.878 33.200,93.382 33.560,93.107 34.000 C 92.832 34.440,92.378 34.800,92.097 34.800 C 91.052 34.800,85.600 40.724,85.600 41.860 C 85.600 42.450,85.483 42.816,85.340 42.673 C 84.985 42.318,84.028 43.635,84.013 44.500 C 84.006 44.885,83.820 45.200,83.600 45.200 C 83.380 45.200,83.200 45.909,83.200 46.776 C 83.200 47.643,83.020 48.464,82.800 48.600 C 82.580 48.736,82.400 50.176,82.400 51.800 C 82.400 53.424,82.580 54.864,82.800 55.000 C 83.020 55.136,83.200 56.126,83.200 57.200 C 83.200 58.274,83.380 59.264,83.600 59.400 C 83.820 59.536,84.000 60.177,84.000 60.824 C 84.000 61.471,84.180 62.000,84.400 62.000 C 84.620 62.000,84.800 62.360,84.800 62.800 C 84.800 63.240,84.980 63.600,85.200 63.600 C 85.420 63.600,85.600 63.834,85.600 64.120 C 85.600 64.856,86.541 66.793,86.900 66.797 C 87.065 66.799,87.200 67.088,87.200 67.440 C 87.200 67.791,87.740 68.583,88.400 69.200 C 89.060 69.817,89.600 70.569,89.600 70.872 C 89.600 71.175,89.960 71.683,90.400 72.000 C 90.840 72.317,91.200 72.764,91.200 72.993 C 91.200 73.223,91.684 73.768,92.275 74.205 C 92.866 74.642,93.940 75.585,94.662 76.300 C 95.383 77.015,96.248 77.600,96.583 77.600 C 96.919 77.600,97.418 77.960,97.693 78.400 C 97.968 78.840,98.385 79.200,98.621 79.200 C 98.857 79.200,99.795 79.560,100.706 80.000 C 101.616 80.440,102.899 80.800,103.557 80.800 C 104.215 80.800,104.851 80.959,104.971 81.153 C 105.287 81.665,113.077 81.722,113.390 81.216 C 113.532 80.987,113.999 80.800,114.430 80.800 C 115.538 80.800,118.400 79.865,118.400 79.503 C 118.400 79.336,118.831 79.200,119.357 79.200 C 119.884 79.200,120.422 78.919,120.554 78.575 C 120.686 78.231,120.957 78.050,121.155 78.172 C 121.354 78.295,121.629 78.101,121.768 77.740 C 121.906 77.380,122.123 77.189,122.249 77.316 C 122.376 77.443,123.115 76.974,123.890 76.273 C 124.666 75.573,125.458 75.045,125.650 75.100 C 125.843 75.155,126.000 75.028,126.000 74.818 C 126.000 74.608,126.405 74.010,126.900 73.488 C 128.403 71.904,128.959 71.085,129.944 68.999 C 130.463 67.900,131.076 66.642,131.307 66.204 C 131.862 65.151,131.797 53.554,131.230 52.443 C 130.994 51.979,130.620 51.242,130.400 50.805 C 130.180 50.368,130.000 49.726,130.000 49.377 C 130.000 49.029,129.460 47.959,128.800 47.000 C 128.140 46.041,127.600 44.973,127.600 44.628 C 127.600 44.283,127.420 44.000,127.200 44.000 C 126.980 44.000,126.800 43.796,126.800 43.547 C 126.800 43.298,126.467 42.803,126.059 42.447 C 125.652 42.091,125.039 41.260,124.697 40.600 C 123.984 39.226,119.638 34.800,119.001 34.800 C 118.768 34.800,118.317 34.440,118.000 34.000 C 117.683 33.560,117.199 33.200,116.924 33.200 C 116.649 33.200,115.783 32.840,115.000 32.400 C 114.217 31.960,113.221 31.600,112.788 31.600 C 112.355 31.600,112.000 31.413,112.000 31.184 C 112.000 30.346,99.627 30.798,97.800 31.703 M108.400 45.200 C 108.400 45.420,108.760 45.600,109.200 45.600 C 109.640 45.600,110.000 45.780,110.000 46.000 C 110.000 46.220,110.193 46.400,110.429 46.400 C 110.878 46.400,112.000 47.379,112.000 47.771 C 112.000 47.897,108.850 48.000,105.000 48.000 C 100.600 48.000,98.000 47.851,98.000 47.600 C 98.000 47.380,98.320 47.200,98.712 47.200 C 99.103 47.200,99.683 46.840,100.000 46.400 C 100.339 45.930,101.035 45.600,101.688 45.600 C 102.300 45.600,102.800 45.420,102.800 45.200 C 102.800 44.971,104.000 44.800,105.600 44.800 C 107.200 44.800,108.400 44.971,108.400 45.200 M57.800 68.000 C 57.664 68.220,57.023 68.400,56.376 68.400 C 55.729 68.400,55.200 68.580,55.200 68.800 C 55.200 69.020,54.917 69.200,54.572 69.200 C 52.963 69.200,49.106 72.542,47.379 75.432 C 43.204 82.419,44.216 97.016,49.222 102.022 C 49.650 102.450,49.984 102.905,49.965 103.033 C 49.878 103.613,55.398 108.782,56.117 108.795 C 56.291 108.798,56.820 109.160,57.292 109.600 C 57.764 110.040,58.387 110.400,58.675 110.400 C 58.964 110.400,59.200 110.580,59.200 110.800 C 59.200 111.020,59.639 111.200,60.176 111.200 C 60.713 111.200,61.264 111.380,61.400 111.600 C 61.536 111.820,62.087 112.000,62.624 112.000 C 63.161 112.000,63.600 112.180,63.600 112.400 C 63.600 112.647,65.675 112.800,69.024 112.800 C 72.537 112.800,74.360 112.659,74.200 112.400 C 74.060 112.173,74.396 112.000,74.976 112.000 C 75.539 112.000,76.000 111.820,76.000 111.600 C 76.000 111.380,76.500 111.200,77.112 111.200 C 77.765 111.200,78.461 110.870,78.800 110.400 C 79.117 109.960,79.613 109.600,79.902 109.600 C 80.521 109.600,83.200 107.012,83.200 106.413 C 83.200 106.186,83.350 106.000,83.533 106.000 C 84.191 106.000,86.400 101.086,86.400 99.624 C 86.400 98.819,86.593 97.967,86.830 97.730 C 87.504 97.056,86.901 88.368,86.029 86.200 C 85.583 85.092,84.778 83.193,84.249 82.000 C 84.005 81.450,83.489 80.709,83.103 80.353 C 82.716 79.997,82.400 79.504,82.400 79.258 C 82.400 78.366,76.754 72.400,75.910 72.400 C 75.617 72.400,75.117 72.040,74.800 71.600 C 74.483 71.160,73.903 70.800,73.512 70.800 C 73.120 70.800,72.800 70.664,72.800 70.498 C 72.800 70.331,72.215 69.960,71.500 69.671 C 70.785 69.383,69.887 68.979,69.505 68.774 C 69.123 68.568,68.369 68.400,67.829 68.400 C 67.289 68.400,66.736 68.220,66.600 68.000 C 66.461 67.775,64.537 67.600,62.200 67.600 C 59.863 67.600,57.939 67.775,57.800 68.000 M175.400 72.000 C 175.257 72.232,173.070 72.400,170.200 72.400 C 167.330 72.400,165.143 72.568,165.000 72.800 C 164.864 73.020,163.673 73.200,162.353 73.200 C 160.855 73.200,160.046 73.350,160.200 73.600 C 160.351 73.844,159.737 74.000,158.624 74.000 C 157.621 74.000,156.800 74.180,156.800 74.400 C 156.800 74.620,155.852 74.800,154.694 74.800 C 153.536 74.800,151.657 75.141,150.518 75.557 C 149.379 75.973,148.360 76.226,148.253 76.120 C 147.988 75.855,142.233 77.677,142.067 78.079 C 141.993 78.255,141.329 78.400,140.590 78.400 C 139.852 78.400,139.136 78.580,139.000 78.800 C 138.864 79.020,138.403 79.200,137.976 79.200 C 137.549 79.200,137.200 79.380,137.200 79.600 C 137.200 79.820,136.660 80.000,136.000 80.000 C 135.340 80.000,134.800 80.136,134.800 80.302 C 134.800 80.469,134.215 80.840,133.500 81.129 C 132.785 81.417,131.887 81.821,131.505 82.026 C 131.123 82.232,130.448 82.400,130.005 82.400 C 129.562 82.400,129.200 82.580,129.200 82.800 C 129.200 83.020,128.840 83.200,128.400 83.200 C 127.960 83.200,127.600 83.380,127.600 83.600 C 127.600 83.820,127.165 84.000,126.633 84.000 C 126.102 84.000,125.607 84.135,125.533 84.300 C 125.341 84.732,122.028 86.400,121.362 86.400 C 121.053 86.400,120.800 86.580,120.800 86.800 C 120.800 87.020,120.440 87.200,120.000 87.200 C 119.560 87.200,119.200 87.380,119.200 87.600 C 119.200 87.820,118.855 88.000,118.433 88.000 C 118.012 88.000,117.607 88.142,117.533 88.315 C 117.460 88.488,116.384 89.122,115.141 89.724 C 113.899 90.326,112.662 91.084,112.392 91.409 C 112.123 91.734,111.677 92.000,111.401 92.000 C 110.702 92.000,107.630 93.776,106.248 94.980 C 105.614 95.531,104.939 95.886,104.748 95.768 C 104.557 95.650,104.400 95.722,104.400 95.928 C 104.400 96.134,103.890 96.514,103.266 96.773 C 102.642 97.031,101.551 97.773,100.841 98.421 C 100.131 99.070,99.427 99.602,99.275 99.604 C 98.731 99.612,95.630 102.297,95.879 102.546 C 96.019 102.686,95.854 102.800,95.513 102.800 C 94.916 102.800,84.800 112.434,84.800 113.002 C 84.800 113.154,84.260 113.783,83.600 114.400 C 82.940 115.017,82.400 115.719,82.400 115.960 C 82.400 116.202,82.220 116.400,82.000 116.400 C 81.780 116.400,81.600 116.668,81.600 116.997 C 81.600 117.325,81.240 117.818,80.800 118.093 C 80.360 118.368,80.000 118.785,80.000 119.021 C 80.000 119.256,79.659 119.815,79.243 120.262 C 78.826 120.709,78.173 121.680,77.791 122.418 C 77.409 123.157,76.848 124.009,76.544 124.313 C 76.241 124.616,76.095 125.030,76.220 125.232 C 76.345 125.435,76.290 125.600,76.098 125.600 C 75.906 125.600,75.502 126.230,75.200 127.000 C 74.898 127.770,74.504 128.400,74.325 128.400 C 74.146 128.400,74.000 128.760,74.000 129.200 C 74.000 129.640,73.820 130.000,73.600 130.000 C 73.380 130.000,73.200 130.360,73.200 130.800 C 73.200 131.240,73.020 131.600,72.800 131.600 C 72.580 131.600,72.400 131.960,72.400 132.400 C 72.400 132.840,72.220 133.200,72.000 133.200 C 71.780 133.200,71.600 133.560,71.600 134.000 C 71.600 134.440,71.420 134.800,71.200 134.800 C 70.980 134.800,70.800 135.160,70.800 135.600 C 70.800 136.040,70.620 136.400,70.400 136.400 C 70.180 136.400,70.000 136.814,70.000 137.320 C 70.000 138.374,69.147 140.392,68.700 140.397 C 68.535 140.399,68.400 140.935,68.400 141.588 C 68.400 142.241,68.040 143.417,67.600 144.200 C 67.160 144.983,66.800 146.058,66.800 146.589 C 66.800 147.119,66.620 147.664,66.400 147.800 C 66.180 147.936,66.000 148.476,66.000 149.000 C 66.000 149.524,65.820 150.064,65.600 150.200 C 65.380 150.336,65.200 150.851,65.200 151.344 C 65.200 151.837,65.038 152.411,64.841 152.620 C 64.644 152.829,64.392 153.720,64.282 154.600 C 64.173 155.480,63.688 157.550,63.205 159.200 C 62.722 160.850,62.244 162.920,62.143 163.800 C 62.041 164.680,61.800 165.760,61.606 166.200 C 61.413 166.640,61.150 167.630,61.023 168.400 C 60.773 169.911,60.031 175.172,59.838 176.800 C 59.773 177.350,59.623 178.070,59.504 178.400 C 58.921 180.021,58.400 184.712,58.400 188.346 C 58.400 190.782,58.240 192.400,58.000 192.400 C 57.452 192.400,57.452 217.461,58.000 217.800 C 58.233 217.944,58.399 220.168,58.398 223.124 C 58.396 227.840,59.015 235.818,59.491 237.200 C 59.605 237.530,59.757 238.520,59.829 239.400 C 60.241 244.416,61.170 251.652,61.512 252.509 C 61.854 253.366,62.009 254.167,62.187 256.000 C 62.637 260.630,62.890 262.213,63.239 262.580 C 63.437 262.789,63.600 263.543,63.600 264.256 C 63.600 264.969,63.780 265.664,64.000 265.800 C 64.220 265.936,64.400 267.016,64.400 268.200 C 64.400 269.384,64.580 270.464,64.800 270.600 C 65.020 270.736,65.200 271.467,65.200 272.224 C 65.200 272.981,65.380 273.600,65.600 273.600 C 65.820 273.600,66.000 274.227,66.000 274.994 C 66.000 276.526,66.693 279.802,67.247 280.895 C 67.441 281.277,67.600 282.031,67.600 282.571 C 67.600 283.111,67.780 283.664,68.000 283.800 C 68.220 283.936,68.400 284.847,68.400 285.824 C 68.400 286.801,68.580 287.600,68.800 287.600 C 69.020 287.600,69.200 288.140,69.200 288.800 C 69.200 289.460,69.380 290.000,69.600 290.000 C 69.820 290.000,70.000 290.709,70.000 291.576 C 70.000 292.443,70.180 293.264,70.400 293.400 C 70.620 293.536,70.800 294.076,70.800 294.600 C 70.800 295.124,70.980 295.664,71.200 295.800 C 71.420 295.936,71.600 296.476,71.600 297.000 C 71.600 297.524,71.780 298.064,72.000 298.200 C 72.220 298.336,72.400 299.067,72.400 299.824 C 72.400 300.581,72.580 301.200,72.800 301.200 C 73.020 301.200,73.200 301.639,73.200 302.176 C 73.200 302.713,73.380 303.264,73.600 303.400 C 73.820 303.536,74.000 304.267,74.000 305.024 C 74.000 305.781,74.137 306.400,74.305 306.400 C 74.539 306.400,76.070 310.917,76.204 312.000 C 76.217 312.110,76.429 312.560,76.675 313.000 C 76.920 313.440,77.124 313.890,77.128 314.000 C 77.146 314.539,77.704 316.702,78.031 317.500 C 78.234 317.995,78.601 318.895,78.847 319.500 C 79.092 320.105,79.452 320.913,79.647 321.295 C 79.841 321.677,80.000 322.352,80.000 322.795 C 80.000 323.238,80.180 323.600,80.400 323.600 C 80.620 323.600,80.800 323.960,80.800 324.400 C 80.800 324.840,80.980 325.200,81.200 325.200 C 81.420 325.200,81.600 325.740,81.600 326.400 C 81.600 327.060,81.780 327.600,82.000 327.600 C 82.220 327.600,82.400 327.960,82.400 328.400 C 82.400 328.840,82.580 329.200,82.800 329.200 C 83.020 329.200,83.200 329.639,83.200 330.176 C 83.200 330.713,83.380 331.264,83.600 331.400 C 83.820 331.536,84.000 331.997,84.000 332.424 C 84.000 332.851,84.136 333.200,84.302 333.200 C 84.469 333.200,84.849 333.785,85.147 334.500 C 85.445 335.215,85.893 336.295,86.142 336.900 C 86.391 337.505,86.731 338.000,86.898 338.000 C 87.064 338.000,87.200 338.349,87.200 338.776 C 87.200 339.203,87.380 339.664,87.600 339.800 C 87.820 339.936,88.000 340.357,88.000 340.735 C 88.000 341.114,88.360 341.683,88.800 342.000 C 89.241 342.318,89.600 343.035,89.600 343.600 C 89.600 344.165,89.959 344.882,90.400 345.200 C 90.840 345.517,91.200 346.001,91.200 346.276 C 91.200 346.551,91.585 347.456,92.057 348.288 C 92.528 349.120,93.365 350.610,93.917 351.600 C 94.470 352.590,95.074 353.460,95.261 353.533 C 95.447 353.607,95.600 353.972,95.600 354.345 C 95.600 354.718,95.960 355.283,96.400 355.600 C 96.840 355.917,97.200 356.399,97.200 356.671 C 97.200 357.536,101.751 364.834,102.477 365.133 C 102.655 365.207,102.800 365.430,102.800 365.629 C 102.800 366.019,103.660 367.141,105.100 368.632 C 105.595 369.144,106.000 369.731,106.000 369.935 C 106.000 370.140,106.675 370.918,107.500 371.665 C 108.325 372.412,109.625 373.828,110.388 374.812 C 111.152 375.795,112.401 377.140,113.163 377.800 C 113.926 378.460,115.281 379.722,116.175 380.605 C 117.069 381.488,118.430 382.654,119.200 383.197 C 119.970 383.739,121.013 384.592,121.518 385.091 C 122.023 385.591,122.595 386.000,122.790 386.000 C 122.984 386.000,123.381 386.231,123.671 386.514 C 124.841 387.649,132.117 391.573,133.088 391.591 C 133.356 391.596,134.217 391.960,135.000 392.400 C 135.783 392.840,136.779 393.200,137.212 393.200 C 137.645 393.200,138.000 393.380,138.000 393.600 C 138.000 393.820,138.720 394.000,139.600 394.000 C 140.480 394.000,141.200 394.180,141.200 394.400 C 141.200 394.620,141.920 394.800,142.800 394.800 C 143.680 394.800,144.400 394.980,144.400 395.200 C 144.400 395.420,145.390 395.600,146.600 395.600 C 147.810 395.600,148.800 395.780,148.800 396.000 C 148.800 396.220,149.520 396.400,150.400 396.400 C 151.280 396.400,152.000 396.580,152.000 396.800 C 152.000 397.350,185.460 397.350,185.800 396.800 C 185.936 396.580,186.476 396.400,187.000 396.400 C 187.524 396.400,188.064 396.220,188.200 396.000 C 188.336 395.780,189.056 395.600,189.800 395.600 C 190.544 395.600,191.264 395.420,191.400 395.200 C 191.536 394.980,191.997 394.800,192.424 394.800 C 192.851 394.800,193.200 394.620,193.200 394.400 C 193.200 394.180,193.605 393.996,194.100 393.991 C 194.595 393.986,195.450 393.630,196.000 393.200 C 196.550 392.770,197.225 392.414,197.500 392.409 C 197.775 392.404,198.000 392.220,198.000 392.000 C 198.000 391.780,198.272 391.600,198.604 391.600 C 199.243 391.600,203.306 388.910,203.533 388.336 C 203.607 388.151,203.851 388.000,204.076 388.000 C 204.584 388.000,208.800 383.688,208.800 383.169 C 208.800 382.962,209.340 382.228,210.000 381.537 C 210.660 380.846,211.200 379.982,211.200 379.616 C 211.200 379.250,211.560 378.564,212.000 378.092 C 212.440 377.620,212.800 376.776,212.800 376.217 C 212.800 375.658,212.935 375.199,213.100 375.197 C 213.506 375.193,214.400 373.214,214.400 372.320 C 214.400 371.924,214.580 371.600,214.800 371.600 C 215.022 371.600,215.200 370.533,215.200 369.200 C 215.200 367.867,215.378 366.800,215.600 366.800 C 215.841 366.800,216.000 365.141,216.000 362.624 C 216.000 360.271,215.825 358.339,215.600 358.200 C 215.380 358.064,215.200 356.793,215.200 355.376 C 215.200 353.925,215.025 352.800,214.800 352.800 C 214.580 352.800,214.400 352.260,214.400 351.600 C 214.400 350.940,214.220 350.400,214.000 350.400 C 213.780 350.400,213.600 349.860,213.600 349.200 C 213.600 348.540,213.420 348.000,213.200 348.000 C 212.980 348.000,212.800 347.460,212.800 346.800 C 212.800 346.140,212.620 345.600,212.400 345.600 C 212.180 345.600,212.000 345.240,212.000 344.800 C 212.000 344.360,211.820 344.000,211.600 344.000 C 211.380 344.000,211.200 343.550,211.200 343.000 C 211.200 342.450,211.020 342.000,210.800 342.000 C 210.580 342.000,210.400 341.640,210.400 341.200 C 210.400 340.760,210.220 340.400,210.000 340.400 C 209.780 340.400,209.600 340.040,209.600 339.600 C 209.600 339.160,209.420 338.800,209.200 338.800 C 208.980 338.800,208.800 338.370,208.800 337.844 C 208.800 336.816,206.133 331.087,205.551 330.867 C 205.358 330.793,205.200 330.461,205.200 330.128 C 205.200 329.796,204.879 329.046,204.486 328.462 C 204.093 327.878,203.508 326.860,203.186 326.200 C 202.865 325.540,202.509 324.910,202.395 324.800 C 202.282 324.690,201.758 323.745,201.232 322.700 C 200.705 321.655,200.123 320.800,199.937 320.800 C 199.752 320.800,199.600 320.561,199.600 320.268 C 199.600 319.627,197.915 316.234,197.124 315.281 C 196.813 314.906,196.134 313.745,195.616 312.700 C 195.098 311.655,194.523 310.800,194.337 310.800 C 194.152 310.800,194.000 310.440,194.000 310.000 C 194.000 309.560,193.850 309.200,193.667 309.200 C 193.483 309.200,192.792 308.165,192.131 306.900 C 189.717 302.284,187.830 298.997,187.519 298.867 C 187.343 298.793,187.196 298.433,187.191 298.067 C 187.186 297.700,186.830 296.950,186.400 296.400 C 185.970 295.850,185.614 295.175,185.609 294.900 C 185.604 294.625,185.420 294.400,185.200 294.400 C 184.980 294.400,184.800 294.040,184.800 293.600 C 184.800 293.160,184.620 292.800,184.400 292.800 C 184.180 292.800,184.000 292.440,184.000 292.000 C 184.000 291.560,183.820 291.200,183.600 291.200 C 183.380 291.200,183.200 290.840,183.200 290.400 C 183.200 289.960,183.020 289.600,182.800 289.600 C 182.580 289.600,182.400 289.240,182.400 288.800 C 182.400 288.360,182.220 288.000,182.000 288.000 C 181.780 288.000,181.600 287.640,181.600 287.200 C 181.600 286.760,181.420 286.400,181.200 286.400 C 180.980 286.400,180.796 285.995,180.791 285.500 C 180.786 285.005,180.430 284.150,180.000 283.600 C 179.570 283.050,179.214 282.116,179.209 281.524 C 179.204 280.932,179.020 280.336,178.800 280.200 C 178.580 280.064,178.400 279.603,178.400 279.176 C 178.400 278.749,178.220 278.400,178.000 278.400 C 177.780 278.400,177.600 277.860,177.600 277.200 C 177.600 276.540,177.420 276.000,177.200 276.000 C 176.980 276.000,176.800 275.291,176.800 274.424 C 176.800 273.557,176.620 272.736,176.400 272.600 C 176.180 272.464,176.000 271.564,176.000 270.600 C 176.000 269.636,175.820 268.736,175.600 268.600 C 175.373 268.460,175.200 266.463,175.200 263.976 C 175.200 261.325,175.358 259.600,175.600 259.600 C 175.820 259.600,176.000 258.621,176.000 257.424 C 176.000 256.227,176.180 255.136,176.400 255.000 C 176.620 254.864,176.800 253.953,176.800 252.976 C 176.800 251.999,176.980 251.200,177.200 251.200 C 177.420 251.200,177.600 250.761,177.600 250.224 C 177.600 249.687,177.780 249.136,178.000 249.000 C 178.220 248.864,178.400 248.403,178.400 247.976 C 178.400 247.549,178.580 247.200,178.800 247.200 C 179.020 247.200,179.200 246.660,179.200 246.000 C 179.200 245.340,179.336 244.800,179.502 244.800 C 179.669 244.800,180.059 244.215,180.369 243.500 C 180.899 242.279,183.854 237.638,184.380 237.200 C 184.513 237.090,185.239 236.190,185.994 235.200 C 186.749 234.210,188.139 232.611,189.083 231.647 C 190.028 230.683,190.800 229.738,190.800 229.547 C 190.800 229.356,191.043 229.200,191.341 229.200 C 191.638 229.200,192.403 228.705,193.041 228.100 C 195.251 226.005,198.636 223.752,203.400 221.208 C 204.500 220.621,205.760 219.940,206.200 219.696 C 206.640 219.452,207.585 219.017,208.300 218.729 C 209.015 218.440,209.600 218.069,209.600 217.902 C 209.600 217.736,210.140 217.600,210.800 217.600 C 211.460 217.600,212.000 217.420,212.000 217.200 C 212.000 216.980,212.362 216.800,212.805 216.800 C 213.583 216.800,213.969 216.658,215.895 215.662 C 216.387 215.408,217.332 215.200,217.995 215.200 C 218.658 215.200,219.200 215.020,219.200 214.800 C 219.200 214.580,219.639 214.400,220.176 214.400 C 220.713 214.400,221.264 214.220,221.400 214.000 C 221.536 213.780,222.346 213.600,223.200 213.600 C 224.054 213.600,224.864 213.420,225.000 213.200 C 225.136 212.980,225.777 212.800,226.424 212.800 C 227.071 212.800,227.600 212.620,227.600 212.400 C 227.600 212.180,228.579 212.000,229.776 212.000 C 230.973 212.000,232.064 211.820,232.200 211.600 C 232.336 211.380,233.416 211.200,234.600 211.200 C 235.784 211.200,236.864 211.020,237.000 210.800 C 237.136 210.580,238.306 210.400,239.600 210.400 C 240.894 210.400,242.064 210.220,242.200 210.000 C 242.336 209.780,243.416 209.600,244.600 209.600 C 245.784 209.600,246.849 209.444,246.968 209.253 C 247.086 209.061,247.896 208.791,248.768 208.652 C 250.086 208.441,251.109 208.118,252.800 207.380 C 252.910 207.332,253.405 207.161,253.900 207.000 C 254.395 206.838,254.800 206.548,254.800 206.353 C 254.800 206.159,255.013 206.000,255.274 206.000 C 256.073 206.000,259.362 204.296,260.047 203.526 C 260.403 203.127,260.871 202.800,261.088 202.800 C 261.304 202.800,262.046 202.260,262.737 201.600 C 263.428 200.940,264.168 200.400,264.381 200.400 C 265.190 200.400,270.185 195.042,272.032 192.192 C 274.691 188.091,275.200 187.161,275.200 186.409 C 275.200 185.964,275.380 185.600,275.600 185.600 C 275.820 185.600,276.000 185.240,276.000 184.800 C 276.000 184.360,276.180 184.000,276.400 184.000 C 276.620 184.000,276.800 183.651,276.800 183.224 C 276.800 182.797,276.980 182.336,277.200 182.200 C 277.420 182.064,277.600 181.434,277.600 180.800 C 277.600 180.166,277.780 179.536,278.000 179.400 C 278.220 179.264,278.400 178.803,278.400 178.376 C 278.400 177.949,278.580 177.600,278.800 177.600 C 279.020 177.600,279.200 176.700,279.200 175.600 C 279.200 174.500,279.380 173.600,279.600 173.600 C 279.820 173.600,280.000 172.891,280.000 172.024 C 280.000 171.157,280.180 170.336,280.400 170.200 C 280.620 170.064,280.800 168.829,280.800 167.456 C 280.800 166.083,280.989 164.771,281.220 164.540 C 281.959 163.801,281.140 145.600,280.367 145.600 C 280.165 145.600,280.000 144.610,280.000 143.400 C 280.000 142.190,279.820 141.200,279.600 141.200 C 279.380 141.200,279.200 140.300,279.200 139.200 C 279.200 138.100,279.020 137.200,278.800 137.200 C 278.580 137.200,278.400 136.581,278.400 135.824 C 278.400 135.067,278.220 134.336,278.000 134.200 C 277.780 134.064,277.600 133.421,277.600 132.771 C 277.600 132.121,277.392 131.187,277.138 130.695 C 276.144 128.774,276.000 128.384,276.000 127.629 C 276.000 127.199,275.820 126.736,275.600 126.600 C 275.380 126.464,275.199 126.048,275.198 125.676 C 275.196 125.304,274.926 124.484,274.598 123.854 C 274.269 123.224,274.000 122.543,274.000 122.340 C 274.000 121.752,269.151 112.000,268.859 112.000 C 268.714 112.000,268.340 111.415,268.028 110.700 C 267.716 109.985,267.132 109.109,266.730 108.753 C 266.329 108.397,266.000 107.852,266.000 107.541 C 266.000 107.231,265.640 106.717,265.200 106.400 C 264.760 106.083,264.399 105.638,264.398 105.412 C 264.397 105.185,263.886 104.455,263.261 103.789 C 262.637 103.123,262.053 102.375,261.963 102.126 C 261.787 101.637,257.664 97.200,257.386 97.200 C 257.293 97.200,256.240 96.255,255.045 95.100 C 249.977 90.200,246.658 87.579,243.700 86.141 C 242.985 85.793,242.400 85.349,242.400 85.154 C 242.400 84.959,242.040 84.800,241.600 84.800 C 241.160 84.800,240.800 84.620,240.800 84.400 C 240.800 84.180,240.440 84.000,240.000 84.000 C 239.560 84.000,239.199 83.865,239.197 83.700 C 239.193 83.294,237.214 82.400,236.320 82.400 C 235.924 82.400,235.600 82.220,235.600 82.000 C 235.600 81.780,235.240 81.600,234.800 81.600 C 234.360 81.600,233.999 81.465,233.997 81.300 C 233.992 80.853,231.974 80.000,230.920 80.000 C 230.414 80.000,230.000 79.820,230.000 79.600 C 230.000 79.380,229.651 79.200,229.224 79.200 C 228.797 79.200,228.336 79.020,228.200 78.800 C 228.064 78.580,227.511 78.400,226.971 78.400 C 226.431 78.400,225.677 78.230,225.295 78.021 C 224.308 77.484,220.410 76.296,219.149 76.149 C 218.564 76.081,217.301 75.752,216.343 75.419 C 215.384 75.085,213.655 74.809,212.500 74.806 C 211.345 74.803,210.400 74.620,210.400 74.400 C 210.400 74.180,209.601 74.000,208.624 74.000 C 207.647 74.000,206.736 73.820,206.600 73.600 C 206.464 73.380,205.474 73.200,204.400 73.200 C 203.326 73.200,202.336 73.020,202.200 72.800 C 202.057 72.568,199.870 72.400,197.000 72.400 C 194.130 72.400,191.943 72.232,191.800 72.000 C 191.649 71.755,188.470 71.600,183.600 71.600 C 178.730 71.600,175.551 71.755,175.400 72.000 " stroke="none" fill="#f2bd9a" fill-rule="evenodd"></path><path id="path1" d="M303.200 14.202 C 299.444 14.962,291.636 17.842,289.600 19.218 C 289.270 19.441,288.707 19.723,288.349 19.846 C 287.991 19.968,287.497 20.508,287.252 21.046 C 287.007 21.583,286.472 22.153,286.063 22.312 C 283.987 23.116,277.600 29.288,277.600 30.490 C 277.600 31.003,277.240 31.683,276.800 32.000 C 276.360 32.317,276.000 32.820,276.000 33.117 C 276.000 33.414,275.775 33.908,275.500 34.215 C 274.256 35.602,274.000 36.006,274.000 36.583 C 274.000 36.922,273.820 37.200,273.600 37.200 C 273.380 37.200,273.200 37.545,273.200 37.967 C 273.200 38.388,272.994 38.802,272.743 38.886 C 272.408 38.997,272.424 39.297,272.800 40.000 C 273.176 40.703,273.192 41.003,272.857 41.114 C 272.606 41.198,272.400 41.522,272.400 41.833 C 272.400 42.145,272.220 42.400,272.000 42.400 C 271.780 42.400,271.600 42.760,271.600 43.200 C 271.600 43.640,271.420 44.000,271.200 44.000 C 270.980 44.000,270.800 44.540,270.800 45.200 C 270.800 45.860,270.620 46.400,270.400 46.400 C 270.180 46.400,270.000 46.760,270.000 47.200 C 270.000 47.994,270.267 48.000,307.400 48.000 L 344.800 48.000 344.800 46.800 C 344.800 46.140,344.643 45.600,344.452 45.600 C 344.260 45.600,343.978 44.658,343.825 43.508 C 343.673 42.357,343.335 41.282,343.074 41.120 C 342.711 40.894,342.717 40.635,343.100 40.018 C 343.701 39.048,343.753 38.000,343.200 38.000 C 342.980 38.000,342.800 37.500,342.800 36.888 C 342.800 36.235,342.470 35.539,342.000 35.200 C 341.560 34.883,341.200 34.303,341.200 33.912 C 341.200 33.520,341.020 33.200,340.800 33.200 C 340.580 33.200,340.400 32.840,340.400 32.400 C 340.400 31.960,340.220 31.600,340.000 31.600 C 339.780 31.600,339.600 31.088,339.600 30.462 C 339.600 29.832,339.243 29.001,338.800 28.600 C 338.360 28.202,337.995 27.679,337.988 27.438 C 337.981 27.197,337.428 26.550,336.758 26.000 C 334.343 24.018,331.200 20.912,331.200 20.507 C 331.200 20.279,330.885 19.984,330.500 19.851 C 330.115 19.718,329.260 19.255,328.600 18.822 C 322.154 14.596,311.145 12.593,303.200 14.202 M155.269 20.397 C 154.536 20.570,153.671 21.092,153.346 21.556 C 153.021 22.020,152.532 22.400,152.261 22.400 C 150.349 22.400,146.400 28.629,146.400 31.644 C 146.400 32.694,146.220 33.664,146.000 33.800 C 145.780 33.936,145.600 35.286,145.600 36.800 C 145.600 38.314,145.780 39.664,146.000 39.800 C 146.220 39.936,146.400 40.667,146.400 41.424 C 146.400 42.181,146.580 42.800,146.800 42.800 C 147.020 42.800,147.200 43.430,147.200 44.200 C 147.200 44.970,147.380 45.600,147.600 45.600 C 147.820 45.600,148.000 46.140,148.000 46.800 L 148.000 48.000 159.800 48.000 C 171.333 48.000,171.600 47.982,171.600 47.200 C 171.600 46.760,171.780 46.400,172.000 46.400 C 172.233 46.400,172.400 45.075,172.400 43.224 C 172.400 41.477,172.580 39.936,172.800 39.800 C 173.020 39.664,173.200 38.843,173.200 37.976 C 173.200 37.109,173.020 36.400,172.800 36.400 C 172.580 36.400,172.400 35.680,172.400 34.800 C 172.400 33.920,172.220 33.200,172.000 33.200 C 171.780 33.200,171.600 32.328,171.600 31.262 C 171.600 29.832,171.390 29.134,170.800 28.600 C 170.360 28.202,170.000 27.673,170.000 27.425 C 170.000 26.776,165.618 22.661,164.200 21.979 C 163.540 21.661,162.891 21.253,162.759 21.072 C 162.106 20.182,157.813 19.795,155.269 20.397 M214.700 20.661 C 214.095 20.767,213.600 21.021,213.600 21.227 C 213.600 21.432,213.330 21.600,213.000 21.600 C 212.670 21.600,212.400 21.780,212.400 22.000 C 212.400 22.220,212.151 22.400,211.847 22.400 C 211.040 22.400,206.873 26.685,205.700 28.721 C 205.425 29.199,205.200 30.222,205.200 30.995 C 205.200 31.768,205.020 32.400,204.800 32.400 C 204.580 32.400,204.400 32.760,204.400 33.200 C 204.400 33.640,204.220 34.000,204.000 34.000 C 203.780 34.000,203.600 34.540,203.600 35.200 C 203.600 35.860,203.420 36.400,203.200 36.400 C 202.980 36.400,202.800 36.925,202.800 37.567 C 202.800 38.208,202.575 38.816,202.300 38.917 C 201.900 39.063,201.900 39.206,202.300 39.630 C 202.612 39.961,202.800 41.333,202.800 43.280 C 202.800 45.093,202.968 46.400,203.200 46.400 C 203.420 46.400,203.600 46.760,203.600 47.200 C 203.600 47.984,203.867 48.000,216.800 48.000 C 229.733 48.000,230.000 47.984,230.000 47.200 C 230.000 46.760,230.180 46.400,230.400 46.400 C 230.620 46.400,230.800 45.860,230.800 45.200 C 230.800 44.540,230.980 44.000,231.200 44.000 C 231.420 44.000,231.600 43.550,231.600 43.000 C 231.600 42.450,231.780 42.000,232.000 42.000 C 232.220 42.000,232.400 41.561,232.400 41.024 C 232.400 40.487,232.580 39.936,232.800 39.800 C 233.020 39.664,233.200 37.943,233.200 35.976 C 233.200 33.859,233.037 32.400,232.800 32.400 C 232.580 32.400,232.400 31.768,232.400 30.995 C 232.400 29.035,228.830 24.000,227.441 24.000 C 227.227 24.000,226.680 23.669,226.226 23.265 C 225.772 22.860,224.770 22.286,224.000 21.987 C 223.230 21.689,222.490 21.285,222.355 21.089 C 222.079 20.686,216.384 20.368,214.700 20.661 M102.800 45.200 C 102.800 45.420,102.300 45.600,101.688 45.600 C 101.035 45.600,100.339 45.930,100.000 46.400 C 99.683 46.840,99.103 47.200,98.712 47.200 C 98.320 47.200,98.000 47.380,98.000 47.600 C 98.000 47.851,100.600 48.000,105.000 48.000 C 108.850 48.000,112.000 47.897,112.000 47.771 C 112.000 47.379,110.878 46.400,110.429 46.400 C 110.193 46.400,110.000 46.220,110.000 46.000 C 110.000 45.780,109.640 45.600,109.200 45.600 C 108.760 45.600,108.400 45.420,108.400 45.200 C 108.400 44.971,107.200 44.800,105.600 44.800 C 104.000 44.800,102.800 44.971,102.800 45.200 " stroke="none" fill="#f3bd9b" fill-rule="evenodd"></path></g></svg>