<svg id="svg" version="1.1" xmlns="http://www.w3.org/2000/svg" xmlns:xlink="http://www.w3.org/1999/xlink" width="400" height="400" viewBox="0, 0, 400,400"><g id="svgg"><path id="path0" d="M16.134 145.427 C 16.002 145.772,16.080 146.240,16.307 146.467 C 16.591 146.751,16.702 146.556,16.660 145.840 C 16.591 144.642,16.472 144.548,16.134 145.427 M32.314 198.400 C 32.801 198.923,33.200 199.587,33.200 199.875 C 33.200 200.164,33.380 200.400,33.600 200.400 C 33.820 200.400,34.000 200.760,34.000 201.200 C 34.000 201.640,34.146 202.000,34.325 202.000 C 34.504 202.000,34.898 202.630,35.200 203.400 C 35.502 204.170,35.875 204.800,36.028 204.800 C 36.181 204.800,36.407 205.115,36.529 205.500 C 36.817 206.409,38.012 208.353,38.900 209.358 C 39.285 209.794,39.600 210.387,39.600 210.675 C 39.600 210.964,39.780 211.200,40.000 211.200 C 40.220 211.200,40.400 211.436,40.400 211.725 C 40.400 212.013,40.760 212.636,41.200 213.108 C 41.640 213.580,42.000 214.216,42.000 214.521 C 42.000 214.826,42.360 215.402,42.800 215.800 C 43.240 216.198,43.600 216.667,43.600 216.843 C 43.600 217.151,47.123 222.395,47.602 222.800 C 47.732 222.910,48.275 223.630,48.808 224.400 C 49.342 225.170,50.098 226.149,50.489 226.575 C 50.880 227.002,51.200 227.521,51.200 227.729 C 51.200 227.936,51.524 228.397,51.919 228.753 C 52.314 229.109,53.071 230.030,53.600 230.800 C 54.129 231.570,54.886 232.491,55.281 232.847 C 55.676 233.203,56.000 233.676,56.000 233.899 C 56.000 234.121,56.720 235.045,57.600 235.952 C 58.480 236.859,59.200 237.689,59.200 237.797 C 59.200 238.022,60.489 239.592,62.100 241.331 C 62.705 241.984,63.200 242.644,63.200 242.797 C 63.200 242.950,64.145 244.056,65.300 245.255 C 66.455 246.453,67.885 248.076,68.478 248.861 C 70.802 251.939,72.860 253.794,73.225 253.141 C 73.646 252.388,321.945 252.160,323.386 252.911 C 324.036 253.250,324.314 253.126,324.986 252.196 C 325.434 251.577,326.522 250.335,327.405 249.436 C 328.288 248.536,329.455 247.170,329.999 246.400 C 330.542 245.630,331.530 244.435,332.193 243.744 C 332.857 243.053,334.210 241.464,335.200 240.213 C 336.190 238.961,337.581 237.277,338.291 236.469 C 339.001 235.661,339.586 234.890,339.591 234.756 C 339.596 234.622,340.228 233.722,340.996 232.756 C 341.764 231.790,342.394 230.847,342.396 230.660 C 342.398 230.474,342.940 229.817,343.600 229.200 C 344.260 228.583,344.800 227.873,344.800 227.621 C 344.800 227.370,345.237 226.727,345.771 226.193 C 346.305 225.659,347.064 224.677,347.457 224.011 C 347.851 223.345,348.314 222.800,348.486 222.800 C 348.659 222.800,348.800 222.530,348.800 222.200 C 348.800 221.870,348.938 221.600,349.106 221.600 C 349.274 221.600,349.856 220.880,350.400 220.000 C 350.944 219.120,351.526 218.400,351.694 218.400 C 351.862 218.400,352.000 218.164,352.000 217.875 C 352.000 217.587,352.360 216.964,352.800 216.492 C 353.240 216.020,353.600 215.534,353.600 215.413 C 353.600 215.292,354.575 213.709,355.767 211.896 C 356.958 210.083,358.157 208.105,358.431 207.500 C 358.704 206.895,359.046 206.400,359.190 206.400 C 359.333 206.400,359.698 205.770,360.000 205.000 C 360.302 204.230,360.696 203.600,360.875 203.600 C 361.054 203.600,361.200 203.330,361.200 203.000 C 361.200 202.670,361.346 202.400,361.525 202.400 C 361.704 202.400,362.098 201.770,362.400 201.000 C 362.702 200.230,363.075 199.600,363.228 199.600 C 363.381 199.600,363.601 199.240,363.716 198.800 C 363.925 198.001,363.728 198.000,198.395 198.000 C 107.354 198.000,32.542 197.876,32.146 197.724 C 31.555 197.497,31.585 197.618,32.314 198.400 " stroke="none" fill="#058223" fill-rule="evenodd"></path><path id="path1" d="M73.401 252.732 C 72.914 253.219,73.293 254.121,74.500 255.349 C 75.215 256.077,76.340 257.370,77.000 258.223 C 78.609 260.304,103.680 285.375,106.177 287.400 C 107.262 288.280,110.829 291.655,114.104 294.900 C 117.380 298.145,120.222 300.800,120.421 300.800 C 120.620 300.800,121.741 301.745,122.912 302.900 C 126.944 306.877,129.065 308.444,129.579 307.825 C 130.229 307.042,267.854 307.117,268.339 307.901 C 268.576 308.284,268.829 308.238,269.424 307.701 C 269.851 307.315,271.190 306.190,272.400 305.200 C 273.610 304.210,274.660 303.264,274.734 303.097 C 275.021 302.450,277.959 299.600,278.338 299.600 C 278.559 299.600,280.616 297.755,282.909 295.500 C 285.203 293.245,288.497 290.140,290.230 288.600 C 293.941 285.303,308.400 270.758,308.400 270.322 C 308.400 270.157,310.695 267.678,313.500 264.814 C 323.543 254.558,324.445 253.460,323.309 252.870 C 322.578 252.490,73.781 252.353,73.401 252.732 " stroke="none" fill="#0446e8" fill-rule="evenodd"></path><path id="path2" d="M41.066 88.306 C 27.753 88.416,27.200 88.491,27.200 90.171 C 27.200 90.517,27.020 90.800,26.800 90.800 C 26.580 90.800,26.400 91.160,26.400 91.600 C 26.400 92.040,26.220 92.400,26.000 92.400 C 25.780 92.400,25.600 92.760,25.600 93.200 C 25.600 93.640,25.420 94.000,25.200 94.000 C 24.980 94.000,24.800 94.360,24.800 94.800 C 24.800 95.240,24.620 95.600,24.400 95.600 C 24.180 95.600,24.000 96.050,24.000 96.600 C 24.000 97.150,23.820 97.600,23.600 97.600 C 23.380 97.600,23.200 98.050,23.200 98.600 C 23.200 99.150,23.020 99.600,22.800 99.600 C 22.580 99.600,22.400 100.039,22.400 100.576 C 22.400 101.113,22.204 101.674,21.965 101.822 C 21.726 101.969,21.620 102.433,21.730 102.852 C 21.839 103.271,21.663 103.880,21.337 104.206 C 21.002 104.541,20.850 105.127,20.986 105.557 C 21.121 105.980,20.975 106.568,20.656 106.887 C 20.329 107.214,20.166 107.890,20.277 108.466 C 20.387 109.046,20.224 109.719,19.891 110.052 C 19.539 110.403,19.384 111.107,19.493 111.850 C 19.604 112.606,19.445 113.298,19.077 113.666 C 18.650 114.093,18.542 114.785,18.692 116.123 C 18.855 117.561,18.763 118.039,18.292 118.220 C 17.806 118.406,17.724 118.927,17.889 120.750 C 18.037 122.385,17.939 123.212,17.549 123.623 C 17.108 124.087,17.025 126.067,17.127 133.700 L 17.253 143.200 199.593 143.200 C 345.091 143.200,381.974 143.301,382.135 143.700 C 382.256 143.999,382.350 143.918,382.368 143.500 C 382.386 143.115,382.535 142.800,382.700 142.800 C 383.291 142.800,383.054 121.057,382.456 120.428 C 382.091 120.043,381.979 119.266,382.115 118.058 C 382.259 116.778,382.145 116.088,381.718 115.661 C 381.310 115.253,381.190 114.620,381.341 113.684 C 381.493 112.752,381.373 112.115,380.969 111.712 C 380.630 111.373,380.477 110.788,380.614 110.357 C 380.753 109.916,380.591 109.334,380.227 108.970 C 379.825 108.568,379.687 107.992,379.843 107.371 C 379.991 106.780,379.913 106.400,379.643 106.400 C 379.400 106.400,379.200 105.860,379.200 105.200 C 379.200 104.540,379.020 104.000,378.800 104.000 C 378.580 104.000,378.400 103.460,378.400 102.800 C 378.400 102.140,378.220 101.600,378.000 101.600 C 377.780 101.600,377.600 101.240,377.600 100.800 C 377.600 100.360,377.420 100.000,377.200 100.000 C 376.980 100.000,376.800 99.550,376.800 99.000 C 376.800 98.450,376.620 98.000,376.400 98.000 C 376.180 98.000,376.000 97.755,376.000 97.456 C 376.000 96.799,373.524 91.855,373.100 91.667 C 372.935 91.593,372.800 91.188,372.800 90.767 C 372.800 90.345,372.620 90.000,372.400 90.000 C 372.180 90.000,372.000 89.749,372.000 89.443 C 372.000 89.136,371.685 88.753,371.300 88.590 C 370.660 88.319,70.534 88.061,41.066 88.306 " stroke="none" fill="#f4841b" fill-rule="evenodd"></path><path id="path3" d="M17.095 145.869 C 16.929 147.941,17.018 148.675,17.491 149.148 C 17.963 149.621,18.049 150.318,17.869 152.243 C 17.678 154.284,17.750 154.772,18.270 154.971 C 18.755 155.158,18.858 155.611,18.710 156.918 C 18.577 158.098,18.698 158.789,19.102 159.167 C 19.499 159.537,19.614 160.159,19.461 161.102 C 19.305 162.060,19.426 162.683,19.847 163.104 C 20.230 163.487,20.368 164.072,20.217 164.674 C 20.065 165.282,20.206 165.863,20.602 166.259 C 20.964 166.621,21.126 167.204,20.986 167.643 C 20.847 168.084,21.009 168.666,21.373 169.030 C 21.775 169.432,21.913 170.008,21.757 170.629 C 21.609 171.220,21.687 171.600,21.957 171.600 C 22.200 171.600,22.400 172.140,22.400 172.800 C 22.400 173.460,22.580 174.000,22.800 174.000 C 23.020 174.000,23.200 174.540,23.200 175.200 C 23.200 175.860,23.380 176.400,23.600 176.400 C 23.820 176.400,24.000 176.951,24.000 177.624 C 24.000 178.337,24.167 178.744,24.400 178.600 C 24.626 178.460,24.800 178.788,24.800 179.353 C 24.800 179.903,24.980 180.464,25.200 180.600 C 25.420 180.736,25.600 181.287,25.600 181.824 C 25.600 182.361,25.780 182.800,26.000 182.800 C 26.220 182.800,26.400 183.160,26.400 183.600 C 26.400 184.040,26.580 184.400,26.800 184.400 C 27.020 184.400,27.200 184.850,27.200 185.400 C 27.200 185.950,27.380 186.400,27.600 186.400 C 27.820 186.400,28.000 186.850,28.000 187.400 C 28.000 187.950,28.180 188.400,28.400 188.400 C 28.620 188.400,28.800 188.760,28.800 189.200 C 28.800 189.640,28.980 190.000,29.200 190.000 C 29.420 190.000,29.600 190.360,29.600 190.800 C 29.600 191.240,29.780 191.600,30.000 191.600 C 30.220 191.600,30.400 191.960,30.400 192.400 C 30.400 192.840,30.580 193.200,30.800 193.200 C 31.020 193.200,31.200 193.453,31.200 193.762 C 31.200 194.071,31.593 195.061,32.074 195.962 L 32.948 197.600 198.266 197.600 L 363.584 197.600 364.400 196.000 C 364.849 195.120,365.387 194.400,365.596 194.400 C 365.804 194.400,365.872 194.132,365.746 193.803 C 365.617 193.468,365.787 193.103,366.133 192.970 C 366.472 192.840,366.652 192.480,366.533 192.170 C 366.414 191.860,366.605 191.496,366.956 191.361 C 367.308 191.227,367.509 190.976,367.402 190.804 C 367.296 190.632,367.927 189.096,368.805 187.391 C 369.682 185.685,370.400 184.044,370.400 183.745 C 370.400 183.445,370.580 183.200,370.800 183.200 C 371.020 183.200,371.200 182.851,371.200 182.424 C 371.200 181.997,371.380 181.536,371.600 181.400 C 371.820 181.264,372.000 180.803,372.000 180.376 C 372.000 179.949,372.180 179.600,372.400 179.600 C 372.620 179.600,372.800 179.150,372.800 178.600 C 372.800 178.050,372.980 177.600,373.200 177.600 C 373.420 177.600,373.600 177.328,373.600 176.995 C 373.600 176.662,373.780 176.032,374.000 175.595 C 374.220 175.158,374.580 174.442,374.800 174.005 C 375.020 173.568,375.200 172.848,375.200 172.405 C 375.200 171.962,375.380 171.600,375.600 171.600 C 375.820 171.600,376.000 171.150,376.000 170.600 C 376.000 170.050,376.180 169.600,376.400 169.600 C 376.620 169.600,376.800 169.060,376.800 168.400 C 376.800 167.740,376.980 167.200,377.200 167.200 C 377.420 167.200,377.600 166.660,377.600 166.000 C 377.600 165.340,377.780 164.800,378.000 164.800 C 378.220 164.800,378.400 164.170,378.400 163.400 C 378.400 162.630,378.580 162.000,378.800 162.000 C 379.020 162.000,379.200 161.370,379.200 160.600 C 379.200 159.830,379.400 159.200,379.643 159.200 C 379.913 159.200,379.991 158.820,379.843 158.229 C 379.687 157.606,379.826 157.031,380.231 156.626 C 380.652 156.205,380.782 155.627,380.620 154.890 C 380.472 154.216,380.597 153.484,380.940 153.014 C 381.289 152.538,381.429 151.692,381.308 150.794 C 381.183 149.860,381.313 149.140,381.674 148.772 C 382.165 148.270,382.243 147.080,382.019 143.500 C 382.008 143.335,299.945 143.200,199.655 143.200 L 17.310 143.200 17.095 145.869 " stroke="none" fill="#fbeb04" fill-rule="evenodd"></path><path id="path4" d="M107.200 41.600 C 107.200 41.837,105.733 42.000,103.600 42.000 C 101.174 42.000,100.000 42.149,100.000 42.456 C 100.000 42.770,99.256 42.844,97.600 42.693 C 95.611 42.513,95.200 42.581,95.200 43.092 C 95.200 43.591,94.863 43.663,93.438 43.467 C 92.058 43.278,91.624 43.361,91.437 43.848 C 91.250 44.334,90.850 44.411,89.599 44.200 C 88.255 43.973,88.000 44.038,88.000 44.609 C 88.000 45.165,87.753 45.243,86.646 45.035 C 85.605 44.840,85.235 44.932,85.043 45.433 C 84.868 45.889,84.507 46.013,83.842 45.846 C 83.244 45.696,82.709 45.827,82.400 46.200 C 82.102 46.559,81.553 46.703,81.008 46.566 C 80.419 46.418,80.029 46.547,79.879 46.939 C 79.734 47.315,79.342 47.458,78.824 47.322 C 78.355 47.200,78.000 47.299,78.000 47.553 C 78.000 47.799,77.460 48.000,76.800 48.000 C 76.140 48.000,75.600 48.180,75.600 48.400 C 75.600 48.620,75.150 48.800,74.600 48.800 C 74.050 48.800,73.600 48.980,73.600 49.200 C 73.600 49.420,73.150 49.600,72.600 49.600 C 72.050 49.600,71.600 49.780,71.600 50.000 C 71.600 50.220,71.240 50.400,70.800 50.400 C 70.360 50.400,70.000 50.580,70.000 50.800 C 70.000 51.020,69.640 51.200,69.200 51.200 C 68.760 51.200,68.400 51.380,68.400 51.600 C 68.400 51.820,67.950 52.000,67.400 52.000 C 66.850 52.000,66.400 52.180,66.400 52.400 C 66.400 52.620,66.040 52.800,65.600 52.800 C 65.160 52.800,64.800 52.980,64.800 53.200 C 64.800 53.420,64.530 53.600,64.200 53.600 C 63.870 53.600,63.600 53.780,63.600 54.000 C 63.600 54.220,63.330 54.400,63.000 54.400 C 62.670 54.400,62.400 54.580,62.400 54.800 C 62.400 55.020,62.040 55.200,61.600 55.200 C 61.160 55.200,60.800 55.380,60.800 55.600 C 60.800 55.820,60.440 56.000,60.000 56.000 C 59.560 56.000,59.200 56.180,59.200 56.400 C 59.200 56.620,58.964 56.800,58.675 56.800 C 58.387 56.800,57.764 57.160,57.292 57.600 C 56.820 58.040,56.196 58.400,55.905 58.400 C 55.614 58.400,55.117 58.760,54.801 59.199 C 54.441 59.698,53.957 59.913,53.512 59.772 C 53.121 59.648,52.800 59.746,52.800 59.991 C 52.800 60.753,51.036 62.227,50.300 62.080 C 49.915 62.004,49.600 62.145,49.600 62.393 C 49.600 62.887,47.216 65.200,46.707 65.200 C 46.091 65.200,36.400 75.203,36.400 75.839 C 36.400 76.259,36.183 76.402,35.779 76.247 C 35.414 76.107,35.262 76.177,35.410 76.416 C 35.548 76.639,35.107 77.339,34.430 77.972 C 33.754 78.604,33.200 79.369,33.200 79.672 C 33.200 79.975,32.840 80.483,32.400 80.800 C 31.960 81.117,31.600 81.607,31.600 81.888 C 31.600 82.170,31.285 82.717,30.900 83.105 C 30.515 83.494,29.979 84.304,29.709 84.905 C 29.438 85.507,29.023 86.000,28.785 86.000 C 28.547 86.000,28.471 86.192,28.616 86.427 C 28.761 86.661,28.547 87.106,28.140 87.414 C 27.500 87.899,29.084 87.976,39.848 87.987 L 52.297 88.000 52.569 85.900 C 53.470 78.948,63.549 70.464,79.200 63.484 C 96.215 55.895,122.475 54.917,141.827 61.151 C 157.947 66.344,174.422 78.610,175.461 86.193 L 175.709 88.000 199.999 88.000 L 224.289 88.000 224.501 85.665 C 224.859 81.709,227.349 78.429,233.800 73.412 C 264.477 49.554,316.108 51.897,342.248 78.334 C 345.510 81.633,346.691 83.518,347.138 86.137 L 347.422 87.800 359.311 87.906 C 365.850 87.964,371.200 87.901,371.200 87.766 C 371.200 87.229,369.784 84.554,369.113 83.825 C 368.721 83.398,368.400 82.901,368.400 82.721 C 368.400 82.540,367.860 81.828,367.200 81.137 C 366.540 80.446,366.000 79.710,366.000 79.501 C 366.000 79.292,365.446 78.604,364.770 77.972 C 364.093 77.339,363.652 76.639,363.790 76.416 C 363.941 76.172,363.780 76.110,363.391 76.259 C 362.957 76.425,362.783 76.321,362.869 75.947 C 362.940 75.639,361.468 73.826,359.599 71.919 C 357.729 70.012,355.994 68.215,355.742 67.926 C 355.491 67.637,354.006 66.179,352.442 64.688 C 350.879 63.196,349.600 61.782,349.600 61.545 C 349.600 61.308,349.320 61.222,348.978 61.353 C 348.327 61.603,346.109 59.717,346.310 59.085 C 346.371 58.895,346.095 58.843,345.698 58.969 C 345.242 59.114,344.763 58.903,344.399 58.399 C 344.083 57.960,343.543 57.600,343.200 57.600 C 342.857 57.600,342.317 57.240,342.000 56.800 C 341.683 56.360,341.103 56.000,340.712 56.000 C 340.320 56.000,340.000 55.820,340.000 55.600 C 340.000 55.380,339.640 55.200,339.200 55.200 C 338.760 55.200,338.400 55.020,338.400 54.800 C 338.400 54.580,338.130 54.400,337.800 54.400 C 337.470 54.400,337.200 54.220,337.200 54.000 C 337.200 53.780,336.930 53.600,336.600 53.600 C 336.270 53.600,336.000 53.420,336.000 53.200 C 336.000 52.980,335.640 52.800,335.200 52.800 C 334.760 52.800,334.400 52.620,334.400 52.400 C 334.400 52.180,334.040 52.000,333.600 52.000 C 333.160 52.000,332.800 51.820,332.800 51.600 C 332.800 51.380,332.440 51.200,332.000 51.200 C 331.560 51.200,331.200 51.020,331.200 50.800 C 331.200 50.580,330.750 50.400,330.200 50.400 C 329.650 50.400,329.200 50.220,329.200 50.000 C 329.200 49.780,328.840 49.600,328.400 49.600 C 327.960 49.600,327.600 49.420,327.600 49.200 C 327.600 48.980,327.150 48.800,326.600 48.800 C 326.050 48.800,325.600 48.620,325.600 48.400 C 325.600 48.180,325.150 48.000,324.600 48.000 C 324.050 48.000,323.600 47.820,323.600 47.600 C 323.600 47.380,323.060 47.200,322.400 47.200 C 321.740 47.200,321.200 47.020,321.200 46.800 C 321.200 46.580,320.660 46.400,320.000 46.400 C 319.340 46.400,318.800 46.206,318.800 45.968 C 318.800 45.697,318.355 45.634,317.600 45.800 C 316.693 45.999,316.338 45.904,316.149 45.411 C 315.963 44.926,315.603 44.824,314.749 45.011 C 313.901 45.198,313.535 45.096,313.353 44.622 C 313.169 44.142,312.786 44.041,311.828 44.221 C 310.958 44.384,310.395 44.276,310.067 43.881 C 309.724 43.467,309.068 43.358,307.793 43.502 C 306.360 43.663,306.000 43.581,306.000 43.090 C 306.000 42.582,305.586 42.513,303.600 42.693 C 301.944 42.844,301.200 42.770,301.200 42.456 C 301.200 42.151,300.082 42.000,297.824 42.000 C 295.967 42.000,294.336 41.820,294.200 41.600 C 293.863 41.055,274.800 41.055,274.800 41.600 C 274.800 41.835,273.400 42.000,271.400 42.000 C 269.124 42.000,268.000 42.151,268.000 42.456 C 268.000 42.770,267.256 42.844,265.600 42.693 C 263.609 42.513,263.200 42.581,263.200 43.094 C 263.200 43.600,262.839 43.669,261.200 43.475 C 259.544 43.278,259.200 43.346,259.200 43.870 C 259.200 44.381,258.901 44.454,257.642 44.253 C 256.434 44.060,256.030 44.146,255.842 44.634 C 255.662 45.103,255.295 45.197,254.400 45.000 C 253.488 44.800,253.138 44.895,252.945 45.398 C 252.766 45.867,252.411 45.989,251.729 45.818 C 251.139 45.670,250.544 45.799,250.190 46.153 C 249.873 46.469,249.251 46.634,248.807 46.518 C 248.353 46.399,248.000 46.502,248.000 46.753 C 248.000 46.999,247.460 47.200,246.800 47.200 C 246.140 47.200,245.600 47.380,245.600 47.600 C 245.600 47.820,245.150 48.000,244.600 48.000 C 244.050 48.000,243.600 48.180,243.600 48.400 C 243.600 48.620,243.150 48.800,242.600 48.800 C 242.050 48.800,241.600 48.980,241.600 49.200 C 241.600 49.420,241.150 49.600,240.600 49.600 C 240.050 49.600,239.600 49.780,239.600 50.000 C 239.600 50.220,239.240 50.400,238.800 50.400 C 238.360 50.400,238.000 50.580,238.000 50.800 C 238.000 51.020,237.550 51.200,237.000 51.200 C 236.450 51.200,236.000 51.380,236.000 51.600 C 236.000 51.820,235.640 52.000,235.200 52.000 C 234.760 52.000,234.400 52.180,234.400 52.400 C 234.400 52.620,234.040 52.800,233.600 52.800 C 233.160 52.800,232.800 52.980,232.800 53.200 C 232.800 53.420,232.530 53.600,232.200 53.600 C 231.870 53.600,231.600 53.780,231.600 54.000 C 231.600 54.220,231.330 54.400,231.000 54.400 C 230.670 54.400,230.400 54.580,230.400 54.800 C 230.400 55.020,230.040 55.200,229.600 55.200 C 229.160 55.200,228.800 55.380,228.800 55.600 C 228.800 55.820,228.480 56.000,228.088 56.000 C 227.697 56.000,227.117 56.360,226.800 56.800 C 226.483 57.240,225.943 57.600,225.600 57.600 C 225.257 57.600,224.717 57.960,224.401 58.399 C 224.041 58.898,223.557 59.113,223.112 58.972 C 222.714 58.846,222.400 58.947,222.400 59.202 C 222.400 59.885,221.262 60.887,220.700 60.700 C 220.208 60.536,219.200 61.292,219.200 61.825 C 219.200 62.286,217.666 63.476,216.390 64.004 C 215.735 64.275,215.200 64.653,215.200 64.843 C 215.200 65.034,213.490 66.900,211.400 68.990 C 209.310 71.080,207.600 72.986,207.600 73.226 C 207.600 73.466,206.880 74.354,206.000 75.200 C 205.120 76.046,204.400 76.982,204.400 77.280 C 204.400 77.579,204.040 78.083,203.600 78.400 C 203.160 78.717,202.800 79.207,202.800 79.488 C 202.800 79.770,202.620 80.000,202.400 80.000 C 202.180 80.000,202.000 80.270,202.000 80.600 C 202.000 80.930,201.820 81.200,201.600 81.200 C 201.380 81.200,201.200 81.436,201.200 81.725 C 201.200 82.013,200.840 82.636,200.400 83.108 C 199.960 83.580,199.600 84.214,199.600 84.517 C 199.600 84.819,199.489 85.178,199.352 85.314 C 199.049 85.618,198.000 84.621,198.000 84.029 C 198.000 83.793,197.820 83.600,197.600 83.600 C 197.380 83.600,197.200 83.280,197.200 82.888 C 197.200 82.497,196.840 81.917,196.400 81.600 C 195.960 81.283,195.600 80.743,195.600 80.400 C 195.600 80.057,195.240 79.517,194.800 79.200 C 194.360 78.883,194.000 78.375,194.000 78.072 C 194.000 77.769,193.460 77.017,192.800 76.400 C 192.140 75.783,191.600 75.077,191.600 74.829 C 191.600 74.581,190.790 73.569,189.800 72.579 C 188.810 71.589,188.000 70.558,188.000 70.289 C 188.000 69.661,183.830 65.200,183.243 65.200 C 182.999 65.200,182.800 65.020,182.800 64.800 C 182.800 64.580,182.535 64.400,182.211 64.400 C 181.886 64.400,180.766 63.545,179.721 62.500 C 178.676 61.455,177.592 60.653,177.311 60.718 C 176.652 60.869,176.643 60.139,177.300 59.837 C 177.575 59.711,177.434 59.695,176.988 59.803 C 176.471 59.927,175.966 59.707,175.599 59.199 C 175.283 58.760,174.743 58.400,174.400 58.400 C 174.057 58.400,173.517 58.040,173.200 57.600 C 172.883 57.160,172.343 56.800,172.000 56.800 C 171.657 56.800,171.117 56.440,170.800 56.000 C 170.483 55.560,169.903 55.200,169.512 55.200 C 169.120 55.200,168.800 55.020,168.800 54.800 C 168.800 54.580,168.530 54.400,168.200 54.400 C 167.870 54.400,167.600 54.220,167.600 54.000 C 167.600 53.780,167.240 53.600,166.800 53.600 C 166.360 53.600,166.000 53.420,166.000 53.200 C 166.000 52.980,165.730 52.800,165.400 52.800 C 165.070 52.800,164.800 52.620,164.800 52.400 C 164.800 52.180,164.440 52.000,164.000 52.000 C 163.560 52.000,163.200 51.820,163.200 51.600 C 163.200 51.380,162.840 51.200,162.400 51.200 C 161.960 51.200,161.600 51.020,161.600 50.800 C 161.600 50.580,161.150 50.400,160.600 50.400 C 160.050 50.400,159.600 50.220,159.600 50.000 C 159.600 49.780,159.240 49.600,158.800 49.600 C 158.360 49.600,158.000 49.420,158.000 49.200 C 158.000 48.980,157.640 48.800,157.200 48.800 C 156.760 48.800,156.400 48.620,156.400 48.400 C 156.400 48.180,155.860 48.000,155.200 48.000 C 154.540 48.000,154.000 47.820,154.000 47.600 C 154.000 47.380,153.550 47.200,153.000 47.200 C 152.450 47.200,152.000 46.999,152.000 46.753 C 152.000 46.502,151.647 46.399,151.193 46.518 C 150.749 46.634,150.127 46.469,149.810 46.153 C 149.456 45.799,148.861 45.670,148.271 45.818 C 147.606 45.985,147.235 45.867,147.069 45.437 C 146.895 44.981,146.506 44.879,145.621 45.056 C 144.739 45.232,144.348 45.130,144.175 44.679 C 144.000 44.222,143.581 44.118,142.576 44.281 C 141.585 44.442,141.151 44.339,140.984 43.903 C 140.810 43.450,140.320 43.352,138.977 43.504 C 137.525 43.667,137.200 43.586,137.200 43.058 C 137.200 42.508,136.846 42.449,134.800 42.663 C 133.121 42.839,132.400 42.777,132.400 42.457 C 132.400 42.150,131.283 42.000,129.000 42.000 C 127.000 42.000,125.600 41.835,125.600 41.600 C 125.600 41.345,122.267 41.200,116.400 41.200 C 110.533 41.200,107.200 41.345,107.200 41.600 M100.200 87.600 C 98.220 87.737,104.070 87.855,113.200 87.861 C 122.330 87.868,128.540 87.745,127.000 87.587 C 123.636 87.241,105.256 87.251,100.200 87.600 M271.800 87.600 C 269.820 87.737,275.760 87.854,285.000 87.860 C 294.240 87.866,300.450 87.743,298.800 87.588 C 295.171 87.245,276.812 87.254,271.800 87.600 " stroke="none" fill="#b1153b" fill-rule="evenodd"></path><path id="path5" d="M132.000 309.651 C 132.990 310.559,134.423 311.774,135.185 312.351 C 135.947 312.928,137.371 314.162,138.350 315.094 C 139.329 316.025,140.461 316.892,140.865 317.021 C 141.269 317.149,141.600 317.389,141.600 317.555 C 141.600 317.813,142.684 318.734,147.763 322.791 C 148.182 323.126,149.194 323.985,150.011 324.700 C 150.828 325.415,151.655 326.001,151.848 326.002 C 152.042 326.003,152.868 326.588,153.684 327.302 C 154.500 328.016,155.850 329.107,156.684 329.726 C 157.518 330.345,159.630 331.920,161.377 333.226 C 163.125 334.532,164.657 335.600,164.782 335.600 C 164.906 335.600,165.466 336.005,166.025 336.500 C 166.585 336.995,167.325 337.580,167.670 337.800 C 170.205 339.415,172.400 341.036,172.400 341.294 C 172.400 341.462,172.611 341.600,172.869 341.600 C 173.126 341.600,173.667 341.899,174.071 342.264 C 174.475 342.630,175.152 343.125,175.575 343.364 C 175.998 343.604,178.703 345.375,181.585 347.300 C 184.467 349.225,186.917 350.800,187.030 350.800 C 187.142 350.800,187.620 351.160,188.092 351.600 C 188.564 352.040,189.187 352.400,189.475 352.400 C 189.764 352.400,190.000 352.580,190.000 352.800 C 190.000 353.020,190.189 353.200,190.419 353.200 C 190.650 353.200,191.923 353.920,193.248 354.800 C 194.573 355.680,195.824 356.400,196.028 356.400 C 196.233 356.400,196.400 356.544,196.400 356.720 C 196.400 358.529,200.878 357.746,203.373 355.500 C 203.801 355.115,204.387 354.800,204.675 354.800 C 204.964 354.800,205.200 354.665,205.200 354.499 C 205.200 354.334,206.055 353.751,207.100 353.203 C 208.145 352.656,209.349 351.891,209.775 351.504 C 210.202 351.117,210.704 350.800,210.892 350.800 C 211.080 350.800,211.620 350.440,212.092 350.000 C 212.564 349.560,213.187 349.200,213.475 349.200 C 213.764 349.200,214.000 349.042,214.000 348.849 C 214.000 348.655,214.540 348.273,215.200 348.000 C 215.860 347.727,216.400 347.357,216.400 347.178 C 216.400 347.000,216.759 346.740,217.198 346.601 C 217.636 346.462,218.221 346.130,218.498 345.865 C 219.037 345.346,223.183 342.487,224.457 341.756 C 224.882 341.511,225.628 340.959,226.115 340.529 C 226.905 339.832,228.030 339.028,229.932 337.800 C 230.273 337.580,231.823 336.465,233.376 335.323 C 234.929 334.180,236.887 332.740,237.727 332.123 C 238.568 331.505,239.939 330.415,240.776 329.700 C 241.612 328.985,242.466 328.400,242.674 328.400 C 242.881 328.400,243.568 327.860,244.200 327.200 C 244.832 326.540,245.541 325.991,245.775 325.980 C 246.009 325.970,246.920 325.251,247.800 324.383 C 248.680 323.516,249.580 322.796,249.800 322.783 C 250.020 322.771,250.920 322.051,251.800 321.183 C 252.680 320.316,253.543 319.604,253.717 319.603 C 253.892 319.601,254.760 318.929,255.646 318.109 C 256.532 317.289,257.668 316.344,258.170 316.009 C 259.097 315.390,262.137 312.781,265.520 309.700 L 267.386 308.000 198.793 308.000 L 130.200 308.000 132.000 309.651 M251.143 309.208 C 250.251 309.729,147.660 309.755,146.359 309.234 C 145.740 308.987,164.244 308.846,198.600 308.838 C 232.718 308.829,251.564 308.962,251.143 309.208 M248.228 311.400 C 246.860 312.653,245.600 313.210,245.600 312.560 C 245.600 311.978,248.165 310.000,248.920 310.000 C 249.636 310.000,249.537 310.201,248.228 311.400 M151.818 312.182 C 152.837 313.200,153.093 314.000,152.400 314.000 C 152.180 314.000,152.000 313.850,152.000 313.668 C 152.000 313.485,151.550 313.094,151.000 312.800 C 150.006 312.268,149.618 311.200,150.418 311.200 C 150.648 311.200,151.278 311.642,151.818 312.182 M244.387 314.100 C 244.373 314.678,242.450 316.184,242.132 315.866 C 241.897 315.630,243.623 313.663,244.100 313.624 C 244.265 313.611,244.394 313.825,244.387 314.100 M156.000 315.600 C 156.617 316.260,157.409 316.800,157.760 316.800 C 158.112 316.800,158.400 316.967,158.400 317.171 C 158.400 317.376,158.691 317.834,159.048 318.190 C 159.404 318.547,159.559 318.965,159.393 319.119 C 159.227 319.274,159.010 319.175,158.912 318.900 C 158.814 318.625,158.480 318.400,158.170 318.400 C 157.860 318.400,157.382 318.040,157.107 317.600 C 156.832 317.160,156.381 316.800,156.104 316.800 C 155.827 316.800,155.600 316.632,155.600 316.427 C 155.600 316.222,155.240 315.940,154.800 315.800 C 153.966 315.535,153.673 314.400,154.440 314.400 C 154.681 314.400,155.383 314.940,156.000 315.600 M241.600 316.325 C 241.600 316.771,239.187 318.521,238.928 318.262 C 238.635 317.968,240.493 316.054,241.100 316.024 C 241.375 316.011,241.600 316.146,241.600 316.325 M237.600 319.600 C 237.600 319.820,237.447 320.000,237.259 320.000 C 237.072 320.000,236.354 320.540,235.663 321.200 C 234.972 321.860,234.303 322.400,234.175 322.400 C 234.047 322.400,233.706 322.625,233.416 322.900 C 232.304 323.955,231.178 324.800,230.884 324.800 C 230.715 324.800,230.317 325.160,230.000 325.600 C 229.477 326.325,228.400 326.717,228.400 326.182 C 228.400 325.770,230.364 324.000,230.821 324.000 C 231.073 324.000,231.783 323.460,232.400 322.800 C 233.017 322.140,233.764 321.595,234.060 321.588 C 234.357 321.581,235.050 321.047,235.600 320.400 C 236.591 319.234,237.600 318.831,237.600 319.600 M162.276 320.619 C 162.617 320.960,162.759 321.365,162.593 321.519 C 162.427 321.674,162.210 321.575,162.112 321.300 C 162.014 321.025,161.678 320.800,161.367 320.800 C 161.055 320.800,160.800 320.620,160.800 320.400 C 160.800 319.802,161.574 319.917,162.276 320.619 M165.476 323.019 C 165.817 323.360,166.001 323.732,165.887 323.847 C 165.627 324.106,164.000 323.120,164.000 322.704 C 164.000 322.191,164.824 322.366,165.476 323.019 M168.800 325.600 C 169.117 326.040,169.620 326.400,169.917 326.400 C 170.214 326.400,170.711 326.654,171.021 326.964 C 171.332 327.275,171.814 327.612,172.093 327.714 C 172.451 327.846,172.476 328.033,172.178 328.352 C 171.867 328.685,171.528 328.592,170.895 328.002 C 170.421 327.561,169.886 327.200,169.705 327.200 C 169.524 327.200,169.117 326.840,168.800 326.400 C 168.483 325.960,167.993 325.600,167.712 325.600 C 167.430 325.600,167.200 325.420,167.200 325.200 C 167.200 324.513,168.196 324.762,168.800 325.600 M228.000 326.629 C 228.000 326.754,227.721 327.136,227.381 327.476 C 226.600 328.257,226.131 327.866,226.860 327.042 C 227.406 326.424,228.000 326.209,228.000 326.629 M174.400 329.200 C 174.717 329.640,175.130 330.000,175.317 330.000 C 175.825 330.000,176.931 331.203,176.666 331.467 C 176.321 331.813,172.802 329.475,172.801 328.900 C 172.800 328.129,173.757 328.308,174.400 329.200 M224.800 328.973 C 224.800 329.288,224.440 329.660,224.000 329.800 C 223.560 329.940,223.200 330.210,223.200 330.400 C 223.200 330.590,222.841 330.860,222.402 330.999 C 221.964 331.138,221.379 331.472,221.102 331.739 C 220.076 332.734,217.947 334.080,217.735 333.868 C 217.422 333.556,219.457 331.600,220.094 331.600 C 220.385 331.600,220.883 331.240,221.200 330.800 C 221.517 330.360,222.057 330.000,222.400 330.000 C 222.743 330.000,223.283 329.640,223.600 329.200 C 224.276 328.262,224.800 328.163,224.800 328.973 M179.476 333.019 C 179.817 333.360,179.988 333.745,179.857 333.876 C 179.574 334.160,178.400 333.253,178.400 332.751 C 178.400 332.229,178.781 332.324,179.476 333.019 M181.876 334.619 C 182.217 334.960,182.401 335.332,182.287 335.447 C 182.027 335.706,180.400 334.720,180.400 334.304 C 180.400 333.791,181.224 333.966,181.876 334.619 M217.200 334.229 C 217.200 334.621,216.078 335.600,215.629 335.600 C 215.065 335.600,215.087 335.294,215.700 334.598 C 216.195 334.036,217.200 333.788,217.200 334.229 M184.276 336.219 C 184.617 336.560,184.801 336.932,184.687 337.047 C 184.427 337.306,182.800 336.320,182.800 335.904 C 182.800 335.391,183.624 335.566,184.276 336.219 M214.800 335.829 C 214.800 336.221,213.678 337.200,213.229 337.200 C 212.993 337.200,212.800 337.380,212.800 337.600 C 212.800 337.820,212.530 338.000,212.200 338.000 C 211.870 338.000,211.600 338.180,211.600 338.400 C 211.600 338.620,211.330 338.800,211.000 338.800 C 210.670 338.800,210.400 338.980,210.400 339.200 C 210.400 339.420,210.145 339.600,209.833 339.600 C 209.522 339.600,209.186 339.825,209.088 340.100 C 208.990 340.375,208.773 340.474,208.607 340.319 C 208.285 340.020,209.310 338.800,209.883 338.800 C 210.070 338.800,210.483 338.440,210.800 338.000 C 211.117 337.560,211.657 337.200,212.000 337.200 C 212.343 337.200,212.883 336.840,213.200 336.400 C 213.728 335.668,214.800 335.285,214.800 335.829 M186.629 337.771 C 187.309 338.452,187.357 338.800,186.771 338.800 C 186.322 338.800,185.200 337.821,185.200 337.429 C 185.200 336.995,186.058 337.201,186.629 337.771 M189.029 339.371 C 189.709 340.052,189.757 340.400,189.171 340.400 C 188.722 340.400,187.600 339.421,187.600 339.029 C 187.600 338.595,188.458 338.801,189.029 339.371 M191.367 341.057 C 191.725 341.991,191.346 342.203,190.619 341.476 C 189.853 340.710,189.835 340.400,190.557 340.400 C 190.864 340.400,191.228 340.696,191.367 341.057 M208.000 340.800 C 208.000 341.020,207.745 341.200,207.433 341.200 C 207.122 341.200,206.786 341.425,206.688 341.700 C 206.590 341.975,206.377 342.077,206.214 341.926 C 205.846 341.585,206.824 340.436,207.500 340.415 C 207.775 340.407,208.000 340.580,208.000 340.800 M205.600 342.400 C 205.600 342.620,205.345 342.800,205.033 342.800 C 204.722 342.800,204.386 343.025,204.288 343.300 C 204.190 343.575,203.977 343.677,203.814 343.526 C 203.446 343.185,204.424 342.036,205.100 342.015 C 205.375 342.007,205.600 342.180,205.600 342.400 M194.800 343.192 C 194.800 343.408,195.293 343.709,195.896 343.860 C 197.500 344.263,198.884 346.000,197.600 346.000 C 197.380 346.000,197.200 345.820,197.200 345.600 C 197.200 345.380,197.017 345.200,196.794 345.200 C 196.237 345.200,193.611 343.471,193.605 343.100 C 193.602 342.935,193.870 342.800,194.200 342.800 C 194.530 342.800,194.800 342.977,194.800 343.192 M203.200 343.758 C 203.200 344.047,199.339 346.400,198.865 346.400 C 198.609 346.400,198.400 346.220,198.400 346.000 C 198.400 345.780,198.604 345.600,198.853 345.600 C 199.102 345.600,199.600 345.261,199.959 344.847 C 200.561 344.153,201.453 343.762,202.700 343.646 C 202.975 343.621,203.200 343.671,203.200 343.758 " stroke="none" fill="#730484" fill-rule="evenodd"></path><path id="path6" d="M111.600 40.800 C 111.600 41.044,113.467 41.200,116.400 41.200 C 119.333 41.200,121.200 41.044,121.200 40.800 C 121.200 40.556,119.333 40.400,116.400 40.400 C 113.467 40.400,111.600 40.556,111.600 40.800 M279.400 40.800 C 279.240 41.059,281.063 41.200,284.576 41.200 C 287.925 41.200,290.000 41.047,290.000 40.800 C 290.000 40.554,288.008 40.400,284.824 40.400 C 281.804 40.400,279.544 40.567,279.400 40.800 M101.200 41.600 C 100.513 41.820,101.234 41.933,103.500 41.960 C 105.460 41.984,106.800 41.838,106.800 41.600 C 106.800 41.131,102.665 41.131,101.200 41.600 M126.000 41.600 C 126.000 41.838,127.340 41.984,129.300 41.960 C 131.566 41.933,132.287 41.820,131.600 41.600 C 130.135 41.131,126.000 41.131,126.000 41.600 M269.000 41.600 C 268.340 41.768,267.035 41.927,266.100 41.953 C 263.958 42.012,263.843 42.800,265.976 42.800 C 266.843 42.800,267.664 42.620,267.800 42.400 C 267.936 42.180,269.567 42.000,271.424 42.000 C 273.408 42.000,274.800 41.835,274.800 41.600 C 274.800 41.141,270.805 41.141,269.000 41.600 M294.400 41.549 C 294.400 41.848,295.536 42.000,297.776 42.000 C 299.633 42.000,301.264 42.180,301.400 42.400 C 301.708 42.898,304.800 42.933,304.800 42.439 C 304.800 42.077,303.292 41.854,297.500 41.361 C 295.309 41.175,294.400 41.230,294.400 41.549 M96.400 42.400 C 96.400 42.620,97.210 42.800,98.200 42.800 C 99.190 42.800,100.000 42.620,100.000 42.400 C 100.000 42.180,99.190 42.000,98.200 42.000 C 97.210 42.000,96.400 42.180,96.400 42.400 M132.800 42.400 C 132.800 42.620,133.419 42.800,134.176 42.800 C 134.933 42.800,135.664 42.620,135.800 42.400 C 135.949 42.158,135.404 42.000,134.424 42.000 C 133.531 42.000,132.800 42.180,132.800 42.400 M93.023 42.710 C 92.492 43.241,92.886 43.600,94.000 43.600 C 95.440 43.600,95.645 42.626,94.223 42.544 C 93.685 42.513,93.146 42.588,93.023 42.710 M137.325 42.981 C 137.508 43.542,140.000 43.769,140.000 43.225 C 140.000 42.759,139.911 42.728,138.294 42.630 C 137.677 42.592,137.248 42.748,137.325 42.981 M260.388 42.807 C 259.915 43.100,259.930 43.198,260.482 43.410 C 261.387 43.757,262.906 43.495,263.082 42.961 C 263.256 42.432,261.187 42.314,260.388 42.807 M306.265 43.026 C 306.512 43.669,308.800 43.826,308.800 43.200 C 308.800 42.980,308.665 42.779,308.500 42.754 C 306.436 42.441,306.058 42.487,306.265 43.026 M89.266 43.550 C 88.841 43.820,88.868 43.940,89.399 44.144 C 90.503 44.568,91.200 44.435,91.200 43.800 C 91.200 43.148,90.121 43.009,89.266 43.550 M141.315 43.750 C 141.543 44.446,143.200 44.558,143.200 43.878 C 143.200 43.526,142.803 43.300,142.183 43.300 C 141.609 43.300,141.231 43.496,141.315 43.750 M256.994 43.609 C 256.860 43.827,257.031 44.114,257.375 44.246 C 258.087 44.519,259.200 44.186,259.200 43.700 C 259.200 43.223,257.282 43.144,256.994 43.609 M310.000 43.800 C 310.274 44.130,310.836 44.400,311.249 44.400 C 311.662 44.400,312.000 44.130,312.000 43.800 C 312.000 43.395,311.595 43.200,310.751 43.200 C 309.686 43.200,309.575 43.288,310.000 43.800 M86.047 44.362 C 85.613 44.638,85.676 44.770,86.344 44.982 C 87.249 45.269,88.000 44.995,88.000 44.376 C 88.000 43.905,86.783 43.896,86.047 44.362 M144.443 44.615 C 144.790 44.961,145.350 45.117,145.727 44.973 C 146.675 44.609,146.152 44.000,144.891 44.000 C 143.935 44.000,143.890 44.062,144.443 44.615 M253.818 44.371 C 253.539 44.822,255.031 45.352,255.596 45.002 C 255.818 44.865,256.000 44.583,256.000 44.376 C 256.000 43.889,254.118 43.885,253.818 44.371 M313.300 44.500 C 313.392 44.775,313.797 45.000,314.200 45.000 C 314.603 45.000,315.008 44.775,315.100 44.500 C 315.206 44.183,314.876 44.000,314.200 44.000 C 313.524 44.000,313.194 44.183,313.300 44.500 M83.300 45.300 C 83.392 45.575,83.797 45.800,84.200 45.800 C 84.603 45.800,85.008 45.575,85.100 45.300 C 85.206 44.983,84.876 44.800,84.200 44.800 C 83.524 44.800,83.194 44.983,83.300 45.300 M147.276 45.447 C 147.632 45.803,148.121 45.973,148.362 45.824 C 149.156 45.333,148.819 44.800,147.714 44.800 C 146.714 44.800,146.679 44.851,147.276 45.447 M251.200 45.176 C 251.200 45.923,252.090 46.081,252.724 45.447 C 253.321 44.851,253.286 44.800,252.286 44.800 C 251.689 44.800,251.200 44.969,251.200 45.176 M316.366 45.359 C 316.621 45.666,317.181 45.826,317.610 45.713 C 318.671 45.436,318.196 44.800,316.927 44.800 C 316.095 44.800,315.989 44.905,316.366 45.359 M80.800 46.000 C 80.800 46.220,81.160 46.400,81.600 46.400 C 82.040 46.400,82.400 46.220,82.400 46.000 C 82.400 45.780,82.040 45.600,81.600 45.600 C 81.160 45.600,80.800 45.780,80.800 46.000 M149.600 46.000 C 149.600 46.220,149.960 46.400,150.400 46.400 C 150.840 46.400,151.200 46.220,151.200 46.000 C 151.200 45.780,150.840 45.600,150.400 45.600 C 149.960 45.600,149.600 45.780,149.600 46.000 M248.000 45.995 C 247.670 46.186,247.040 46.473,246.600 46.633 C 245.847 46.907,245.844 46.934,246.542 47.099 C 246.951 47.196,247.482 47.078,247.722 46.838 C 247.963 46.597,248.563 46.400,249.056 46.400 C 249.549 46.400,250.064 46.220,250.200 46.000 C 250.501 45.513,248.839 45.509,248.000 45.995 M318.800 46.000 C 318.800 46.220,319.261 46.400,319.824 46.400 C 320.404 46.400,320.740 46.227,320.600 46.000 C 320.464 45.780,320.003 45.600,319.576 45.600 C 319.149 45.600,318.800 45.780,318.800 46.000 M78.400 46.800 C 78.400 47.020,78.760 47.200,79.200 47.200 C 79.640 47.200,80.000 47.020,80.000 46.800 C 80.000 46.580,79.640 46.400,79.200 46.400 C 78.760 46.400,78.400 46.580,78.400 46.800 M152.000 46.800 C 152.000 47.020,152.360 47.200,152.800 47.200 C 153.240 47.200,153.600 47.020,153.600 46.800 C 153.600 46.580,153.240 46.400,152.800 46.400 C 152.360 46.400,152.000 46.580,152.000 46.800 M321.200 46.800 C 321.200 47.020,321.661 47.200,322.224 47.200 C 322.804 47.200,323.140 47.027,323.000 46.800 C 322.864 46.580,322.403 46.400,321.976 46.400 C 321.549 46.400,321.200 46.580,321.200 46.800 M76.200 47.600 C 76.064 47.820,76.323 48.000,76.776 48.000 C 77.229 48.000,77.600 47.820,77.600 47.600 C 77.600 47.380,77.341 47.200,77.024 47.200 C 76.707 47.200,76.336 47.380,76.200 47.600 M154.000 47.600 C 154.000 47.820,154.461 48.000,155.024 48.000 C 155.604 48.000,155.940 47.827,155.800 47.600 C 155.664 47.380,155.203 47.200,154.776 47.200 C 154.349 47.200,154.000 47.380,154.000 47.600 M244.000 47.600 C 244.000 47.820,244.360 48.000,244.800 48.000 C 245.240 48.000,245.600 47.820,245.600 47.600 C 245.600 47.380,245.240 47.200,244.800 47.200 C 244.360 47.200,244.000 47.380,244.000 47.600 M323.600 47.600 C 323.600 47.820,323.960 48.000,324.400 48.000 C 324.840 48.000,325.200 47.820,325.200 47.600 C 325.200 47.380,324.840 47.200,324.400 47.200 C 323.960 47.200,323.600 47.380,323.600 47.600 M74.000 48.400 C 74.000 48.620,74.360 48.800,74.800 48.800 C 75.240 48.800,75.600 48.620,75.600 48.400 C 75.600 48.180,75.240 48.000,74.800 48.000 C 74.360 48.000,74.000 48.180,74.000 48.400 M242.000 48.400 C 242.000 48.620,242.360 48.800,242.800 48.800 C 243.240 48.800,243.600 48.620,243.600 48.400 C 243.600 48.180,243.240 48.000,242.800 48.000 C 242.360 48.000,242.000 48.180,242.000 48.400 M325.600 48.400 C 325.600 48.620,325.870 48.800,326.200 48.800 C 326.530 48.800,326.800 48.620,326.800 48.400 C 326.800 48.180,326.530 48.000,326.200 48.000 C 325.870 48.000,325.600 48.180,325.600 48.400 M72.400 49.200 C 72.400 49.420,72.670 49.600,73.000 49.600 C 73.330 49.600,73.600 49.420,73.600 49.200 C 73.600 48.980,73.330 48.800,73.000 48.800 C 72.670 48.800,72.400 48.980,72.400 49.200 M158.000 49.200 C 158.000 49.420,158.349 49.600,158.776 49.600 C 159.203 49.600,159.664 49.780,159.800 50.000 C 159.936 50.220,160.307 50.400,160.624 50.400 C 160.941 50.400,161.200 50.220,161.200 50.000 C 161.200 49.780,160.840 49.600,160.400 49.600 C 159.960 49.600,159.600 49.420,159.600 49.200 C 159.600 48.980,159.240 48.800,158.800 48.800 C 158.360 48.800,158.000 48.980,158.000 49.200 M327.600 49.200 C 327.600 49.420,327.960 49.600,328.400 49.600 C 328.840 49.600,329.200 49.780,329.200 50.000 C 329.200 50.220,329.560 50.400,330.000 50.400 C 330.440 50.400,330.800 50.220,330.800 50.000 C 330.800 49.780,330.440 49.600,330.000 49.600 C 329.560 49.600,329.200 49.420,329.200 49.200 C 329.200 48.980,328.840 48.800,328.400 48.800 C 327.960 48.800,327.600 48.980,327.600 49.200 M70.200 50.000 C 70.064 50.220,69.603 50.400,69.176 50.400 C 68.749 50.400,68.400 50.580,68.400 50.800 C 68.400 51.020,68.760 51.200,69.200 51.200 C 69.640 51.200,70.000 51.020,70.000 50.800 C 70.000 50.580,70.360 50.400,70.800 50.400 C 71.240 50.400,71.600 50.220,71.600 50.000 C 71.600 49.780,71.341 49.600,71.024 49.600 C 70.707 49.600,70.336 49.780,70.200 50.000 M238.000 50.000 C 238.000 50.220,237.640 50.400,237.200 50.400 C 236.760 50.400,236.400 50.580,236.400 50.800 C 236.400 51.020,236.659 51.200,236.976 51.200 C 237.293 51.200,237.664 51.020,237.800 50.800 C 237.936 50.580,238.397 50.400,238.824 50.400 C 239.251 50.400,239.600 50.220,239.600 50.000 C 239.600 49.780,239.240 49.600,238.800 49.600 C 238.360 49.600,238.000 49.780,238.000 50.000 M161.600 50.800 C 161.600 51.020,161.870 51.200,162.200 51.200 C 162.530 51.200,162.800 51.020,162.800 50.800 C 162.800 50.580,162.530 50.400,162.200 50.400 C 161.870 50.400,161.600 50.580,161.600 50.800 M331.200 50.800 C 331.200 51.020,331.470 51.200,331.800 51.200 C 332.130 51.200,332.400 51.020,332.400 50.800 C 332.400 50.580,332.130 50.400,331.800 50.400 C 331.470 50.400,331.200 50.580,331.200 50.800 M66.800 51.600 C 66.800 51.820,67.070 52.000,67.400 52.000 C 67.730 52.000,68.000 51.820,68.000 51.600 C 68.000 51.380,67.730 51.200,67.400 51.200 C 67.070 51.200,66.800 51.380,66.800 51.600 M163.200 51.600 C 163.200 51.820,163.470 52.000,163.800 52.000 C 164.130 52.000,164.400 51.820,164.400 51.600 C 164.400 51.380,164.130 51.200,163.800 51.200 C 163.470 51.200,163.200 51.380,163.200 51.600 M234.800 51.600 C 234.800 51.820,235.070 52.000,235.400 52.000 C 235.730 52.000,236.000 51.820,236.000 51.600 C 236.000 51.380,235.730 51.200,235.400 51.200 C 235.070 51.200,234.800 51.380,234.800 51.600 M332.800 51.600 C 332.800 51.820,333.070 52.000,333.400 52.000 C 333.730 52.000,334.000 51.820,334.000 51.600 C 334.000 51.380,333.730 51.200,333.400 51.200 C 333.070 51.200,332.800 51.380,332.800 51.600 M65.200 52.400 C 65.200 52.620,65.470 52.800,65.800 52.800 C 66.130 52.800,66.400 52.620,66.400 52.400 C 66.400 52.180,66.130 52.000,65.800 52.000 C 65.470 52.000,65.200 52.180,65.200 52.400 M164.800 52.400 C 164.800 52.620,165.070 52.800,165.400 52.800 C 165.730 52.800,166.000 52.980,166.000 53.200 C 166.000 53.420,166.345 53.600,166.767 53.600 C 167.188 53.600,167.614 53.825,167.712 54.100 C 167.810 54.375,168.027 54.474,168.193 54.319 C 168.597 53.943,167.420 52.800,166.629 52.800 C 166.283 52.800,166.000 52.620,166.000 52.400 C 166.000 52.180,165.730 52.000,165.400 52.000 C 165.070 52.000,164.800 52.180,164.800 52.400 M233.200 52.400 C 233.200 52.620,233.470 52.800,233.800 52.800 C 234.130 52.800,234.400 52.620,234.400 52.400 C 234.400 52.180,234.130 52.000,233.800 52.000 C 233.470 52.000,233.200 52.180,233.200 52.400 M334.400 52.400 C 334.400 52.620,334.670 52.800,335.000 52.800 C 335.330 52.800,335.600 52.620,335.600 52.400 C 335.600 52.180,335.330 52.000,335.000 52.000 C 334.670 52.000,334.400 52.180,334.400 52.400 M63.600 53.200 C 63.600 53.420,63.870 53.600,64.200 53.600 C 64.530 53.600,64.800 53.420,64.800 53.200 C 64.800 52.980,64.530 52.800,64.200 52.800 C 63.870 52.800,63.600 52.980,63.600 53.200 M231.600 53.200 C 231.600 53.420,231.870 53.600,232.200 53.600 C 232.530 53.600,232.800 53.420,232.800 53.200 C 232.800 52.980,232.530 52.800,232.200 52.800 C 231.870 52.800,231.600 52.980,231.600 53.200 M336.000 53.200 C 336.000 53.420,336.270 53.600,336.600 53.600 C 336.930 53.600,337.200 53.420,337.200 53.200 C 337.200 52.980,336.930 52.800,336.600 52.800 C 336.270 52.800,336.000 52.980,336.000 53.200 M62.000 54.000 C 62.000 54.220,61.758 54.400,61.462 54.400 C 61.166 54.400,60.598 54.760,60.200 55.200 C 59.549 55.919,59.543 56.000,60.138 56.000 C 60.502 56.000,60.800 55.820,60.800 55.600 C 60.800 55.380,61.070 55.200,61.400 55.200 C 61.730 55.200,62.000 55.020,62.000 54.800 C 62.000 54.580,62.270 54.400,62.600 54.400 C 62.930 54.400,63.200 54.220,63.200 54.000 C 63.200 53.780,62.930 53.600,62.600 53.600 C 62.270 53.600,62.000 53.780,62.000 54.000 M229.660 54.242 C 229.362 54.578,229.252 54.976,229.414 55.126 C 229.577 55.277,229.790 55.175,229.888 54.900 C 229.986 54.625,230.322 54.400,230.633 54.400 C 230.945 54.400,231.200 54.220,231.200 54.000 C 231.200 53.401,230.274 53.546,229.660 54.242 M337.600 53.904 C 337.600 54.320,339.227 55.306,339.487 55.047 C 339.761 54.772,338.580 53.600,338.029 53.600 C 337.793 53.600,337.600 53.737,337.600 53.904 M168.800 54.800 C 168.800 55.020,169.070 55.200,169.400 55.200 C 169.730 55.200,170.000 55.020,170.000 54.800 C 170.000 54.580,169.730 54.400,169.400 54.400 C 169.070 54.400,168.800 54.580,168.800 54.800 M170.400 55.429 C 170.400 55.821,171.522 56.800,171.971 56.800 C 172.557 56.800,172.509 56.452,171.829 55.771 C 171.258 55.201,170.400 54.995,170.400 55.429 M227.600 55.600 C 227.600 55.820,227.870 56.000,228.200 56.000 C 228.530 56.000,228.800 55.820,228.800 55.600 C 228.800 55.380,228.530 55.200,228.200 55.200 C 227.870 55.200,227.600 55.380,227.600 55.600 M340.000 55.600 C 340.000 55.820,340.270 56.000,340.600 56.000 C 340.930 56.000,341.200 55.820,341.200 55.600 C 341.200 55.380,340.930 55.200,340.600 55.200 C 340.270 55.200,340.000 55.380,340.000 55.600 M225.900 56.557 C 225.515 56.849,225.200 57.203,225.200 57.344 C 225.200 57.801,226.042 57.615,226.629 57.029 C 227.688 55.969,227.140 55.615,225.900 56.557 M341.600 56.229 C 341.600 56.653,342.836 57.697,343.067 57.467 C 343.192 57.341,343.017 56.960,342.676 56.619 C 342.041 55.984,341.600 55.824,341.600 56.229 M56.460 57.442 C 55.731 58.266,56.200 58.657,56.981 57.876 C 57.321 57.536,57.600 57.154,57.600 57.029 C 57.600 56.609,57.006 56.824,56.460 57.442 M172.800 57.029 C 172.800 57.421,173.922 58.400,174.371 58.400 C 175.007 58.400,174.892 57.958,174.100 57.357 C 173.356 56.792,172.800 56.652,172.800 57.029 M223.660 58.242 C 222.931 59.066,223.400 59.457,224.181 58.676 C 224.521 58.336,224.800 57.954,224.800 57.829 C 224.800 57.409,224.206 57.624,223.660 58.242 M344.000 57.829 C 344.000 58.253,345.236 59.297,345.467 59.067 C 345.592 58.941,345.417 58.560,345.076 58.219 C 344.441 57.584,344.000 57.424,344.000 57.829 M54.100 58.665 C 53.610 58.863,53.379 60.000,53.829 60.000 C 53.954 60.000,54.314 59.743,54.629 59.429 C 55.548 58.509,55.316 58.174,54.100 58.665 M175.200 58.618 C 175.200 59.022,177.113 60.754,177.325 60.542 C 177.578 60.288,175.993 58.400,175.528 58.400 C 175.348 58.400,175.200 58.498,175.200 58.618 M221.500 59.372 C 221.115 59.656,220.800 60.093,220.800 60.344 C 220.800 60.964,221.140 60.917,221.861 60.196 C 222.672 59.385,222.381 58.722,221.500 59.372 M346.400 59.418 C 346.400 59.702,348.298 61.600,348.582 61.600 C 349.105 61.600,348.728 60.632,347.939 59.947 C 347.099 59.219,346.400 58.979,346.400 59.418 M51.261 60.747 C 50.361 61.528,50.164 62.000,50.739 62.000 C 51.153 62.000,52.800 60.604,52.800 60.253 C 52.800 59.781,52.126 59.997,51.261 60.747 M178.600 61.238 C 179.322 62.100,179.873 62.627,181.526 64.033 C 181.816 64.279,182.149 64.385,182.266 64.267 C 182.551 63.983,179.972 61.425,178.759 60.787 L 177.800 60.284 178.600 61.238 M217.700 62.210 C 216.741 63.235,216.593 63.600,217.139 63.600 C 217.671 63.600,219.200 62.156,219.200 61.653 C 219.200 60.961,218.693 61.150,217.700 62.210 M47.813 63.413 C 46.971 64.185,46.390 64.924,46.522 65.055 C 46.654 65.187,47.053 65.004,47.410 64.648 C 47.766 64.291,48.181 64.000,48.332 64.000 C 48.678 64.000,49.711 62.377,49.500 62.167 C 49.414 62.081,48.655 62.642,47.813 63.413 M350.638 62.896 C 351.057 63.389,351.737 64.045,352.149 64.353 C 352.561 64.662,353.778 65.834,354.854 66.957 C 355.929 68.081,358.078 70.324,359.628 71.943 C 361.178 73.562,362.543 74.790,362.661 74.673 C 362.882 74.451,361.363 72.800,354.678 65.993 C 351.240 62.494,348.527 60.413,350.638 62.896 M212.535 66.723 C 209.865 69.379,207.570 72.103,207.805 72.338 C 208.021 72.554,215.200 65.186,215.200 64.747 C 215.200 64.142,214.923 64.347,212.535 66.723 M41.377 69.377 C 39.037 71.731,37.216 73.750,37.330 73.864 C 37.445 73.978,39.458 72.151,41.805 69.805 C 44.151 67.458,45.972 65.439,45.851 65.318 C 45.730 65.196,43.716 67.023,41.377 69.377 M188.000 70.300 C 188.000 70.673,191.016 74.000,191.354 74.000 C 191.910 74.000,191.517 73.309,190.046 71.700 C 188.537 70.049,188.000 69.681,188.000 70.300 M205.260 75.051 C 204.743 75.602,204.417 76.150,204.536 76.269 C 204.752 76.485,206.800 74.630,206.800 74.218 C 206.800 73.747,206.156 74.095,205.260 75.051 M191.600 75.018 C 191.600 75.138,192.061 75.697,192.624 76.261 C 193.926 77.563,194.456 77.137,193.199 75.798 C 192.323 74.867,191.600 74.514,191.600 75.018 M34.500 76.617 C 34.225 76.919,34.000 77.339,34.000 77.550 C 34.000 77.761,33.775 78.014,33.500 78.112 C 33.225 78.210,33.124 78.424,33.276 78.588 C 33.427 78.751,34.035 78.402,34.625 77.812 C 35.225 77.211,35.544 76.590,35.349 76.403 C 35.157 76.218,34.775 76.314,34.500 76.617 M363.815 76.376 C 363.673 76.606,364.008 77.245,364.560 77.797 C 366.243 79.479,366.615 78.917,365.036 77.080 C 364.467 76.419,363.967 76.131,363.815 76.376 M203.500 77.372 C 203.115 77.656,202.800 78.093,202.800 78.344 C 202.800 78.964,203.140 78.917,203.861 78.196 C 204.672 77.385,204.381 76.722,203.500 77.372 M194.000 78.029 C 194.000 78.478,194.979 79.600,195.371 79.600 C 195.805 79.600,195.599 78.742,195.029 78.171 C 194.348 77.491,194.000 77.443,194.000 78.029 M32.100 79.798 C 31.569 80.402,31.430 81.200,31.856 81.200 C 32.166 81.200,33.170 79.919,33.187 79.500 C 33.207 79.024,32.646 79.179,32.100 79.798 M366.000 79.600 C 366.000 79.820,366.180 80.000,366.400 80.000 C 366.620 80.000,366.800 80.251,366.800 80.557 C 366.800 81.062,367.935 81.798,368.241 81.492 C 368.412 81.321,366.573 79.200,366.253 79.200 C 366.114 79.200,366.000 79.380,366.000 79.600 M195.613 80.300 C 195.630 80.719,196.634 82.000,196.944 82.000 C 197.401 82.000,197.215 81.158,196.629 80.571 C 196.001 79.944,195.593 79.835,195.613 80.300 M201.200 80.600 C 201.200 80.930,201.380 81.200,201.600 81.200 C 201.820 81.200,202.000 80.930,202.000 80.600 C 202.000 80.270,201.820 80.000,201.600 80.000 C 201.380 80.000,201.200 80.270,201.200 80.600 M30.500 82.198 C 29.969 82.802,29.830 83.600,30.256 83.600 C 30.566 83.600,31.570 82.319,31.587 81.900 C 31.607 81.424,31.046 81.579,30.500 82.198 M200.100 82.198 C 199.499 82.881,199.448 83.600,200.000 83.600 C 200.220 83.600,200.400 83.330,200.400 83.000 C 200.400 82.670,200.580 82.400,200.800 82.400 C 201.020 82.400,201.200 82.220,201.200 82.000 C 201.200 81.437,200.689 81.529,200.100 82.198 M197.200 83.000 C 197.200 83.330,197.380 83.600,197.600 83.600 C 197.820 83.600,198.000 83.330,198.000 83.000 C 198.000 82.670,197.820 82.400,197.600 82.400 C 197.380 82.400,197.200 82.670,197.200 83.000 M368.413 82.700 C 368.430 83.119,369.434 84.400,369.744 84.400 C 370.201 84.400,370.015 83.558,369.429 82.971 C 368.801 82.344,368.393 82.235,368.413 82.700 M28.900 84.598 C 28.305 85.274,28.246 86.000,28.786 86.000 C 29.142 86.000,30.000 84.747,30.000 84.226 C 30.000 83.819,29.410 84.019,28.900 84.598 M198.000 84.229 C 198.000 84.670,199.108 85.559,199.352 85.314 C 199.887 84.780,199.559 84.000,198.800 84.000 C 198.360 84.000,198.000 84.103,198.000 84.229 M370.093 85.100 C 370.180 85.265,370.483 85.985,370.765 86.700 C 371.236 87.894,372.400 88.535,372.400 87.600 C 372.400 87.380,372.264 87.200,372.098 87.200 C 371.931 87.200,371.556 86.660,371.264 86.000 C 370.972 85.340,370.553 84.800,370.333 84.800 C 370.113 84.800,370.005 84.935,370.093 85.100 M27.600 86.800 C 27.600 87.020,27.870 87.200,28.200 87.200 C 28.530 87.200,28.800 87.020,28.800 86.800 C 28.800 86.580,28.530 86.400,28.200 86.400 C 27.870 86.400,27.600 86.580,27.600 86.800 M25.605 90.791 C 25.259 91.436,25.294 91.539,25.791 91.348 C 26.126 91.220,26.400 90.864,26.400 90.557 C 26.400 89.776,26.101 89.864,25.605 90.791 M373.551 90.879 C 373.730 91.363,374.102 91.834,374.378 91.926 C 374.700 92.033,374.634 91.718,374.194 91.047 C 373.357 89.769,373.117 89.707,373.551 90.879 M24.000 94.200 C 24.000 94.530,24.180 94.800,24.400 94.800 C 24.620 94.800,24.800 94.530,24.800 94.200 C 24.800 93.870,24.620 93.600,24.400 93.600 C 24.180 93.600,24.000 93.870,24.000 94.200 M375.200 94.600 C 375.200 94.930,375.380 95.200,375.600 95.200 C 375.820 95.200,376.000 94.930,376.000 94.600 C 376.000 94.270,375.820 94.000,375.600 94.000 C 375.380 94.000,375.200 94.270,375.200 94.600 M23.200 96.200 C 23.200 96.530,23.380 96.800,23.600 96.800 C 23.820 96.800,24.000 96.530,24.000 96.200 C 24.000 95.870,23.820 95.600,23.600 95.600 C 23.380 95.600,23.200 95.870,23.200 96.200 M376.000 96.200 C 376.000 96.530,376.180 96.800,376.400 96.800 C 376.620 96.800,376.800 96.530,376.800 96.200 C 376.800 95.870,376.620 95.600,376.400 95.600 C 376.180 95.600,376.000 95.870,376.000 96.200 M22.400 97.800 C 22.400 98.130,22.580 98.400,22.800 98.400 C 23.020 98.400,23.200 98.130,23.200 97.800 C 23.200 97.470,23.020 97.200,22.800 97.200 C 22.580 97.200,22.400 97.470,22.400 97.800 M21.600 100.200 C 21.600 100.530,21.780 100.800,22.000 100.800 C 22.220 100.800,22.400 100.530,22.400 100.200 C 22.400 99.870,22.220 99.600,22.000 99.600 C 21.780 99.600,21.600 99.870,21.600 100.200 M377.600 100.200 C 377.600 100.530,377.780 100.800,378.000 100.800 C 378.220 100.800,378.400 100.530,378.400 100.200 C 378.400 99.870,378.220 99.600,378.000 99.600 C 377.780 99.600,377.600 99.870,377.600 100.200 M20.800 102.600 C 20.800 102.930,20.980 103.200,21.200 103.200 C 21.420 103.200,21.600 102.930,21.600 102.600 C 21.600 102.270,21.420 102.000,21.200 102.000 C 20.980 102.000,20.800 102.270,20.800 102.600 M379.200 104.400 C 379.200 104.840,379.380 105.200,379.600 105.200 C 379.820 105.200,380.000 104.840,380.000 104.400 C 380.000 103.960,379.820 103.600,379.600 103.600 C 379.380 103.600,379.200 103.960,379.200 104.400 M20.000 105.200 C 20.000 105.640,20.180 106.000,20.400 106.000 C 20.620 106.000,20.800 105.640,20.800 105.200 C 20.800 104.760,20.620 104.400,20.400 104.400 C 20.180 104.400,20.000 104.760,20.000 105.200 M19.200 108.200 C 19.200 108.530,19.380 108.800,19.600 108.800 C 19.820 108.800,20.000 108.530,20.000 108.200 C 20.000 107.870,19.820 107.600,19.600 107.600 C 19.380 107.600,19.200 107.870,19.200 108.200 M380.800 110.000 C 380.800 110.440,380.980 110.800,381.200 110.800 C 381.420 110.800,381.600 110.440,381.600 110.000 C 381.600 109.560,381.420 109.200,381.200 109.200 C 380.980 109.200,380.800 109.560,380.800 110.000 M18.400 111.400 C 18.400 111.950,18.580 112.400,18.800 112.400 C 19.020 112.400,19.200 111.950,19.200 111.400 C 19.200 110.850,19.020 110.400,18.800 110.400 C 18.580 110.400,18.400 110.850,18.400 111.400 M381.600 113.000 C 381.600 113.550,381.780 114.000,382.000 114.000 C 382.220 114.000,382.400 113.550,382.400 113.000 C 382.400 112.450,382.220 112.000,382.000 112.000 C 381.780 112.000,381.600 112.450,381.600 113.000 M17.867 113.867 C 17.445 114.288,17.556 116.400,18.000 116.400 C 18.220 116.400,18.400 115.770,18.400 115.000 C 18.400 113.561,18.327 113.406,17.867 113.867 M382.400 117.200 C 382.400 117.860,382.580 118.400,382.800 118.400 C 383.020 118.400,383.200 117.860,383.200 117.200 C 383.200 116.540,383.020 116.000,382.800 116.000 C 382.580 116.000,382.400 116.540,382.400 117.200 M17.067 119.067 C 16.645 119.488,16.756 121.600,17.200 121.600 C 17.420 121.600,17.600 120.970,17.600 120.200 C 17.600 118.761,17.527 118.606,17.067 119.067 M383.200 123.576 C 383.200 124.663,383.380 125.664,383.600 125.800 C 383.848 125.953,384.000 125.204,384.000 123.824 C 384.000 122.601,383.820 121.600,383.600 121.600 C 383.380 121.600,383.200 122.489,383.200 123.576 M16.000 127.200 C 16.000 128.533,16.178 129.600,16.400 129.600 C 16.622 129.600,16.800 128.533,16.800 127.200 C 16.800 125.867,16.622 124.800,16.400 124.800 C 16.178 124.800,16.000 125.867,16.000 127.200 M383.200 140.000 C 383.200 141.333,383.378 142.400,383.600 142.400 C 383.822 142.400,384.000 141.333,384.000 140.000 C 384.000 138.667,383.822 137.600,383.600 137.600 C 383.378 137.600,383.200 138.667,383.200 140.000 M382.667 146.267 C 382.276 146.657,382.341 148.000,382.750 148.000 C 382.943 148.000,383.100 147.550,383.100 147.000 C 383.100 145.918,383.069 145.865,382.667 146.267 M16.000 147.176 C 16.000 147.629,16.180 148.000,16.400 148.000 C 16.620 148.000,16.800 147.741,16.800 147.424 C 16.800 147.107,16.620 146.736,16.400 146.600 C 16.180 146.464,16.000 146.723,16.000 147.176 M381.700 151.800 C 381.700 152.350,381.855 152.800,382.046 152.800 C 382.236 152.800,382.354 152.350,382.308 151.800 C 382.263 151.250,382.107 150.800,381.963 150.800 C 381.818 150.800,381.700 151.250,381.700 151.800 M17.067 153.067 C 16.669 153.465,16.745 154.400,17.175 154.400 C 17.381 154.400,17.523 154.040,17.490 153.600 C 17.422 152.696,17.429 152.705,17.067 153.067 M17.710 158.000 C 17.677 158.440,17.819 158.800,18.025 158.800 C 18.231 158.800,18.400 158.440,18.400 158.000 C 18.400 157.560,18.258 157.200,18.085 157.200 C 17.912 157.200,17.743 157.560,17.710 158.000 M18.510 162.000 C 18.477 162.440,18.619 162.800,18.825 162.800 C 19.031 162.800,19.200 162.440,19.200 162.000 C 19.200 161.560,19.058 161.200,18.885 161.200 C 18.712 161.200,18.543 161.560,18.510 162.000 M378.400 164.467 C 378.400 164.943,378.525 165.208,378.678 165.055 C 379.111 164.623,379.171 163.600,378.765 163.600 C 378.564 163.600,378.400 163.990,378.400 164.467 M42.856 216.545 C 43.139 217.175,43.442 217.473,43.531 217.206 C 43.620 216.940,43.389 216.424,43.018 216.061 C 42.386 215.442,42.376 215.473,42.856 216.545 M44.473 219.000 C 44.723 219.550,45.084 220.000,45.273 220.000 C 45.463 220.000,45.324 219.550,44.963 219.000 C 44.603 218.450,44.243 218.000,44.163 218.000 C 44.083 218.000,44.222 218.450,44.473 219.000 M340.511 233.300 C 339.729 234.311,339.463 234.932,339.936 234.640 C 340.410 234.347,341.357 232.800,341.063 232.800 C 340.972 232.800,340.724 233.025,340.511 233.300 M60.000 239.400 C 60.517 239.950,61.006 240.400,61.088 240.400 C 61.421 240.400,59.772 238.424,59.430 238.413 C 59.227 238.406,59.483 238.850,60.000 239.400 M61.600 241.339 C 61.600 241.415,61.960 241.893,62.400 242.400 C 62.840 242.907,63.200 243.128,63.200 242.890 C 63.200 242.652,62.917 242.174,62.571 241.829 C 61.970 241.227,61.600 241.041,61.600 241.339 M66.451 247.098 C 67.413 248.322,68.033 248.900,68.203 248.730 C 68.417 248.517,66.601 246.400,66.204 246.400 C 66.038 246.400,66.149 246.714,66.451 247.098 M325.693 251.200 C 325.418 251.640,325.331 252.000,325.500 252.000 C 325.669 252.000,326.032 251.640,326.307 251.200 C 326.582 250.760,326.669 250.400,326.500 250.400 C 326.331 250.400,325.968 250.760,325.693 251.200 M72.400 253.787 C 72.400 253.890,73.480 255.095,74.800 256.465 C 77.051 258.801,78.060 259.451,76.500 257.561 C 74.360 254.967,72.400 253.162,72.400 253.787 M319.432 258.422 C 318.311 259.552,318.821 259.667,319.992 258.548 C 320.537 258.027,320.807 257.611,320.592 257.624 C 320.376 257.637,319.854 257.996,319.432 258.422 M310.800 267.679 C 309.590 269.025,307.532 271.313,306.227 272.763 C 304.922 274.213,306.047 273.188,308.727 270.484 C 311.407 267.780,313.600 265.485,313.600 265.384 C 313.600 264.811,312.757 265.502,310.800 267.679 M108.818 290.418 C 110.402 291.967,111.786 293.147,111.894 293.039 C 112.139 292.794,106.798 287.600,106.301 287.600 C 106.101 287.600,107.234 288.868,108.818 290.418 M289.203 289.500 C 285.239 293.074,284.690 293.624,284.890 293.823 C 285.000 293.933,286.600 292.584,288.445 290.825 C 292.085 287.356,292.622 286.418,289.203 289.500 M276.613 301.013 C 275.771 301.785,275.187 302.520,275.315 302.648 C 275.442 302.776,276.207 302.220,277.013 301.413 C 278.919 299.508,278.603 299.191,276.613 301.013 M121.413 302.240 C 122.205 303.032,122.956 303.577,123.082 303.452 C 123.349 303.184,120.889 300.800,120.344 300.800 C 120.140 300.800,120.621 301.448,121.413 302.240 M126.579 306.708 C 127.448 307.637,128.500 308.505,128.916 308.637 C 129.332 308.769,130.752 309.940,132.071 311.239 C 133.391 312.537,134.646 313.600,134.861 313.600 C 135.076 313.600,136.129 314.500,137.200 315.600 C 138.271 316.700,139.344 317.600,139.585 317.600 C 139.825 317.600,140.797 318.365,141.745 319.300 C 143.568 321.098,145.584 322.753,147.958 324.400 C 148.751 324.950,149.691 325.715,150.047 326.100 C 150.403 326.485,150.916 326.800,151.186 326.800 C 151.457 326.800,152.183 327.340,152.800 328.000 C 153.417 328.660,154.133 329.200,154.392 329.200 C 154.651 329.200,155.554 329.920,156.400 330.800 C 157.246 331.680,158.103 332.400,158.307 332.400 C 158.510 332.400,159.002 332.760,159.400 333.200 C 159.798 333.640,160.278 334.000,160.466 334.000 C 160.654 334.000,161.372 334.540,162.063 335.200 C 162.754 335.860,163.480 336.400,163.678 336.400 C 163.875 336.400,164.486 336.850,165.036 337.400 C 165.586 337.950,166.180 338.400,166.356 338.400 C 166.532 338.400,167.199 338.850,167.838 339.400 C 168.477 339.949,169.225 340.399,169.500 340.400 C 169.775 340.400,170.000 340.539,170.000 340.709 C 170.000 340.879,170.675 341.372,171.500 341.804 C 172.325 342.236,173.270 342.863,173.600 343.197 C 173.930 343.532,174.695 344.060,175.300 344.370 C 175.905 344.681,176.400 345.085,176.400 345.268 C 176.400 345.450,176.670 345.600,177.000 345.600 C 177.330 345.600,177.600 345.750,177.600 345.932 C 177.600 346.115,178.095 346.519,178.700 346.830 C 179.305 347.140,180.091 347.711,180.447 348.097 C 180.803 348.484,181.348 348.800,181.659 348.800 C 181.969 348.800,182.483 349.160,182.800 349.600 C 183.117 350.040,183.614 350.400,183.905 350.400 C 184.196 350.400,184.820 350.760,185.292 351.200 C 185.764 351.640,186.387 352.000,186.675 352.000 C 186.964 352.000,187.200 352.180,187.200 352.400 C 187.200 352.620,187.520 352.800,187.912 352.800 C 188.303 352.800,188.883 353.160,189.200 353.600 C 189.517 354.040,190.097 354.400,190.488 354.400 C 190.880 354.400,191.200 354.544,191.200 354.720 C 191.200 354.897,192.638 355.910,194.396 356.973 C 198.217 359.283,199.895 359.338,202.983 357.253 C 204.004 356.564,204.989 356.000,205.171 356.000 C 205.353 356.000,205.729 355.727,206.006 355.393 C 206.283 355.059,207.160 354.483,207.955 354.113 C 208.750 353.743,209.691 353.117,210.047 352.720 C 210.403 352.324,210.948 352.000,211.259 352.000 C 211.569 352.000,212.083 351.640,212.400 351.200 C 212.717 350.760,213.257 350.400,213.600 350.400 C 213.943 350.400,214.483 350.040,214.800 349.600 C 215.117 349.160,215.657 348.800,216.000 348.800 C 216.343 348.800,216.883 348.440,217.200 348.000 C 217.517 347.560,218.057 347.200,218.400 347.200 C 218.743 347.200,219.283 346.840,219.600 346.400 C 219.917 345.960,220.457 345.600,220.800 345.600 C 221.143 345.600,221.683 345.240,222.000 344.800 C 222.317 344.360,222.807 344.000,223.088 344.000 C 223.370 344.000,223.600 343.820,223.600 343.600 C 223.600 343.380,223.870 343.200,224.200 343.200 C 224.530 343.200,224.800 343.048,224.800 342.863 C 224.800 342.678,225.430 342.187,226.200 341.772 C 226.970 341.357,227.600 340.879,227.600 340.709 C 227.600 340.539,227.836 340.400,228.125 340.400 C 228.413 340.400,229.036 340.040,229.508 339.600 C 229.980 339.160,230.527 338.800,230.724 338.800 C 230.921 338.800,231.646 338.260,232.337 337.600 C 233.028 336.940,233.792 336.400,234.036 336.400 C 234.280 336.400,234.983 335.860,235.600 335.200 C 236.217 334.540,236.937 334.000,237.200 334.000 C 237.463 334.000,238.183 333.460,238.800 332.800 C 239.417 332.140,240.098 331.600,240.315 331.600 C 240.532 331.600,241.135 331.062,241.655 330.404 C 242.175 329.746,242.843 329.206,243.140 329.204 C 243.436 329.202,244.183 328.660,244.800 328.000 C 245.417 327.340,246.127 326.800,246.379 326.800 C 246.630 326.800,247.270 326.395,247.799 325.900 C 248.995 324.782,249.515 324.376,250.874 323.505 C 251.465 323.126,252.402 322.362,252.956 321.808 C 253.510 321.254,254.063 320.800,254.185 320.800 C 254.421 320.800,256.311 319.198,257.843 317.700 C 258.349 317.205,258.874 316.800,259.008 316.800 C 259.142 316.800,260.129 315.900,261.200 314.800 C 262.271 313.700,263.344 312.800,263.583 312.800 C 264.099 312.800,268.400 308.574,268.400 308.067 C 268.400 306.991,130.411 306.823,129.519 307.898 C 129.158 308.332,128.884 308.260,128.038 307.504 C 125.781 305.488,125.080 305.106,126.579 306.708 M270.399 306.881 C 269.410 307.770,268.888 308.341,269.241 308.149 C 270.209 307.622,272.522 305.588,272.349 305.416 C 272.266 305.333,271.388 305.992,270.399 306.881 M265.520 309.700 C 262.137 312.781,259.097 315.390,258.170 316.009 C 257.668 316.344,256.532 317.289,255.646 318.109 C 254.760 318.929,253.892 319.601,253.717 319.603 C 253.543 319.604,252.680 320.316,251.800 321.183 C 250.920 322.051,250.020 322.771,249.800 322.783 C 249.580 322.796,248.680 323.516,247.800 324.383 C 246.920 325.251,246.009 325.970,245.775 325.980 C 245.541 325.991,244.832 326.540,244.200 327.200 C 243.568 327.860,242.881 328.400,242.674 328.400 C 242.466 328.400,241.612 328.985,240.776 329.700 C 239.939 330.415,238.568 331.505,237.727 332.123 C 236.887 332.740,234.929 334.180,233.376 335.323 C 231.823 336.465,230.273 337.580,229.932 337.800 C 228.030 339.028,226.905 339.832,226.115 340.529 C 225.628 340.959,224.882 341.511,224.457 341.756 C 223.183 342.487,219.037 345.346,218.498 345.865 C 218.221 346.130,217.636 346.462,217.198 346.601 C 216.759 346.740,216.400 347.000,216.400 347.178 C 216.400 347.357,215.860 347.727,215.200 348.000 C 214.540 348.273,214.000 348.655,214.000 348.849 C 214.000 349.042,213.764 349.200,213.475 349.200 C 213.187 349.200,212.564 349.560,212.092 350.000 C 211.620 350.440,211.080 350.800,210.892 350.800 C 210.704 350.800,210.202 351.117,209.775 351.504 C 209.349 351.891,208.145 352.656,207.100 353.203 C 206.055 353.751,205.200 354.334,205.200 354.499 C 205.200 354.665,204.964 354.800,204.675 354.800 C 204.387 354.800,203.801 355.115,203.373 355.500 C 200.878 357.746,196.400 358.529,196.400 356.720 C 196.400 356.544,196.233 356.400,196.028 356.400 C 195.824 356.400,194.573 355.680,193.248 354.800 C 191.923 353.920,190.650 353.200,190.419 353.200 C 190.189 353.200,190.000 353.020,190.000 352.800 C 190.000 352.580,189.764 352.400,189.475 352.400 C 189.187 352.400,188.564 352.040,188.092 351.600 C 187.620 351.160,187.142 350.800,187.030 350.800 C 186.917 350.800,184.467 349.225,181.585 347.300 C 178.703 345.375,175.998 343.604,175.575 343.364 C 175.152 343.125,174.475 342.630,174.071 342.264 C 173.667 341.899,173.126 341.600,172.869 341.600 C 172.611 341.600,172.400 341.462,172.400 341.294 C 172.400 341.036,170.205 339.415,167.670 337.800 C 167.325 337.580,166.585 336.995,166.025 336.500 C 165.466 336.005,164.906 335.600,164.782 335.600 C 164.657 335.600,163.125 334.532,161.377 333.226 C 159.630 331.920,157.518 330.345,156.684 329.726 C 155.850 329.107,154.500 328.016,153.684 327.302 C 152.868 326.588,152.042 326.003,151.848 326.002 C 151.655 326.001,150.828 325.415,150.011 324.700 C 149.194 323.985,148.182 323.126,147.763 322.791 C 142.684 318.734,141.600 317.813,141.600 317.555 C 141.600 317.389,141.269 317.149,140.865 317.021 C 140.461 316.892,139.329 316.025,138.350 315.094 C 137.371 314.162,135.947 312.928,135.185 312.351 C 134.423 311.774,132.990 310.559,132.000 309.651 L 130.200 308.000 198.793 308.000 L 267.386 308.000 265.520 309.700 M146.359 309.234 C 147.660 309.755,250.251 309.729,251.143 309.208 C 251.564 308.962,232.718 308.829,198.600 308.838 C 164.244 308.846,145.740 308.987,146.359 309.234 M246.842 311.160 C 246.159 311.799,245.600 312.429,245.600 312.560 C 245.600 313.210,246.860 312.653,248.228 311.400 C 249.537 310.201,249.636 310.000,248.920 310.000 C 248.461 310.000,247.526 310.522,246.842 311.160 M150.000 311.732 C 150.000 312.025,150.450 312.506,151.000 312.800 C 151.550 313.094,152.000 313.485,152.000 313.668 C 152.000 313.850,152.180 314.000,152.400 314.000 C 153.093 314.000,152.837 313.200,151.818 312.182 C 150.733 311.097,150.000 310.915,150.000 311.732 M242.860 314.651 C 242.343 315.202,242.015 315.749,242.132 315.866 C 242.450 316.184,244.373 314.678,244.387 314.100 C 244.406 313.353,243.910 313.532,242.860 314.651 M154.000 314.973 C 154.000 315.288,154.360 315.660,154.800 315.800 C 155.240 315.940,155.600 316.222,155.600 316.427 C 155.600 316.632,155.827 316.800,156.104 316.800 C 156.381 316.800,156.832 317.160,157.107 317.600 C 157.382 318.040,157.860 318.400,158.170 318.400 C 158.480 318.400,158.814 318.625,158.912 318.900 C 159.010 319.175,159.227 319.274,159.393 319.119 C 159.559 318.965,159.404 318.547,159.048 318.190 C 158.691 317.834,158.400 317.376,158.400 317.171 C 158.400 316.967,158.112 316.800,157.760 316.800 C 157.409 316.800,156.617 316.260,156.000 315.600 C 154.791 314.305,154.000 314.057,154.000 314.973 M239.660 317.051 C 239.143 317.602,238.814 318.147,238.928 318.262 C 239.187 318.521,241.600 316.771,241.600 316.325 C 241.600 315.686,240.584 316.066,239.660 317.051 M235.600 320.400 C 235.050 321.047,234.357 321.581,234.060 321.588 C 233.764 321.595,233.017 322.140,232.400 322.800 C 231.783 323.460,231.073 324.000,230.821 324.000 C 230.364 324.000,228.400 325.770,228.400 326.182 C 228.400 326.717,229.477 326.325,230.000 325.600 C 230.317 325.160,230.715 324.800,230.884 324.800 C 231.178 324.800,232.304 323.955,233.416 322.900 C 233.706 322.625,234.047 322.400,234.175 322.400 C 234.303 322.400,234.972 321.860,235.663 321.200 C 236.354 320.540,237.072 320.000,237.259 320.000 C 237.447 320.000,237.600 319.820,237.600 319.600 C 237.600 318.831,236.591 319.234,235.600 320.400 M160.800 320.400 C 160.800 320.620,161.055 320.800,161.367 320.800 C 161.678 320.800,162.014 321.025,162.112 321.300 C 162.210 321.575,162.427 321.674,162.593 321.519 C 162.941 321.195,161.868 320.000,161.229 320.000 C 160.993 320.000,160.800 320.180,160.800 320.400 M164.000 322.704 C 164.000 323.120,165.627 324.106,165.887 323.847 C 166.161 323.572,164.980 322.400,164.429 322.400 C 164.193 322.400,164.000 322.537,164.000 322.704 M167.200 325.200 C 167.200 325.420,167.430 325.600,167.712 325.600 C 167.993 325.600,168.483 325.960,168.800 326.400 C 169.117 326.840,169.524 327.200,169.705 327.200 C 169.886 327.200,170.421 327.561,170.895 328.002 C 171.528 328.592,171.867 328.685,172.178 328.352 C 172.476 328.033,172.451 327.846,172.093 327.714 C 171.814 327.612,171.332 327.275,171.021 326.964 C 170.711 326.654,170.214 326.400,169.917 326.400 C 169.620 326.400,169.117 326.040,168.800 325.600 C 168.196 324.762,167.200 324.513,167.200 325.200 M226.860 327.042 C 226.131 327.866,226.600 328.257,227.381 327.476 C 227.721 327.136,228.000 326.754,228.000 326.629 C 228.000 326.209,227.406 326.424,226.860 327.042 M172.801 328.900 C 172.802 329.475,176.321 331.813,176.666 331.467 C 176.931 331.203,175.825 330.000,175.317 330.000 C 175.130 330.000,174.717 329.640,174.400 329.200 C 173.757 328.308,172.800 328.129,172.801 328.900 M223.600 329.200 C 223.283 329.640,222.743 330.000,222.400 330.000 C 222.057 330.000,221.517 330.360,221.200 330.800 C 220.883 331.240,220.385 331.600,220.094 331.600 C 219.457 331.600,217.422 333.556,217.735 333.868 C 217.947 334.080,220.076 332.734,221.102 331.739 C 221.379 331.472,221.964 331.138,222.402 330.999 C 222.841 330.860,223.200 330.590,223.200 330.400 C 223.200 330.210,223.560 329.940,224.000 329.800 C 224.440 329.660,224.800 329.288,224.800 328.973 C 224.800 328.163,224.276 328.262,223.600 329.200 M178.400 332.751 C 178.400 333.253,179.574 334.160,179.857 333.876 C 179.988 333.745,179.817 333.360,179.476 333.019 C 178.781 332.324,178.400 332.229,178.400 332.751 M180.400 334.304 C 180.400 334.720,182.027 335.706,182.287 335.447 C 182.561 335.172,181.380 334.000,180.829 334.000 C 180.593 334.000,180.400 334.137,180.400 334.304 M215.700 334.598 C 215.087 335.294,215.065 335.600,215.629 335.600 C 216.078 335.600,217.200 334.621,217.200 334.229 C 217.200 333.788,216.195 334.036,215.700 334.598 M182.800 335.904 C 182.800 336.320,184.427 337.306,184.687 337.047 C 184.961 336.772,183.780 335.600,183.229 335.600 C 182.993 335.600,182.800 335.737,182.800 335.904 M213.200 336.400 C 212.883 336.840,212.343 337.200,212.000 337.200 C 211.657 337.200,211.117 337.560,210.800 338.000 C 210.483 338.440,210.070 338.800,209.883 338.800 C 209.310 338.800,208.285 340.020,208.607 340.319 C 208.773 340.474,208.990 340.375,209.088 340.100 C 209.186 339.825,209.522 339.600,209.833 339.600 C 210.145 339.600,210.400 339.420,210.400 339.200 C 210.400 338.980,210.670 338.800,211.000 338.800 C 211.330 338.800,211.600 338.620,211.600 338.400 C 211.600 338.180,211.870 338.000,212.200 338.000 C 212.530 338.000,212.800 337.820,212.800 337.600 C 212.800 337.380,212.993 337.200,213.229 337.200 C 213.678 337.200,214.800 336.221,214.800 335.829 C 214.800 335.285,213.728 335.668,213.200 336.400 M185.200 337.429 C 185.200 337.821,186.322 338.800,186.771 338.800 C 187.357 338.800,187.309 338.452,186.629 337.771 C 186.058 337.201,185.200 336.995,185.200 337.429 M187.600 339.029 C 187.600 339.421,188.722 340.400,189.171 340.400 C 189.757 340.400,189.709 340.052,189.029 339.371 C 188.458 338.801,187.600 338.595,187.600 339.029 M190.000 340.629 C 190.000 341.013,191.225 342.108,191.428 341.905 C 191.783 341.550,191.118 340.400,190.557 340.400 C 190.251 340.400,190.000 340.503,190.000 340.629 M206.460 341.042 C 206.162 341.378,206.052 341.776,206.214 341.926 C 206.377 342.077,206.590 341.975,206.688 341.700 C 206.786 341.425,207.122 341.200,207.433 341.200 C 207.745 341.200,208.000 341.020,208.000 340.800 C 208.000 340.201,207.074 340.346,206.460 341.042 M204.060 342.642 C 203.762 342.978,203.652 343.376,203.814 343.526 C 203.977 343.677,204.190 343.575,204.288 343.300 C 204.386 343.025,204.722 342.800,205.033 342.800 C 205.345 342.800,205.600 342.620,205.600 342.400 C 205.600 341.801,204.674 341.946,204.060 342.642 M193.605 343.100 C 193.611 343.471,196.237 345.200,196.794 345.200 C 197.017 345.200,197.200 345.380,197.200 345.600 C 197.200 345.820,197.380 346.000,197.600 346.000 C 198.884 346.000,197.500 344.263,195.896 343.860 C 195.293 343.709,194.800 343.408,194.800 343.192 C 194.800 342.977,194.530 342.800,194.200 342.800 C 193.870 342.800,193.602 342.935,193.605 343.100 M201.406 343.894 C 200.969 344.004,200.318 344.434,199.959 344.847 C 199.600 345.261,199.102 345.600,198.853 345.600 C 198.604 345.600,198.400 345.780,198.400 346.000 C 198.400 346.695,199.269 346.439,201.265 345.158 C 203.704 343.593,203.736 343.304,201.406 343.894 " stroke="none" fill="#5d067c" fill-rule="evenodd"></path><path id="path7" d="M106.400 57.234 C 96.418 58.087,85.866 60.511,79.200 63.484 C 63.554 70.462,53.470 78.948,52.570 85.894 L 52.298 87.989 40.049 88.094 C 33.312 88.152,105.110 88.200,199.600 88.200 C 294.090 88.200,366.005 88.110,359.411 88.000 L 347.422 87.800 347.138 86.137 C 346.691 83.518,345.510 81.634,342.248 78.334 C 316.108 51.897,264.477 49.554,233.800 73.412 C 227.349 78.429,224.859 81.709,224.501 85.665 L 224.289 88.000 199.999 88.000 L 175.709 88.000 175.461 86.193 C 175.114 83.663,174.351 82.374,171.279 79.127 C 156.491 63.495,131.568 55.086,106.400 57.234 M127.000 87.587 C 128.540 87.745,122.330 87.868,113.200 87.861 C 104.070 87.855,98.220 87.737,100.200 87.600 C 105.256 87.251,123.636 87.241,127.000 87.587 M298.800 87.588 C 300.450 87.743,294.240 87.866,285.000 87.860 C 275.760 87.854,269.820 87.737,271.800 87.600 C 276.812 87.254,295.171 87.245,298.800 87.588 " stroke="none" fill="#d85458" fill-rule="evenodd"></path><path id="path8" d="M27.055 88.600 C 27.182 88.930,27.446 89.200,27.643 89.200 C 27.839 89.200,28.000 88.930,28.000 88.600 C 28.000 88.270,27.736 88.000,27.413 88.000 C 27.055 88.000,26.915 88.235,27.055 88.600 M371.200 88.400 C 371.200 88.620,371.380 88.800,371.600 88.800 C 371.820 88.800,372.000 89.070,372.000 89.400 C 372.000 89.730,372.180 90.000,372.400 90.000 C 372.620 90.000,372.800 90.360,372.800 90.800 C 372.800 91.240,372.959 91.600,373.153 91.600 C 373.348 91.600,373.612 92.002,373.740 92.493 C 373.931 93.223,374.068 93.291,374.487 92.868 C 374.905 92.446,374.878 92.281,374.345 91.980 C 373.984 91.777,373.576 91.158,373.437 90.605 C 373.298 90.052,373.008 89.600,372.792 89.600 C 372.577 89.600,372.400 89.240,372.400 88.800 C 372.400 88.356,372.133 88.000,371.800 88.000 C 371.470 88.000,371.200 88.180,371.200 88.400 M26.255 90.200 C 26.382 90.530,26.646 90.800,26.843 90.800 C 27.039 90.800,27.200 90.530,27.200 90.200 C 27.200 89.870,26.936 89.600,26.613 89.600 C 26.255 89.600,26.115 89.835,26.255 90.200 M25.600 91.800 C 25.600 92.130,25.780 92.400,26.000 92.400 C 26.220 92.400,26.400 92.130,26.400 91.800 C 26.400 91.470,26.220 91.200,26.000 91.200 C 25.780 91.200,25.600 91.470,25.600 91.800 M24.800 93.400 C 24.800 93.730,24.980 94.000,25.200 94.000 C 25.420 94.000,25.600 93.730,25.600 93.400 C 25.600 93.070,25.420 92.800,25.200 92.800 C 24.980 92.800,24.800 93.070,24.800 93.400 M376.000 97.400 C 376.000 97.730,376.180 98.000,376.400 98.000 C 376.620 98.000,376.800 97.730,376.800 97.400 C 376.800 97.070,376.620 96.800,376.400 96.800 C 376.180 96.800,376.000 97.070,376.000 97.400 M22.400 99.000 C 22.400 99.330,22.580 99.600,22.800 99.600 C 23.020 99.600,23.200 99.330,23.200 99.000 C 23.200 98.670,23.020 98.400,22.800 98.400 C 22.580 98.400,22.400 98.670,22.400 99.000 M376.800 99.400 C 376.800 99.730,376.980 100.000,377.200 100.000 C 377.420 100.000,377.600 99.730,377.600 99.400 C 377.600 99.070,377.420 98.800,377.200 98.800 C 376.980 98.800,376.800 99.070,376.800 99.400 M378.400 103.400 C 378.400 103.730,378.580 104.000,378.800 104.000 C 379.020 104.000,379.200 103.730,379.200 103.400 C 379.200 103.070,379.020 102.800,378.800 102.800 C 378.580 102.800,378.400 103.070,378.400 103.400 M20.800 103.800 C 20.800 104.130,20.961 104.400,21.157 104.400 C 21.354 104.400,21.618 104.130,21.745 103.800 C 21.885 103.435,21.745 103.200,21.387 103.200 C 21.064 103.200,20.800 103.470,20.800 103.800 M379.200 105.800 C 379.200 106.130,379.380 106.400,379.600 106.400 C 379.820 106.400,380.000 106.130,380.000 105.800 C 380.000 105.470,379.820 105.200,379.600 105.200 C 379.380 105.200,379.200 105.470,379.200 105.800 M20.500 105.888 C 19.932 106.091,19.811 107.200,20.357 107.200 C 20.694 107.200,21.345 105.987,21.109 105.798 C 21.049 105.749,20.775 105.790,20.500 105.888 M379.757 108.233 C 379.891 108.581,380.000 108.941,380.000 109.033 C 380.000 109.125,380.180 109.200,380.400 109.200 C 380.620 109.200,380.800 108.840,380.800 108.400 C 380.800 107.932,380.533 107.600,380.157 107.600 C 379.735 107.600,379.598 107.818,379.757 108.233 M19.700 108.623 C 19.105 109.269,19.037 110.400,19.592 110.400 C 19.978 110.400,20.638 108.498,20.348 108.222 C 20.267 108.144,19.975 108.325,19.700 108.623 M380.555 111.028 C 380.690 111.379,380.800 111.741,380.800 111.833 C 380.800 111.925,380.980 112.000,381.200 112.000 C 381.852 112.000,381.655 110.907,380.955 110.638 C 380.484 110.457,380.376 110.562,380.555 111.028 M19.232 111.700 C 19.214 112.085,19.020 112.400,18.800 112.400 C 18.580 112.400,18.400 112.760,18.400 113.200 C 18.400 113.640,18.577 114.000,18.792 114.000 C 19.273 114.000,19.756 112.229,19.471 111.517 C 19.338 111.188,19.252 111.254,19.232 111.700 M381.200 113.939 C 381.200 115.009,381.605 116.000,382.043 116.000 C 382.623 116.000,382.450 114.393,381.800 113.743 C 381.267 113.210,381.200 113.231,381.200 113.939 M18.460 115.700 C 18.427 116.085,18.220 116.400,18.000 116.400 C 17.780 116.400,17.600 116.850,17.600 117.400 C 17.600 118.476,18.286 118.762,18.642 117.834 C 18.762 117.522,18.783 116.757,18.690 116.134 C 18.596 115.510,18.493 115.315,18.460 115.700 M382.046 118.267 C 382.021 118.964,382.109 119.819,382.243 120.167 C 382.644 121.212,383.200 120.882,383.200 119.600 C 383.200 118.940,383.033 118.400,382.829 118.400 C 382.625 118.400,382.376 118.085,382.276 117.700 C 382.175 117.315,382.072 117.570,382.046 118.267 M17.664 120.500 C 17.629 121.105,17.420 121.600,17.200 121.600 C 16.980 121.600,16.800 122.140,16.800 122.800 C 16.800 123.460,16.977 124.000,17.192 124.000 C 17.739 124.000,18.091 122.372,17.893 120.755 C 17.752 119.600,17.719 119.562,17.664 120.500 M382.959 131.800 C 382.962 137.080,383.028 140.545,383.104 139.500 C 383.181 138.455,383.414 137.600,383.622 137.600 C 384.117 137.600,384.122 126.284,383.627 125.780 C 383.421 125.571,383.186 124.680,383.103 123.800 C 383.020 122.920,382.955 126.520,382.959 131.800 M16.800 127.600 C 16.800 128.700,16.620 129.600,16.400 129.600 C 15.886 129.600,15.856 143.692,16.369 144.220 C 16.572 144.429,16.815 145.140,16.909 145.800 C 17.003 146.460,17.107 142.185,17.140 136.300 C 17.173 130.415,17.110 125.600,17.000 125.600 C 16.890 125.600,16.800 126.500,16.800 127.600 M382.250 144.050 C 381.807 146.264,381.913 146.971,382.600 146.400 C 383.239 145.870,383.452 142.800,382.850 142.800 C 382.658 142.800,382.388 143.363,382.250 144.050 M16.825 150.200 C 16.825 151.080,17.090 152.149,17.413 152.576 C 17.961 153.301,18.000 153.246,18.000 151.753 C 18.000 150.873,17.736 149.804,17.413 149.376 C 16.865 148.652,16.825 148.707,16.825 150.200 M381.443 149.433 C 381.017 150.543,381.169 151.187,381.800 150.945 C 382.130 150.818,382.400 150.284,382.400 149.757 C 382.400 148.675,381.810 148.475,381.443 149.433 M380.800 153.400 C 380.800 153.730,380.787 154.131,380.770 154.290 C 380.754 154.450,380.934 154.644,381.170 154.723 C 381.407 154.802,381.600 154.402,381.600 153.833 C 381.600 153.265,381.420 152.800,381.200 152.800 C 380.980 152.800,380.800 153.070,380.800 153.400 M17.600 155.829 C 17.600 156.394,17.870 157.127,18.200 157.457 C 18.856 158.113,19.085 156.809,18.557 155.433 C 18.179 154.448,17.600 154.688,17.600 155.829 M380.000 157.200 C 380.000 157.640,380.180 158.000,380.400 158.000 C 380.620 158.000,380.800 157.640,380.800 157.200 C 380.800 156.760,380.620 156.400,380.400 156.400 C 380.180 156.400,380.000 156.760,380.000 157.200 M18.400 160.200 C 18.400 160.822,18.627 161.200,19.000 161.200 C 19.646 161.200,19.741 160.834,19.357 159.833 C 18.984 158.859,18.400 159.083,18.400 160.200 M379.200 160.400 C 379.200 160.840,379.380 161.200,379.600 161.200 C 379.820 161.200,380.000 160.840,380.000 160.400 C 380.000 159.960,379.820 159.600,379.600 159.600 C 379.380 159.600,379.200 159.960,379.200 160.400 M378.400 163.000 C 378.400 163.330,378.580 163.600,378.800 163.600 C 379.020 163.600,379.200 163.330,379.200 163.000 C 379.200 162.670,379.020 162.400,378.800 162.400 C 378.580 162.400,378.400 162.670,378.400 163.000 M19.200 163.557 C 19.200 163.974,19.470 164.418,19.800 164.545 C 20.441 164.790,20.549 164.453,20.157 163.433 C 19.821 162.557,19.200 162.638,19.200 163.557 M377.600 165.624 C 377.600 166.077,377.780 166.336,378.000 166.200 C 378.220 166.064,378.400 165.693,378.400 165.376 C 378.400 165.059,378.220 164.800,378.000 164.800 C 377.780 164.800,377.600 165.171,377.600 165.624 M20.000 166.800 C 20.000 167.240,20.180 167.600,20.400 167.600 C 20.620 167.600,20.800 167.240,20.800 166.800 C 20.800 166.360,20.620 166.000,20.400 166.000 C 20.180 166.000,20.000 166.360,20.000 166.800 M376.800 168.024 C 376.800 168.477,376.980 168.736,377.200 168.600 C 377.420 168.464,377.600 168.093,377.600 167.776 C 377.600 167.459,377.420 167.200,377.200 167.200 C 376.980 167.200,376.800 167.571,376.800 168.024 M20.800 169.600 C 20.800 170.040,20.980 170.400,21.200 170.400 C 21.420 170.400,21.600 170.040,21.600 169.600 C 21.600 169.160,21.420 168.800,21.200 168.800 C 20.980 168.800,20.800 169.160,20.800 169.600 M376.000 170.200 C 376.000 170.530,376.180 170.800,376.400 170.800 C 376.620 170.800,376.800 170.530,376.800 170.200 C 376.800 169.870,376.620 169.600,376.400 169.600 C 376.180 169.600,376.000 169.870,376.000 170.200 M21.600 172.200 C 21.600 172.530,21.780 172.800,22.000 172.800 C 22.220 172.800,22.400 172.530,22.400 172.200 C 22.400 171.870,22.220 171.600,22.000 171.600 C 21.780 171.600,21.600 171.870,21.600 172.200 M374.667 173.867 C 374.520 174.013,374.400 174.553,374.400 175.067 C 374.400 175.580,374.220 176.000,374.000 176.000 C 373.780 176.000,373.600 176.349,373.600 176.776 C 373.600 177.203,373.420 177.664,373.200 177.800 C 372.980 177.936,372.800 178.397,372.800 178.824 C 372.800 179.251,372.620 179.600,372.400 179.600 C 372.180 179.600,372.000 179.949,372.000 180.376 C 372.000 180.803,371.820 181.264,371.600 181.400 C 371.380 181.536,371.200 181.997,371.200 182.424 C 371.200 182.851,371.020 183.200,370.800 183.200 C 370.580 183.200,370.400 183.549,370.400 183.976 C 370.400 184.403,370.220 184.864,370.000 185.000 C 369.780 185.136,369.600 185.597,369.600 186.024 C 369.600 186.451,369.441 186.800,369.247 186.800 C 369.052 186.800,368.782 187.115,368.646 187.500 C 368.511 187.885,368.295 188.425,368.166 188.700 C 368.032 188.988,368.202 189.200,368.567 189.200 C 368.933 189.200,369.200 188.863,369.200 188.400 C 369.200 187.960,369.335 187.599,369.500 187.597 C 369.906 187.593,370.800 185.614,370.800 184.720 C 370.800 184.324,370.980 184.000,371.200 184.000 C 371.420 184.000,371.600 183.640,371.600 183.200 C 371.600 182.760,371.780 182.400,372.000 182.400 C 372.220 182.400,372.400 182.164,372.400 181.875 C 372.400 181.586,372.760 180.605,373.200 179.694 C 373.640 178.784,374.000 177.760,374.000 177.419 C 374.000 177.079,374.160 176.800,374.355 176.800 C 374.551 176.800,374.833 176.152,374.981 175.359 C 375.256 173.895,375.148 173.385,374.667 173.867 M22.400 174.600 C 22.400 174.930,22.580 175.200,22.800 175.200 C 23.020 175.200,23.200 174.930,23.200 174.600 C 23.200 174.270,23.020 174.000,22.800 174.000 C 22.580 174.000,22.400 174.270,22.400 174.600 M23.200 177.000 C 23.200 177.330,23.380 177.600,23.600 177.600 C 23.820 177.600,24.000 177.330,24.000 177.000 C 24.000 176.670,23.820 176.400,23.600 176.400 C 23.380 176.400,23.200 176.670,23.200 177.000 M24.000 179.400 C 24.000 179.730,24.180 180.000,24.400 180.000 C 24.620 180.000,24.800 179.730,24.800 179.400 C 24.800 179.070,24.620 178.800,24.400 178.800 C 24.180 178.800,24.000 179.070,24.000 179.400 M24.800 181.376 C 24.800 181.693,24.980 182.064,25.200 182.200 C 25.420 182.336,25.600 182.077,25.600 181.624 C 25.600 181.171,25.420 180.800,25.200 180.800 C 24.980 180.800,24.800 181.059,24.800 181.376 M25.600 183.400 C 25.600 183.730,25.780 184.000,26.000 184.000 C 26.220 184.000,26.400 183.730,26.400 183.400 C 26.400 183.070,26.220 182.800,26.000 182.800 C 25.780 182.800,25.600 183.070,25.600 183.400 M26.157 184.870 C 25.993 185.135,26.070 185.423,26.329 185.510 C 26.588 185.596,26.800 186.102,26.800 186.633 C 26.800 187.165,26.980 187.600,27.200 187.600 C 27.420 187.600,27.600 187.960,27.600 188.400 C 27.600 188.840,27.780 189.200,28.000 189.200 C 28.220 189.200,28.400 189.560,28.400 190.000 C 28.400 190.440,28.580 190.800,28.800 190.800 C 29.020 190.800,29.200 191.160,29.200 191.600 C 29.200 192.040,29.380 192.400,29.600 192.400 C 29.820 192.400,30.000 192.760,30.000 193.200 C 30.000 193.640,30.180 194.000,30.400 194.000 C 30.620 194.000,30.800 194.360,30.800 194.800 C 30.800 195.240,30.980 195.600,31.200 195.600 C 31.420 195.600,31.600 195.883,31.600 196.229 C 31.600 198.106,21.563 198.000,198.571 198.000 C 354.379 198.000,364.400 197.959,364.400 197.320 C 364.400 196.791,364.293 196.747,363.920 197.120 C 363.548 197.492,326.184 197.600,198.187 197.600 L 32.934 197.600 31.667 195.144 C 30.970 193.793,30.400 192.443,30.400 192.144 C 30.400 191.845,30.220 191.600,30.000 191.600 C 29.780 191.600,29.600 191.240,29.600 190.800 C 29.600 190.360,29.420 190.000,29.200 190.000 C 28.980 190.000,28.800 189.640,28.800 189.200 C 28.800 188.760,28.620 188.400,28.400 188.400 C 28.180 188.400,28.000 188.051,28.000 187.624 C 28.000 187.197,27.820 186.736,27.600 186.600 C 27.380 186.464,27.200 186.014,27.200 185.600 C 27.200 184.668,26.559 184.219,26.157 184.870 M367.467 189.867 C 367.006 190.327,367.175 190.800,367.800 190.800 C 368.130 190.800,368.400 190.530,368.400 190.200 C 368.400 189.575,367.927 189.406,367.467 189.867 M366.667 191.467 C 366.206 191.927,366.375 192.400,367.000 192.400 C 367.330 192.400,367.600 192.130,367.600 191.800 C 367.600 191.175,367.127 191.006,366.667 191.467 M365.867 193.067 C 365.406 193.527,365.575 194.000,366.200 194.000 C 366.530 194.000,366.800 193.730,366.800 193.400 C 366.800 192.775,366.327 192.606,365.867 193.067 M364.782 195.234 C 364.189 196.342,364.651 196.749,365.391 195.771 C 366.076 194.866,366.152 194.400,365.614 194.400 C 365.402 194.400,365.027 194.775,364.782 195.234 " stroke="none" fill="#987804" fill-rule="evenodd"></path></g></svg>