<?xml version="1.0" encoding="UTF-8"?>
<!DOCTYPE svg PUBLIC "-//W3C//DTD SVG 1.1//EN" "http://www.w3.org/Graphics/SVG/1.1/DTD/svg11.dtd">
<svg xmlns="http://www.w3.org/2000/svg" version="1.1" width="512px" height="512px" style="shape-rendering:geometricPrecision; text-rendering:geometricPrecision; image-rendering:optimizeQuality; fill-rule:evenodd; clip-rule:evenodd" xmlns:xlink="http://www.w3.org/1999/xlink">
<g><path style="opacity:1" fill="#5313b3" d="M 392.5,120.5 C 410.084,126.582 427.417,133.249 444.5,140.5C 446.32,142.448 448.654,143.448 451.5,143.5C 452.167,143.5 452.5,143.833 452.5,144.5C 455.606,147.226 459.273,149.226 463.5,150.5C 471.817,156.661 480.483,162.328 489.5,167.5C 489.557,168.609 489.89,169.609 490.5,170.5C 488.076,169.97 485.743,169.136 483.5,168C 445.445,142.306 403.779,124.972 358.5,116C 261.483,95.5952 167.483,104.929 76.5,144C 58.3823,153.139 41.049,163.473 24.5,175C 23.2068,175.49 21.8734,175.657 20.5,175.5C 24.401,171.869 28.7343,168.702 33.5,166C 34.8228,165.184 35.4894,164.017 35.5,162.5C 35.8333,162.5 36.1667,162.5 36.5,162.5C 45.1004,157.89 53.4337,152.89 61.5,147.5C 72.8498,142.665 84.1831,137.832 95.5,133C 97.4308,132.098 99.0975,130.931 100.5,129.5C 107.778,127.741 114.778,125.407 121.5,122.5C 126.054,121.616 130.387,120.283 134.5,118.5C 137.152,118.59 139.485,117.924 141.5,116.5C 144.495,116.706 147.162,116.04 149.5,114.5C 155.532,114.165 161.199,112.831 166.5,110.5C 188.421,107.125 210.421,104.291 232.5,102C 286.884,99.7951 340.217,105.962 392.5,120.5 Z"/></g>
<g><path style="opacity:1" fill="#530fb8" d="M 490.5,170.5 C 492.315,171.63 494.315,172.296 496.5,172.5C 497.338,172.842 497.672,173.508 497.5,174.5C 497.833,175.167 498.167,175.833 498.5,176.5C 493.835,175.106 489.169,173.606 484.5,172C 443.892,145.232 399.558,127.232 351.5,118C 255.54,99.0787 162.873,109.412 73.5,149C 55.314,158.536 37.6474,168.869 20.5,180C 18.8659,180.494 17.1992,180.66 15.5,180.5C 16.1098,179.609 16.4431,178.609 16.5,177.5C 16.5,176.833 16.8333,176.5 17.5,176.5C 18.609,176.443 19.609,176.11 20.5,175.5C 21.8734,175.657 23.2068,175.49 24.5,175C 41.049,163.473 58.3823,153.139 76.5,144C 167.483,104.929 261.483,95.5952 358.5,116C 403.779,124.972 445.445,142.306 483.5,168C 485.743,169.136 488.076,169.97 490.5,170.5 Z"/></g>
<g><path style="opacity:1" fill="#560fbe" d="M 498.5,176.5 C 499.906,176.973 500.573,177.973 500.5,179.5C 496.418,179.656 492.418,179.156 488.5,178C 436.067,143.184 378.4,122.184 315.5,115C 234.903,105.466 157.237,116.466 82.5,148C 62.8453,157.488 44.1786,168.488 26.5,181C 21.9636,184.104 16.9636,185.77 11.5,186C 10.7476,186.671 10.4142,187.504 10.5,188.5C 10.1667,188.5 9.83333,188.5 9.5,188.5C 9.20528,186.265 9.53862,184.265 10.5,182.5C 12.2838,182.107 13.9505,181.441 15.5,180.5C 17.1992,180.66 18.8659,180.494 20.5,180C 37.6474,168.869 55.314,158.536 73.5,149C 162.873,109.412 255.54,99.0787 351.5,118C 399.558,127.232 443.892,145.232 484.5,172C 489.169,173.606 493.835,175.106 498.5,176.5 Z"/></g>
<g><path style="opacity:0.544" fill="#8458c6" d="M 392.5,120.5 C 340.217,105.962 286.884,99.7951 232.5,102C 210.421,104.291 188.421,107.125 166.5,110.5C 239.346,94.7788 312.013,96.9455 384.5,117C 387.476,117.705 390.142,118.871 392.5,120.5 Z"/></g>
<g><path style="opacity:1" fill="#5910c4" d="M 500.5,179.5 C 501.833,179.5 503.167,179.5 504.5,179.5C 505.461,181.265 505.795,183.265 505.5,185.5C 504.833,185.833 504.167,186.167 503.5,186.5C 498.93,187.441 494.263,187.774 489.5,187.5C 489.715,189.179 489.048,190.179 487.5,190.5C 487.5,190.167 487.5,189.833 487.5,189.5C 478.704,180.089 468.704,172.089 457.5,165.5C 442.834,157.333 427.834,150 412.5,143.5C 415.097,143.279 415.097,142.779 412.5,142C 301.67,102.621 192.004,105.621 83.5,151C 58.2147,163.274 34.548,177.441 12.5,193.5C 11.8333,191.833 11.1667,190.167 10.5,188.5C 10.4142,187.504 10.7476,186.671 11.5,186C 16.9636,185.77 21.9636,184.104 26.5,181C 44.1786,168.488 62.8453,157.488 82.5,148C 157.237,116.466 234.903,105.466 315.5,115C 378.4,122.184 436.067,143.184 488.5,178C 492.418,179.156 496.418,179.656 500.5,179.5 Z"/></g>
<g><path style="opacity:1" fill="#8458c6" d="M 166.5,110.5 C 161.199,112.831 155.532,114.165 149.5,114.5C 154.806,112.092 160.472,110.758 166.5,110.5 Z"/></g>
<g><path style="opacity:0.171" fill="#8559c7" d="M 149.5,114.5 C 147.162,116.04 144.495,116.706 141.5,116.5C 143.838,114.96 146.505,114.294 149.5,114.5 Z"/></g>
<g><path style="opacity:1" fill="#5a10c8" d="M 412.5,143.5 C 339.096,120.147 264.096,113.981 187.5,125C 180.06,126.328 172.727,127.828 165.5,129.5C 133.463,135.733 102.796,145.9 73.5,160C 64.3684,165.632 55.3684,171.465 46.5,177.5C 45.1667,178.5 43.8333,179.5 42.5,180.5C 40.5654,179.291 38.5654,179.458 36.5,181C 29.1129,186.685 21.4463,191.852 13.5,196.5C 12.596,195.791 12.2627,194.791 12.5,193.5C 34.548,177.441 58.2147,163.274 83.5,151C 192.004,105.621 301.67,102.621 412.5,142C 415.097,142.779 415.097,143.279 412.5,143.5 Z"/></g>
<g><path style="opacity:0.4" fill="#865ac7" d="M 141.5,116.5 C 139.485,117.924 137.152,118.59 134.5,118.5C 134.611,117.883 134.944,117.383 135.5,117C 137.473,116.505 139.473,116.338 141.5,116.5 Z"/></g>
<g><path style="opacity:1" fill="#8051c4" d="M 134.5,118.5 C 130.387,120.283 126.054,121.616 121.5,122.5C 125.403,120.102 129.736,118.769 134.5,118.5 Z"/></g>
<g><path style="opacity:0.197" fill="#390a7f" d="M 412.5,143.5 C 427.834,150 442.834,157.333 457.5,165.5C 457.5,166.167 457.167,166.5 456.5,166.5C 416.368,144.64 373.702,131.14 328.5,126C 315.44,124.779 302.44,123.279 289.5,121.5C 257.917,120.025 226.417,121.692 195,126.5C 193.893,126.415 192.893,126.081 192,125.5C 182.331,128.196 172.498,130.196 162.5,131.5C 163.5,130.833 164.5,130.167 165.5,129.5C 172.727,127.828 180.06,126.328 187.5,125C 264.096,113.981 339.096,120.147 412.5,143.5 Z"/></g>
<g><path style="opacity:0.035" fill="#8052c4" d="M 392.5,120.5 C 410.969,124.649 428.302,131.315 444.5,140.5C 427.417,133.249 410.084,126.582 392.5,120.5 Z"/></g>
<g><path style="opacity:0.741" fill="#8355c5" d="M 121.5,122.5 C 114.778,125.407 107.778,127.741 100.5,129.5C 107.085,126.194 114.085,123.86 121.5,122.5 Z"/></g>
<g><path style="opacity:1" fill="#7f4fc4" d="M 100.5,129.5 C 99.0975,130.931 97.4308,132.098 95.5,133C 84.1831,137.832 72.8498,142.665 61.5,147.5C 73.6297,139.602 86.6297,133.602 100.5,129.5 Z"/></g>
<g><path style="opacity:1" fill="#8d58d9" d="M 209.5,141.5 C 209.5,142.167 209.167,142.5 208.5,142.5C 206.5,142.5 204.5,142.5 202.5,142.5C 197.833,142.5 193.167,142.5 188.5,142.5C 192.391,140.993 196.558,140.326 201,140.5C 204.021,140.502 206.854,140.836 209.5,141.5 Z"/></g>
<g><path style="opacity:1" fill="#5b14be" d="M 299.5,140.5 C 300.568,141.434 301.901,141.768 303.5,141.5C 303.082,142.222 302.416,142.722 301.5,143C 304.791,145.332 305.291,148.165 303,151.5C 294.508,162.483 286.508,173.816 279,185.5C 273.688,193.398 266.522,198.731 257.5,201.5C 258.897,199.621 260.563,197.954 262.5,196.5C 263.386,195.675 263.719,194.675 263.5,193.5C 264.922,193.291 266.255,192.791 267.5,192C 270.014,187.987 273.347,184.82 277.5,182.5C 279.363,180.136 281.029,177.636 282.5,175C 282.272,174.601 281.938,174.435 281.5,174.5C 281.833,173.833 282.167,173.167 282.5,172.5C 285.553,171.287 287.887,169.12 289.5,166C 288.906,165.536 288.239,165.369 287.5,165.5C 292.071,157.315 296.071,148.982 299.5,140.5 Z"/></g>
<g><path style="opacity:0.626" fill="#8d59d9" d="M 299.5,140.5 C 328.268,142.59 356.935,147.09 385.5,154C 391.504,155.169 397.17,157.002 402.5,159.5C 373.515,152.349 344.181,146.516 314.5,142C 310.848,141.501 307.182,141.335 303.5,141.5C 301.901,141.768 300.568,141.434 299.5,140.5 Z"/></g>
<g><path style="opacity:0.706" fill="#8051c4" d="M 444.5,140.5 C 447.241,140.707 449.574,141.707 451.5,143.5C 448.654,143.448 446.32,142.448 444.5,140.5 Z"/></g>
<g><path style="opacity:1" fill="#5d12c7" d="M 303.5,141.5 C 307.182,141.335 310.848,141.501 314.5,142C 344.181,146.516 373.515,152.349 402.5,159.5C 404.898,161.974 407.898,163.308 411.5,163.5C 412.461,165.265 412.795,167.265 412.5,169.5C 410.677,172.187 409.343,175.187 408.5,178.5C 404.259,169.419 397.259,163.919 387.5,162C 368.522,158.559 349.522,155.226 330.5,152C 318.33,149.724 307.83,152.891 299,161.5C 290.104,174.12 280.604,186.286 270.5,198C 258.343,206.4 247.51,204.9 238,193.5C 232.333,185.833 226.667,178.167 221,170.5C 214.643,163.144 207.976,156.144 201,149.5C 200.167,146.829 200.667,144.496 202.5,142.5C 204.5,142.5 206.5,142.5 208.5,142.5C 208.729,145.337 208.896,148.337 209,151.5C 219.333,165.167 229.667,178.833 240,192.5C 243.184,196.004 247.018,198.337 251.5,199.5C 253.297,200.73 255.297,201.396 257.5,201.5C 266.522,198.731 273.688,193.398 279,185.5C 286.508,173.816 294.508,162.483 303,151.5C 305.291,148.165 304.791,145.332 301.5,143C 302.416,142.722 303.082,142.222 303.5,141.5 Z"/></g>
<g><path style="opacity:0.572" fill="#8d57da" d="M 188.5,142.5 C 164.655,147.884 140.989,154.551 117.5,162.5C 111.907,164.466 106.24,166.133 100.5,167.5C 128.791,155.9 158.124,147.566 188.5,142.5 Z"/></g>
<g><path style="opacity:0.259" fill="#3e0b87" d="M 165.5,129.5 C 164.5,130.167 163.5,130.833 162.5,131.5C 134.237,137.642 106.571,146.809 79.5,159C 68.4961,165.045 57.8294,171.545 47.5,178.5C 46.8333,178.5 46.5,178.167 46.5,177.5C 55.3684,171.465 64.3684,165.632 73.5,160C 102.796,145.9 133.463,135.733 165.5,129.5 Z"/></g>
<g><path style="opacity:1" fill="#5a14be" d="M 209.5,141.5 C 211.993,143.658 213.66,146.324 214.5,149.5C 213.957,149.56 213.624,149.893 213.5,150.5C 217.22,154.733 220.387,159.4 223,164.5C 224.777,166.79 226.944,168.457 229.5,169.5C 229.833,170.167 230.167,170.833 230.5,171.5C 229.957,171.56 229.624,171.893 229.5,172.5C 230.36,174.931 232.027,176.264 234.5,176.5C 234.5,176.833 234.5,177.167 234.5,177.5C 233.957,177.56 233.624,177.893 233.5,178.5C 234.95,179.85 235.617,181.516 235.5,183.5C 238.411,184.41 240.411,186.41 241.5,189.5C 245.299,192.496 248.633,195.829 251.5,199.5C 247.018,198.337 243.184,196.004 240,192.5C 229.667,178.833 219.333,165.167 209,151.5C 208.896,148.337 208.729,145.337 208.5,142.5C 209.167,142.5 209.5,142.167 209.5,141.5 Z"/></g>
<g><path style="opacity:0.024" fill="#7e4ec3" d="M 452.5,144.5 C 456.945,145.22 460.612,147.22 463.5,150.5C 459.273,149.226 455.606,147.226 452.5,144.5 Z"/></g>
<g><path style="opacity:0.388" fill="#7d4cc3" d="M 61.5,147.5 C 53.4337,152.89 45.1004,157.89 36.5,162.5C 44.0623,156.283 52.3957,151.283 61.5,147.5 Z"/></g>
<g><path style="opacity:1" fill="#5e12cb" d="M 188.5,142.5 C 193.167,142.5 197.833,142.5 202.5,142.5C 200.667,144.496 200.167,146.829 201,149.5C 207.976,156.144 214.643,163.144 221,170.5C 226.667,178.167 232.333,185.833 238,193.5C 247.51,204.9 258.343,206.4 270.5,198C 280.604,186.286 290.104,174.12 299,161.5C 307.83,152.891 318.33,149.724 330.5,152C 349.522,155.226 368.522,158.559 387.5,162C 397.259,163.919 404.259,169.419 408.5,178.5C 406.264,180.574 405.597,182.908 406.5,185.5C 406.167,186.833 405.833,188.167 405.5,189.5C 404.833,189.5 404.167,189.5 403.5,189.5C 403.66,187.801 403.494,186.134 403,184.5C 401.579,182.595 400.412,180.595 399.5,178.5C 401.068,179.473 402.735,179.64 404.5,179C 400.298,173.461 394.965,169.461 388.5,167C 364.054,161.036 339.387,157.036 314.5,155C 306.59,157.907 300.09,162.74 295,169.5C 287.032,184.306 276.199,196.472 262.5,206C 258.167,208 253.833,208 249.5,206C 242.374,201.208 236.207,195.375 231,188.5C 223.198,174.399 212.365,163.232 198.5,155C 190.573,151.841 182.573,151.675 174.5,154.5C 157.949,160.295 141.282,165.795 124.5,171C 116.762,174.244 110.762,179.41 106.5,186.5C 105.833,186.5 105.167,186.5 104.5,186.5C 104.5,186.167 104.5,185.833 104.5,185.5C 105.392,183.638 105.559,181.638 105,179.5C 108,175.247 111.666,171.58 116,168.5C 116.465,167.069 117.299,165.903 118.5,165C 116.381,164.658 116.047,163.825 117.5,162.5C 140.989,154.551 164.655,147.884 188.5,142.5 Z"/></g>
<g><path style="opacity:1" fill="#6112d1" d="M 399.5,178.5 C 393.792,173.481 387.125,170.314 379.5,169C 358.713,164.035 337.713,160.702 316.5,159C 307.981,160.849 301.147,165.349 296,172.5C 288.671,186.16 278.838,197.66 266.5,207C 257.558,210.969 249.224,209.969 241.5,204C 230.833,191.333 220.167,178.667 209.5,166C 203.649,160.825 196.816,158.325 189,158.5C 167.314,161.88 146.147,167.38 125.5,175C 122.7,176.309 120.033,177.809 117.5,179.5C 114.274,182.297 111.274,185.297 108.5,188.5C 107.833,187.833 107.167,187.167 106.5,186.5C 110.762,179.41 116.762,174.244 124.5,171C 141.282,165.795 157.949,160.295 174.5,154.5C 182.573,151.675 190.573,151.841 198.5,155C 212.365,163.232 223.198,174.399 231,188.5C 236.207,195.375 242.374,201.208 249.5,206C 253.833,208 258.167,208 262.5,206C 276.199,196.472 287.032,184.306 295,169.5C 300.09,162.74 306.59,157.907 314.5,155C 339.387,157.036 364.054,161.036 388.5,167C 394.965,169.461 400.298,173.461 404.5,179C 402.735,179.64 401.068,179.473 399.5,178.5 Z"/></g>
<g><path style="opacity:1" fill="#7b4ac2" d="M 463.5,150.5 C 467.381,151.774 471.048,153.607 474.5,156C 479.685,159.697 484.685,163.53 489.5,167.5C 480.483,162.328 471.817,156.661 463.5,150.5 Z"/></g>
<g><path style="opacity:0.729" fill="#6c30c1" d="M 214.5,149.5 C 219.975,155.771 224.975,162.437 229.5,169.5C 226.944,168.457 224.777,166.79 223,164.5C 220.387,159.4 217.22,154.733 213.5,150.5C 213.624,149.893 213.957,149.56 214.5,149.5 Z"/></g>
<g><path style="opacity:1" fill="#6512d7" d="M 399.5,178.5 C 400.412,180.595 401.579,182.595 403,184.5C 403.494,186.134 403.66,187.801 403.5,189.5C 403.011,190.995 402.345,192.329 401.5,193.5C 400.447,183.603 395.113,177.103 385.5,174C 364.043,168.757 342.376,164.59 320.5,161.5C 314.246,162.195 308.579,164.361 303.5,168C 296.614,176.552 290.114,185.386 284,194.5C 279.5,199 275,203.5 270.5,208C 256.888,215.61 245.055,213.444 235,201.5C 227.196,190.729 219.029,180.229 210.5,170C 204.418,164.961 197.418,162.128 189.5,161.5C 168.059,165.277 147.059,170.777 126.5,178C 118.489,181.506 113.156,187.339 110.5,195.5C 109.733,194.828 109.066,193.995 108.5,193C 109.413,191.586 109.413,190.086 108.5,188.5C 111.274,185.297 114.274,182.297 117.5,179.5C 120.033,177.809 122.7,176.309 125.5,175C 146.147,167.38 167.314,161.88 189,158.5C 196.816,158.325 203.649,160.825 209.5,166C 220.167,178.667 230.833,191.333 241.5,204C 249.224,209.969 257.558,210.969 266.5,207C 278.838,197.66 288.671,186.16 296,172.5C 301.147,165.349 307.981,160.849 316.5,159C 337.713,160.702 358.713,164.035 379.5,169C 387.125,170.314 393.792,173.481 399.5,178.5 Z"/></g>
<g><path style="opacity:0.573" fill="#8a54d6" d="M 402.5,159.5 C 405.943,160.059 408.943,161.393 411.5,163.5C 407.898,163.308 404.898,161.974 402.5,159.5 Z"/></g>
<g><path style="opacity:1" fill="#6813dd" d="M 401.5,193.5 C 400.728,194.694 399.728,195.694 398.5,196.5C 398.737,192.59 397.904,188.923 396,185.5C 392.666,182.012 388.833,179.179 384.5,177C 361.233,170.478 337.566,166.811 313.5,166C 307.914,167.581 303.414,170.748 300,175.5C 292.712,188.459 283.545,199.959 272.5,210C 260.013,217.955 248.18,217.122 237,207.5C 227.167,195.333 217.333,183.167 207.5,171C 202.222,166.852 196.222,165.019 189.5,165.5C 166.779,168.573 144.779,174.406 123.5,183C 120.784,186.261 117.951,189.428 115,192.5C 113.921,195.063 113.421,197.729 113.5,200.5C 111.953,199.232 110.953,197.565 110.5,195.5C 113.156,187.339 118.489,181.506 126.5,178C 147.059,170.777 168.059,165.277 189.5,161.5C 197.418,162.128 204.418,164.961 210.5,170C 219.029,180.229 227.196,190.729 235,201.5C 245.055,213.444 256.888,215.61 270.5,208C 275,203.5 279.5,199 284,194.5C 290.114,185.386 296.614,176.552 303.5,168C 308.579,164.361 314.246,162.195 320.5,161.5C 342.376,164.59 364.043,168.757 385.5,174C 395.113,177.103 400.447,183.603 401.5,193.5 Z"/></g>
<g><path style="opacity:1" fill="#5b12c2" d="M 117.5,162.5 C 116.047,163.825 116.381,164.658 118.5,165C 117.299,165.903 116.465,167.069 116,168.5C 111.666,171.58 108,175.247 105,179.5C 105.559,181.638 105.392,183.638 104.5,185.5C 103.149,182.977 101.983,180.311 101,177.5C 100.502,174.183 100.335,170.85 100.5,167.5C 106.24,166.133 111.907,164.466 117.5,162.5 Z"/></g>
<g><path style="opacity:0.771" fill="#7a47c2" d="M 35.5,162.5 C 35.4894,164.017 34.8228,165.184 33.5,166C 28.7343,168.702 24.401,171.869 20.5,175.5C 19.609,176.11 18.609,176.443 17.5,176.5C 23.0992,171.361 29.0992,166.695 35.5,162.5 Z"/></g>
<g><path style="opacity:1" fill="#6b14e4" d="M 398.5,196.5 C 393.428,204.303 388.595,212.303 384,220.5C 378.675,228.315 372.842,235.648 366.5,242.5C 366.343,241.127 366.51,239.793 367,238.5C 371.774,231.997 376.274,225.331 380.5,218.5C 385.157,211.861 389.324,204.861 393,197.5C 394.346,190.875 392.18,185.709 386.5,182C 364.684,175.837 342.518,171.337 320,168.5C 308.418,170.739 300.418,177.406 296,188.5C 291,194.833 286,201.167 281,207.5C 264.593,224.784 248.26,224.784 232,207.5C 223.547,196.046 214.714,184.879 205.5,174C 200.946,170.483 195.779,168.983 190,169.5C 169.668,172.208 149.834,177.041 130.5,184C 121.183,187.801 117.516,194.634 119.5,204.5C 121.674,209.523 124.341,214.19 127.5,218.5C 127.344,222.68 129.178,225.347 133,226.5C 133.49,227.793 133.657,229.127 133.5,230.5C 132.188,228.359 130.355,226.692 128,225.5C 126.211,222.709 124.878,219.709 124,216.5C 119.429,211.783 115.929,206.449 113.5,200.5C 113.421,197.729 113.921,195.063 115,192.5C 117.951,189.428 120.784,186.261 123.5,183C 144.779,174.406 166.779,168.573 189.5,165.5C 196.222,165.019 202.222,166.852 207.5,171C 217.333,183.167 227.167,195.333 237,207.5C 248.18,217.122 260.013,217.955 272.5,210C 283.545,199.959 292.712,188.459 300,175.5C 303.414,170.748 307.914,167.581 313.5,166C 337.566,166.811 361.233,170.478 384.5,177C 388.833,179.179 392.666,182.012 396,185.5C 397.904,188.923 398.737,192.59 398.5,196.5 Z"/></g>
<g><path style="opacity:0.933" fill="#6f33c3" d="M 287.5,165.5 C 288.239,165.369 288.906,165.536 289.5,166C 287.887,169.12 285.553,171.287 282.5,172.5C 283.921,169.991 285.588,167.657 287.5,165.5 Z"/></g>
<g><path style="opacity:1" fill="#6f14ea" d="M 380.5,218.5 C 380.196,217.85 379.863,217.183 379.5,216.5C 381.708,212.583 384.041,208.75 386.5,205C 385.584,204.722 384.918,204.222 384.5,203.5C 385.045,201.407 385.878,199.407 387,197.5C 388.654,191.307 386.487,187.14 380.5,185C 360.866,180.14 341.033,176.307 321,173.5C 314.659,173.72 309.659,176.386 306,181.5C 298.322,194.181 289.488,206.014 279.5,217C 255.99,231.914 237.156,227.414 223,203.5C 217.089,196.011 211.423,188.345 206,180.5C 199.17,174.842 191.336,173.009 182.5,175C 165.95,178.517 149.617,182.85 133.5,188C 127.686,190.124 124.686,194.29 124.5,200.5C 124.567,202.401 124.233,204.234 123.5,206C 125.03,209.561 126.697,213.061 128.5,216.5C 128.137,217.183 127.804,217.85 127.5,218.5C 124.341,214.19 121.674,209.523 119.5,204.5C 117.516,194.634 121.183,187.801 130.5,184C 149.834,177.041 169.668,172.208 190,169.5C 195.779,168.983 200.946,170.483 205.5,174C 214.714,184.879 223.547,196.046 232,207.5C 248.26,224.784 264.593,224.784 281,207.5C 286,201.167 291,194.833 296,188.5C 300.418,177.406 308.418,170.739 320,168.5C 342.518,171.337 364.684,175.837 386.5,182C 392.18,185.709 394.346,190.875 393,197.5C 389.324,204.861 385.157,211.861 380.5,218.5 Z"/></g>
<g><path style="opacity:1" fill="#7b46c5" d="M 489.5,167.5 C 492.135,168.811 494.469,170.478 496.5,172.5C 494.315,172.296 492.315,171.63 490.5,170.5C 489.89,169.609 489.557,168.609 489.5,167.5 Z"/></g>
<g><path style="opacity:1" fill="#5e16c4" d="M 429.5,167.5 C 429.369,168.376 429.702,169.043 430.5,169.5C 435.361,171.438 439.695,174.104 443.5,177.5C 441.078,178.085 439.411,179.585 438.5,182C 432.325,185.001 425.991,187.501 419.5,189.5C 419.672,188.508 419.338,187.842 418.5,187.5C 421.789,180.642 425.455,173.976 429.5,167.5 Z"/></g>
<g><path style="opacity:0.512" fill="#8850d7" d="M 429.5,167.5 C 437.36,171.044 444.693,175.378 451.5,180.5C 448.645,179.883 445.978,178.883 443.5,177.5C 439.695,174.104 435.361,171.438 430.5,169.5C 429.702,169.043 429.369,168.376 429.5,167.5 Z"/></g>
<g><path style="opacity:1" fill="#5f13c9" d="M 85.5,169.5 C 86.7384,171.214 87.405,173.214 87.5,175.5C 86.9569,175.56 86.6236,175.893 86.5,176.5C 89.0215,180.975 91.6882,185.309 94.5,189.5C 95.1067,189.376 95.44,189.043 95.5,188.5C 96.404,189.209 96.7373,190.209 96.5,191.5C 95.8843,192.202 95.8843,193.202 96.5,194.5C 87.972,192.101 79.6387,189.101 71.5,185.5C 70.9724,183.664 70.3058,181.997 69.5,180.5C 73.1008,178.023 76.7674,175.523 80.5,173C 82.1341,172.506 83.8008,172.34 85.5,172.5C 85.5,171.5 85.5,170.5 85.5,169.5 Z"/></g>
<g><path style="opacity:0.738" fill="#6e33c1" d="M 230.5,171.5 C 232.063,172.945 233.396,174.611 234.5,176.5C 232.027,176.264 230.36,174.931 229.5,172.5C 229.624,171.893 229.957,171.56 230.5,171.5 Z"/></g>
<g><path style="opacity:0.596" fill="#874dd9" d="M 85.5,169.5 C 85.5,170.5 85.5,171.5 85.5,172.5C 83.8008,172.34 82.1341,172.506 80.5,173C 76.7674,175.523 73.1008,178.023 69.5,180.5C 68.4324,181.434 67.099,181.768 65.5,181.5C 69.2576,178.443 73.2576,175.61 77.5,173C 80.0711,171.546 82.7378,170.38 85.5,169.5 Z"/></g>
<g><path style="opacity:1" fill="#7517f1" d="M 384.5,203.5 C 375.122,215.885 365.955,228.551 357,241.5C 353.167,246 349.333,250.5 345.5,255C 337.841,255.5 330.174,255.666 322.5,255.5C 324.281,245.215 320.947,237.215 312.5,231.5C 312.101,228.372 311.767,225.372 311.5,222.5C 308.167,222.027 306,223.36 305,226.5C 303.048,227.747 301.215,229.081 299.5,230.5C 294.933,230.744 290.599,231.91 286.5,234C 278.547,239.618 270.88,245.618 263.5,252C 260.533,253.7 257.367,254.867 254,255.5C 250.633,254.867 247.467,253.7 244.5,252C 236.392,243.717 226.725,238.217 215.5,235.5C 212.531,233.008 209.531,230.508 206.5,228C 205.365,227.251 204.365,227.417 203.5,228.5C 203.624,229.107 203.957,229.44 204.5,229.5C 204.833,229.5 205.167,229.5 205.5,229.5C 205.5,230.833 205.5,232.167 205.5,233.5C 202.591,236.914 199.424,240.247 196,243.5C 194.011,247.253 193.178,251.253 193.5,255.5C 190.664,255.202 190.164,255.869 192,257.5C 192.354,261.354 192.854,265.188 193.5,269C 193.485,272.499 191.818,273.833 188.5,273C 160.778,254.328 139.444,230.162 124.5,200.5C 124.686,194.29 127.686,190.124 133.5,188C 149.617,182.85 165.95,178.517 182.5,175C 191.336,173.009 199.17,174.842 206,180.5C 211.423,188.345 217.089,196.011 223,203.5C 237.156,227.414 255.99,231.914 279.5,217C 289.488,206.014 298.322,194.181 306,181.5C 309.659,176.386 314.659,173.72 321,173.5C 341.033,176.307 360.866,180.14 380.5,185C 386.487,187.14 388.654,191.307 387,197.5C 385.878,199.407 385.045,201.407 384.5,203.5 Z"/></g>
<g><path style="opacity:0.782" fill="#793ecc" d="M 497.5,174.5 C 500.117,175.786 502.45,177.453 504.5,179.5C 503.167,179.5 501.833,179.5 500.5,179.5C 500.573,177.973 499.906,176.973 498.5,176.5C 498.167,175.833 497.833,175.167 497.5,174.5 Z"/></g>
<g><path style="opacity:1" fill="#6013ca" d="M 443.5,177.5 C 445.978,178.883 448.645,179.883 451.5,180.5C 452.642,182.433 454.308,183.933 456.5,185C 460.744,187.428 465.078,189.594 469.5,191.5C 470.833,194.5 470.833,197.5 469.5,200.5C 468.167,200.833 466.833,201.167 465.5,201.5C 462.382,195.214 457.715,190.381 451.5,187C 448.167,186.333 444.833,186.333 441.5,187C 433.841,188.998 426.174,190.832 418.5,192.5C 418.263,191.209 418.596,190.209 419.5,189.5C 425.991,187.501 432.325,185.001 438.5,182C 439.411,179.585 441.078,178.085 443.5,177.5 Z"/></g>
<g><path style="opacity:0.251" fill="#500fab" d="M 412.5,169.5 C 412.663,171.857 412.497,174.19 412,176.5C 410.656,179.865 408.823,182.865 406.5,185.5C 405.597,182.908 406.264,180.574 408.5,178.5C 409.343,175.187 410.677,172.187 412.5,169.5 Z"/></g>
<g><path style="opacity:0.788" fill="#7b44c9" d="M 16.5,177.5 C 16.4431,178.609 16.1098,179.609 15.5,180.5C 13.9505,181.441 12.2838,182.107 10.5,182.5C 12.1829,180.486 14.1829,178.82 16.5,177.5 Z"/></g>
<g><path style="opacity:1" fill="#7316f4" d="M 185.5,182.5 C 188.649,182.211 191.649,182.711 194.5,184C 199.955,191.077 205.288,198.244 210.5,205.5C 186.833,206.833 163.167,206.833 139.5,205.5C 134.884,200.919 135.551,197.419 141.5,195C 156.2,190.496 170.866,186.329 185.5,182.5 Z"/></g>
<g><path style="opacity:1" fill="#7316f4" d="M 318.5,182.5 C 337.546,184.009 356.212,187.509 374.5,193C 375.059,193.725 375.392,194.558 375.5,195.5C 373.896,199.207 371.896,202.707 369.5,206C 347.167,206.667 324.833,206.667 302.5,206C 307.98,198.187 313.313,190.354 318.5,182.5 Z"/></g>
<g><path style="opacity:0.067" fill="#450d94" d="M 457.5,165.5 C 468.704,172.089 478.704,180.089 487.5,189.5C 477.302,181.576 466.968,173.91 456.5,166.5C 457.167,166.5 457.5,166.167 457.5,165.5 Z"/></g>
<g><path style="opacity:0.865" fill="#7b39d8" d="M 65.5,181.5 C 64.1182,183.549 62.4516,185.215 60.5,186.5C 61.1098,185.609 61.4431,184.609 61.5,183.5C 62.5137,182.326 63.847,181.66 65.5,181.5 Z"/></g>
<g><path style="opacity:0.292" fill="#490d9b" d="M 46.5,177.5 C 46.5,178.167 46.8333,178.5 47.5,178.5C 42.8207,183.178 37.8207,187.511 32.5,191.5C 31.475,191.103 31.3083,190.437 32,189.5C 35.6244,186.611 39.1244,183.611 42.5,180.5C 43.8333,179.5 45.1667,178.5 46.5,177.5 Z"/></g>
<g><path style="opacity:1" fill="#6d2ac9" d="M 87.5,175.5 C 90.9045,179.295 93.5712,183.628 95.5,188.5C 95.44,189.043 95.1067,189.376 94.5,189.5C 91.6882,185.309 89.0215,180.975 86.5,176.5C 86.6236,175.893 86.9569,175.56 87.5,175.5 Z"/></g>
<g><path style="opacity:0.988" fill="#884dd9" d="M 451.5,180.5 C 458.009,183.345 464.009,187.011 469.5,191.5C 465.078,189.594 460.744,187.428 456.5,185C 454.308,183.933 452.642,182.433 451.5,180.5 Z"/></g>
<g><path style="opacity:0.825" fill="#8d52de" d="M 61.5,183.5 C 61.4431,184.609 61.1098,185.609 60.5,186.5C 58.7839,186.629 57.1172,186.962 55.5,187.5C 57.1184,185.684 59.1184,184.351 61.5,183.5 Z"/></g>
<g><path style="opacity:1" fill="#7135c3" d="M 234.5,177.5 C 238.515,181.356 242.015,185.689 245,190.5C 248.667,193.833 252.333,197.167 256,200.5C 258.37,197.961 260.87,195.628 263.5,193.5C 263.719,194.675 263.386,195.675 262.5,196.5C 260.563,197.954 258.897,199.621 257.5,201.5C 255.297,201.396 253.297,200.73 251.5,199.5C 248.633,195.829 245.299,192.496 241.5,189.5C 240.411,186.41 238.411,184.41 235.5,183.5C 235.617,181.516 234.95,179.85 233.5,178.5C 233.624,177.893 233.957,177.56 234.5,177.5 Z"/></g>
<g><path style="opacity:0.945" fill="#7238c2" d="M 281.5,174.5 C 281.938,174.435 282.272,174.601 282.5,175C 281.029,177.636 279.363,180.136 277.5,182.5C 273.347,184.82 270.014,187.987 267.5,192C 266.255,192.791 264.922,193.291 263.5,193.5C 269.528,187.14 275.528,180.807 281.5,174.5 Z"/></g>
<g><path style="opacity:1" fill="#6715d2" d="M 42.5,180.5 C 39.1244,183.611 35.6244,186.611 32,189.5C 31.3083,190.437 31.475,191.103 32.5,191.5C 32.3893,192.117 32.056,192.617 31.5,193C 32.2489,194.734 32.7489,196.567 33,198.5C 36.3832,204.599 39.2166,210.932 41.5,217.5C 40.7611,217.369 40.0944,217.536 39.5,218C 42.3103,222.052 44.6436,226.386 46.5,231C 47.3557,232.595 48.6891,233.428 50.5,233.5C 52.5643,236.243 54.231,239.243 55.5,242.5C 55.0403,245.095 56.3737,246.762 59.5,247.5C 60.1667,248.833 60.8333,250.167 61.5,251.5C 60.9569,251.56 60.6236,251.893 60.5,252.5C 61.9715,256.531 64.6381,259.198 68.5,260.5C 68.5,260.833 68.5,261.167 68.5,261.5C 67.6236,261.369 66.9569,261.702 66.5,262.5C 74.4423,272.78 82.7756,282.78 91.5,292.5C 91.6107,293.117 91.944,293.617 92.5,294C 89.8333,294.667 87.1667,294.667 84.5,294C 81.5,290.333 78.5,286.667 75.5,283C 70.7481,282.227 66.0815,282.393 61.5,283.5C 56.8232,277.465 52.1565,271.465 47.5,265.5C 43.3646,256.84 38.5312,248.507 33,240.5C 25.8347,226.187 19.3347,211.52 13.5,196.5C 21.4463,191.852 29.1129,186.685 36.5,181C 38.5654,179.458 40.5654,179.291 42.5,180.5 Z"/></g>
<g><path style="opacity:0.875" fill="#894cdd" d="M 55.5,187.5 C 52.931,190.728 49.5977,192.728 45.5,193.5C 48.4937,191 51.827,189 55.5,187.5 Z"/></g>
<g><path style="opacity:1" fill="#6413d2" d="M 69.5,180.5 C 70.3058,181.997 70.9724,183.664 71.5,185.5C 79.6387,189.101 87.972,192.101 96.5,194.5C 97.9313,195.78 98.5979,197.447 98.5,199.5C 91.1168,197.986 83.7835,196.152 76.5,194C 64.0618,192.552 55.7285,197.719 51.5,209.5C 49.8793,206.259 48.2126,202.925 46.5,199.5C 46.0431,198.702 45.3764,198.369 44.5,198.5C 44.2155,196.585 44.5489,194.919 45.5,193.5C 49.5977,192.728 52.931,190.728 55.5,187.5C 57.1172,186.962 58.7839,186.629 60.5,186.5C 62.4516,185.215 64.1182,183.549 65.5,181.5C 67.099,181.768 68.4324,181.434 69.5,180.5 Z"/></g>
<g><path style="opacity:1" fill="#6313d1" d="M 465.5,201.5 C 465.102,204.424 463.769,206.758 461.5,208.5C 457.391,199.392 450.391,194.059 440.5,192.5C 437.468,192.806 434.468,193.306 431.5,194C 424.468,196.853 417.468,199.686 410.5,202.5C 413.186,199.097 415.853,195.764 418.5,192.5C 426.174,190.832 433.841,188.998 441.5,187C 444.833,186.333 448.167,186.333 451.5,187C 457.715,190.381 462.382,195.214 465.5,201.5 Z"/></g>
<g><path style="opacity:1" fill="#6415d1" d="M 503.5,186.5 C 500.439,195.618 497.106,204.618 493.5,213.5C 492.833,214.167 492.167,214.833 491.5,215.5C 488.608,210.995 485.274,206.995 481.5,203.5C 483.111,199.004 485.111,194.671 487.5,190.5C 489.048,190.179 489.715,189.179 489.5,187.5C 494.263,187.774 498.93,187.441 503.5,186.5 Z"/></g>
<g><path style="opacity:1" fill="#6814d7" d="M 461.5,208.5 C 460.548,211.697 459.215,214.697 457.5,217.5C 456.315,200.237 447.315,193.737 430.5,198C 426.127,199.713 422.293,202.213 419,205.5C 409.721,217.751 400.221,229.751 390.5,241.5C 388.18,243.226 385.513,243.893 382.5,243.5C 383.754,240.907 385.42,238.573 387.5,236.5C 387.376,235.893 387.043,235.56 386.5,235.5C 386.5,235.167 386.5,234.833 386.5,234.5C 389.57,233.757 391.236,231.757 391.5,228.5C 392.675,228.719 393.675,228.386 394.5,227.5C 396.594,224.373 398.594,221.207 400.5,218C 400.272,217.601 399.938,217.435 399.5,217.5C 399.328,216.508 399.662,215.842 400.5,215.5C 402.809,214.612 404.476,212.946 405.5,210.5C 405.376,209.893 405.043,209.56 404.5,209.5C 405.167,208.167 405.833,206.833 406.5,205.5C 408.619,205.532 409.952,204.532 410.5,202.5C 417.468,199.686 424.468,196.853 431.5,194C 434.468,193.306 437.468,192.806 440.5,192.5C 450.391,194.059 457.391,199.392 461.5,208.5 Z"/></g>
<g><path style="opacity:1" fill="#6714d7" d="M 98.5,199.5 C 100.868,201.843 103.035,204.509 105,207.5C 105.383,206.944 105.883,206.611 106.5,206.5C 107.11,207.391 107.443,208.391 107.5,209.5C 106.662,209.842 106.328,210.508 106.5,211.5C 100.168,207.542 93.1675,203.708 85.5,200C 69.2047,194.311 59.2047,199.811 55.5,216.5C 52.8881,214.948 51.5548,212.614 51.5,209.5C 55.7285,197.719 64.0618,192.552 76.5,194C 83.7835,196.152 91.1168,197.986 98.5,199.5 Z"/></g>
<g><path style="opacity:1" fill="#6f16e3" d="M 453.5,223.5 C 446.465,234.276 438.965,244.942 431,255.5C 430.517,256.448 430.351,257.448 430.5,258.5C 428.389,260.631 426.056,262.298 423.5,263.5C 423.649,264.552 423.483,265.552 423,266.5C 411.334,280.332 398.834,293.332 385.5,305.5C 383.777,307.218 381.777,308.551 379.5,309.5C 379.167,308.833 378.833,308.167 378.5,307.5C 382.665,303.503 386.998,299.67 391.5,296C 395.67,290.998 400.004,286.164 404.5,281.5C 420.699,264.455 434.866,245.789 447,225.5C 452.1,215.072 449.433,207.739 439,203.5C 433.688,204.46 429.355,207.126 426,211.5C 410.11,235.55 393.277,258.883 375.5,281.5C 375.167,281.5 374.833,281.5 374.5,281.5C 373.448,281.351 372.448,281.517 371.5,282C 363.5,290 355.5,298 347.5,306C 346.552,306.483 345.552,306.649 344.5,306.5C 351.478,298.52 358.478,290.52 365.5,282.5C 372.839,275.325 379.672,267.659 386,259.5C 399.447,240.386 413.281,221.552 427.5,203C 446.691,196.001 455.358,202.835 453.5,223.5 Z"/></g>
<g><path style="opacity:0.525" fill="#5710b7" d="M 505.5,185.5 C 504.687,193.107 502.187,200.107 498,206.5C 497.338,208.813 496.838,211.146 496.5,213.5C 495.5,213.5 494.5,213.5 493.5,213.5C 497.106,204.618 500.439,195.618 503.5,186.5C 504.167,186.167 504.833,185.833 505.5,185.5 Z"/></g>
<g><path style="opacity:0.701" fill="#762cd9" d="M 96.5,191.5 C 100.068,196.291 103.402,201.291 106.5,206.5C 105.883,206.611 105.383,206.944 105,207.5C 103.035,204.509 100.868,201.843 98.5,199.5C 98.5979,197.447 97.9313,195.78 96.5,194.5C 95.8843,193.202 95.8843,192.202 96.5,191.5 Z"/></g>
<g><path style="opacity:1" fill="#7016e2" d="M 164.5,306.5 C 163.448,306.649 162.448,306.483 161.5,306C 153.573,298.911 146.573,291.078 140.5,282.5C 139.311,281.571 137.978,281.238 136.5,281.5C 120.888,258.62 104.721,235.62 88,212.5C 82.8702,207.76 77.0368,206.26 70.5,208C 64.9049,212.785 63.4049,218.618 66,225.5C 77.0722,246.049 90.5722,264.716 106.5,281.5C 129.37,307.878 155.704,330.045 185.5,348C 186.252,348.671 186.586,349.504 186.5,350.5C 166.464,339.143 147.797,325.809 130.5,310.5C 127.836,307.734 125.003,305.067 122,302.5C 121.517,301.552 121.351,300.552 121.5,299.5C 117.494,299.512 115.16,297.512 114.5,293.5C 113.448,293.649 112.448,293.483 111.5,293C 108.302,288.809 105.136,284.643 102,280.5C 98.6667,279.833 96.6667,277.833 96,274.5C 84.1562,261.549 73.6562,247.715 64.5,233C 63.552,232.517 62.552,232.351 61.5,232.5C 61.5,231.833 61.5,231.167 61.5,230.5C 62.0967,230.265 62.4301,229.765 62.5,229C 60.8368,227.505 59.8368,225.672 59.5,223.5C 59.8401,203.504 69.1735,197.338 87.5,205C 95.9207,213.363 103.754,222.197 111,231.5C 120.845,245.861 130.179,260.528 139,275.5C 147.358,286.017 155.858,296.351 164.5,306.5 Z"/></g>
<g><path style="opacity:0.978" fill="#7730d7" d="M 418.5,187.5 C 419.338,187.842 419.672,188.508 419.5,189.5C 418.596,190.209 418.263,191.209 418.5,192.5C 415.853,195.764 413.186,199.097 410.5,202.5C 409.952,204.532 408.619,205.532 406.5,205.5C 410.513,199.463 414.513,193.463 418.5,187.5 Z"/></g>
<g><path style="opacity:1" fill="#6d16dd" d="M 106.5,211.5 C 107.837,212.315 108.837,213.482 109.5,215C 110.448,215.483 111.448,215.649 112.5,215.5C 112.5,215.833 112.5,216.167 112.5,216.5C 111.485,217.46 111.485,218.627 112.5,220C 116.699,225.544 120.533,231.378 124,237.5C 131.102,244.433 137.269,252.1 142.5,260.5C 141.859,261.482 141.193,262.482 140.5,263.5C 142.059,267.619 143.893,271.619 146,275.5C 153.366,286.252 161.199,296.585 169.5,306.5C 168.167,306.5 166.833,306.5 165.5,306.5C 165.167,306.5 164.833,306.5 164.5,306.5C 155.858,296.351 147.358,286.017 139,275.5C 130.179,260.528 120.845,245.861 111,231.5C 103.754,222.197 95.9207,213.363 87.5,205C 69.1735,197.338 59.8401,203.504 59.5,223.5C 58.6091,222.739 57.9424,221.739 57.5,220.5C 56.675,219.614 55.675,219.281 54.5,219.5C 54.5,219.167 54.5,218.833 54.5,218.5C 55.3382,218.158 55.6716,217.492 55.5,216.5C 59.2047,199.811 69.2047,194.311 85.5,200C 93.1675,203.708 100.168,207.542 106.5,211.5 Z"/></g>
<g><path style="opacity:1" fill="#6c15dd" d="M 457.5,217.5 C 456.675,219.81 455.342,221.81 453.5,223.5C 455.358,202.835 446.691,196.001 427.5,203C 413.281,221.552 399.447,240.386 386,259.5C 379.672,267.659 372.839,275.325 365.5,282.5C 364.448,282.351 363.448,282.517 362.5,283C 357.451,289.237 351.451,294.07 344.5,297.5C 357.368,284.133 369.701,270.3 381.5,256C 381.167,255.667 380.833,255.333 380.5,255C 384.461,250.886 387.794,246.386 390.5,241.5C 400.221,229.751 409.721,217.751 419,205.5C 422.293,202.213 426.127,199.713 430.5,198C 447.315,193.737 456.315,200.237 457.5,217.5 Z"/></g>
<g><path style="opacity:1" fill="#7316ea" d="M 404.5,281.5 C 402.143,281.663 399.81,281.497 397.5,281C 405.084,273.255 412.084,265.089 418.5,256.5C 428.725,244.555 437.058,231.388 443.5,217C 440.356,210.18 436.19,209.68 431,215.5C 421.813,229.224 412.646,242.891 403.5,256.5C 396.733,264.505 390.066,272.671 383.5,281C 380.854,281.497 378.187,281.664 375.5,281.5C 393.277,258.883 410.11,235.55 426,211.5C 429.355,207.126 433.688,204.46 439,203.5C 449.433,207.739 452.1,215.072 447,225.5C 434.866,245.789 420.699,264.455 404.5,281.5 Z"/></g>
<g><path style="opacity:1" fill="#7317ea" d="M 136.5,281.5 C 133.813,281.664 131.146,281.497 128.5,281C 122.268,272.674 115.934,264.507 109.5,256.5C 100.556,242.797 91.2231,229.297 81.5,216C 73.5997,212.569 70.433,215.069 72,223.5C 78.195,235.248 85.3617,246.248 93.5,256.5C 99.1973,265.373 105.864,273.54 113.5,281C 111.19,281.497 108.857,281.663 106.5,281.5C 90.5722,264.716 77.0722,246.049 66,225.5C 63.4049,218.618 64.9049,212.785 70.5,208C 77.0368,206.26 82.8702,207.76 88,212.5C 104.721,235.62 120.888,258.62 136.5,281.5 Z"/></g>
<g><path style="opacity:0.579" fill="#8038e1" d="M 107.5,209.5 C 109.633,211.091 111.299,213.091 112.5,215.5C 111.448,215.649 110.448,215.483 109.5,215C 108.837,213.482 107.837,212.315 106.5,211.5C 106.328,210.508 106.662,209.842 107.5,209.5 Z"/></g>
<g><path style="opacity:0.22" fill="#5811b8" d="M 104.5,186.5 C 105.167,186.5 105.833,186.5 106.5,186.5C 107.167,187.167 107.833,187.833 108.5,188.5C 109.413,190.086 109.413,191.586 108.5,193C 109.066,193.995 109.733,194.828 110.5,195.5C 110.953,197.565 111.953,199.232 113.5,200.5C 115.929,206.449 119.429,211.783 124,216.5C 124.878,219.709 126.211,222.709 128,225.5C 130.355,226.692 132.188,228.359 133.5,230.5C 133.557,231.609 133.89,232.609 134.5,233.5C 133.833,233.5 133.167,233.5 132.5,233.5C 120.623,219.303 111.29,203.636 104.5,186.5 Z"/></g>
<g><path style="opacity:1" fill="#7618ef" d="M 418.5,256.5 C 406.839,269.668 394.505,282.501 381.5,295C 378.18,297.994 374.513,300.494 370.5,302.5C 370.167,302.333 369.833,302.167 369.5,302C 381.167,287 392.833,272 404.5,257C 404.272,256.601 403.938,256.435 403.5,256.5C 412.646,242.891 421.813,229.224 431,215.5C 436.19,209.68 440.356,210.18 443.5,217C 437.058,231.388 428.725,244.555 418.5,256.5 Z"/></g>
<g><path style="opacity:0.407" fill="#5410af" d="M 44.5,198.5 C 45.3764,198.369 46.0431,198.702 46.5,199.5C 48.2126,202.925 49.8793,206.259 51.5,209.5C 51.5548,212.614 52.8881,214.948 55.5,216.5C 55.6716,217.492 55.3382,218.158 54.5,218.5C 50.8306,213.618 47.6639,208.285 45,202.5C 44.51,201.207 44.3433,199.873 44.5,198.5 Z"/></g>
<g><path style="opacity:0.598" fill="#7e37dc" d="M 404.5,209.5 C 405.043,209.56 405.376,209.893 405.5,210.5C 404.476,212.946 402.809,214.612 400.5,215.5C 401.415,213.246 402.748,211.246 404.5,209.5 Z"/></g>
<g><path style="opacity:1" fill="#7618ef" d="M 109.5,256.5 C 109.062,256.435 108.728,256.601 108.5,257C 119,271.5 129.5,286 140,300.5C 140.688,301.332 140.521,301.998 139.5,302.5C 128.583,294.088 118.417,284.754 109,274.5C 104.29,267.968 99.1238,261.968 93.5,256.5C 85.3617,246.248 78.195,235.248 72,223.5C 70.433,215.069 73.5997,212.569 81.5,216C 91.2231,229.297 100.556,242.797 109.5,256.5 Z"/></g>
<g><path style="opacity:0.718" fill="#7b31dc" d="M 399.5,217.5 C 399.938,217.435 400.272,217.601 400.5,218C 398.594,221.207 396.594,224.373 394.5,227.5C 393.675,228.386 392.675,228.719 391.5,228.5C 391.236,231.757 389.57,233.757 386.5,234.5C 390.536,228.482 394.87,222.815 399.5,217.5 Z"/></g>
<g><path style="opacity:0.562" fill="#5711b4" d="M 469.5,200.5 C 463.786,212.258 457.286,223.592 450,234.5C 443.97,242.685 437.803,250.685 431.5,258.5C 431.167,258.5 430.833,258.5 430.5,258.5C 430.351,257.448 430.517,256.448 431,255.5C 438.965,244.942 446.465,234.276 453.5,223.5C 455.342,221.81 456.675,219.81 457.5,217.5C 459.215,214.697 460.548,211.697 461.5,208.5C 463.769,206.758 465.102,204.424 465.5,201.5C 466.833,201.167 468.167,200.833 469.5,200.5 Z"/></g>
<g><path style="opacity:0.892" fill="#7f34e2" d="M 112.5,216.5 C 123.084,231.426 134.084,246.092 145.5,260.5C 144.5,260.5 143.5,260.5 142.5,260.5C 137.269,252.1 131.102,244.433 124,237.5C 120.533,231.378 116.699,225.544 112.5,220C 111.485,218.627 111.485,217.46 112.5,216.5 Z"/></g>
<g><path style="opacity:0.196" fill="#5811b6" d="M 403.5,189.5 C 404.167,189.5 404.833,189.5 405.5,189.5C 394.251,209.652 381.251,228.652 366.5,246.5C 365.833,246.5 365.167,246.5 364.5,246.5C 364.989,245.005 365.655,243.671 366.5,242.5C 372.842,235.648 378.675,228.315 384,220.5C 388.595,212.303 393.428,204.303 398.5,196.5C 399.728,195.694 400.728,194.694 401.5,193.5C 402.345,192.329 403.011,190.995 403.5,189.5 Z"/></g>
<g><path style="opacity:0.078" fill="#5711b3" d="M 54.5,219.5 C 55.675,219.281 56.675,219.614 57.5,220.5C 57.9424,221.739 58.6091,222.739 59.5,223.5C 59.8368,225.672 60.8368,227.505 62.5,229C 62.4301,229.765 62.0967,230.265 61.5,230.5C 58.7795,227.106 56.4462,223.439 54.5,219.5 Z"/></g>
<g><path style="opacity:0.73" fill="#752bd8" d="M 41.5,217.5 C 44.989,222.47 47.989,227.803 50.5,233.5C 48.6891,233.428 47.3557,232.595 46.5,231C 44.6436,226.386 42.3103,222.052 39.5,218C 40.0944,217.536 40.7611,217.369 41.5,217.5 Z"/></g>
<g><path style="opacity:1" fill="#6717cb" d="M 481.5,203.5 C 485.274,206.995 488.608,210.995 491.5,215.5C 491.916,218.36 490.916,220.526 488.5,222C 488.019,226.797 485.852,230.631 482,233.5C 480.8,238.232 478.8,242.566 476,246.5C 469.383,256.762 462.55,266.762 455.5,276.5C 443.584,292.417 430.251,307.084 415.5,320.5C 411.215,321.208 406.882,321.708 402.5,322C 397.814,326.628 392.48,329.461 386.5,330.5C 387.851,327.804 389.684,325.47 392,323.5C 392.483,322.552 392.649,321.552 392.5,320.5C 395.593,318.465 397.593,316.131 398.5,313.5C 398.5,312.833 398.833,312.5 399.5,312.5C 401.929,312.415 403.929,311.415 405.5,309.5C 406.773,308.743 406.773,308.077 405.5,307.5C 405.5,306.833 405.833,306.5 406.5,306.5C 408.595,305.588 410.595,304.421 412.5,303C 414.494,300.173 416.828,297.673 419.5,295.5C 419.376,294.893 419.043,294.56 418.5,294.5C 418.5,293.833 418.833,293.5 419.5,293.5C 421.886,292.627 423.886,291.127 425.5,289C 425.272,288.601 424.938,288.435 424.5,288.5C 424.5,287.833 424.833,287.5 425.5,287.5C 427.6,285.404 430.1,283.737 433,282.5C 434.039,280.254 435.206,278.087 436.5,276C 437.448,275.517 438.448,275.351 439.5,275.5C 439.429,272.976 440.429,270.976 442.5,269.5C 442.376,268.893 442.043,268.56 441.5,268.5C 441.932,267.29 442.599,266.29 443.5,265.5C 446.764,262.903 449.764,259.903 452.5,256.5C 452.376,255.893 452.043,255.56 451.5,255.5C 452.982,251.826 455.148,248.493 458,245.5C 466.109,231.693 473.942,217.693 481.5,203.5 Z"/></g>
<g><path style="opacity:1" fill="#7317e9" d="M 299.5,230.5 C 294.2,235.465 288.866,240.465 283.5,245.5C 282.078,246.925 280.411,247.925 278.5,248.5C 277.448,248.351 276.448,248.517 275.5,249C 269.277,254.529 262.111,258.362 254,260.5C 251.144,259.744 248.311,258.911 245.5,258C 240.918,255.23 236.251,252.73 231.5,250.5C 225.785,245.964 220.452,240.964 215.5,235.5C 226.725,238.217 236.392,243.717 244.5,252C 247.467,253.7 250.633,254.867 254,255.5C 257.367,254.867 260.533,253.7 263.5,252C 270.88,245.618 278.547,239.618 286.5,234C 290.599,231.91 294.933,230.744 299.5,230.5 Z"/></g>
<g><path style="opacity:0.494" fill="#5511af" d="M 311.5,222.5 C 311.672,223.492 311.338,224.158 310.5,224.5C 302.211,231.447 293.878,238.447 285.5,245.5C 284.833,245.5 284.167,245.5 283.5,245.5C 288.866,240.465 294.2,235.465 299.5,230.5C 301.215,229.081 303.048,227.747 305,226.5C 306,223.36 308.167,222.027 311.5,222.5 Z"/></g>
<g><path style="opacity:1" fill="#7418ea" d="M 124.5,200.5 C 139.444,230.162 160.778,254.328 188.5,273C 191.818,273.833 193.485,272.499 193.5,269C 192.854,265.188 192.354,261.354 192,257.5C 190.164,255.869 190.664,255.202 193.5,255.5C 193.178,251.253 194.011,247.253 196,243.5C 199.424,240.247 202.591,236.914 205.5,233.5C 207.592,236.088 208.925,239.088 209.5,242.5C 207.567,244.937 205.4,247.271 203,249.5C 202.016,252.791 200.849,255.957 199.5,259C 200.445,266.28 201.945,273.447 204,280.5C 204.777,283.429 204.61,286.263 203.5,289C 199.486,289.505 195.819,288.505 192.5,286C 185.498,280.66 178.832,274.993 172.5,269C 171.552,268.517 170.552,268.351 169.5,268.5C 167.668,267.752 166.001,266.752 164.5,265.5C 154.775,254.446 144.775,243.78 134.5,233.5C 133.89,232.609 133.557,231.609 133.5,230.5C 133.657,229.127 133.49,227.793 133,226.5C 129.178,225.347 127.344,222.68 127.5,218.5C 127.804,217.85 128.137,217.183 128.5,216.5C 126.697,213.061 125.03,209.561 123.5,206C 124.233,204.234 124.567,202.401 124.5,200.5 Z"/></g>
<g><path style="opacity:1" fill="#7318e4" d="M 307.5,233.5 C 308.376,233.369 309.043,233.702 309.5,234.5C 308.833,235.833 308.167,237.167 307.5,238.5C 313.243,243.239 316.243,249.406 316.5,257C 314.875,265.043 312.541,272.876 309.5,280.5C 311.078,281.298 312.744,281.798 314.5,282C 313.207,282.49 311.873,282.657 310.5,282.5C 310.579,283.93 310.246,285.264 309.5,286.5C 309.962,288.291 311.129,289.291 313,289.5C 317.178,287.993 321.011,285.826 324.5,283C 323.5,282.667 322.5,282.333 321.5,282C 323.833,281.667 326.167,281.333 328.5,281C 329.471,279.519 330.804,278.685 332.5,278.5C 329.857,282.027 326.857,285.36 323.5,288.5C 318.012,292.16 312.679,295.994 307.5,300C 305.959,301.371 304.625,302.871 303.5,304.5C 302.391,304.557 301.391,304.89 300.5,305.5C 299.5,305.5 298.5,305.5 297.5,305.5C 297.344,301.418 297.844,297.418 299,293.5C 303.26,283.719 306.927,273.719 310,263.5C 311.262,255.872 309.429,249.205 304.5,243.5C 304.899,239.884 305.899,236.55 307.5,233.5 Z"/></g>
<g><path style="opacity:0.067" fill="#5511ae" d="M 132.5,233.5 C 133.167,233.5 133.833,233.5 134.5,233.5C 144.775,243.78 154.775,254.446 164.5,265.5C 163.833,265.5 163.5,265.833 163.5,266.5C 156.535,260.036 149.702,253.369 143,246.5C 139.492,242.136 135.992,237.803 132.5,233.5 Z"/></g>
<g><path style="opacity:0.467" fill="#813cdb" d="M 55.5,242.5 C 57.543,243.579 58.8763,245.246 59.5,247.5C 56.3737,246.762 55.0403,245.095 55.5,242.5 Z"/></g>
<g><path style="opacity:1" fill="#7218e3" d="M 209.5,242.5 C 210.674,243.514 211.34,244.847 211.5,246.5C 211.071,247.953 210.904,249.619 211,251.5C 207.161,254.328 205.327,258.161 205.5,263C 207.597,273.553 209.93,284.053 212.5,294.5C 212.768,299.249 210.768,300.916 206.5,299.5C 193.271,290.274 180.937,279.94 169.5,268.5C 170.552,268.351 171.552,268.517 172.5,269C 178.832,274.993 185.498,280.66 192.5,286C 195.819,288.505 199.486,289.505 203.5,289C 204.61,286.263 204.777,283.429 204,280.5C 201.945,273.447 200.445,266.28 199.5,259C 200.849,255.957 202.016,252.791 203,249.5C 205.4,247.271 207.567,244.937 209.5,242.5 Z"/></g>
<g><path style="opacity:0.488" fill="#5010a2" d="M 283.5,245.5 C 284.167,245.5 284.833,245.5 285.5,245.5C 277.869,252.643 269.869,259.31 261.5,265.5C 261.5,264.833 261.167,264.5 260.5,264.5C 266.203,258.795 272.203,253.462 278.5,248.5C 280.411,247.925 282.078,246.925 283.5,245.5 Z"/></g>
<g><path style="opacity:0.698" fill="#8139de" d="M 386.5,235.5 C 387.043,235.56 387.376,235.893 387.5,236.5C 385.42,238.573 383.754,240.907 382.5,243.5C 376.734,251.078 370.4,258.245 363.5,265C 362.552,265.483 361.552,265.649 360.5,265.5C 369.157,255.54 377.823,245.54 386.5,235.5 Z"/></g>
<g><path style="opacity:0.393" fill="#5511ae" d="M 9.5,188.5 C 9.83333,188.5 10.1667,188.5 10.5,188.5C 11.1667,190.167 11.8333,191.833 12.5,193.5C 12.2627,194.791 12.596,195.791 13.5,196.5C 19.3347,211.52 25.8347,226.187 33,240.5C 38.5312,248.507 43.3646,256.84 47.5,265.5C 46.8333,265.5 46.5,265.833 46.5,266.5C 34.4672,247.774 23.9672,228.108 15,207.5C 12.655,201.3 10.8216,194.967 9.5,188.5 Z"/></g>
<g><path style="opacity:1" fill="#6e18d9" d="M 304.5,243.5 C 309.429,249.205 311.262,255.872 310,263.5C 306.927,273.719 303.26,283.719 299,293.5C 297.844,297.418 297.344,301.418 297.5,305.5C 298.5,305.5 299.5,305.5 300.5,305.5C 296.373,309.285 291.706,312.285 286.5,314.5C 285.957,314.44 285.624,314.107 285.5,313.5C 286.395,310.192 287.229,306.859 288,303.5C 293.227,291.713 297.894,279.713 302,267.5C 302.667,264.167 302.667,260.833 302,257.5C 301.29,256.027 300.124,255.36 298.5,255.5C 299.992,251.182 301.992,247.182 304.5,243.5 Z"/></g>
<g><path style="opacity:0.114" fill="#5310a9" d="M 215.5,235.5 C 220.452,240.964 225.785,245.964 231.5,250.5C 234.306,253.728 237.306,256.728 240.5,259.5C 240.167,259.5 239.833,259.5 239.5,259.5C 234.428,256.602 229.761,253.102 225.5,249C 218.965,242.297 212.298,235.797 205.5,229.5C 205.167,228.167 204.833,228.167 204.5,229.5C 203.957,229.44 203.624,229.107 203.5,228.5C 204.365,227.417 205.365,227.251 206.5,228C 209.531,230.508 212.531,233.008 215.5,235.5 Z"/></g>
<g><path style="opacity:1" fill="#6f16df" d="M 278.5,248.5 C 272.203,253.462 266.203,258.795 260.5,264.5C 257.741,266.293 254.741,266.793 251.5,266C 247.929,263.579 244.262,261.413 240.5,259.5C 237.306,256.728 234.306,253.728 231.5,250.5C 236.251,252.73 240.918,255.23 245.5,258C 248.311,258.911 251.144,259.744 254,260.5C 262.111,258.362 269.277,254.529 275.5,249C 276.448,248.517 277.448,248.351 278.5,248.5 Z"/></g>
<g><path style="opacity:0.967" fill="#7d36d9" d="M 61.5,251.5 C 64.0638,254.28 66.3971,257.28 68.5,260.5C 64.6381,259.198 61.9715,256.531 60.5,252.5C 60.6236,251.893 60.9569,251.56 61.5,251.5 Z"/></g>
<g><path style="opacity:0.776" fill="#5511ab" d="M 364.5,246.5 C 365.167,246.5 365.833,246.5 366.5,246.5C 348.256,268.911 327.589,288.578 304.5,305.5C 304.5,304.833 304.167,304.5 303.5,304.5C 304.625,302.871 305.959,301.371 307.5,300C 312.679,295.994 318.012,292.16 323.5,288.5C 326.857,285.36 329.857,282.027 332.5,278.5C 338.444,273.894 344.11,268.894 349.5,263.5C 354.172,257.498 359.172,251.831 364.5,246.5 Z"/></g>
<g><path style="opacity:1" fill="#791ae9" d="M 93.5,256.5 C 99.1238,261.968 104.29,267.968 109,274.5C 118.417,284.754 128.583,294.088 139.5,302.5C 140.521,301.998 140.688,301.332 140,300.5C 129.5,286 119,271.5 108.5,257C 108.728,256.601 109.062,256.435 109.5,256.5C 115.934,264.507 122.268,272.674 128.5,281C 131.146,281.497 133.813,281.664 136.5,281.5C 160.655,313.899 190.322,338.732 225.5,356C 230.951,358.595 236.618,360.595 242.5,362C 232.936,360.593 223.269,360.26 213.5,361C 221.437,365.802 229.77,369.802 238.5,373C 235.015,373.326 231.682,372.826 228.5,371.5C 226.447,371.598 224.78,370.931 223.5,369.5C 223.631,368.624 223.298,367.957 222.5,367.5C 215.179,364.175 208.179,360.341 201.5,356C 199.527,355.505 197.527,355.338 195.5,355.5C 192.008,354.59 189.008,352.924 186.5,350.5C 186.586,349.504 186.252,348.671 185.5,348C 155.704,330.045 129.37,307.878 106.5,281.5C 108.857,281.663 111.19,281.497 113.5,281C 105.864,273.54 99.1973,265.373 93.5,256.5 Z"/></g>
<g><path style="opacity:1" fill="#791ae9" d="M 403.5,256.5 C 403.938,256.435 404.272,256.601 404.5,257C 392.833,272 381.167,287 369.5,302C 369.833,302.167 370.167,302.333 370.5,302.5C 374.513,300.494 378.18,297.994 381.5,295C 394.505,282.501 406.839,269.668 418.5,256.5C 412.084,265.089 405.084,273.255 397.5,281C 399.81,281.497 402.143,281.663 404.5,281.5C 400.004,286.164 395.67,290.998 391.5,296C 386.998,299.67 382.665,303.503 378.5,307.5C 346.657,336.098 310.657,358.098 270.5,373.5C 278.134,369.36 286.468,365.193 295.5,361C 288.833,360.333 282.167,360.333 275.5,361C 270.307,362.968 264.974,363.634 259.5,363C 267.965,362.217 275.965,359.884 283.5,356C 283.167,355.667 282.833,355.333 282.5,355C 318.933,337.736 349.6,313.236 374.5,281.5C 374.833,281.5 375.167,281.5 375.5,281.5C 378.187,281.664 380.854,281.497 383.5,281C 390.066,272.671 396.733,264.505 403.5,256.5 Z"/></g>
<g><path style="opacity:1" fill="#6e17d9" d="M 211.5,246.5 C 213.404,249.534 214.738,252.867 215.5,256.5C 214.761,256.369 214.094,256.536 213.5,257C 214.24,258.785 214.907,260.618 215.5,262.5C 214.415,265.773 214.248,269.106 215,272.5C 217.23,283.517 220.063,294.35 223.5,305C 222.773,306.399 222.273,307.899 222,309.5C 221.329,308.748 220.496,308.414 219.5,308.5C 215.167,305.833 210.833,303.167 206.5,300.5C 206.5,300.167 206.5,299.833 206.5,299.5C 210.768,300.916 212.768,299.249 212.5,294.5C 209.93,284.053 207.597,273.553 205.5,263C 205.327,258.161 207.161,254.328 211,251.5C 210.904,249.619 211.071,247.953 211.5,246.5 Z"/></g>
<g><path style="opacity:0.319" fill="#803cd4" d="M 451.5,255.5 C 452.043,255.56 452.376,255.893 452.5,256.5C 449.764,259.903 446.764,262.903 443.5,265.5C 445.794,261.873 448.46,258.539 451.5,255.5 Z"/></g>
<g><path style="opacity:0.275" fill="#5611aa" d="M 430.5,258.5 C 430.833,258.5 431.167,258.5 431.5,258.5C 418.22,275.688 403.554,291.688 387.5,306.5C 387.158,305.662 386.492,305.328 385.5,305.5C 398.834,293.332 411.334,280.332 423,266.5C 423.483,265.552 423.649,264.552 423.5,263.5C 426.056,262.298 428.389,260.631 430.5,258.5 Z"/></g>
<g><path style="opacity:0.484" fill="#490f92" d="M 239.5,259.5 C 239.833,259.5 240.167,259.5 240.5,259.5C 244.262,261.413 247.929,263.579 251.5,266C 254.741,266.793 257.741,266.293 260.5,264.5C 261.167,264.5 261.5,264.833 261.5,265.5C 258.876,267.652 255.876,268.485 252.5,268C 247.721,265.697 243.387,262.864 239.5,259.5 Z"/></g>
<g><path style="opacity:1" fill="#7518eb" d="M 384.5,203.5 C 384.918,204.222 385.584,204.722 386.5,205C 384.041,208.75 381.708,212.583 379.5,216.5C 379.863,217.183 380.196,217.85 380.5,218.5C 376.274,225.331 371.774,231.997 367,238.5C 366.51,239.793 366.343,241.127 366.5,242.5C 365.655,243.671 364.989,245.005 364.5,246.5C 359.172,251.831 354.172,257.498 349.5,263.5C 344.11,268.894 338.444,273.894 332.5,278.5C 330.804,278.685 329.471,279.519 328.5,281C 326.167,281.333 323.833,281.667 321.5,282C 322.5,282.333 323.5,282.667 324.5,283C 321.011,285.826 317.178,287.993 313,289.5C 311.129,289.291 309.962,288.291 309.5,286.5C 310.246,285.264 310.579,283.93 310.5,282.5C 311.873,282.657 313.207,282.49 314.5,282C 312.744,281.798 311.078,281.298 309.5,280.5C 312.541,272.876 314.875,265.043 316.5,257C 316.243,249.406 313.243,243.239 307.5,238.5C 308.167,237.167 308.833,235.833 309.5,234.5C 309.043,233.702 308.376,233.369 307.5,233.5C 308.345,230.457 309.345,227.457 310.5,224.5C 311.338,224.158 311.672,223.492 311.5,222.5C 311.767,225.372 312.101,228.372 312.5,231.5C 320.947,237.215 324.281,245.215 322.5,255.5C 330.174,255.666 337.841,255.5 345.5,255C 349.333,250.5 353.167,246 357,241.5C 365.955,228.551 375.122,215.885 384.5,203.5 Z"/></g>
<g><path style="opacity:0.488" fill="#5210a6" d="M 493.5,213.5 C 494.5,213.5 495.5,213.5 496.5,213.5C 489.229,227.276 481.729,240.943 474,254.5C 468.637,262.017 463.137,269.35 457.5,276.5C 456.833,276.5 456.167,276.5 455.5,276.5C 462.55,266.762 469.383,256.762 476,246.5C 478.8,242.566 480.8,238.232 482,233.5C 485.852,230.631 488.019,226.797 488.5,222C 490.916,220.526 491.916,218.36 491.5,215.5C 492.167,214.833 492.833,214.167 493.5,213.5 Z"/></g>
<g><path style="opacity:0.745" fill="#7e36d8" d="M 68.5,261.5 C 76.454,272.123 84.7873,282.456 93.5,292.5C 92.8333,292.5 92.1667,292.5 91.5,292.5C 82.7756,282.78 74.4423,272.78 66.5,262.5C 66.9569,261.702 67.6236,261.369 68.5,261.5 Z"/></g>
<g><path style="opacity:0.988" fill="#7d38d3" d="M 441.5,268.5 C 442.043,268.56 442.376,268.893 442.5,269.5C 440.429,270.976 439.429,272.976 439.5,275.5C 438.448,275.351 437.448,275.517 436.5,276C 435.206,278.087 434.039,280.254 433,282.5C 430.1,283.737 427.6,285.404 425.5,287.5C 430.608,280.932 435.942,274.599 441.5,268.5 Z"/></g>
<g><path style="opacity:1" fill="#6a17ce" d="M 215.5,256.5 C 218.773,262.997 221.439,269.664 223.5,276.5C 222.371,278.628 222.204,280.961 223,283.5C 225.869,292.441 228.536,301.441 231,310.5C 231.78,312.387 231.613,314.054 230.5,315.5C 226.317,313.913 222.65,311.579 219.5,308.5C 220.496,308.414 221.329,308.748 222,309.5C 222.273,307.899 222.773,306.399 223.5,305C 220.063,294.35 217.23,283.517 215,272.5C 214.248,269.106 214.415,265.773 215.5,262.5C 214.907,260.618 214.24,258.785 213.5,257C 214.094,256.536 214.761,256.369 215.5,256.5 Z"/></g>
<g><path style="opacity:1" fill="#6e18d1" d="M 91.5,292.5 C 92.1667,292.5 92.8333,292.5 93.5,292.5C 95.6143,297.737 99.281,301.404 104.5,303.5C 105.974,304.436 106.974,305.77 107.5,307.5C 108.539,309.531 110.205,310.864 112.5,311.5C 113.5,311.833 114.167,312.5 114.5,313.5C 116.892,318.225 120.559,321.558 125.5,323.5C 140.751,337.715 157.751,349.715 176.5,359.5C 177.298,359.957 177.631,360.624 177.5,361.5C 181.095,365.611 185.262,369.945 190,374.5C 190.415,377.707 190.082,380.707 189,383.5C 191.934,385.518 194.434,387.852 196.5,390.5C 189.803,387.483 183.136,384.483 176.5,381.5C 170.26,377.131 163.593,373.297 156.5,370C 136.208,357.21 117.208,342.71 99.5,326.5C 94.2029,320.702 88.7029,315.035 83,309.5C 82.5172,308.552 82.3505,307.552 82.5,306.5C 81.1779,306.67 80.0113,306.337 79,305.5C 77.0281,301.895 74.3615,298.895 71,296.5C 70.6667,295.167 70.3333,293.833 70,292.5C 66.2858,290.287 63.4525,287.287 61.5,283.5C 66.0815,282.393 70.7481,282.227 75.5,283C 78.5,286.667 81.5,290.333 84.5,294C 87.1667,294.667 89.8333,294.667 92.5,294C 91.944,293.617 91.6107,293.117 91.5,292.5 Z"/></g>
<g><path style="opacity:0.367" fill="#5812af" d="M 61.5,232.5 C 62.552,232.351 63.552,232.517 64.5,233C 73.6562,247.715 84.1562,261.549 96,274.5C 96.6667,277.833 98.6667,279.833 102,280.5C 105.136,284.643 108.302,288.809 111.5,293C 112.448,293.483 113.448,293.649 114.5,293.5C 115.16,297.512 117.494,299.512 121.5,299.5C 121.351,300.552 121.517,301.552 122,302.5C 125.003,305.067 127.836,307.734 130.5,310.5C 129.833,310.5 129.167,310.5 128.5,310.5C 115.188,299.188 102.854,286.854 91.5,273.5C 81.2583,260.019 71.2583,246.353 61.5,232.5 Z"/></g>
<g><path style="opacity:1" fill="#8645d6" d="M 424.5,288.5 C 424.938,288.435 425.272,288.601 425.5,289C 423.886,291.127 421.886,292.627 419.5,293.5C 420.833,291.5 422.5,289.833 424.5,288.5 Z"/></g>
<g><path style="opacity:1" fill="#6916cf" d="M 298.5,255.5 C 300.124,255.36 301.29,256.027 302,257.5C 302.667,260.833 302.667,264.167 302,267.5C 297.894,279.713 293.227,291.713 288,303.5C 287.229,306.859 286.395,310.192 285.5,313.5C 285.624,314.107 285.957,314.44 286.5,314.5C 284.322,315.979 281.988,317.312 279.5,318.5C 277.656,317.796 277.156,316.463 278,314.5C 281.5,303.832 285.833,293.498 291,283.5C 293.499,276.737 294.999,270.07 295.5,263.5C 295.903,260.514 296.903,257.848 298.5,255.5 Z"/></g>
<g><path style="opacity:0.782" fill="#8743da" d="M 93.5,292.5 C 97.5,295.833 101.167,299.5 104.5,303.5C 99.281,301.404 95.6143,297.737 93.5,292.5 Z"/></g>
<g><path style="opacity:0.855" fill="#8644d5" d="M 418.5,294.5 C 419.043,294.56 419.376,294.893 419.5,295.5C 416.828,297.673 414.494,300.173 412.5,303C 410.595,304.421 408.595,305.588 406.5,306.5C 410.452,302.548 414.452,298.548 418.5,294.5 Z"/></g>
<g><path style="opacity:0.505" fill="#9152dd" d="M 107.5,307.5 C 109.749,308.08 111.415,309.413 112.5,311.5C 110.205,310.864 108.539,309.531 107.5,307.5 Z"/></g>
<g><path style="opacity:1" fill="#791ae5" d="M 136.5,281.5 C 137.978,281.238 139.311,281.571 140.5,282.5C 146.573,291.078 153.573,298.911 161.5,306C 162.448,306.483 163.448,306.649 164.5,306.5C 164.833,306.5 165.167,306.5 165.5,306.5C 175.804,317.972 187.47,327.805 200.5,336C 213.799,343.483 227.466,350.15 241.5,356C 253.744,359.632 265.411,358.298 276.5,352C 286.175,345.827 296.175,340.16 306.5,335C 319.892,326.437 332.559,316.937 344.5,306.5C 345.552,306.649 346.552,306.483 347.5,306C 355.5,298 363.5,290 371.5,282C 372.448,281.517 373.448,281.351 374.5,281.5C 349.6,313.236 318.933,337.736 282.5,355C 282.833,355.333 283.167,355.667 283.5,356C 275.965,359.884 267.965,362.217 259.5,363C 264.974,363.634 270.307,362.968 275.5,361C 282.167,360.333 288.833,360.333 295.5,361C 286.468,365.193 278.134,369.36 270.5,373.5C 268.082,374.293 266.082,375.626 264.5,377.5C 260.119,379.904 255.453,380.737 250.5,380C 242.629,378.216 235.295,375.382 228.5,371.5C 231.682,372.826 235.015,373.326 238.5,373C 229.77,369.802 221.437,365.802 213.5,361C 223.269,360.26 232.936,360.593 242.5,362C 236.618,360.595 230.951,358.595 225.5,356C 190.322,338.732 160.655,313.899 136.5,281.5 Z"/></g>
<g><path style="opacity:1" fill="#7419dd" d="M 365.5,282.5 C 358.478,290.52 351.478,298.52 344.5,306.5C 332.559,316.937 319.892,326.437 306.5,335C 296.175,340.16 286.175,345.827 276.5,352C 265.411,358.298 253.744,359.632 241.5,356C 227.466,350.15 213.799,343.483 200.5,336C 187.47,327.805 175.804,317.972 165.5,306.5C 166.833,306.5 168.167,306.5 169.5,306.5C 193.464,329.989 221.797,345.989 254.5,354.5C 269.141,352.346 281.808,346.179 292.5,336C 312.217,326.316 329.551,313.483 344.5,297.5C 351.451,294.07 357.451,289.237 362.5,283C 363.448,282.517 364.448,282.351 365.5,282.5 Z"/></g>
<g><path style="opacity:0.976" fill="#8a49d6" d="M 405.5,307.5 C 406.773,308.077 406.773,308.743 405.5,309.5C 403.929,311.415 401.929,312.415 399.5,312.5C 401.46,310.844 403.46,309.177 405.5,307.5 Z"/></g>
<g><path style="opacity:0.024" fill="#5211a1" d="M 47.5,265.5 C 52.1565,271.465 56.8232,277.465 61.5,283.5C 63.4525,287.287 66.2858,290.287 70,292.5C 70.3333,293.833 70.6667,295.167 71,296.5C 74.3615,298.895 77.0281,301.895 79,305.5C 80.0113,306.337 81.1779,306.67 82.5,306.5C 82.3505,307.552 82.5172,308.552 83,309.5C 88.7029,315.035 94.2029,320.702 99.5,326.5C 98.8333,326.5 98.5,326.833 98.5,327.5C 88.4508,318.285 78.9508,308.618 70,298.5C 61.949,287.955 54.1156,277.289 46.5,266.5C 46.5,265.833 46.8333,265.5 47.5,265.5 Z"/></g>
<g><path style="opacity:0.295" fill="#8a46db" d="M 114.5,313.5 C 118.791,316.123 122.457,319.456 125.5,323.5C 120.559,321.558 116.892,318.225 114.5,313.5 Z"/></g>
<g><path style="opacity:0.573" fill="#8b49d7" d="M 398.5,313.5 C 397.593,316.131 395.593,318.465 392.5,320.5C 386.828,325.173 381.161,329.84 375.5,334.5C 373.023,336.334 370.357,337.667 367.5,338.5C 378.098,330.576 388.431,322.243 398.5,313.5 Z"/></g>
<g><path style="opacity:1" fill="#6c18cc" d="M 392.5,320.5 C 392.649,321.552 392.483,322.552 392,323.5C 389.684,325.47 387.851,327.804 386.5,330.5C 392.48,329.461 397.814,326.628 402.5,322C 406.882,321.708 411.215,321.208 415.5,320.5C 413.581,322.82 411.581,325.153 409.5,327.5C 403.479,332.505 397.479,337.505 391.5,342.5C 382.495,349.002 373.495,355.502 364.5,362C 358.429,366.034 352.096,369.534 345.5,372.5C 345.414,371.504 345.748,370.671 346.5,370C 344.02,369.04 341.52,368.207 339,367.5C 340.41,360.756 344.577,356.59 351.5,355C 355.42,351.251 359.086,347.417 362.5,343.5C 364.041,342.333 365.375,341 366.5,339.5C 366.5,338.833 366.833,338.5 367.5,338.5C 370.357,337.667 373.023,336.334 375.5,334.5C 381.161,329.84 386.828,325.173 392.5,320.5 Z"/></g>
<g><path style="opacity:0.541" fill="#4f1198" d="M 455.5,276.5 C 456.167,276.5 456.833,276.5 457.5,276.5C 438.842,301.823 417.176,324.157 392.5,343.5C 392.5,342.833 392.167,342.5 391.5,342.5C 397.479,337.505 403.479,332.505 409.5,327.5C 411.581,325.153 413.581,322.82 415.5,320.5C 430.251,307.084 443.584,292.417 455.5,276.5 Z"/></g>
<g><path style="opacity:1" fill="#7018d8" d="M 390.5,241.5 C 387.794,246.386 384.461,250.886 380.5,255C 380.833,255.333 381.167,255.667 381.5,256C 369.701,270.3 357.368,284.133 344.5,297.5C 329.551,313.483 312.217,326.316 292.5,336C 281.808,346.179 269.141,352.346 254.5,354.5C 221.797,345.989 193.464,329.989 169.5,306.5C 161.199,296.585 153.366,286.252 146,275.5C 143.893,271.619 142.059,267.619 140.5,263.5C 141.193,262.482 141.859,261.482 142.5,260.5C 143.5,260.5 144.5,260.5 145.5,260.5C 146.167,260.5 146.5,260.833 146.5,261.5C 145.475,261.897 145.308,262.563 146,263.5C 147.451,265.464 149.284,266.797 151.5,267.5C 151.833,268.167 152.167,268.833 152.5,269.5C 151.668,270.329 152.001,271.162 153.5,272C 154.745,272.791 156.078,273.291 157.5,273.5C 158.401,274.29 159.068,275.29 159.5,276.5C 158.957,276.56 158.624,276.893 158.5,277.5C 161.881,280.881 165.215,284.215 168.5,287.5C 168.248,290.32 168.748,292.986 170,295.5C 180.85,311.511 195.017,323.678 212.5,332C 211.167,332.333 209.833,332.667 208.5,333C 211.044,334.092 213.711,334.759 216.5,335C 223.663,338.747 230.663,342.747 237.5,347C 260.663,355.239 277.329,348.406 287.5,326.5C 290.784,324.708 293.784,322.708 296.5,320.5C 296.5,319.833 296.833,319.5 297.5,319.5C 298.873,319.657 300.207,319.49 301.5,319C 309.374,313.237 317.374,307.737 325.5,302.5C 327.533,301.248 329.2,299.581 330.5,297.5C 334.093,297.074 336.26,295.074 337,291.5C 340.883,288.689 344.55,285.689 348,282.5C 349.421,280.595 350.588,278.595 351.5,276.5C 355.389,274.286 358.723,271.286 361.5,267.5C 361.376,266.893 361.043,266.56 360.5,266.5C 360.5,266.167 360.5,265.833 360.5,265.5C 361.552,265.649 362.552,265.483 363.5,265C 370.4,258.245 376.734,251.078 382.5,243.5C 385.513,243.893 388.18,243.226 390.5,241.5 Z"/></g>
<g><path style="opacity:0.486" fill="#480f8b" d="M 205.5,300.5 C 205.833,300.5 206.167,300.5 206.5,300.5C 210.833,303.167 215.167,305.833 219.5,308.5C 222.65,311.579 226.317,313.913 230.5,315.5C 232.975,318.241 235.975,320.241 239.5,321.5C 242.026,323.454 244.693,325.121 247.5,326.5C 242.1,325.472 237.1,323.305 232.5,320C 223.069,313.965 214.069,307.465 205.5,300.5 Z"/></g>
<g><path style="opacity:0.392" fill="#4d1094" d="M 303.5,304.5 C 304.167,304.5 304.5,304.833 304.5,305.5C 294.835,312.002 284.835,318.002 274.5,323.5C 274.5,322.833 274.167,322.5 273.5,322.5C 275.5,321.167 277.5,319.833 279.5,318.5C 281.988,317.312 284.322,315.979 286.5,314.5C 291.706,312.285 296.373,309.285 300.5,305.5C 301.391,304.89 302.391,304.557 303.5,304.5 Z"/></g>
<g><path style="opacity:1" fill="#6620ba" d="M 271.5,322.5 C 269.11,324.02 266.443,325.02 263.5,325.5C 263.388,323.129 263.554,320.795 264,318.5C 272.964,304.897 281.131,290.897 288.5,276.5C 289.363,275.537 290.03,275.537 290.5,276.5C 285.211,286.676 279.711,296.676 274,306.5C 273.002,311.661 271.502,316.661 269.5,321.5C 269.957,322.298 270.624,322.631 271.5,322.5 Z"/></g>
<g><path style="opacity:1" fill="#631cb7" d="M 233.5,295.5 C 236.828,301.83 240.162,308.164 243.5,314.5C 242.957,314.56 242.624,314.893 242.5,315.5C 243.94,316.952 245.606,317.952 247.5,318.5C 248.216,320.556 248.883,322.723 249.5,325C 248.956,325.717 248.289,326.217 247.5,326.5C 244.693,325.121 242.026,323.454 239.5,321.5C 240.043,321.44 240.376,321.107 240.5,320.5C 238.768,311.797 235.768,303.63 231.5,296C 232.094,295.536 232.761,295.369 233.5,295.5 Z"/></g>
<g><path style="opacity:0.843" fill="#8d4cdb" d="M 190.5,304.5 C 194.545,307.56 198.545,310.56 202.5,313.5C 200.692,313.509 199.025,313.009 197.5,312C 194.883,309.558 192.55,307.058 190.5,304.5 Z"/></g>
<g><path style="opacity:0.404" fill="#924fe2" d="M 325.5,300.5 C 325.5,301.167 325.5,301.833 325.5,302.5C 317.374,307.737 309.374,313.237 301.5,319C 300.207,319.49 298.873,319.657 297.5,319.5C 306.828,313.174 316.162,306.841 325.5,300.5 Z"/></g>
<g><path style="opacity:0.169" fill="#8e4ddc" d="M 184.5,300.5 C 186.777,301.449 188.777,302.782 190.5,304.5C 187.663,304.316 185.663,302.982 184.5,300.5 Z"/></g>
<g><path style="opacity:0.549" fill="#8d4bdd" d="M 178.5,294.5 C 180.525,296.196 182.525,297.863 184.5,299.5C 181.288,299.288 179.288,297.621 178.5,294.5 Z"/></g>
<g><path style="opacity:1" fill="#6e19d2" d="M 168.5,287.5 C 170.974,290.31 173.974,292.31 177.5,293.5C 178.167,293.5 178.5,293.833 178.5,294.5C 179.288,297.621 181.288,299.288 184.5,299.5C 184.5,299.833 184.5,300.167 184.5,300.5C 185.663,302.982 187.663,304.316 190.5,304.5C 192.55,307.058 194.883,309.558 197.5,312C 199.025,313.009 200.692,313.509 202.5,313.5C 203.475,315.193 204.808,316.693 206.5,318C 211.629,321.313 216.963,324.146 222.5,326.5C 233.779,345.982 249.779,351.482 270.5,343C 274.858,339.774 277.858,335.608 279.5,330.5C 282.005,328.989 284.672,327.655 287.5,326.5C 277.329,348.406 260.663,355.239 237.5,347C 230.663,342.747 223.663,338.747 216.5,335C 213.711,334.759 211.044,334.092 208.5,333C 209.833,332.667 211.167,332.333 212.5,332C 195.017,323.678 180.85,311.511 170,295.5C 168.748,292.986 168.248,290.32 168.5,287.5 Z"/></g>
<g><path style="opacity:1" fill="#863ddf" d="M 351.5,276.5 C 350.588,278.595 349.421,280.595 348,282.5C 344.55,285.689 340.883,288.689 337,291.5C 336.26,295.074 334.093,297.074 330.5,297.5C 329.2,299.581 327.533,301.248 325.5,302.5C 325.5,301.833 325.5,301.167 325.5,300.5C 333.866,292.132 342.533,284.132 351.5,276.5 Z"/></g>
<g><path style="opacity:1" fill="#6518c2" d="M 223.5,276.5 C 227.19,282.508 230.523,288.842 233.5,295.5C 232.761,295.369 232.094,295.536 231.5,296C 235.768,303.63 238.768,311.797 240.5,320.5C 240.376,321.107 240.043,321.44 239.5,321.5C 235.975,320.241 232.975,318.241 230.5,315.5C 231.613,314.054 231.78,312.387 231,310.5C 228.536,301.441 225.869,292.441 223,283.5C 222.204,280.961 222.371,278.628 223.5,276.5 Z"/></g>
<g><path style="opacity:0.539" fill="#8944dd" d="M 159.5,276.5 C 165.526,282.195 171.526,287.861 177.5,293.5C 173.974,292.31 170.974,290.31 168.5,287.5C 165.215,284.215 161.881,280.881 158.5,277.5C 158.624,276.893 158.957,276.56 159.5,276.5 Z"/></g>
<g><path style="opacity:0.729" fill="#8840df" d="M 360.5,266.5 C 361.043,266.56 361.376,266.893 361.5,267.5C 358.723,271.286 355.389,274.286 351.5,276.5C 353.795,272.538 356.795,269.205 360.5,266.5 Z"/></g>
<g><path style="opacity:0.331" fill="#5211a3" d="M 164.5,265.5 C 166.001,266.752 167.668,267.752 169.5,268.5C 180.937,279.94 193.271,290.274 206.5,299.5C 206.5,299.833 206.5,300.167 206.5,300.5C 206.167,300.5 205.833,300.5 205.5,300.5C 190.607,290.274 176.607,278.94 163.5,266.5C 163.5,265.833 163.833,265.5 164.5,265.5 Z"/></g>
<g><path style="opacity:1" fill="#6518c3" d="M 295.5,263.5 C 294.999,270.07 293.499,276.737 291,283.5C 285.833,293.498 281.5,303.832 278,314.5C 277.156,316.463 277.656,317.796 279.5,318.5C 277.5,319.833 275.5,321.167 273.5,322.5C 272.833,322.5 272.167,322.5 271.5,322.5C 270.624,322.631 269.957,322.298 269.5,321.5C 271.502,316.661 273.002,311.661 274,306.5C 279.711,296.676 285.211,286.676 290.5,276.5C 290.03,275.537 289.363,275.537 288.5,276.5C 290.428,271.917 292.761,267.584 295.5,263.5 Z"/></g>
<g><path style="opacity:0.676" fill="#8f4ee1" d="M 152.5,269.5 C 154.754,270.124 156.421,271.457 157.5,273.5C 156.078,273.291 154.745,272.791 153.5,272C 152.001,271.162 151.668,270.329 152.5,269.5 Z"/></g>
<g><path style="opacity:0.898" fill="#853de0" d="M 146.5,261.5 C 148.514,263.183 150.18,265.183 151.5,267.5C 149.284,266.797 147.451,265.464 146,263.5C 145.308,262.563 145.475,261.897 146.5,261.5 Z"/></g>
<g><path style="opacity:1" fill="#9150db" d="M 366.5,339.5 C 365.375,341 364.041,342.333 362.5,343.5C 358.007,347.164 353.007,349.831 347.5,351.5C 353.656,347.253 359.99,343.253 366.5,339.5 Z"/></g>
<g><path style="opacity:0.608" fill="#9350df" d="M 125.5,323.5 C 134.487,330.149 143.487,336.816 152.5,343.5C 166.065,351.779 179.732,359.779 193.5,367.5C 188.167,365.5 182.833,363.5 177.5,361.5C 177.631,360.624 177.298,359.957 176.5,359.5C 157.751,349.715 140.751,337.715 125.5,323.5 Z"/></g>
<g><path style="opacity:1" fill="#771ae1" d="M 378.5,307.5 C 378.833,308.167 379.167,308.833 379.5,309.5C 345.831,340.164 307.498,362.83 264.5,377.5C 266.082,375.626 268.082,374.293 270.5,373.5C 310.657,358.098 346.657,336.098 378.5,307.5 Z"/></g>
<g><path style="opacity:0.29" fill="#52129b" d="M 385.5,305.5 C 386.492,305.328 387.158,305.662 387.5,306.5C 348.716,341.817 304.216,367.484 254,383.5C 206.965,367.745 165.132,343.412 128.5,310.5C 129.167,310.5 129.833,310.5 130.5,310.5C 147.797,325.809 166.464,339.143 186.5,350.5C 189.008,352.924 192.008,354.59 195.5,355.5C 204.047,361.478 213.381,366.144 223.5,369.5C 224.78,370.931 226.447,371.598 228.5,371.5C 235.295,375.382 242.629,378.216 250.5,380C 255.453,380.737 260.119,379.904 264.5,377.5C 307.498,362.83 345.831,340.164 379.5,309.5C 381.777,308.551 383.777,307.218 385.5,305.5 Z"/></g>
<g><path style="opacity:1" fill="#751adc" d="M 195.5,355.5 C 197.527,355.338 199.527,355.505 201.5,356C 208.179,360.341 215.179,364.175 222.5,367.5C 223.298,367.957 223.631,368.624 223.5,369.5C 213.381,366.144 204.047,361.478 195.5,355.5 Z"/></g>
<g><path style="opacity:1" fill="#9558db" d="M 296.5,320.5 C 293.784,322.708 290.784,324.708 287.5,326.5C 284.672,327.655 282.005,328.989 279.5,330.5C 276.828,331.501 274.162,332.501 271.5,333.5C 270.167,333.833 268.833,334.167 267.5,334.5C 267.5,334.167 267.5,333.833 267.5,333.5C 277.251,329.46 286.918,325.126 296.5,320.5 Z"/></g>
<g><path style="opacity:1" fill="#6b18cb" d="M 222.5,326.5 C 226.683,328.757 231.016,330.757 235.5,332.5C 239.392,340.379 245.892,344.379 255,344.5C 263.09,344.393 268.59,340.726 271.5,333.5C 274.162,332.501 276.828,331.501 279.5,330.5C 277.858,335.608 274.858,339.774 270.5,343C 249.779,351.482 233.779,345.982 222.5,326.5 Z"/></g>
<g><path style="opacity:1" fill="#6819c4" d="M 235.5,332.5 C 238.056,333.051 240.389,334.051 242.5,335.5C 246.468,336.475 250.468,337.475 254.5,338.5C 258.998,337.299 263.331,335.965 267.5,334.5C 268.833,334.167 270.167,333.833 271.5,333.5C 268.59,340.726 263.09,344.393 255,344.5C 245.892,344.379 239.392,340.379 235.5,332.5 Z"/></g>
<g><path style="opacity:0.831" fill="#935dd1" d="M 267.5,333.5 C 267.5,333.833 267.5,334.167 267.5,334.5C 263.331,335.965 258.998,337.299 254.5,338.5C 250.468,337.475 246.468,336.475 242.5,335.5C 242.5,335.167 242.5,334.833 242.5,334.5C 246.696,334.923 250.863,335.59 255,336.5C 259.201,335.599 263.368,334.599 267.5,333.5 Z"/></g>
<g><path style="opacity:1" fill="#9255d9" d="M 202.5,313.5 C 206.612,315.728 210.612,318.228 214.5,321C 223.956,325.42 233.29,329.92 242.5,334.5C 242.5,334.833 242.5,335.167 242.5,335.5C 240.389,334.051 238.056,333.051 235.5,332.5C 231.016,330.757 226.683,328.757 222.5,326.5C 216.963,324.146 211.629,321.313 206.5,318C 204.808,316.693 203.475,315.193 202.5,313.5 Z"/></g>
<g><path style="opacity:0.404" fill="#410e7c" d="M 271.5,322.5 C 272.167,322.5 272.833,322.5 273.5,322.5C 274.167,322.5 274.5,322.833 274.5,323.5C 271.86,324.82 269.193,326.153 266.5,327.5C 265.261,327.058 264.261,326.391 263.5,325.5C 266.443,325.02 269.11,324.02 271.5,322.5 Z"/></g>
<g><path style="opacity:0.663" fill="#8048c3" d="M 243.5,314.5 C 245.167,315.5 246.5,316.833 247.5,318.5C 245.606,317.952 243.94,316.952 242.5,315.5C 242.624,314.893 242.957,314.56 243.5,314.5 Z"/></g>
<g><path style="opacity:1" fill="#751bd6" d="M 177.5,361.5 C 182.833,363.5 188.167,365.5 193.5,367.5C 194.343,369.173 195.676,370.34 197.5,371C 201.649,373.077 205.983,374.577 210.5,375.5C 225.025,382.623 240.192,388.29 256,392.5C 263.739,390.09 271.239,387.423 278.5,384.5C 288.316,381.561 297.983,378.228 307.5,374.5C 307.938,374.435 308.272,374.601 308.5,375C 300.222,380.278 292.222,385.945 284.5,392C 280.933,397.722 276.6,402.555 271.5,406.5C 269.176,407.656 266.843,408.656 264.5,409.5C 260.793,409.919 257.293,410.919 254,412.5C 234.082,406.81 214.915,399.477 196.5,390.5C 194.434,387.852 191.934,385.518 189,383.5C 190.082,380.707 190.415,377.707 190,374.5C 185.262,369.945 181.095,365.611 177.5,361.5 Z"/></g>
<g><path style="opacity:1" fill="#711ad1" d="M 362.5,343.5 C 359.086,347.417 355.42,351.251 351.5,355C 344.577,356.59 340.41,360.756 339,367.5C 341.52,368.207 344.02,369.04 346.5,370C 345.748,370.671 345.414,371.504 345.5,372.5C 322.231,386.284 297.565,397.618 271.5,406.5C 276.6,402.555 280.933,397.722 284.5,392C 292.222,385.945 300.222,380.278 308.5,375C 308.272,374.601 307.938,374.435 307.5,374.5C 309.167,373.167 310.833,371.833 312.5,370.5C 320.226,367.474 327.893,364.141 335.5,360.5C 339.842,358.521 343.508,355.855 346.5,352.5C 346.5,351.833 346.833,351.5 347.5,351.5C 353.007,349.831 358.007,347.164 362.5,343.5 Z"/></g>
<g><path style="opacity:0.675" fill="#9553de" d="M 346.5,352.5 C 343.508,355.855 339.842,358.521 335.5,360.5C 327.893,364.141 320.226,367.474 312.5,370.5C 323.794,364.518 335.127,358.518 346.5,352.5 Z"/></g>
<g><path style="opacity:0.512" fill="#9855e2" d="M 193.5,367.5 C 199.539,369.401 205.206,372.067 210.5,375.5C 205.983,374.577 201.649,373.077 197.5,371C 195.676,370.34 194.343,369.173 193.5,367.5 Z"/></g>
<g><path style="opacity:0.353" fill="#4d1191" d="M 99.5,326.5 C 117.208,342.71 136.208,357.21 156.5,370C 163.593,373.297 170.26,377.131 176.5,381.5C 175.833,381.5 175.5,381.833 175.5,382.5C 147.281,367.594 121.614,349.261 98.5,327.5C 98.5,326.833 98.8333,326.5 99.5,326.5 Z"/></g>
<g><path style="opacity:0.549" fill="#9e5ee3" d="M 312.5,370.5 C 310.833,371.833 309.167,373.167 307.5,374.5C 297.983,378.228 288.316,381.561 278.5,384.5C 289.676,379.658 301.01,374.991 312.5,370.5 Z"/></g>
<g><path style="opacity:0.843" fill="#9f5ee5" d="M 210.5,375.5 C 225.51,381.254 240.676,386.587 256,391.5C 263.284,388.461 270.784,386.127 278.5,384.5C 271.239,387.423 263.739,390.09 256,392.5C 240.192,388.29 225.025,382.623 210.5,375.5 Z"/></g>
<g><path style="opacity:0.212" fill="#4c118d" d="M 391.5,342.5 C 392.167,342.5 392.5,342.833 392.5,343.5C 354.881,373.306 312.881,395.639 266.5,410.5C 266.158,409.662 265.492,409.328 264.5,409.5C 266.843,408.656 269.176,407.656 271.5,406.5C 297.565,397.618 322.231,386.284 345.5,372.5C 352.096,369.534 358.429,366.034 364.5,362C 373.495,355.502 382.495,349.002 391.5,342.5 Z"/></g>
<g><path style="opacity:0.255" fill="#491086" d="M 175.5,382.5 C 175.5,381.833 175.833,381.5 176.5,381.5C 183.136,384.483 189.803,387.483 196.5,390.5C 214.915,399.477 234.082,406.81 254,412.5C 257.293,410.919 260.793,409.919 264.5,409.5C 265.492,409.328 266.158,409.662 266.5,410.5C 262.186,411.327 258.02,412.66 254,414.5C 226.732,406.364 200.566,395.698 175.5,382.5 Z"/></g>
</svg>
