<svg id="svg" version="1.1" xmlns="http://www.w3.org/2000/svg" xmlns:xlink="http://www.w3.org/1999/xlink" width="400" height="400" viewBox="0, 0, 400,400"><g id="svgg"><path id="path0" d="M188.727 3.219 C 188.649 3.454,186.489 3.779,183.794 3.961 C 180.303 4.196,184.144 4.300,197.924 4.342 C 209.124 4.376,216.756 4.548,216.623 4.763 C 216.500 4.962,216.757 5.032,217.195 4.917 C 217.700 4.785,218.081 4.945,218.238 5.355 C 218.505 6.051,220.000 6.259,220.000 5.600 C 220.000 5.378,221.059 5.200,222.376 5.200 C 223.683 5.200,224.864 5.020,225.000 4.800 C 225.157 4.546,224.103 4.399,222.124 4.396 C 217.101 4.390,207.412 3.598,207.267 3.182 C 207.076 2.637,188.909 2.673,188.727 3.219 M225.061 5.500 C 224.958 5.665,225.872 5.737,227.091 5.660 L 229.307 5.520 228.354 6.567 C 227.829 7.143,226.815 8.235,226.100 8.994 C 225.385 9.752,224.800 10.471,224.800 10.589 C 224.800 10.708,221.515 14.129,217.500 18.190 C 213.485 22.252,209.789 26.031,209.286 26.588 C 208.783 27.145,208.104 27.600,207.777 27.600 C 207.451 27.600,204.125 30.705,200.388 34.500 C 196.651 38.295,193.076 41.916,192.443 42.547 C 177.000 57.952,175.600 59.386,175.600 59.795 C 175.600 59.917,172.720 62.890,169.200 66.400 C 165.680 69.910,162.800 72.972,162.800 73.204 C 162.800 73.437,162.170 74.257,161.400 75.027 C 160.630 75.797,160.000 76.601,160.000 76.813 C 160.000 77.026,159.644 77.200,159.208 77.200 C 158.023 77.200,144.520 90.777,145.247 91.238 C 145.551 91.430,158.085 91.591,173.100 91.594 L 200.400 91.600 200.400 98.400 L 200.400 105.200 146.900 105.296 C 117.475 105.349,101.639 105.440,111.709 105.500 L 130.019 105.608 128.709 106.982 C 127.037 108.738,126.400 109.511,126.400 109.786 C 126.400 110.072,110.072 126.400,109.786 126.400 C 109.379 126.400,103.028 132.603,92.945 142.847 C 92.535 143.264,91.255 144.492,90.100 145.576 C 88.945 146.661,88.000 147.741,88.000 147.978 C 88.000 148.214,85.570 150.837,82.600 153.807 C 79.630 156.777,77.200 159.387,77.200 159.606 C 77.200 160.239,61.669 175.600,61.029 175.600 C 60.713 175.600,60.340 175.960,60.200 176.400 C 60.060 176.840,59.779 177.200,59.576 177.200 C 59.372 177.200,55.712 180.728,51.443 185.041 C 47.174 189.353,43.528 193.036,43.341 193.224 C 43.153 193.413,39.535 196.992,35.300 201.176 C 31.065 205.361,27.600 208.974,27.600 209.205 C 27.600 209.810,12.496 224.800,11.886 224.800 C 11.606 224.800,11.112 225.184,10.788 225.654 C 10.465 226.123,9.969 226.708,9.687 226.954 C 7.649 228.728,6.090 230.304,5.875 230.807 C 5.735 231.133,5.655 230.860,5.696 230.200 C 5.737 229.540,5.653 228.809,5.509 228.576 C 5.365 228.343,5.209 226.858,5.163 225.276 C 5.102 223.189,4.933 222.400,4.546 222.400 C 4.117 222.400,3.991 220.224,3.900 211.300 L 3.787 200.200 3.693 211.476 C 3.634 218.665,3.745 222.842,4.000 223.000 C 4.220 223.136,4.400 224.587,4.400 226.224 C 4.400 227.941,4.569 229.200,4.800 229.200 C 5.022 229.200,5.200 230.267,5.200 231.600 C 5.200 232.933,5.378 234.000,5.600 234.000 C 5.822 234.000,6.000 235.067,6.000 236.400 C 6.000 237.733,6.178 238.800,6.400 238.800 C 6.620 238.800,6.800 239.610,6.800 240.600 C 6.800 241.590,6.980 242.400,7.200 242.400 C 7.420 242.400,7.600 243.120,7.600 244.000 C 7.600 244.880,7.757 245.600,7.948 245.600 C 8.226 245.600,8.961 250.557,8.810 251.412 C 8.789 251.531,9.050 251.907,9.389 252.247 C 9.729 252.586,9.905 253.030,9.780 253.232 C 9.655 253.435,9.743 253.600,9.976 253.600 C 10.209 253.600,10.400 254.140,10.400 254.800 C 10.400 255.460,10.580 256.000,10.800 256.000 C 11.020 256.000,11.200 256.324,11.200 256.720 C 11.200 257.614,12.094 259.593,12.500 259.597 C 12.665 259.599,12.800 260.140,12.800 260.800 C 12.800 261.460,12.980 262.000,13.200 262.000 C 13.420 262.000,13.600 262.360,13.600 262.800 C 13.600 263.240,13.780 263.600,14.000 263.600 C 14.220 263.600,14.400 263.960,14.400 264.400 C 14.400 264.840,14.580 265.200,14.800 265.200 C 15.020 265.200,15.200 265.560,15.200 266.000 C 15.200 266.440,15.380 266.800,15.600 266.800 C 15.820 266.800,16.000 267.160,16.000 267.600 C 16.000 268.040,16.180 268.400,16.400 268.400 C 16.620 268.400,16.800 268.720,16.800 269.112 C 16.800 269.503,17.160 270.083,17.600 270.400 C 18.040 270.717,18.400 271.257,18.400 271.600 C 18.400 271.943,18.760 272.483,19.200 272.800 C 19.640 273.117,20.000 273.587,20.000 273.843 C 20.000 274.100,20.538 274.735,21.196 275.255 C 21.854 275.775,22.394 276.431,22.396 276.713 C 22.398 276.996,23.030 277.857,23.800 278.627 C 24.570 279.397,25.200 280.201,25.200 280.413 C 25.200 280.626,25.500 280.800,25.867 280.800 C 26.233 280.800,26.435 280.898,26.315 281.018 C 26.000 281.334,31.863 287.200,32.494 287.200 C 32.785 287.200,33.283 287.560,33.600 288.000 C 33.917 288.440,34.457 288.800,34.800 288.800 C 35.143 288.800,35.683 289.160,36.000 289.600 C 36.317 290.040,36.897 290.400,37.288 290.400 C 37.680 290.400,38.000 290.564,38.000 290.765 C 38.000 290.966,38.720 291.251,39.600 291.400 C 40.480 291.549,41.200 291.834,41.200 292.035 C 41.200 292.236,41.470 292.400,41.800 292.400 C 42.130 292.400,42.400 292.580,42.400 292.800 C 42.400 293.020,42.940 293.200,43.600 293.200 C 44.260 293.200,44.800 293.380,44.800 293.600 C 44.800 293.820,45.340 294.000,46.000 294.000 C 46.660 294.000,47.200 294.180,47.200 294.400 C 47.200 294.620,47.920 294.800,48.800 294.800 C 49.680 294.800,50.400 294.980,50.400 295.200 C 50.400 295.422,51.467 295.600,52.800 295.600 C 54.133 295.600,55.200 295.778,55.200 296.000 C 55.200 296.261,61.533 296.400,73.400 296.400 L 91.600 296.400 91.600 270.424 C 91.600 253.537,91.740 244.361,92.000 244.200 C 92.220 244.064,92.400 242.703,92.400 241.176 C 92.400 239.592,92.572 238.400,92.800 238.400 C 93.020 238.400,93.200 237.590,93.200 236.600 C 93.200 235.610,93.380 234.800,93.600 234.800 C 93.820 234.800,94.000 234.080,94.000 233.200 C 94.000 232.320,94.180 231.600,94.400 231.600 C 94.620 231.600,94.800 230.880,94.800 230.000 C 94.800 229.120,94.980 228.400,95.200 228.400 C 95.420 228.400,95.600 227.860,95.600 227.200 C 95.600 226.540,95.780 226.000,96.000 226.000 C 96.220 226.000,96.400 225.550,96.400 225.000 C 96.400 224.450,96.580 224.000,96.800 224.000 C 97.020 224.000,97.200 223.640,97.200 223.200 C 97.200 222.760,97.380 222.400,97.600 222.400 C 97.820 222.400,98.000 222.040,98.000 221.600 C 98.000 221.160,98.180 220.800,98.400 220.800 C 98.620 220.800,98.800 220.440,98.800 220.000 C 98.800 219.560,98.980 219.200,99.200 219.200 C 99.420 219.200,99.600 218.840,99.600 218.400 C 99.600 217.960,99.780 217.600,100.000 217.600 C 100.220 217.600,100.400 217.280,100.400 216.888 C 100.400 216.497,100.760 215.917,101.200 215.600 C 101.640 215.283,102.000 214.775,102.000 214.472 C 102.000 214.169,102.540 213.417,103.200 212.800 C 103.860 212.183,104.400 211.492,104.400 211.264 C 104.400 210.722,110.722 204.400,111.264 204.400 C 111.492 204.400,112.183 203.860,112.800 203.200 C 113.417 202.540,114.209 202.000,114.560 202.000 C 114.912 202.000,115.200 201.820,115.200 201.600 C 115.200 201.380,115.520 201.200,115.912 201.200 C 116.303 201.200,116.883 200.840,117.200 200.400 C 117.517 199.960,118.097 199.600,118.488 199.600 C 118.880 199.600,119.200 199.420,119.200 199.200 C 119.200 198.980,119.560 198.800,120.000 198.800 C 120.440 198.800,120.800 198.620,120.800 198.400 C 120.800 198.180,121.340 198.000,122.000 198.000 C 122.660 198.000,123.200 197.820,123.200 197.600 C 123.200 197.380,123.650 197.200,124.200 197.200 C 124.750 197.200,125.200 197.020,125.200 196.800 C 125.200 196.580,125.740 196.400,126.400 196.400 C 127.060 196.400,127.600 196.220,127.600 196.000 C 127.600 195.780,128.320 195.600,129.200 195.600 C 130.080 195.600,130.800 195.420,130.800 195.200 C 130.800 194.980,131.700 194.800,132.800 194.800 C 133.900 194.800,134.800 194.620,134.800 194.400 C 134.800 194.178,135.867 194.000,137.200 194.000 C 138.533 194.000,139.600 193.822,139.600 193.600 C 139.600 193.335,158.200 193.200,194.600 193.200 C 231.000 193.200,249.600 193.065,249.600 192.800 C 249.600 192.578,250.667 192.400,252.000 192.400 C 253.333 192.400,254.400 192.222,254.400 192.000 C 254.400 191.780,255.019 191.600,255.776 191.600 C 256.533 191.600,257.266 191.417,257.404 191.193 C 257.542 190.970,257.842 190.902,258.070 191.043 C 258.486 191.300,261.191 190.639,262.495 189.961 C 262.877 189.762,263.541 189.600,263.971 189.600 C 264.401 189.600,264.864 189.420,265.000 189.200 C 265.136 188.980,265.597 188.800,266.024 188.800 C 266.451 188.800,266.800 188.620,266.800 188.400 C 266.800 188.180,267.160 188.000,267.600 188.000 C 268.040 188.000,268.400 187.820,268.400 187.600 C 268.400 187.380,268.760 187.200,269.200 187.200 C 269.640 187.200,270.000 187.020,270.000 186.800 C 270.000 186.580,270.360 186.400,270.800 186.400 C 271.240 186.400,271.600 186.220,271.600 186.000 C 271.600 185.780,271.842 185.600,272.138 185.600 C 272.434 185.600,273.002 185.240,273.400 184.800 C 273.798 184.360,274.294 184.000,274.502 184.000 C 274.709 184.000,275.383 183.460,276.000 182.800 C 276.617 182.140,277.321 181.600,277.566 181.600 C 278.119 181.600,285.600 174.159,285.600 173.609 C 285.600 173.388,285.960 172.982,286.400 172.707 C 286.840 172.432,287.200 171.973,287.200 171.687 C 287.200 171.401,287.560 170.780,288.000 170.308 C 288.440 169.836,288.800 169.213,288.800 168.925 C 288.800 168.636,288.980 168.400,289.200 168.400 C 289.420 168.400,289.600 168.164,289.600 167.875 C 289.600 167.586,289.963 166.599,290.407 165.680 C 290.851 164.761,291.325 163.198,291.461 162.205 C 291.597 161.212,291.864 160.400,292.054 160.400 C 292.244 160.400,292.400 159.950,292.400 159.400 C 292.400 158.850,292.580 158.400,292.800 158.400 C 293.020 158.400,293.200 157.500,293.200 156.400 C 293.200 155.300,293.380 154.400,293.600 154.400 C 293.833 154.400,294.000 153.067,294.000 151.200 C 294.000 149.333,294.167 148.000,294.400 148.000 C 294.665 148.000,294.800 131.067,294.800 98.000 C 294.800 64.933,294.665 48.000,294.400 48.000 C 294.180 48.000,294.000 47.100,294.000 46.000 C 294.000 44.900,293.820 44.000,293.600 44.000 C 293.380 44.000,293.200 43.561,293.200 43.024 C 293.200 42.487,293.020 41.936,292.800 41.800 C 292.580 41.664,292.400 41.113,292.400 40.576 C 292.400 40.039,292.236 39.600,292.035 39.600 C 291.834 39.600,291.549 38.880,291.400 38.000 C 291.251 37.120,290.966 36.400,290.765 36.400 C 290.564 36.400,290.400 36.164,290.400 35.875 C 290.400 35.587,290.040 34.964,289.600 34.492 C 289.160 34.020,288.800 33.396,288.800 33.105 C 288.800 32.814,288.440 32.317,288.000 32.000 C 287.560 31.683,287.200 31.187,287.200 30.898 C 287.200 30.442,285.358 28.549,280.111 23.612 C 279.403 22.946,278.620 22.400,278.372 22.400 C 278.124 22.400,277.417 21.860,276.800 21.200 C 276.183 20.540,275.564 20.000,275.423 20.000 C 275.282 20.000,274.780 19.640,274.308 19.200 C 273.836 18.760,273.213 18.400,272.925 18.400 C 272.636 18.400,272.400 18.220,272.400 18.000 C 272.400 17.780,272.040 17.600,271.600 17.600 C 271.160 17.600,270.800 17.420,270.800 17.200 C 270.800 16.980,270.440 16.800,270.000 16.800 C 269.560 16.800,269.200 16.620,269.200 16.400 C 269.200 16.180,268.840 16.000,268.400 16.000 C 267.960 16.000,267.600 15.820,267.600 15.600 C 267.600 15.380,267.240 15.200,266.800 15.200 C 266.360 15.200,266.000 15.020,266.000 14.800 C 266.000 14.580,265.640 14.400,265.200 14.400 C 264.760 14.400,264.400 14.220,264.400 14.000 C 264.400 13.780,264.040 13.600,263.600 13.600 C 263.160 13.600,262.800 13.420,262.800 13.200 C 262.800 12.980,262.260 12.800,261.600 12.800 C 260.940 12.800,260.400 12.620,260.400 12.400 C 260.400 12.180,260.040 12.000,259.600 12.000 C 259.160 12.000,258.800 11.820,258.800 11.600 C 258.800 11.380,258.350 11.200,257.800 11.200 C 257.250 11.200,256.800 11.020,256.800 10.800 C 256.800 10.580,256.271 10.400,255.624 10.400 C 254.977 10.400,254.336 10.220,254.200 10.000 C 254.064 9.780,253.333 9.600,252.576 9.600 C 251.819 9.600,251.200 9.450,251.200 9.267 C 251.200 9.083,250.975 8.910,250.700 8.881 C 250.425 8.852,248.985 8.708,247.500 8.560 C 246.015 8.412,244.800 8.135,244.800 7.945 C 244.800 7.755,243.990 7.600,243.000 7.600 C 242.010 7.600,241.200 7.420,241.200 7.200 C 241.200 6.978,240.133 6.800,238.800 6.800 C 237.480 6.800,236.400 6.651,236.400 6.468 C 236.400 6.286,235.365 6.096,234.100 6.046 C 232.835 5.996,231.740 5.785,231.667 5.578 C 231.510 5.133,225.334 5.060,225.061 5.500 M144.800 8.688 C 144.250 8.787,143.629 9.032,143.420 9.234 C 143.211 9.435,142.446 9.600,141.720 9.600 C 140.994 9.600,140.400 9.780,140.400 10.000 C 140.400 10.220,139.847 10.400,139.171 10.400 C 138.238 10.400,137.973 10.561,138.071 11.067 C 138.246 11.969,139.200 12.239,139.200 11.387 C 139.200 10.875,139.450 10.755,140.210 10.900 C 140.837 11.020,141.342 10.876,141.540 10.522 C 141.716 10.208,142.431 9.934,143.130 9.914 C 143.828 9.895,144.400 9.714,144.400 9.514 C 144.400 9.313,144.967 9.205,145.660 9.274 C 146.409 9.349,146.991 9.197,147.094 8.900 C 147.268 8.396,146.715 8.345,144.800 8.688 M135.600 11.600 C 135.600 11.820,135.240 12.000,134.800 12.000 C 134.356 12.000,134.000 12.267,134.000 12.600 C 134.000 13.288,134.628 13.402,135.010 12.784 C 135.152 12.555,135.601 12.473,136.009 12.603 C 136.508 12.761,136.895 12.570,137.190 12.019 C 137.578 11.294,137.512 11.200,136.614 11.200 C 136.056 11.200,135.600 11.380,135.600 11.600 M131.600 13.200 C 131.600 13.420,131.240 13.600,130.800 13.600 C 130.360 13.600,130.000 13.780,130.000 14.000 C 130.000 14.220,129.640 14.400,129.200 14.400 C 128.760 14.400,128.400 14.580,128.400 14.800 C 128.400 15.020,128.040 15.200,127.600 15.200 C 126.728 15.200,126.531 15.786,127.253 16.233 C 127.502 16.386,127.866 16.225,128.063 15.873 C 128.260 15.521,128.663 15.326,128.959 15.440 C 129.255 15.553,129.603 15.369,129.733 15.030 C 129.870 14.674,130.229 14.513,130.585 14.650 C 130.923 14.779,131.200 14.688,131.200 14.448 C 131.200 14.207,131.598 14.052,132.084 14.105 C 132.653 14.166,133.019 13.951,133.113 13.500 C 133.215 13.012,133.008 12.800,132.429 12.800 C 131.973 12.800,131.600 12.980,131.600 13.200 M124.900 16.547 C 124.405 16.790,124.000 17.127,124.000 17.295 C 124.000 17.463,123.717 17.600,123.371 17.600 C 122.765 17.600,121.600 18.502,121.600 18.971 C 121.600 19.484,123.242 19.156,123.455 18.600 C 123.582 18.270,124.026 18.000,124.443 18.000 C 124.859 18.000,125.200 17.750,125.200 17.444 C 125.200 17.139,125.425 16.914,125.700 16.944 C 126.250 17.006,126.662 16.255,126.130 16.162 C 125.948 16.130,125.395 16.303,124.900 16.547 M119.680 19.820 C 119.393 20.145,119.267 20.584,119.398 20.797 C 119.706 21.296,121.200 20.390,121.200 19.704 C 121.200 19.025,120.322 19.092,119.680 19.820 M115.661 23.055 C 114.925 23.825,114.419 24.552,114.537 24.671 C 114.862 24.996,117.982 22.674,117.991 22.100 C 118.007 21.218,117.038 21.616,115.661 23.055 M111.300 27.233 C 110.805 27.834,110.400 28.523,110.400 28.763 C 110.400 29.603,111.621 29.191,112.073 28.200 C 112.323 27.650,112.680 27.200,112.864 27.200 C 113.049 27.200,113.200 26.960,113.200 26.667 C 113.200 25.787,112.259 26.067,111.300 27.233 M107.600 33.000 C 107.600 33.330,107.780 33.600,108.000 33.600 C 108.220 33.600,108.400 33.330,108.400 33.000 C 108.400 32.670,108.220 32.400,108.000 32.400 C 107.780 32.400,107.600 32.670,107.600 33.000 M142.400 32.800 C 142.070 33.013,141.316 33.191,140.724 33.194 C 140.132 33.197,139.536 33.380,139.400 33.600 C 139.264 33.820,138.881 34.000,138.548 34.000 C 137.895 34.000,134.884 35.965,133.088 37.564 C 127.322 42.695,125.979 53.676,130.279 60.518 C 131.484 62.435,135.100 66.000,135.841 66.000 C 136.148 66.000,136.400 66.180,136.400 66.400 C 136.400 66.620,136.760 66.800,137.200 66.800 C 137.640 66.800,138.000 66.980,138.000 67.200 C 138.000 67.420,138.324 67.600,138.720 67.600 C 139.116 67.600,139.611 67.763,139.820 67.961 C 140.955 69.040,152.000 69.042,152.000 67.963 C 152.000 67.763,152.360 67.600,152.800 67.600 C 153.240 67.600,153.600 67.420,153.600 67.200 C 153.600 66.980,153.960 66.800,154.400 66.800 C 154.840 66.800,155.200 66.620,155.200 66.400 C 155.200 66.180,155.515 65.995,155.900 65.988 C 156.285 65.981,157.050 65.430,157.600 64.763 C 158.150 64.096,159.005 63.119,159.500 62.593 C 159.995 62.067,160.400 61.398,160.400 61.106 C 160.400 60.815,160.760 60.317,161.200 60.000 C 161.640 59.683,162.000 59.013,162.000 58.512 C 162.000 58.010,162.180 57.600,162.400 57.600 C 162.620 57.600,162.800 57.060,162.800 56.400 C 162.800 55.740,162.980 55.200,163.200 55.200 C 163.442 55.200,163.600 53.475,163.600 50.824 C 163.600 48.337,163.427 46.340,163.200 46.200 C 162.980 46.064,162.800 45.423,162.800 44.776 C 162.800 44.129,162.620 43.600,162.400 43.600 C 162.180 43.600,162.000 43.240,162.000 42.800 C 162.000 42.360,161.820 42.000,161.600 42.000 C 161.380 42.000,161.200 41.739,161.200 41.420 C 161.200 41.100,159.972 39.594,158.471 38.072 C 155.637 35.199,154.106 34.301,149.572 32.855 C 147.833 32.301,143.227 32.266,142.400 32.800 M151.600 34.504 C 155.205 35.876,156.882 37.187,160.100 41.147 C 160.485 41.621,160.800 42.277,160.800 42.605 C 160.800 42.932,160.980 43.200,161.200 43.200 C 161.420 43.200,161.600 43.549,161.600 43.976 C 161.600 44.403,161.761 44.852,161.958 44.974 C 162.668 45.413,163.436 52.324,162.841 52.919 C 162.599 53.161,162.400 54.044,162.400 54.880 C 162.400 55.716,162.220 56.400,162.000 56.400 C 161.780 56.400,161.596 56.715,161.591 57.100 C 161.586 57.485,161.230 58.250,160.800 58.800 C 160.370 59.350,160.014 59.986,160.009 60.214 C 159.998 60.721,156.246 64.378,154.600 65.485 C 150.528 68.224,143.576 68.807,139.505 66.751 C 139.123 66.558,138.538 66.400,138.205 66.400 C 137.872 66.400,137.600 66.220,137.600 66.000 C 137.600 65.780,137.329 65.600,136.997 65.600 C 136.079 65.600,131.435 60.828,130.424 58.846 C 123.202 44.691,136.923 28.919,151.600 34.504 M106.800 34.600 C 106.800 34.930,106.980 35.200,107.200 35.200 C 107.420 35.200,107.600 34.930,107.600 34.600 C 107.600 34.270,107.420 34.000,107.200 34.000 C 106.980 34.000,106.800 34.270,106.800 34.600 M43.900 108.687 C 43.295 108.778,42.800 109.021,42.800 109.227 C 42.800 109.432,42.440 109.600,42.000 109.600 C 41.560 109.600,41.200 109.780,41.200 110.000 C 41.200 110.220,40.840 110.400,40.400 110.400 C 39.960 110.400,39.600 110.580,39.600 110.800 C 39.600 111.020,39.317 111.200,38.971 111.200 C 38.226 111.200,37.131 112.197,37.486 112.552 C 37.969 113.035,39.200 112.791,39.200 112.213 C 39.200 111.856,39.435 111.715,39.797 111.854 C 40.142 111.987,40.501 111.803,40.648 111.419 C 40.788 111.053,41.157 110.851,41.467 110.970 C 41.777 111.089,42.125 110.939,42.241 110.637 C 42.362 110.322,42.781 110.175,43.226 110.291 C 43.756 110.429,44.000 110.289,44.000 109.847 C 44.000 109.491,44.270 109.200,44.600 109.200 C 44.930 109.200,45.200 109.020,45.200 108.800 C 45.200 108.580,45.155 108.427,45.100 108.460 C 45.045 108.493,44.505 108.595,43.900 108.687 M35.671 113.421 C 35.852 114.290,36.561 114.343,36.724 113.500 C 36.808 113.062,36.612 112.800,36.200 112.800 C 35.816 112.800,35.595 113.059,35.671 113.421 M34.800 113.933 C 34.800 114.190,34.480 114.400,34.088 114.400 C 33.697 114.400,33.117 114.760,32.800 115.200 C 32.483 115.640,31.989 116.000,31.703 116.000 C 30.951 116.000,26.743 120.318,27.212 120.608 C 27.429 120.741,27.881 120.576,28.216 120.241 C 28.552 119.905,29.630 119.053,30.613 118.348 C 31.596 117.642,32.400 116.825,32.400 116.532 C 32.400 116.239,32.739 116.000,33.154 116.000 C 33.922 116.000,35.455 114.121,35.032 113.699 C 34.904 113.571,34.800 113.677,34.800 113.933 M23.976 123.584 C 22.999 124.649,22.065 125.438,21.900 125.337 C 21.735 125.236,21.600 125.523,21.600 125.976 C 21.600 126.429,21.798 126.800,22.039 126.800 C 22.491 126.800,25.174 124.015,25.191 123.529 C 25.196 123.379,25.471 122.986,25.803 122.654 C 26.135 122.322,26.259 121.960,26.079 121.849 C 25.900 121.738,24.953 122.519,23.976 123.584 M20.016 128.075 C 19.567 128.557,19.200 129.147,19.200 129.387 C 19.200 129.627,18.840 130.083,18.400 130.400 C 17.960 130.717,17.600 131.297,17.600 131.688 C 17.600 132.080,17.420 132.400,17.200 132.400 C 16.980 132.400,16.800 132.720,16.800 133.112 C 16.800 133.503,16.440 134.083,16.000 134.400 C 15.560 134.717,15.200 135.297,15.200 135.688 C 15.200 136.080,15.020 136.400,14.800 136.400 C 14.580 136.400,14.400 136.760,14.400 137.200 C 14.400 137.640,14.220 138.000,14.000 138.000 C 13.780 138.000,13.600 138.360,13.600 138.800 C 13.600 139.240,13.420 139.600,13.200 139.600 C 12.980 139.600,12.800 139.960,12.800 140.400 C 12.800 140.840,12.620 141.200,12.400 141.200 C 12.180 141.200,12.000 141.543,12.000 141.963 C 12.000 142.538,12.204 142.672,12.832 142.507 C 13.406 142.357,13.604 142.058,13.470 141.545 C 13.343 141.059,13.487 140.800,13.884 140.800 C 14.290 140.800,14.426 140.541,14.291 140.026 C 14.171 139.567,14.325 139.161,14.670 139.029 C 14.989 138.906,15.131 138.612,14.985 138.376 C 14.839 138.140,15.053 137.694,15.460 137.386 C 15.867 137.078,16.031 136.820,15.824 136.813 C 15.616 136.806,15.748 136.575,16.116 136.300 C 16.484 136.025,16.850 135.360,16.929 134.821 C 17.008 134.283,17.282 133.773,17.537 133.688 C 17.791 133.603,18.000 133.361,18.000 133.150 C 18.000 132.939,18.360 132.380,18.800 131.908 C 19.240 131.436,19.600 130.813,19.600 130.525 C 19.600 130.236,19.775 130.000,19.990 130.000 C 20.337 130.000,21.600 127.977,21.600 127.420 C 21.600 126.918,20.777 127.258,20.016 128.075 M11.700 143.493 C 11.425 143.589,11.200 143.922,11.200 144.233 C 11.200 144.545,11.020 144.800,10.800 144.800 C 10.580 144.800,10.400 145.340,10.400 146.000 C 10.400 146.660,10.240 147.200,10.044 147.200 C 9.848 147.200,9.615 147.817,9.527 148.572 C 9.439 149.327,9.510 149.856,9.684 149.748 C 9.858 149.641,10.000 149.293,10.000 148.976 C 10.000 148.659,10.199 148.400,10.443 148.400 C 10.686 148.400,10.782 148.131,10.656 147.803 C 10.530 147.473,10.799 146.860,11.256 146.433 C 11.727 145.995,11.958 145.456,11.791 145.186 C 11.630 144.924,11.723 144.571,11.998 144.402 C 12.624 144.014,12.377 143.259,11.700 143.493 M8.752 151.513 C 8.621 152.307,8.679 152.681,8.901 152.459 C 9.103 152.257,9.201 151.667,9.119 151.146 C 8.993 150.345,8.937 150.402,8.752 151.513 M2.836 191.932 C 2.858 193.971,3.034 195.503,3.232 195.380 C 3.601 195.152,3.404 188.870,3.015 188.482 C 2.895 188.362,2.814 189.914,2.836 191.932 " stroke="none" fill="#3371a3" fill-rule="evenodd"></path><path id="path1" d="M170.000 4.800 C 170.000 5.031,168.741 5.200,167.024 5.200 C 165.387 5.200,163.936 5.380,163.800 5.600 C 163.664 5.820,162.393 6.000,160.976 6.000 C 159.525 6.000,158.400 6.175,158.400 6.400 C 158.400 6.622,157.333 6.800,156.000 6.800 C 154.667 6.800,153.600 6.978,153.600 7.200 C 153.600 7.420,152.790 7.600,151.800 7.600 C 150.810 7.600,150.000 7.780,150.000 8.000 C 150.000 8.220,149.389 8.400,148.643 8.400 C 147.812 8.400,147.197 8.630,147.058 8.993 C 146.895 9.418,146.487 9.517,145.615 9.343 C 144.928 9.206,144.400 9.269,144.400 9.489 C 144.400 9.703,143.828 9.895,143.130 9.914 C 142.431 9.934,141.716 10.208,141.540 10.522 C 141.342 10.876,140.837 11.020,140.210 10.900 C 139.467 10.758,139.200 10.878,139.200 11.353 C 139.200 12.104,138.749 12.189,138.117 11.557 C 137.793 11.233,137.550 11.346,137.213 11.976 C 136.898 12.564,136.515 12.763,136.009 12.603 C 135.601 12.473,135.147 12.562,135.000 12.800 C 134.853 13.038,134.410 13.130,134.016 13.005 C 133.513 12.845,133.233 13.030,133.078 13.625 C 132.909 14.268,132.657 14.409,132.028 14.209 C 131.512 14.045,131.200 14.123,131.200 14.416 C 131.200 14.674,130.923 14.779,130.585 14.650 C 130.229 14.513,129.870 14.674,129.733 15.030 C 129.603 15.369,129.243 15.549,128.933 15.430 C 128.623 15.311,128.265 15.486,128.137 15.819 C 127.990 16.202,127.626 16.335,127.143 16.182 C 126.632 16.020,126.416 16.115,126.490 16.470 C 126.551 16.764,126.289 16.975,125.900 16.944 C 125.515 16.914,125.200 17.139,125.200 17.444 C 125.200 17.750,124.859 18.000,124.443 18.000 C 124.026 18.000,123.582 18.270,123.455 18.600 C 123.329 18.930,122.769 19.200,122.213 19.200 C 121.614 19.200,121.200 19.428,121.200 19.757 C 121.200 20.399,120.115 20.962,119.113 20.839 C 118.691 20.787,118.336 21.110,118.191 21.677 C 117.960 22.583,115.294 24.800,114.436 24.800 C 114.196 24.800,114.000 24.980,114.000 25.200 C 114.000 25.420,113.741 25.600,113.424 25.600 C 113.107 25.600,112.719 25.808,112.562 26.062 C 112.385 26.348,112.452 26.415,112.738 26.238 C 113.012 26.069,113.200 26.207,113.200 26.576 C 113.200 26.919,113.049 27.200,112.864 27.200 C 112.680 27.200,112.323 27.650,112.073 28.200 C 111.758 28.892,111.298 29.200,110.582 29.200 C 109.729 29.200,109.591 29.341,109.799 29.997 C 109.994 30.612,109.907 30.739,109.422 30.553 C 108.962 30.377,108.858 30.486,109.038 30.955 C 109.174 31.310,109.086 31.600,108.843 31.600 C 108.599 31.600,108.400 32.050,108.400 32.600 C 108.400 33.150,108.220 33.600,108.000 33.600 C 107.780 33.600,107.600 33.960,107.600 34.400 C 107.600 34.840,107.420 35.200,107.200 35.200 C 106.980 35.200,106.800 35.470,106.800 35.800 C 106.800 36.130,106.620 36.400,106.400 36.400 C 106.180 36.400,106.000 36.940,106.000 37.600 C 106.000 38.260,105.820 38.800,105.600 38.800 C 105.380 38.800,105.200 39.520,105.200 40.400 C 105.200 41.280,105.020 42.000,104.800 42.000 C 103.984 42.000,104.281 90.421,105.100 91.043 C 105.660 91.468,109.796 91.576,125.800 91.581 C 137.377 91.585,145.567 91.440,145.247 91.238 C 144.520 90.777,158.023 77.200,159.208 77.200 C 159.644 77.200,160.000 77.026,160.000 76.813 C 160.000 76.601,160.630 75.797,161.400 75.027 C 162.170 74.257,162.800 73.437,162.800 73.204 C 162.800 72.972,165.680 69.910,169.200 66.400 C 172.720 62.890,175.600 59.917,175.600 59.795 C 175.600 59.385,176.901 58.053,192.390 42.600 C 193.052 41.940,196.651 38.295,200.388 34.500 C 204.125 30.705,207.451 27.600,207.777 27.600 C 208.104 27.600,208.783 27.145,209.286 26.588 C 209.789 26.031,213.485 22.252,217.500 18.190 C 221.515 14.129,224.800 10.708,224.800 10.589 C 224.800 10.471,225.385 9.752,226.100 8.994 C 226.815 8.235,227.829 7.143,228.354 6.567 L 229.307 5.520 227.104 5.660 C 225.743 5.746,224.960 5.647,225.055 5.400 C 225.152 5.150,224.232 5.050,222.605 5.134 C 221.172 5.208,220.000 5.433,220.000 5.634 C 220.000 6.269,218.497 6.030,218.238 5.355 C 218.081 4.945,217.700 4.785,217.195 4.917 C 216.757 5.032,216.500 4.962,216.623 4.763 C 216.756 4.547,207.331 4.400,193.424 4.400 C 178.075 4.400,170.000 4.538,170.000 4.800 M149.572 32.855 C 154.106 34.301,155.637 35.199,158.471 38.072 C 159.972 39.594,161.200 41.100,161.200 41.420 C 161.200 41.739,161.380 42.000,161.600 42.000 C 161.820 42.000,162.000 42.360,162.000 42.800 C 162.000 43.240,162.180 43.600,162.400 43.600 C 162.620 43.600,162.800 44.129,162.800 44.776 C 162.800 45.423,162.980 46.064,163.200 46.200 C 163.427 46.340,163.600 48.337,163.600 50.824 C 163.600 53.475,163.442 55.200,163.200 55.200 C 162.980 55.200,162.800 55.740,162.800 56.400 C 162.800 57.060,162.620 57.600,162.400 57.600 C 162.180 57.600,162.000 58.010,162.000 58.512 C 162.000 59.013,161.640 59.683,161.200 60.000 C 160.760 60.317,160.400 60.815,160.400 61.106 C 160.400 61.398,159.995 62.067,159.500 62.593 C 159.005 63.119,158.150 64.096,157.600 64.763 C 157.050 65.430,156.285 65.981,155.900 65.988 C 155.515 65.995,155.200 66.180,155.200 66.400 C 155.200 66.620,154.840 66.800,154.400 66.800 C 153.960 66.800,153.600 66.980,153.600 67.200 C 153.600 67.420,153.240 67.600,152.800 67.600 C 152.360 67.600,152.000 67.763,152.000 67.963 C 152.000 69.042,140.955 69.040,139.820 67.961 C 139.611 67.763,139.116 67.600,138.720 67.600 C 138.324 67.600,138.000 67.420,138.000 67.200 C 138.000 66.980,137.640 66.800,137.200 66.800 C 136.760 66.800,136.400 66.620,136.400 66.400 C 136.400 66.180,136.148 66.000,135.841 66.000 C 135.100 66.000,131.484 62.435,130.279 60.518 C 125.979 53.676,127.322 42.695,133.088 37.564 C 134.884 35.965,137.895 34.000,138.548 34.000 C 138.881 34.000,139.264 33.820,139.400 33.600 C 139.536 33.380,140.132 33.197,140.724 33.194 C 141.316 33.191,142.070 33.013,142.400 32.800 C 143.227 32.266,147.833 32.301,149.572 32.855 M57.600 105.534 C 57.600 105.837,56.759 106.000,55.200 106.000 C 53.867 106.000,52.800 106.178,52.800 106.400 C 52.800 106.620,52.181 106.800,51.424 106.800 C 50.667 106.800,49.936 106.980,49.800 107.200 C 49.664 107.420,49.023 107.600,48.376 107.600 C 47.729 107.600,47.200 107.780,47.200 108.000 C 47.200 108.220,46.750 108.400,46.200 108.400 C 45.650 108.400,45.200 108.580,45.200 108.800 C 45.200 109.020,44.930 109.200,44.600 109.200 C 44.270 109.200,44.000 109.491,44.000 109.847 C 44.000 110.289,43.756 110.429,43.226 110.291 C 42.781 110.175,42.362 110.322,42.241 110.637 C 42.125 110.939,41.777 111.089,41.467 110.970 C 41.157 110.851,40.788 111.053,40.648 111.419 C 40.501 111.803,40.142 111.987,39.797 111.854 C 39.422 111.710,39.200 111.861,39.200 112.259 C 39.200 112.725,38.926 112.841,38.171 112.697 C 37.351 112.540,37.066 112.701,36.764 113.493 C 36.479 114.245,36.261 114.383,35.871 114.059 C 35.480 113.735,35.184 113.919,34.655 114.815 C 34.261 115.482,33.615 116.000,33.177 116.000 C 32.750 116.000,32.400 116.239,32.400 116.532 C 32.400 116.825,31.596 117.642,30.613 118.348 C 29.630 119.053,28.552 119.905,28.216 120.241 C 27.881 120.576,27.427 120.740,27.208 120.605 C 26.977 120.462,26.910 120.621,27.047 120.979 C 27.330 121.715,26.574 121.826,26.229 121.100 C 26.098 120.825,26.066 121.005,26.158 121.500 C 26.250 121.995,26.174 122.400,25.990 122.400 C 25.805 122.400,25.549 122.715,25.420 123.100 C 24.973 124.440,22.501 126.800,21.539 126.806 C 20.867 126.811,20.753 126.909,21.138 127.153 C 21.740 127.535,20.746 130.000,19.990 130.000 C 19.775 130.000,19.600 130.236,19.600 130.525 C 19.600 130.813,19.240 131.436,18.800 131.908 C 18.360 132.380,18.000 132.939,18.000 133.150 C 18.000 133.361,17.791 133.603,17.537 133.688 C 17.282 133.773,17.008 134.283,16.929 134.821 C 16.850 135.360,16.484 136.025,16.116 136.300 C 15.748 136.575,15.616 136.806,15.824 136.813 C 16.031 136.820,15.867 137.078,15.460 137.386 C 15.053 137.694,14.839 138.140,14.985 138.376 C 15.131 138.612,14.989 138.906,14.670 139.029 C 14.325 139.161,14.171 139.567,14.291 140.026 C 14.426 140.541,14.290 140.800,13.884 140.800 C 13.472 140.800,13.343 141.059,13.484 141.600 C 13.617 142.109,13.494 142.405,13.147 142.413 C 12.846 142.420,12.240 142.714,11.800 143.067 C 11.150 143.587,11.131 143.662,11.700 143.466 C 12.158 143.308,12.400 143.428,12.400 143.813 C 12.400 144.136,12.201 144.400,11.957 144.400 C 11.710 144.400,11.626 144.692,11.768 145.060 C 11.922 145.461,11.708 146.013,11.224 146.463 C 10.786 146.872,10.530 147.474,10.656 147.803 C 10.782 148.131,10.707 148.400,10.489 148.400 C 10.272 148.400,9.994 148.778,9.874 149.240 C 9.753 149.702,9.472 149.968,9.251 149.831 C 8.992 149.672,8.933 150.111,9.086 151.053 C 9.231 151.946,9.175 152.432,8.942 152.288 C 8.731 152.157,8.516 152.711,8.463 153.526 C 8.409 154.337,8.193 155.060,7.982 155.133 C 7.772 155.207,7.600 155.972,7.600 156.833 C 7.600 157.695,7.420 158.400,7.200 158.400 C 6.980 158.400,6.800 159.019,6.800 159.776 C 6.800 160.533,6.620 161.264,6.400 161.400 C 6.180 161.536,6.000 162.436,6.000 163.400 C 6.000 164.364,5.820 165.264,5.600 165.400 C 5.380 165.536,5.200 166.807,5.200 168.224 C 5.200 169.675,5.025 170.800,4.800 170.800 C 4.574 170.800,4.400 171.933,4.400 173.400 C 4.400 174.867,4.226 176.000,4.000 176.000 C 3.759 176.000,3.600 177.658,3.600 180.174 C 3.600 182.470,3.416 184.832,3.191 185.423 C 2.891 186.212,2.918 186.664,3.291 187.125 C 3.687 187.614,3.689 187.687,3.300 187.453 C 2.795 187.150,2.571 188.038,3.036 188.503 C 3.388 188.855,3.625 194.715,3.875 209.300 C 4.045 219.241,4.218 222.400,4.589 222.400 C 4.922 222.400,5.106 223.320,5.163 225.276 C 5.209 226.858,5.365 228.343,5.509 228.576 C 5.653 228.809,5.737 229.540,5.696 230.200 C 5.655 230.860,5.735 231.133,5.875 230.807 C 6.090 230.304,7.649 228.728,9.687 226.954 C 9.969 226.708,10.465 226.123,10.788 225.654 C 11.112 225.184,11.606 224.800,11.886 224.800 C 12.496 224.800,27.600 209.810,27.600 209.205 C 27.600 208.974,31.065 205.361,35.300 201.176 C 39.535 196.992,43.127 193.440,43.281 193.284 C 43.436 193.128,47.082 189.445,51.384 185.100 C 55.685 180.755,59.372 177.200,59.576 177.200 C 59.779 177.200,60.060 176.840,60.200 176.400 C 60.340 175.960,60.713 175.600,61.029 175.600 C 61.669 175.600,77.200 160.239,77.200 159.606 C 77.200 159.387,79.630 156.777,82.600 153.807 C 85.570 150.837,88.000 148.214,88.000 147.978 C 88.000 147.741,88.945 146.661,90.100 145.576 C 91.255 144.492,92.535 143.264,92.945 142.847 C 103.028 132.603,109.379 126.400,109.786 126.400 C 110.072 126.400,126.400 110.072,126.400 109.786 C 126.400 109.510,127.037 108.737,128.713 106.978 L 130.027 105.600 120.879 105.600 C 115.848 105.600,99.552 105.480,84.666 105.334 C 64.191 105.133,57.600 105.182,57.600 105.534 " stroke="none" fill="#377cae" fill-rule="evenodd"></path><path id="path2" d="M313.800 103.200 C 317.100 103.328,319.572 103.470,319.294 103.516 C 318.784 103.601,312.800 109.397,312.800 109.807 C 312.800 109.928,312.215 110.648,311.500 111.406 C 310.785 112.165,309.750 113.279,309.200 113.882 L 308.200 114.977 307.972 109.189 C 307.846 106.005,307.722 115.550,307.696 130.400 C 307.639 162.005,307.709 158.515,307.138 158.161 C 306.798 157.951,306.745 158.469,306.939 160.117 C 307.156 161.967,307.087 162.424,306.541 162.729 C 306.051 163.003,305.944 163.420,306.127 164.337 C 306.309 165.244,306.203 165.670,305.731 165.935 C 305.290 166.181,305.152 166.638,305.294 167.379 C 305.429 168.085,305.309 168.537,304.951 168.674 C 304.648 168.791,304.400 169.316,304.400 169.843 C 304.400 170.369,304.220 170.800,304.000 170.800 C 303.780 170.800,303.600 171.340,303.600 172.000 C 303.600 172.660,303.420 173.200,303.200 173.200 C 302.980 173.200,302.800 173.751,302.800 174.424 C 302.800 175.137,302.633 175.544,302.400 175.400 C 302.180 175.264,302.000 175.398,302.000 175.697 C 302.000 176.451,301.065 178.393,300.700 178.397 C 300.535 178.399,300.400 178.760,300.400 179.200 C 300.400 179.640,300.220 180.000,300.000 180.000 C 299.780 180.000,299.600 180.320,299.600 180.712 C 299.600 181.103,299.240 181.683,298.800 182.000 C 298.360 182.317,298.000 182.857,298.000 183.200 C 298.000 183.543,297.640 184.083,297.200 184.400 C 296.760 184.717,296.400 185.221,296.400 185.520 C 296.400 185.818,295.680 186.754,294.800 187.600 C 293.920 188.446,293.200 189.402,293.200 189.726 C 293.200 190.555,290.917 192.906,290.310 192.703 C 290.033 192.611,289.144 193.225,288.335 194.068 C 287.525 194.911,286.618 195.600,286.320 195.600 C 286.021 195.600,285.517 195.960,285.200 196.400 C 284.883 196.840,284.343 197.200,284.000 197.200 C 283.657 197.200,283.117 197.560,282.800 198.000 C 282.483 198.440,281.903 198.800,281.512 198.800 C 281.120 198.800,280.800 198.980,280.800 199.200 C 280.800 199.420,280.440 199.600,280.000 199.600 C 279.560 199.600,279.200 199.780,279.200 200.000 C 279.200 200.220,278.660 200.400,278.000 200.400 C 277.340 200.400,276.800 200.580,276.800 200.800 C 276.800 201.020,276.429 201.200,275.976 201.200 C 275.523 201.200,275.264 201.380,275.400 201.600 C 275.544 201.833,275.137 202.000,274.424 202.000 C 273.751 202.000,273.200 202.180,273.200 202.400 C 273.200 202.620,272.480 202.800,271.600 202.800 C 270.720 202.800,270.000 202.980,270.000 203.200 C 270.000 203.420,269.100 203.600,268.000 203.600 C 266.900 203.600,266.000 203.780,266.000 204.000 C 266.000 204.220,265.025 204.400,263.833 204.400 C 262.642 204.400,261.603 204.590,261.526 204.822 C 261.429 205.114,251.168 205.257,228.393 205.283 C 197.996 205.318,196.454 205.351,208.800 205.698 C 216.170 205.906,222.267 206.140,222.348 206.219 C 222.430 206.299,221.569 207.227,220.435 208.282 C 214.496 213.806,209.200 219.327,209.200 219.992 C 209.200 220.543,204.948 224.800,204.397 224.800 C 203.947 224.800,203.227 225.438,198.100 230.383 C 196.285 232.134,194.800 233.761,194.800 234.000 C 194.800 234.690,188.704 241.026,183.637 245.600 C 182.541 246.590,181.634 247.629,181.622 247.909 C 181.610 248.188,180.655 249.399,179.500 250.600 C 176.215 254.013,175.600 254.740,175.600 255.208 C 175.600 255.636,172.026 259.226,169.635 261.200 C 168.969 261.750,168.419 262.427,168.412 262.705 C 168.405 262.982,166.555 265.083,164.300 267.372 C 162.045 269.662,159.750 272.085,159.200 272.756 C 158.650 273.427,157.969 273.981,157.687 273.988 C 157.191 274.000,154.400 276.549,154.400 276.990 C 154.400 277.110,152.015 279.634,149.100 282.599 C 141.397 290.435,140.400 291.524,140.400 292.102 C 140.400 292.389,140.011 292.888,139.536 293.212 C 138.730 293.760,128.005 304.408,126.900 305.756 C 126.625 306.092,126.395 306.779,126.388 307.283 C 126.381 307.809,125.857 308.627,125.159 309.200 C 122.826 311.117,113.600 320.381,113.600 320.807 C 113.600 321.458,111.720 323.200,111.018 323.200 C 110.678 323.200,110.400 323.375,110.400 323.589 C 110.400 324.026,107.386 327.081,106.060 327.988 C 105.587 328.312,105.162 328.942,105.115 329.388 C 105.068 329.835,104.927 327.230,104.800 323.600 C 104.636 318.888,104.546 321.662,104.485 333.300 C 104.429 343.957,104.538 349.600,104.800 349.600 C 105.022 349.600,105.200 350.667,105.200 352.000 C 105.200 353.333,105.378 354.400,105.600 354.400 C 105.820 354.400,106.000 354.940,106.000 355.600 C 106.000 356.260,106.180 356.800,106.400 356.800 C 106.620 356.800,106.800 357.250,106.800 357.800 C 106.800 358.350,106.980 358.800,107.200 358.800 C 107.420 358.800,107.600 359.160,107.600 359.600 C 107.600 360.040,107.780 360.400,108.000 360.400 C 108.220 360.400,108.400 360.688,108.400 361.040 C 108.400 362.127,109.660 364.400,110.263 364.400 C 110.585 364.400,110.784 364.704,110.718 365.096 C 110.648 365.511,110.972 365.956,111.519 366.196 C 112.116 366.458,112.375 366.846,112.257 367.301 C 112.156 367.686,112.238 367.900,112.437 367.777 C 112.637 367.654,112.800 367.851,112.800 368.216 C 112.800 369.091,119.177 375.200,120.091 375.200 C 120.481 375.200,120.800 375.380,120.800 375.600 C 120.800 375.820,121.058 376.000,121.373 376.000 C 121.688 376.000,122.060 376.360,122.200 376.800 C 122.340 377.240,122.802 377.600,123.227 377.600 C 123.652 377.600,124.360 377.960,124.800 378.400 C 125.240 378.840,125.768 379.200,125.973 379.200 C 126.178 379.200,126.460 379.560,126.600 380.000 C 126.762 380.511,127.205 380.800,127.827 380.800 C 128.362 380.800,128.800 380.980,128.800 381.200 C 128.800 381.420,129.160 381.600,129.600 381.600 C 130.040 381.600,130.400 381.780,130.400 382.000 C 130.400 382.220,130.670 382.400,131.000 382.400 C 131.330 382.400,131.600 382.580,131.600 382.800 C 131.600 383.020,131.870 383.200,132.200 383.200 C 132.530 383.200,132.800 383.380,132.800 383.600 C 132.800 383.820,133.340 384.000,134.000 384.000 C 134.660 384.000,135.200 384.192,135.200 384.427 C 135.200 384.672,135.541 384.746,136.000 384.600 C 136.553 384.424,136.800 384.528,136.800 384.936 C 136.800 385.328,137.067 385.455,137.600 385.316 C 138.172 385.166,138.400 385.304,138.400 385.797 C 138.400 386.335,138.622 386.431,139.409 386.234 C 140.116 386.056,140.488 386.163,140.652 386.590 C 140.780 386.926,141.301 387.200,141.809 387.200 C 142.318 387.200,142.801 387.402,142.883 387.650 C 142.966 387.897,143.521 388.100,144.117 388.100 C 144.712 388.100,145.200 388.280,145.200 388.500 C 145.200 388.734,145.715 388.797,146.442 388.652 C 147.468 388.446,147.642 388.514,147.441 389.037 C 147.235 389.575,147.439 389.630,148.799 389.400 C 150.145 389.173,150.400 389.238,150.400 389.809 C 150.400 390.369,150.646 390.443,151.800 390.226 C 152.947 390.011,153.200 390.085,153.200 390.634 C 153.200 391.192,153.502 391.270,155.000 391.101 C 155.990 390.990,156.800 391.064,156.800 391.268 C 156.800 391.471,157.643 391.593,158.674 391.540 C 159.849 391.479,160.607 391.621,160.707 391.921 C 160.799 392.197,161.618 392.400,162.633 392.400 C 163.605 392.400,164.400 392.580,164.400 392.800 C 164.400 393.029,165.600 393.200,167.200 393.200 C 168.800 393.200,170.000 393.371,170.000 393.600 C 170.000 393.841,171.667 394.000,174.200 394.000 C 176.733 394.000,178.400 394.159,178.400 394.400 C 178.400 394.650,180.859 394.800,184.976 394.800 C 188.929 394.800,191.651 394.960,191.800 395.200 C 191.953 395.448,195.537 395.600,201.224 395.600 C 207.075 395.600,210.400 395.455,210.400 395.200 C 210.400 394.948,213.067 394.800,217.600 394.800 C 222.133 394.800,224.800 394.652,224.800 394.400 C 224.800 394.157,226.600 394.000,229.400 394.000 C 232.200 394.000,234.000 393.843,234.000 393.600 C 234.000 393.378,235.056 393.200,236.367 393.200 C 237.865 393.200,238.793 393.022,238.895 392.715 C 239.000 392.401,239.737 392.272,240.984 392.349 C 242.221 392.425,243.023 392.286,243.224 391.961 C 243.422 391.640,244.265 391.487,245.519 391.545 C 247.075 391.616,247.557 391.488,247.764 390.951 C 247.964 390.429,248.137 390.377,248.493 390.733 C 249.176 391.416,250.800 391.319,250.800 390.595 C 250.800 390.114,251.126 390.043,252.400 390.246 C 253.731 390.459,254.000 390.390,254.000 389.833 C 254.000 389.290,254.254 389.211,255.344 389.416 C 256.517 389.636,256.720 389.550,256.931 388.741 C 257.123 388.006,257.276 387.916,257.667 388.307 C 258.358 388.998,259.200 388.921,259.200 388.168 C 259.200 387.674,259.462 387.594,260.400 387.800 C 261.349 388.008,261.600 387.928,261.600 387.414 C 261.600 386.888,261.867 386.814,263.000 387.026 C 263.918 387.199,264.400 387.136,264.400 386.845 C 264.400 386.600,264.670 386.400,265.000 386.400 C 265.330 386.400,265.600 386.135,265.600 385.810 C 265.600 385.370,265.900 385.280,266.782 385.456 C 267.967 385.693,269.200 384.965,269.200 384.029 C 269.200 383.793,269.549 383.600,269.976 383.600 C 270.403 383.600,270.872 383.408,271.017 383.173 C 271.162 382.938,271.533 382.842,271.840 382.960 C 272.171 383.087,272.400 382.922,272.400 382.556 C 272.400 382.080,272.670 381.996,273.565 382.192 C 274.516 382.401,274.779 382.296,274.992 381.624 C 275.136 381.171,275.493 380.800,275.784 380.800 C 276.076 380.800,276.423 380.518,276.555 380.172 C 276.706 379.779,277.070 379.632,277.531 379.778 C 278.057 379.945,278.398 379.723,278.729 378.997 C 279.019 378.359,279.634 377.893,280.384 377.743 C 281.050 377.610,281.680 377.177,281.812 376.763 C 282.104 375.842,284.239 374.280,284.902 374.501 C 285.555 374.718,286.398 373.837,286.406 372.929 C 286.411 372.307,286.473 372.288,286.824 372.800 C 287.166 373.298,287.222 373.264,287.156 372.600 C 287.050 371.523,287.573 370.400,288.182 370.400 C 289.135 370.400,290.370 368.971,290.149 368.125 C 289.994 367.534,290.164 367.250,290.768 367.093 C 291.276 366.960,291.600 366.549,291.600 366.037 C 291.600 365.577,291.780 365.200,292.000 365.200 C 292.220 365.200,292.400 364.840,292.400 364.400 C 292.400 363.960,292.580 363.600,292.800 363.600 C 293.020 363.600,293.200 363.060,293.200 362.400 C 293.200 361.740,293.380 361.200,293.600 361.200 C 293.820 361.200,294.000 360.660,294.000 360.000 C 294.000 359.340,294.180 358.800,294.400 358.800 C 294.662 358.800,294.800 350.067,294.800 333.400 L 294.800 308.000 247.500 307.994 C 221.485 307.991,200.020 307.856,199.800 307.694 C 199.560 307.517,199.400 304.587,199.400 300.350 L 199.400 293.300 262.000 293.013 C 296.430 292.855,328.944 292.838,334.253 292.974 C 342.449 293.184,343.939 293.135,344.127 292.646 C 344.290 292.221,344.777 292.127,345.974 292.287 C 346.925 292.415,347.600 292.341,347.600 292.110 C 347.600 291.893,348.905 291.594,350.500 291.446 C 352.095 291.299,353.460 291.003,353.533 290.789 C 353.607 290.575,353.922 290.400,354.233 290.400 C 354.545 290.400,354.800 290.141,354.800 289.825 C 354.800 289.392,355.144 289.306,356.200 289.477 C 357.109 289.625,357.600 289.546,357.600 289.252 C 357.600 289.004,357.855 288.800,358.167 288.800 C 358.478 288.800,358.793 288.633,358.867 288.430 C 358.940 288.226,359.266 288.001,359.590 287.930 C 360.335 287.766,361.200 286.979,361.200 286.466 C 361.200 286.251,361.560 286.169,362.000 286.284 C 362.447 286.401,362.800 286.296,362.800 286.047 C 362.800 285.801,363.148 285.600,363.573 285.600 C 364.025 285.600,364.463 285.226,364.627 284.700 C 364.966 283.613,365.513 283.214,366.673 283.206 C 367.217 283.202,367.651 282.869,367.825 282.322 C 368.100 281.454,369.505 280.039,370.117 280.013 C 370.291 280.006,370.820 279.640,371.292 279.200 C 371.764 278.760,372.398 278.400,372.699 278.400 C 373.001 278.400,373.136 278.220,373.000 278.000 C 372.864 277.780,372.956 277.600,373.205 277.600 C 373.905 277.600,374.882 276.457,374.589 275.982 C 374.332 275.566,375.804 273.979,377.530 272.812 C 378.009 272.488,378.400 271.891,378.400 271.485 C 378.400 270.253,379.178 269.202,380.114 269.168 C 380.601 269.151,380.794 269.052,380.542 268.949 C 379.918 268.693,380.356 267.200,381.055 267.200 C 381.364 267.200,381.822 266.750,382.073 266.200 C 382.323 265.650,382.692 265.200,382.891 265.200 C 383.091 265.200,383.139 264.839,382.999 264.398 C 382.830 263.865,382.955 263.515,383.372 263.355 C 383.718 263.223,384.000 262.864,384.000 262.557 C 384.000 262.251,384.180 262.000,384.400 262.000 C 384.620 262.000,384.800 261.640,384.800 261.200 C 384.800 260.760,384.980 260.400,385.200 260.400 C 385.420 260.400,385.600 260.052,385.600 259.627 C 385.600 259.197,385.967 258.737,386.428 258.591 C 387.220 258.340,387.224 258.305,386.528 257.777 C 385.826 257.245,385.826 257.225,386.543 257.213 C 387.073 257.204,387.212 257.007,387.027 256.526 C 386.856 256.080,387.124 255.547,387.821 254.948 C 388.690 254.202,388.826 253.831,388.605 252.822 C 388.390 251.843,388.468 251.600,389.000 251.600 C 389.529 251.600,389.610 251.357,389.400 250.400 C 389.188 249.437,389.270 249.200,389.812 249.200 C 390.334 249.200,390.429 248.971,390.234 248.191 C 390.054 247.474,390.163 247.112,390.611 246.940 C 391.073 246.763,391.174 246.391,390.989 245.549 C 390.833 244.837,390.901 244.400,391.168 244.400 C 391.406 244.400,391.600 243.770,391.600 243.000 C 391.600 242.230,391.780 241.600,392.000 241.600 C 392.220 241.600,392.400 240.880,392.400 240.000 C 392.400 239.120,392.580 238.400,392.800 238.400 C 393.020 238.400,393.200 237.590,393.200 236.600 C 393.200 235.610,393.380 234.800,393.600 234.800 C 393.822 234.800,394.000 233.733,394.000 232.400 C 394.000 231.067,394.178 230.000,394.400 230.000 C 394.622 230.000,394.800 228.933,394.800 227.600 C 394.800 226.267,394.978 225.200,395.200 225.200 C 395.439 225.200,395.600 223.667,395.600 221.400 C 395.600 219.133,395.761 217.600,396.000 217.600 C 396.261 217.600,396.400 211.200,396.400 199.200 C 396.400 187.200,396.261 180.800,396.000 180.800 C 395.761 180.800,395.600 179.267,395.600 177.000 C 395.600 174.733,395.439 173.200,395.200 173.200 C 394.967 173.200,394.800 171.867,394.800 170.000 C 394.800 168.133,394.633 166.800,394.400 166.800 C 394.178 166.800,394.000 165.733,394.000 164.400 C 394.000 163.067,393.822 162.000,393.600 162.000 C 393.380 162.000,393.200 161.190,393.200 160.200 C 393.200 159.210,393.020 158.400,392.800 158.400 C 392.580 158.400,392.400 157.680,392.400 156.800 C 392.400 155.920,392.220 155.200,392.000 155.200 C 391.780 155.200,391.600 154.570,391.600 153.800 C 391.600 153.030,391.412 152.400,391.182 152.400 C 390.921 152.400,390.862 151.875,391.026 151.000 C 391.235 149.888,391.161 149.600,390.668 149.600 C 389.825 149.600,389.408 148.832,389.955 148.285 C 390.586 147.654,390.506 147.200,389.765 147.200 C 389.245 147.200,389.179 146.908,389.400 145.600 C 389.578 144.548,389.521 144.000,389.235 144.000 C 388.996 144.000,388.800 143.550,388.800 143.000 C 388.800 142.450,388.620 142.000,388.400 142.000 C 388.180 142.000,388.000 141.730,388.000 141.400 C 388.000 141.070,387.716 140.800,387.368 140.800 C 386.879 140.800,386.794 140.538,386.992 139.638 C 387.138 138.972,387.066 138.365,386.823 138.214 C 386.591 138.071,386.400 137.603,386.400 137.176 C 386.400 136.749,386.220 136.400,386.000 136.400 C 385.780 136.400,385.600 136.083,385.600 135.695 C 385.600 135.307,385.139 134.644,384.575 134.220 C 383.812 133.647,383.610 133.215,383.783 132.525 C 383.912 132.012,383.834 131.600,383.608 131.600 C 383.383 131.600,383.200 131.252,383.200 130.827 C 383.200 130.402,382.840 129.940,382.400 129.800 C 381.960 129.660,381.600 129.378,381.600 129.173 C 381.600 128.968,381.206 128.406,380.725 127.925 C 380.162 127.362,380.019 126.994,380.325 126.892 C 381.110 126.630,380.861 126.064,379.900 125.928 C 379.280 125.840,378.881 125.395,378.617 124.501 C 378.407 123.786,377.912 123.099,377.517 122.974 C 377.123 122.849,376.800 122.488,376.800 122.173 C 376.800 121.858,376.620 121.600,376.400 121.600 C 376.180 121.600,376.000 121.240,376.000 120.800 C 376.000 120.360,375.865 119.999,375.700 119.999 C 375.535 119.998,375.040 119.460,374.600 118.803 C 374.160 118.146,373.304 117.436,372.698 117.224 C 372.077 117.008,371.417 116.370,371.186 115.763 C 370.651 114.356,368.065 112.000,367.355 112.273 C 367.050 112.390,366.800 112.278,366.800 112.025 C 366.800 111.372,364.949 109.600,364.267 109.600 C 363.954 109.600,363.474 109.330,363.200 109.000 C 362.926 108.670,362.364 108.400,361.951 108.400 C 361.538 108.400,361.200 108.220,361.200 108.000 C 361.200 107.780,360.840 107.600,360.400 107.600 C 359.960 107.600,359.600 107.420,359.600 107.200 C 359.600 106.980,359.330 106.800,359.000 106.800 C 358.670 106.800,358.400 106.620,358.400 106.400 C 358.400 106.180,357.860 106.000,357.200 106.000 C 356.540 106.000,356.000 105.820,356.000 105.600 C 356.000 105.380,355.640 105.200,355.200 105.200 C 354.760 105.200,354.400 105.020,354.400 104.800 C 354.400 104.580,353.680 104.400,352.800 104.400 C 351.920 104.400,351.200 104.220,351.200 104.000 C 351.200 103.780,350.491 103.600,349.624 103.600 C 348.757 103.600,347.936 103.420,347.800 103.200 C 347.639 102.940,340.587 102.829,327.676 102.884 C 315.850 102.933,310.230 103.062,313.800 103.200 M152.884 205.815 C 152.453 206.304,152.495 206.400,153.141 206.400 C 153.567 206.400,154.018 206.130,154.145 205.800 C 154.439 205.034,153.564 205.045,152.884 205.815 M147.379 206.366 C 147.503 206.567,147.379 206.823,147.102 206.934 C 146.799 207.056,146.878 207.149,147.300 207.168 C 147.685 207.186,148.000 206.930,148.000 206.600 C 148.000 206.270,147.809 206.000,147.576 206.000 C 147.343 206.000,147.255 206.165,147.379 206.366 M143.247 207.455 C 142.769 207.995,142.791 208.060,143.414 207.939 C 143.810 207.863,144.209 207.575,144.300 207.300 C 144.530 206.610,143.916 206.700,143.247 207.455 M140.643 208.233 C 140.493 208.623,140.582 208.806,140.875 208.708 C 141.473 208.509,141.802 207.600,141.276 207.600 C 141.061 207.600,140.776 207.885,140.643 208.233 M138.400 208.771 C 138.400 208.975,138.085 209.224,137.700 209.324 C 137.173 209.462,137.223 209.519,137.900 209.554 C 138.454 209.582,138.800 209.369,138.800 209.000 C 138.800 208.670,138.710 208.400,138.600 208.400 C 138.490 208.400,138.400 208.567,138.400 208.771 M136.018 209.566 C 135.709 210.144,135.703 210.400,135.998 210.400 C 136.483 210.400,137.012 209.278,136.682 208.948 C 136.562 208.829,136.264 209.107,136.018 209.566 M134.000 209.972 C 134.647 210.421,134.346 210.534,132.846 210.409 C 132.321 210.365,131.781 210.489,131.646 210.685 C 131.511 210.881,130.703 211.366,129.852 211.763 C 129.000 212.159,128.213 212.830,128.102 213.253 C 127.956 213.813,127.669 213.960,127.050 213.792 C 126.246 213.574,126.241 213.587,126.964 214.037 C 127.590 214.426,127.821 214.385,128.238 213.816 C 128.518 213.433,128.940 213.239,129.176 213.385 C 129.412 213.531,129.718 213.359,129.854 213.002 C 129.991 212.646,130.350 212.449,130.652 212.564 C 130.973 212.688,131.200 212.514,131.200 212.145 C 131.200 211.747,131.423 211.600,131.805 211.746 C 132.496 212.012,134.919 210.785,134.873 210.193 C 134.856 209.977,134.518 209.745,134.121 209.678 C 133.512 209.576,133.493 209.621,134.000 209.972 M124.556 215.432 C 124.384 216.118,123.945 216.449,122.959 216.634 C 121.769 216.857,120.946 218.000,121.975 218.000 C 122.406 218.000,126.762 215.102,126.784 214.800 C 126.843 214.018,124.763 214.607,124.556 215.432 M118.640 220.700 C 117.562 221.855,116.787 222.800,116.919 222.800 C 117.390 222.800,120.889 219.268,120.746 218.937 C 120.666 218.752,119.718 219.545,118.640 220.700 M114.694 224.152 C 114.015 224.736,113.679 225.340,113.823 225.717 C 113.972 226.103,113.789 226.400,113.329 226.519 C 112.681 226.686,112.690 226.712,113.404 226.754 C 114.214 226.800,114.929 225.964,115.610 224.173 C 116.064 222.979,116.058 222.979,114.694 224.152 M112.185 227.954 C 112.366 228.524,112.178 228.769,111.412 228.961 C 110.855 229.101,110.400 229.484,110.400 229.813 C 110.400 230.362,109.675 231.925,109.200 232.400 C 108.659 232.941,108.843 233.650,109.490 233.517 C 109.880 233.437,110.152 233.083,110.093 232.731 C 110.034 232.379,110.270 231.982,110.618 231.848 C 110.966 231.715,111.150 231.443,111.028 231.245 C 110.905 231.046,111.092 230.773,111.444 230.639 C 111.808 230.499,111.985 230.137,111.854 229.797 C 111.715 229.435,111.856 229.200,112.213 229.200 C 112.536 229.200,112.800 229.035,112.800 228.833 C 112.800 228.631,112.909 228.181,113.043 227.833 C 113.205 227.411,113.062 227.200,112.616 227.200 C 112.142 227.200,112.016 227.420,112.185 227.954 M108.400 234.800 C 108.400 235.316,108.603 235.599,108.900 235.500 C 109.175 235.408,109.400 235.093,109.400 234.800 C 109.400 234.507,109.175 234.192,108.900 234.100 C 108.603 234.001,108.400 234.284,108.400 234.800 M104.900 252.779 C 104.085 254.099,104.203 256.459,105.025 255.286 C 105.369 254.795,105.594 253.848,105.525 253.181 C 105.407 252.035,105.373 252.013,104.900 252.779 M258.372 330.855 C 264.735 332.882,271.191 339.534,271.202 344.075 C 271.203 344.584,271.397 345.693,271.632 346.541 C 272.652 350.213,270.114 357.011,266.322 360.764 C 251.182 375.745,227.264 355.690,239.270 338.081 C 241.529 334.768,246.435 331.200,248.732 331.200 C 249.184 331.200,249.664 331.020,249.800 330.800 C 250.139 330.252,256.610 330.294,258.372 330.855 " stroke="none" fill="#fbd343" fill-rule="evenodd"></path><path id="path3" d="M307.909 107.600 C 307.970 110.130,308.060 112.826,308.109 113.591 L 308.200 114.982 309.200 113.884 C 309.750 113.280,310.785 112.165,311.500 111.406 C 312.215 110.648,312.800 109.928,312.800 109.807 C 312.800 109.443,318.637 103.723,319.240 103.496 C 319.548 103.380,317.100 103.221,313.800 103.143 L 307.800 103.000 307.909 107.600 M154.126 205.850 C 153.913 206.402,153.439 206.460,150.938 206.233 C 148.349 205.998,148.000 206.046,148.000 206.638 C 148.000 207.201,147.716 207.270,146.238 207.067 C 144.861 206.879,144.424 206.961,144.238 207.445 C 144.065 207.895,143.687 207.995,142.851 207.811 C 141.988 207.622,141.637 207.726,141.445 208.228 C 141.252 208.730,140.890 208.838,139.994 208.659 C 139.100 208.480,138.800 208.568,138.800 209.010 C 138.800 209.723,137.211 209.811,137.175 209.100 C 137.161 208.825,136.987 209.005,136.788 209.500 C 136.589 209.995,136.155 210.400,135.825 210.400 C 135.495 210.400,134.592 210.755,133.818 211.190 C 133.045 211.624,132.139 211.875,131.806 211.747 C 131.423 211.600,131.200 211.746,131.200 212.145 C 131.200 212.514,130.973 212.688,130.652 212.564 C 130.350 212.449,129.997 212.631,129.867 212.970 C 129.737 213.309,129.377 213.489,129.067 213.370 C 128.757 213.251,128.388 213.453,128.248 213.819 C 128.101 214.203,127.742 214.387,127.397 214.254 C 127.068 214.128,126.797 214.244,126.793 214.513 C 126.783 215.169,122.803 217.798,121.804 217.808 C 121.329 217.812,120.950 218.135,120.865 218.608 C 120.690 219.570,117.389 222.800,116.580 222.800 C 116.261 222.800,116.000 222.991,116.000 223.224 C 116.000 223.457,115.822 223.537,115.605 223.403 C 115.381 223.265,115.309 223.419,115.439 223.759 C 115.831 224.780,114.357 226.799,113.214 226.806 C 112.585 226.810,112.384 226.929,112.685 227.120 C 113.306 227.515,112.885 229.200,112.166 229.200 C 111.851 229.200,111.721 229.449,111.854 229.797 C 111.985 230.137,111.808 230.499,111.444 230.639 C 111.092 230.773,110.905 231.046,111.028 231.245 C 111.150 231.443,110.959 231.718,110.602 231.854 C 110.237 231.995,110.052 232.359,110.179 232.689 C 110.319 233.056,110.101 233.353,109.593 233.486 C 108.927 233.660,108.871 233.803,109.276 234.292 C 109.675 234.773,109.639 234.982,109.085 235.387 C 108.708 235.663,108.400 236.183,108.400 236.544 C 108.400 236.905,108.220 237.200,108.000 237.200 C 107.780 237.200,107.600 237.740,107.600 238.400 C 107.600 239.060,107.400 239.600,107.155 239.600 C 106.864 239.600,106.801 240.082,106.974 241.000 C 107.189 242.150,107.116 242.400,106.562 242.400 C 105.989 242.400,105.924 242.698,106.125 244.400 C 106.323 246.068,106.256 246.400,105.720 246.400 C 105.157 246.400,105.108 246.903,105.320 250.500 C 105.512 253.749,105.442 254.761,104.981 255.376 C 104.484 256.041,104.407 260.436,104.451 285.776 C 104.494 310.474,104.838 332.658,105.128 329.388 C 105.168 328.942,105.587 328.312,106.060 327.988 C 107.386 327.081,110.400 324.026,110.400 323.589 C 110.400 323.375,110.678 323.200,111.018 323.200 C 111.720 323.200,113.600 321.458,113.600 320.807 C 113.600 320.381,122.826 311.117,125.159 309.200 C 125.857 308.627,126.381 307.809,126.388 307.283 C 126.395 306.779,126.625 306.092,126.900 305.756 C 128.005 304.408,138.730 293.760,139.536 293.212 C 140.011 292.888,140.400 292.389,140.400 292.102 C 140.400 291.524,141.397 290.435,149.100 282.599 C 152.015 279.634,154.400 277.110,154.400 276.990 C 154.400 276.549,157.191 274.000,157.687 273.988 C 157.969 273.981,158.650 273.427,159.200 272.756 C 159.750 272.085,162.045 269.662,164.300 267.372 C 166.555 265.083,168.405 262.982,168.412 262.705 C 168.419 262.427,168.969 261.750,169.635 261.200 C 172.026 259.226,175.600 255.636,175.600 255.208 C 175.600 254.740,176.215 254.013,179.500 250.600 C 180.655 249.399,181.610 248.188,181.622 247.909 C 181.634 247.629,182.541 246.590,183.637 245.600 C 188.704 241.026,194.800 234.690,194.800 234.000 C 194.800 233.761,196.285 232.134,198.100 230.383 C 203.227 225.438,203.947 224.800,204.397 224.800 C 204.948 224.800,209.200 220.543,209.200 219.992 C 209.200 219.327,214.496 213.806,220.435 208.282 C 221.569 207.227,222.430 206.306,222.348 206.235 C 221.227 205.267,154.494 204.890,154.126 205.850 " stroke="none" fill="#fcdc54" fill-rule="evenodd"></path><path id="path4" d="M306.800 155.000 C 306.800 155.330,306.980 155.600,307.200 155.600 C 307.420 155.600,307.600 155.330,307.600 155.000 C 307.600 154.670,307.420 154.400,307.200 154.400 C 306.980 154.400,306.800 154.670,306.800 155.000 M251.000 331.200 C 250.210 331.401,251.165 331.508,253.800 331.513 C 256.359 331.518,257.440 331.405,256.800 331.200 C 255.546 330.798,252.579 330.798,251.000 331.200 M248.000 332.000 C 247.532 332.302,247.643 332.389,248.500 332.394 C 249.105 332.397,249.600 332.220,249.600 332.000 C 249.600 331.494,248.783 331.494,248.000 332.000 M258.200 332.000 C 258.336 332.220,258.887 332.400,259.424 332.400 C 259.961 332.400,260.400 332.580,260.400 332.800 C 260.400 333.020,260.760 333.200,261.200 333.200 C 261.640 333.200,262.000 333.380,262.000 333.600 C 262.000 333.820,262.178 334.000,262.395 334.000 C 262.983 334.000,266.800 337.274,266.800 337.777 C 266.800 337.918,267.160 338.420,267.600 338.892 C 268.040 339.364,268.400 339.987,268.400 340.275 C 268.400 340.564,268.580 340.800,268.800 340.800 C 269.020 340.800,269.200 341.250,269.200 341.800 C 269.200 342.350,269.380 342.800,269.600 342.800 C 269.820 342.800,270.000 343.711,270.000 344.824 C 270.000 346.209,270.141 346.760,270.446 346.572 C 271.859 345.698,269.120 339.268,265.986 336.101 C 263.499 333.588,257.097 330.216,258.200 332.000 M245.416 333.073 C 244.017 333.830,240.715 336.848,240.987 337.121 C 241.091 337.225,241.677 336.790,242.288 336.155 C 242.900 335.520,243.895 334.745,244.500 334.432 C 245.105 334.120,245.600 333.715,245.600 333.532 C 245.600 333.350,245.960 333.200,246.400 333.200 C 246.840 333.200,247.200 333.020,247.200 332.800 C 247.200 332.258,246.813 332.317,245.416 333.073 M239.659 338.455 C 238.271 340.677,237.600 342.089,237.600 342.789 C 237.600 343.209,237.420 343.664,237.200 343.800 C 236.619 344.159,236.721 351.153,237.331 352.800 C 238.320 355.467,239.390 357.600,239.740 357.600 C 239.934 357.600,239.801 357.156,239.446 356.614 C 239.091 356.072,238.800 355.262,238.800 354.814 C 238.800 354.366,238.620 354.000,238.400 354.000 C 238.180 354.000,238.000 353.561,238.000 353.024 C 238.000 352.487,237.820 351.936,237.600 351.800 C 236.169 350.915,237.649 342.618,239.865 339.100 C 240.385 338.275,240.671 337.600,240.501 337.600 C 240.331 337.600,239.952 337.985,239.659 338.455 M270.000 351.600 C 270.000 352.700,269.820 353.600,269.600 353.600 C 269.380 353.600,269.200 353.960,269.200 354.400 C 269.200 354.840,269.020 355.200,268.800 355.200 C 268.580 355.200,268.400 355.560,268.400 356.000 C 268.400 356.440,268.220 356.800,268.000 356.800 C 267.780 356.800,267.600 357.070,267.600 357.400 C 267.600 357.730,267.420 358.000,267.200 358.000 C 266.980 358.000,266.800 358.193,266.800 358.429 C 266.800 359.091,265.654 360.081,265.208 359.805 C 264.988 359.669,264.897 359.793,265.005 360.079 C 265.276 360.800,260.603 363.600,259.129 363.600 C 258.728 363.600,258.400 363.780,258.400 364.000 C 258.400 364.243,256.600 364.400,253.800 364.400 C 251.000 364.400,249.200 364.243,249.200 364.000 C 249.200 363.780,248.868 363.600,248.461 363.600 C 247.585 363.600,245.308 362.543,244.242 361.641 C 243.710 361.192,243.534 361.159,243.652 361.532 C 243.745 361.824,244.356 362.364,245.011 362.732 C 245.665 363.099,246.290 363.498,246.400 363.617 C 246.638 363.875,249.048 364.587,251.732 365.192 C 254.833 365.891,258.715 365.025,262.900 362.700 C 266.953 360.448,273.209 349.600,270.454 349.600 C 270.176 349.600,270.000 350.374,270.000 351.600 M241.796 360.396 C 242.426 361.054,243.019 361.514,243.113 361.420 C 243.322 361.212,241.356 359.200,240.943 359.200 C 240.782 359.200,241.166 359.738,241.796 360.396 " stroke="none" fill="#6e5818" fill-rule="evenodd"></path><path id="path5" d="M179.200 3.400 C 179.200 4.063,182.695 4.222,186.700 3.741 C 190.387 3.298,188.958 2.800,184.000 2.800 C 180.000 2.800,179.200 2.900,179.200 3.400 M207.200 3.143 C 207.200 3.542,211.079 4.000,214.459 4.000 C 216.273 4.000,216.800 3.865,216.800 3.400 C 216.800 2.900,216.000 2.800,212.000 2.800 C 209.360 2.800,207.200 2.954,207.200 3.143 M143.167 33.608 C 131.560 35.022,124.949 48.115,130.424 58.846 C 131.435 60.828,136.079 65.600,136.997 65.600 C 137.329 65.600,137.600 65.780,137.600 66.000 C 137.600 66.220,137.872 66.400,138.205 66.400 C 138.538 66.400,139.123 66.558,139.505 66.751 C 143.576 68.807,150.528 68.224,154.600 65.485 C 156.246 64.378,159.998 60.721,160.009 60.214 C 160.014 59.986,160.370 59.350,160.800 58.800 C 161.230 58.250,161.586 57.485,161.591 57.100 C 161.596 56.715,161.780 56.400,162.000 56.400 C 162.220 56.400,162.400 55.716,162.400 54.880 C 162.400 54.044,162.599 53.161,162.841 52.919 C 163.436 52.324,162.668 45.413,161.958 44.974 C 161.761 44.852,161.600 44.403,161.600 43.976 C 161.600 43.549,161.420 43.200,161.200 43.200 C 160.980 43.200,160.800 42.932,160.800 42.605 C 160.800 42.014,160.486 41.563,158.238 38.919 C 154.874 34.964,149.008 32.897,143.167 33.608 M149.600 35.200 C 149.600 35.420,150.140 35.600,150.800 35.600 C 151.460 35.600,152.000 35.780,152.000 36.000 C 152.000 36.220,152.360 36.400,152.800 36.400 C 153.240 36.400,153.600 36.580,153.600 36.800 C 153.600 37.020,153.882 37.200,154.226 37.200 C 154.570 37.200,155.749 38.121,156.846 39.247 C 158.649 41.098,159.296 42.172,160.743 45.719 C 161.307 47.100,161.354 55.058,160.800 55.400 C 160.580 55.536,160.400 56.087,160.400 56.624 C 160.400 57.161,160.220 57.600,160.000 57.600 C 159.780 57.600,159.600 57.938,159.600 58.351 C 159.600 58.764,159.330 59.326,159.000 59.600 C 158.670 59.874,158.400 60.264,158.400 60.467 C 158.400 61.000,156.782 62.506,155.500 63.168 C 154.895 63.480,154.400 63.885,154.400 64.068 C 154.400 64.250,154.040 64.400,153.600 64.400 C 153.160 64.400,152.800 64.580,152.800 64.800 C 152.800 65.020,152.440 65.200,152.000 65.200 C 151.560 65.200,151.200 65.380,151.200 65.600 C 151.200 65.820,150.581 66.000,149.824 66.000 C 149.067 66.000,148.336 66.180,148.200 66.400 C 148.064 66.620,146.883 66.800,145.576 66.800 C 144.259 66.800,143.200 66.622,143.200 66.400 C 143.200 66.180,142.677 66.000,142.038 66.000 C 140.916 66.000,137.539 64.514,137.267 63.900 C 137.193 63.735,136.874 63.600,136.556 63.600 C 135.745 63.600,132.650 60.414,131.971 58.879 C 131.659 58.176,131.269 57.600,131.102 57.600 C 130.936 57.600,130.800 57.240,130.800 56.800 C 130.800 56.360,130.620 56.000,130.400 56.000 C 130.180 56.000,130.000 55.280,130.000 54.400 C 130.000 53.520,129.820 52.800,129.600 52.800 C 129.380 52.800,129.200 51.900,129.200 50.800 C 129.200 49.700,129.380 48.800,129.600 48.800 C 129.820 48.800,130.000 48.080,130.000 47.200 C 130.000 46.320,130.180 45.600,130.400 45.600 C 130.620 45.600,130.800 45.100,130.800 44.488 C 130.800 43.835,131.130 43.139,131.600 42.800 C 132.040 42.483,132.400 42.064,132.400 41.868 C 132.400 41.265,136.746 37.200,137.391 37.200 C 137.726 37.200,138.001 37.065,138.003 36.900 C 138.007 36.494,139.986 35.600,140.880 35.600 C 141.276 35.600,141.600 35.420,141.600 35.200 C 141.600 34.960,143.200 34.800,145.600 34.800 C 148.000 34.800,149.600 34.960,149.600 35.200 M2.178 185.235 C 2.031 185.474,2.110 185.870,2.355 186.115 C 2.682 186.442,2.800 186.326,2.800 185.680 C 2.800 184.714,2.592 184.565,2.178 185.235 M92.400 239.000 C 92.400 239.330,92.580 239.600,92.800 239.600 C 93.020 239.600,93.200 239.330,93.200 239.000 C 93.200 238.670,93.020 238.400,92.800 238.400 C 92.580 238.400,92.400 238.670,92.400 239.000 M91.867 244.267 C 91.417 244.717,91.549 295.600,92.000 295.600 C 92.263 295.600,92.400 286.733,92.400 269.800 C 92.400 255.610,92.340 244.000,92.267 244.000 C 92.193 244.000,92.013 244.120,91.867 244.267 M249.600 332.000 C 249.600 332.220,249.060 332.400,248.400 332.400 C 247.740 332.400,247.200 332.580,247.200 332.800 C 247.200 333.020,246.840 333.200,246.400 333.200 C 245.960 333.200,245.600 333.350,245.600 333.532 C 245.600 333.715,245.106 334.120,244.503 334.432 C 240.412 336.549,237.200 342.738,237.200 348.503 C 237.200 350.180,237.380 351.664,237.600 351.800 C 237.820 351.936,238.000 352.487,238.000 353.024 C 238.000 353.561,238.180 354.000,238.400 354.000 C 238.620 354.000,238.800 353.471,238.800 352.824 C 238.800 352.177,238.620 351.536,238.400 351.400 C 237.907 351.096,237.867 345.452,238.351 344.495 C 238.544 344.113,238.932 343.080,239.212 342.200 C 240.139 339.296,242.401 336.316,244.500 335.232 C 245.105 334.920,245.600 334.515,245.600 334.332 C 245.600 334.150,245.960 334.000,246.400 334.000 C 246.840 334.000,247.200 333.820,247.200 333.600 C 247.200 333.380,247.740 333.200,248.400 333.200 C 249.060 333.200,249.600 333.020,249.600 332.800 C 249.600 332.558,251.333 332.400,254.000 332.400 C 256.667 332.400,258.400 332.558,258.400 332.800 C 258.400 333.020,258.850 333.200,259.400 333.200 C 259.950 333.200,260.400 333.380,260.400 333.600 C 260.400 333.820,260.760 334.000,261.200 334.000 C 261.640 334.000,262.000 334.141,262.000 334.314 C 262.000 334.486,262.495 334.920,263.100 335.279 C 264.682 336.215,265.724 337.241,266.370 338.500 C 266.681 339.105,267.085 339.600,267.268 339.600 C 267.450 339.600,267.600 339.870,267.600 340.200 C 267.600 340.530,267.780 340.800,268.000 340.800 C 268.220 340.800,268.400 341.160,268.400 341.600 C 268.400 342.040,268.580 342.400,268.800 342.400 C 269.020 342.400,269.200 342.040,269.200 341.600 C 269.200 341.160,269.020 340.800,268.800 340.800 C 268.580 340.800,268.400 340.564,268.400 340.275 C 268.400 339.987,268.040 339.364,267.600 338.892 C 267.160 338.420,266.800 337.918,266.800 337.777 C 266.800 337.274,262.983 334.000,262.395 334.000 C 262.178 334.000,262.000 333.820,262.000 333.600 C 262.000 333.380,261.640 333.200,261.200 333.200 C 260.760 333.200,260.400 333.020,260.400 332.800 C 260.400 332.580,259.961 332.400,259.424 332.400 C 258.887 332.400,258.336 332.220,258.200 332.000 C 258.061 331.775,256.129 331.600,253.776 331.600 C 251.259 331.600,249.600 331.759,249.600 332.000 M269.200 343.800 C 269.200 344.350,269.380 344.800,269.600 344.800 C 269.820 344.800,270.000 344.350,270.000 343.800 C 270.000 343.250,269.820 342.800,269.600 342.800 C 269.380 342.800,269.200 343.250,269.200 343.800 M270.267 346.667 C 269.843 347.090,269.957 349.600,270.400 349.600 C 270.620 349.600,270.800 348.880,270.800 348.000 C 270.800 346.365,270.734 346.200,270.267 346.667 M269.200 352.400 C 269.200 353.060,269.020 353.600,268.800 353.600 C 268.580 353.600,268.400 353.872,268.400 354.205 C 268.400 354.780,267.653 356.369,267.181 356.800 C 266.506 357.416,265.146 359.680,265.337 359.871 C 265.624 360.157,266.800 358.997,266.800 358.429 C 266.800 358.193,266.980 358.000,267.200 358.000 C 267.420 358.000,267.600 357.730,267.600 357.400 C 267.600 357.070,267.780 356.800,268.000 356.800 C 268.220 356.800,268.400 356.440,268.400 356.000 C 268.400 355.560,268.580 355.200,268.800 355.200 C 269.020 355.200,269.200 354.840,269.200 354.400 C 269.200 353.960,269.380 353.600,269.600 353.600 C 269.820 353.600,270.000 353.060,270.000 352.400 C 270.000 351.740,269.820 351.200,269.600 351.200 C 269.380 351.200,269.200 351.740,269.200 352.400 M238.800 354.968 C 238.800 355.954,240.140 358.078,241.900 359.880 C 242.835 360.838,243.600 361.498,243.600 361.349 C 243.600 361.199,243.915 361.348,244.300 361.679 C 245.927 363.082,248.800 364.053,248.800 363.200 C 248.800 362.980,248.440 362.800,248.000 362.800 C 247.560 362.800,247.200 362.620,247.200 362.400 C 247.200 362.180,246.840 362.000,246.400 362.000 C 245.960 362.000,245.600 361.820,245.600 361.600 C 245.600 361.380,245.316 361.200,244.968 361.200 C 244.164 361.200,240.998 358.054,240.627 356.886 C 240.473 356.399,240.178 356.000,239.973 356.000 C 239.768 356.000,239.600 355.640,239.600 355.200 C 239.600 354.760,239.420 354.400,239.200 354.400 C 238.980 354.400,238.800 354.655,238.800 354.968 M264.400 359.871 C 264.400 360.109,263.860 360.527,263.200 360.800 C 262.540 361.073,262.000 361.411,262.000 361.551 C 262.000 361.690,261.415 362.040,260.700 362.329 C 259.985 362.617,259.087 363.021,258.705 363.226 C 258.323 363.432,257.198 363.600,256.205 363.600 C 255.212 363.600,254.400 363.780,254.400 364.000 C 254.400 364.220,255.300 364.400,256.400 364.400 C 257.500 364.400,258.400 364.220,258.400 364.000 C 258.400 363.780,258.762 363.600,259.205 363.600 C 259.648 363.600,260.413 363.380,260.905 363.111 C 261.669 362.694,264.640 360.881,265.173 360.508 C 265.269 360.441,265.134 360.174,264.873 359.913 C 264.561 359.601,264.400 359.586,264.400 359.871 M249.200 364.000 C 249.200 364.220,250.201 364.400,251.424 364.400 C 252.804 364.400,253.553 364.248,253.400 364.000 C 253.264 363.780,252.263 363.600,251.176 363.600 C 250.089 363.600,249.200 363.780,249.200 364.000 " stroke="none" fill="#313a2f" fill-rule="evenodd"></path><path id="path6" d="M371.957 116.023 C 372.483 116.461,373.010 116.724,373.127 116.606 C 373.383 116.351,371.973 115.225,371.400 115.226 C 371.180 115.226,371.430 115.585,371.957 116.023 M262.200 293.600 C 253.442 293.731,264.531 293.851,290.500 293.908 C 318.762 293.969,333.200 293.865,333.200 293.600 C 333.200 293.183,290.095 293.183,262.200 293.600 M200.400 307.200 C 200.400 307.464,216.400 307.600,247.600 307.600 C 278.800 307.600,294.800 307.464,294.800 307.200 C 294.800 306.936,278.800 306.800,247.600 306.800 C 216.400 306.800,200.400 306.936,200.400 307.200 M239.200 392.800 C 239.200 393.020,239.470 393.200,239.800 393.200 C 240.130 393.200,240.400 393.020,240.400 392.800 C 240.400 392.580,240.130 392.400,239.800 392.400 C 239.470 392.400,239.200 392.580,239.200 392.800 " stroke="none" fill="#c49c2d" fill-rule="evenodd"></path><path id="path7" d="M371.200 115.932 C 371.200 116.451,372.296 117.304,372.750 117.138 C 372.957 117.062,372.693 116.677,372.163 116.281 C 371.633 115.886,371.200 115.729,371.200 115.932 M376.000 121.200 C 376.000 121.420,376.180 121.600,376.400 121.600 C 376.620 121.600,376.800 121.870,376.800 122.200 C 376.800 122.530,376.980 122.800,377.200 122.800 C 377.782 122.800,377.690 122.032,377.029 121.371 C 376.358 120.701,376.000 120.642,376.000 121.200 M378.400 124.324 C 378.400 124.946,379.537 126.196,379.834 125.899 C 379.999 125.735,379.923 125.600,379.667 125.600 C 379.410 125.600,379.200 125.240,379.200 124.800 C 379.200 124.360,379.020 124.000,378.800 124.000 C 378.580 124.000,378.400 124.146,378.400 124.324 M380.400 127.600 C 380.635 128.040,381.002 128.400,381.214 128.400 C 381.426 128.400,381.600 128.670,381.600 129.000 C 381.600 129.330,381.780 129.600,382.000 129.600 C 382.737 129.600,382.410 128.457,381.600 128.200 C 381.160 128.060,380.800 127.688,380.800 127.373 C 380.800 127.058,380.614 126.800,380.386 126.800 C 380.105 126.800,380.110 127.058,380.400 127.600 M386.800 140.200 C 386.800 140.530,387.064 140.800,387.387 140.800 C 387.745 140.800,387.885 140.565,387.745 140.200 C 387.618 139.870,387.354 139.600,387.157 139.600 C 386.961 139.600,386.800 139.870,386.800 140.200 M389.232 146.300 C 389.210 146.905,389.430 147.198,389.900 147.194 C 390.332 147.190,390.431 147.075,390.160 146.894 C 389.918 146.732,389.617 146.330,389.492 146.000 C 389.339 145.599,389.253 145.699,389.232 146.300 M390.800 151.800 C 390.800 152.130,390.980 152.400,391.200 152.400 C 391.420 152.400,391.600 152.130,391.600 151.800 C 391.600 151.470,391.420 151.200,391.200 151.200 C 390.980 151.200,390.800 151.470,390.800 151.800 M307.632 156.267 C 307.614 156.743,307.375 157.216,307.100 157.317 C 306.712 157.459,306.707 157.614,307.078 158.008 C 307.616 158.580,308.259 156.884,307.871 155.917 C 307.757 155.633,307.649 155.790,307.632 156.267 M306.846 161.267 C 306.821 161.633,306.575 162.014,306.300 162.112 C 306.025 162.210,305.938 162.438,306.107 162.619 C 306.577 163.122,307.299 162.179,307.084 161.342 C 306.928 160.736,306.884 160.722,306.846 161.267 M304.400 168.200 C 304.400 168.567,304.594 168.802,304.830 168.723 C 305.067 168.644,305.260 168.409,305.260 168.200 C 305.260 167.991,305.067 167.756,304.830 167.677 C 304.594 167.598,304.400 167.833,304.400 168.200 M260.400 204.847 C 260.400 205.106,260.041 205.199,259.542 205.069 C 258.933 204.910,258.809 204.969,259.113 205.273 C 259.606 205.766,261.600 205.380,261.600 204.792 C 261.600 204.577,261.330 204.400,261.000 204.400 C 260.670 204.400,260.400 204.601,260.400 204.847 M151.284 205.815 C 150.860 206.297,150.871 206.400,151.352 206.400 C 152.233 206.400,153.200 205.959,153.200 205.557 C 153.200 204.990,151.852 205.172,151.284 205.815 M137.200 208.800 C 137.200 209.020,137.470 209.200,137.800 209.200 C 138.130 209.200,138.400 209.020,138.400 208.800 C 138.400 208.580,138.130 208.400,137.800 208.400 C 137.470 208.400,137.200 208.580,137.200 208.800 M127.078 213.056 C 126.758 213.375,127.119 214.000,127.624 214.000 C 127.831 214.000,128.000 213.730,128.000 213.400 C 128.000 212.781,127.528 212.605,127.078 213.056 M125.600 214.200 C 125.600 214.567,125.793 214.802,126.030 214.723 C 126.267 214.645,126.460 214.409,126.460 214.200 C 126.460 213.991,126.267 213.755,126.030 213.677 C 125.793 213.598,125.600 213.833,125.600 214.200 M123.029 215.809 C 122.094 216.516,122.319 216.851,123.517 216.537 C 124.003 216.411,124.400 216.058,124.400 215.753 C 124.400 215.053,124.006 215.069,123.029 215.809 M117.864 220.160 C 116.141 221.787,115.547 222.800,116.315 222.800 C 116.706 222.800,120.400 219.080,120.400 218.686 C 120.400 218.044,119.630 218.492,117.864 220.160 M112.800 226.000 C 112.800 226.220,113.070 226.400,113.400 226.400 C 113.730 226.400,114.000 226.220,114.000 226.000 C 114.000 225.780,113.730 225.600,113.400 225.600 C 113.070 225.600,112.800 225.780,112.800 226.000 M111.456 227.878 C 111.005 228.328,111.181 228.800,111.800 228.800 C 112.130 228.800,112.400 228.631,112.400 228.424 C 112.400 227.919,111.775 227.558,111.456 227.878 M392.400 239.000 C 392.400 239.330,392.580 239.600,392.800 239.600 C 393.020 239.600,393.200 239.330,393.200 239.000 C 393.200 238.670,393.020 238.400,392.800 238.400 C 392.580 238.400,392.400 238.670,392.400 239.000 M105.200 245.400 C 105.200 245.730,105.380 246.000,105.600 246.000 C 105.820 246.000,106.000 245.730,106.000 245.400 C 106.000 245.070,105.820 244.800,105.600 244.800 C 105.380 244.800,105.200 245.070,105.200 245.400 M390.184 247.227 C 390.039 247.461,390.016 247.749,390.133 247.867 C 390.420 248.153,391.200 247.648,391.200 247.176 C 391.200 246.665,390.509 246.699,390.184 247.227 M389.200 249.800 C 389.200 250.130,389.361 250.400,389.557 250.400 C 389.754 250.400,390.018 250.130,390.145 249.800 C 390.285 249.435,390.145 249.200,389.787 249.200 C 389.464 249.200,389.200 249.470,389.200 249.800 M380.284 268.000 C 380.169 268.440,380.238 268.800,380.437 268.800 C 380.637 268.800,380.800 268.545,380.800 268.233 C 380.800 267.922,381.025 267.576,381.300 267.465 C 381.617 267.337,381.561 267.252,381.147 267.232 C 380.787 267.214,380.399 267.560,380.284 268.000 M378.814 269.974 C 378.291 270.952,378.285 271.600,378.800 271.600 C 379.020 271.600,379.200 271.165,379.200 270.633 C 379.200 270.102,379.425 269.576,379.700 269.465 C 380.077 269.313,380.080 269.255,379.714 269.232 C 379.447 269.214,379.042 269.548,378.814 269.974 M375.243 274.637 C 374.747 275.207,374.443 275.776,374.568 275.901 C 374.693 276.026,375.129 275.743,375.538 275.271 C 375.947 274.800,376.368 274.501,376.474 274.607 C 376.580 274.713,376.667 274.530,376.667 274.200 C 376.667 273.335,376.268 273.457,375.243 274.637 M371.288 279.204 C 370.818 279.642,370.291 280.006,370.117 280.013 C 369.742 280.029,368.000 281.439,368.000 281.727 C 368.000 281.836,368.360 281.831,368.800 281.716 C 369.240 281.601,369.600 281.348,369.600 281.153 C 369.600 280.959,369.788 280.800,370.018 280.800 C 370.518 280.800,372.559 278.826,372.313 278.580 C 372.219 278.486,371.757 278.767,371.288 279.204 M365.300 283.465 C 365.025 283.576,364.814 283.967,364.832 284.333 C 364.851 284.749,364.939 284.812,365.065 284.500 C 365.176 284.225,365.612 284.000,366.033 284.000 C 366.455 284.000,366.800 283.820,366.800 283.600 C 366.800 283.181,366.149 283.122,365.300 283.465 M347.600 292.000 C 347.600 292.220,347.870 292.400,348.200 292.400 C 348.530 292.400,348.800 292.220,348.800 292.000 C 348.800 291.780,348.530 291.600,348.200 291.600 C 347.870 291.600,347.600 291.780,347.600 292.000 M231.000 293.185 C 211.775 293.314,199.294 293.543,199.737 293.757 C 200.165 293.964,213.206 294.006,230.737 293.857 C 315.566 293.137,333.200 293.083,333.200 293.542 C 333.200 293.839,334.114 294.000,335.800 294.000 C 337.230 294.000,338.400 293.833,338.400 293.628 C 338.400 293.423,338.805 293.189,339.300 293.108 C 340.646 292.887,267.594 292.939,231.000 293.185 M199.407 307.188 C 198.922 307.973,201.886 308.017,248.000 307.908 L 295.000 307.797 247.700 307.698 C 216.499 307.633,200.400 307.464,200.400 307.200 C 200.400 306.688,199.721 306.680,199.407 307.188 M266.400 335.800 C 267.146 336.570,267.847 337.200,267.957 337.200 C 268.067 337.200,267.546 336.570,266.800 335.800 C 266.054 335.030,265.353 334.400,265.243 334.400 C 265.133 334.400,265.654 335.030,266.400 335.800 M236.878 342.535 C 236.616 343.258,236.320 345.279,236.220 347.025 L 236.038 350.200 236.425 347.000 C 236.637 345.240,237.013 343.299,237.260 342.687 C 237.506 342.075,237.628 341.495,237.531 341.397 C 237.433 341.300,237.139 341.812,236.878 342.535 M271.355 348.202 C 271.359 350.628,271.406 350.808,271.706 349.557 C 271.903 348.738,271.901 347.528,271.701 346.759 C 271.405 345.614,271.351 345.838,271.355 348.202 M236.493 351.600 C 236.493 352.370,236.575 352.685,236.676 352.300 C 236.776 351.915,236.776 351.285,236.676 350.900 C 236.575 350.515,236.493 350.830,236.493 351.600 M239.500 358.600 C 239.957 359.260,241.016 360.430,241.853 361.200 C 243.070 362.318,242.983 362.158,241.422 360.400 C 238.796 357.444,238.526 357.191,239.500 358.600 M263.681 362.572 C 261.823 363.885,261.562 364.261,263.131 363.362 C 263.863 362.943,264.650 362.375,264.880 362.100 C 265.471 361.393,265.193 361.502,263.681 362.572 M258.900 364.848 C 258.185 365.054,257.600 365.311,257.600 365.419 C 257.600 365.709,259.738 365.153,260.180 364.748 C 260.616 364.349,260.630 364.348,258.900 364.848 M252.311 365.893 C 253.251 365.978,254.691 365.977,255.511 365.891 C 256.330 365.805,255.560 365.736,253.800 365.737 C 252.040 365.739,251.370 365.809,252.311 365.893 M111.200 367.000 C 111.200 367.330,111.470 367.600,111.800 367.600 C 112.130 367.600,112.400 367.810,112.400 368.067 C 112.400 368.323,112.483 368.450,112.584 368.349 C 112.685 368.248,112.664 367.768,112.537 367.283 C 112.279 366.295,111.200 366.067,111.200 367.000 M290.000 367.800 C 290.000 368.130,290.180 368.400,290.400 368.400 C 290.620 368.400,290.800 368.130,290.800 367.800 C 290.800 367.470,290.620 367.200,290.400 367.200 C 290.180 367.200,290.000 367.470,290.000 367.800 M287.320 371.157 C 287.060 371.573,286.957 372.024,287.091 372.158 C 287.370 372.437,288.800 371.249,288.800 370.738 C 288.800 370.110,287.796 370.394,287.320 371.157 M283.000 375.366 C 282.340 375.895,281.935 376.464,282.100 376.631 C 282.265 376.797,282.400 376.723,282.400 376.467 C 282.400 376.210,282.678 376.000,283.017 376.000 C 283.356 376.000,284.020 375.640,284.492 375.200 C 285.752 374.026,284.497 374.166,283.000 375.366 M120.493 376.000 C 121.013 376.833,122.000 377.095,122.000 376.400 C 122.000 376.180,121.730 376.000,121.400 376.000 C 121.070 376.000,120.800 375.820,120.800 375.600 C 120.800 375.380,120.618 375.200,120.397 375.200 C 120.157 375.200,120.197 375.526,120.493 376.000 M123.400 378.000 C 123.536 378.220,123.907 378.400,124.224 378.400 C 124.541 378.400,124.800 378.610,124.800 378.867 C 124.800 379.123,124.935 379.199,125.099 379.034 C 125.264 378.869,125.050 378.479,124.623 378.167 C 123.725 377.511,123.040 377.417,123.400 378.000 M279.500 378.032 C 279.115 378.256,278.803 378.656,278.806 378.920 C 278.810 379.252,278.903 379.266,279.106 378.966 C 279.268 378.727,279.760 378.327,280.200 378.078 C 280.640 377.828,280.820 377.624,280.600 377.624 C 280.380 377.624,279.885 377.808,279.500 378.032 M127.600 381.200 C 127.600 381.420,127.870 381.600,128.200 381.600 C 128.530 381.600,128.800 381.420,128.800 381.200 C 128.800 380.980,128.530 380.800,128.200 380.800 C 127.870 380.800,127.600 380.980,127.600 381.200 M129.200 382.000 C 129.200 382.220,129.470 382.400,129.800 382.400 C 130.130 382.400,130.400 382.220,130.400 382.000 C 130.400 381.780,130.130 381.600,129.800 381.600 C 129.470 381.600,129.200 381.780,129.200 382.000 M134.000 384.400 C 134.000 384.620,134.270 384.800,134.600 384.800 C 134.930 384.800,135.200 384.620,135.200 384.400 C 135.200 384.180,134.930 384.000,134.600 384.000 C 134.270 384.000,134.000 384.180,134.000 384.400 M135.867 384.667 C 135.406 385.127,135.575 385.600,136.200 385.600 C 136.530 385.600,136.800 385.330,136.800 385.000 C 136.800 384.375,136.327 384.206,135.867 384.667 M265.600 385.787 C 265.600 386.144,265.835 386.285,266.198 386.146 C 266.526 386.019,266.696 385.755,266.574 385.558 C 266.225 384.993,265.600 385.140,265.600 385.787 M139.600 386.567 C 139.600 386.915,139.885 387.200,140.233 387.200 C 140.582 387.200,140.795 386.986,140.708 386.725 C 140.461 385.983,139.600 385.860,139.600 386.567 M146.617 388.772 C 146.344 389.214,146.975 389.692,147.344 389.322 C 147.725 388.942,147.654 388.400,147.224 388.400 C 147.017 388.400,146.744 388.568,146.617 388.772 " stroke="none" fill="#c4a535" fill-rule="evenodd"></path><path id="path8" d="M390.239 148.338 C 390.100 148.561,390.182 148.865,390.420 149.012 C 391.035 149.393,391.432 148.872,390.918 148.358 C 390.631 148.071,390.407 148.064,390.239 148.338 M306.800 156.400 C 306.800 156.840,306.980 157.200,307.200 157.200 C 307.420 157.200,307.600 156.840,307.600 156.400 C 307.600 155.960,307.420 155.600,307.200 155.600 C 306.980 155.600,306.800 155.960,306.800 156.400 M306.000 161.200 C 306.000 161.640,306.180 162.000,306.400 162.000 C 306.620 162.000,306.800 161.640,306.800 161.200 C 306.800 160.760,306.620 160.400,306.400 160.400 C 306.180 160.400,306.000 160.760,306.000 161.200 M305.200 165.000 C 305.200 165.330,305.380 165.600,305.600 165.600 C 305.820 165.600,306.000 165.330,306.000 165.000 C 306.000 164.670,305.820 164.400,305.600 164.400 C 305.380 164.400,305.200 164.670,305.200 165.000 M259.200 204.800 C 259.200 205.020,259.470 205.200,259.800 205.200 C 260.130 205.200,260.400 205.020,260.400 204.800 C 260.400 204.580,260.130 204.400,259.800 204.400 C 259.470 204.400,259.200 204.580,259.200 204.800 M150.400 205.600 C 150.400 205.820,150.670 206.000,151.000 206.000 C 151.330 206.000,151.600 205.820,151.600 205.600 C 151.600 205.380,151.330 205.200,151.000 205.200 C 150.670 205.200,150.400 205.380,150.400 205.600 M145.600 206.400 C 145.600 206.620,145.870 206.800,146.200 206.800 C 146.530 206.800,146.800 206.620,146.800 206.400 C 146.800 206.180,146.530 206.000,146.200 206.000 C 145.870 206.000,145.600 206.180,145.600 206.400 M339.200 293.600 C 339.200 293.820,339.470 294.000,339.800 294.000 C 340.130 294.000,340.400 293.820,340.400 293.600 C 340.400 293.380,340.130 293.200,339.800 293.200 C 339.470 293.200,339.200 293.380,339.200 293.600 M251.249 330.746 C 250.726 330.893,251.843 331.010,253.732 331.006 C 255.621 331.003,256.858 330.878,256.483 330.728 C 255.620 330.385,252.501 330.395,251.249 330.746 M247.300 331.834 C 245.507 332.618,245.660 332.921,247.500 332.229 C 248.325 331.919,249.270 331.574,249.600 331.464 C 250.000 331.330,249.934 331.264,249.400 331.264 C 248.960 331.265,248.015 331.521,247.300 331.834 M257.633 331.344 C 258.105 331.750,260.043 331.993,259.810 331.616 C 259.668 331.387,259.083 331.200,258.510 331.200 C 257.936 331.200,257.542 331.265,257.633 331.344 M262.033 332.916 C 262.125 332.980,262.920 333.533,263.800 334.145 L 265.400 335.258 264.015 334.029 C 263.253 333.353,262.458 332.800,262.248 332.800 C 262.038 332.800,261.942 332.852,262.033 332.916 M241.456 335.877 C 240.667 336.690,240.107 337.440,240.211 337.544 C 240.315 337.648,240.445 337.656,240.500 337.562 C 240.555 337.468,241.220 336.718,241.978 335.896 C 243.762 333.961,243.333 333.946,241.456 335.877 M265.612 335.303 C 265.605 335.470,266.054 336.117,266.609 336.740 C 267.164 337.362,267.878 338.216,268.196 338.636 C 268.514 339.056,268.775 339.220,268.775 339.000 C 268.776 338.531,265.630 334.854,265.612 335.303 M269.530 341.182 C 269.898 342.051,270.256 342.604,270.324 342.409 C 270.450 342.049,269.313 339.600,269.019 339.600 C 268.931 339.600,269.161 340.312,269.530 341.182 M270.600 348.227 C 270.600 350.948,270.722 352.865,270.872 352.487 C 271.242 351.552,271.260 344.313,270.894 343.740 C 270.732 343.486,270.600 345.505,270.600 348.227 M236.509 348.000 C 236.509 348.990,236.587 349.395,236.682 348.900 C 236.778 348.405,236.778 347.595,236.682 347.100 C 236.587 346.605,236.509 347.010,236.509 348.000 M269.109 355.826 C 268.526 357.031,268.185 357.933,268.350 357.831 C 268.800 357.553,270.557 354.023,270.349 353.816 C 270.250 353.717,269.692 354.622,269.109 355.826 M239.934 358.700 C 240.367 359.305,241.225 360.250,241.840 360.800 C 242.658 361.532,242.561 361.325,241.479 360.028 C 240.665 359.053,240.000 358.108,240.000 357.928 C 240.000 357.748,239.808 357.600,239.573 357.600 C 239.338 357.600,239.500 358.095,239.934 358.700 M265.690 360.312 C 263.340 362.787,263.783 362.854,266.209 360.391 C 267.288 359.296,267.997 358.425,267.785 358.455 C 267.573 358.485,266.630 359.321,265.690 360.312 M250.200 365.200 C 250.640 365.389,251.450 365.538,252.000 365.532 L 253.000 365.520 252.000 365.200 C 251.450 365.024,250.640 364.874,250.200 364.868 L 249.400 364.856 250.200 365.200 M255.800 365.200 L 254.600 365.505 255.800 365.547 C 256.460 365.569,257.270 365.413,257.600 365.200 C 258.343 364.720,257.687 364.720,255.800 365.200 M272.800 382.800 C 272.800 383.020,273.070 383.200,273.400 383.200 C 273.730 383.200,274.000 383.020,274.000 382.800 C 274.000 382.580,273.730 382.400,273.400 382.400 C 273.070 382.400,272.800 382.580,272.800 382.800 M269.600 384.400 C 269.600 384.620,269.870 384.800,270.200 384.800 C 270.530 384.800,270.800 384.620,270.800 384.400 C 270.800 384.180,270.530 384.000,270.200 384.000 C 269.870 384.000,269.600 384.180,269.600 384.400 M149.039 389.538 C 148.900 389.761,148.982 390.065,149.220 390.212 C 149.835 390.593,150.232 390.072,149.718 389.558 C 149.431 389.271,149.207 389.264,149.039 389.538 " stroke="none" fill="#b4942c" fill-rule="evenodd"></path></g></svg>