<svg id="svg" version="1.1" xmlns="http://www.w3.org/2000/svg" xmlns:xlink="http://www.w3.org/1999/xlink" width="400" height="400" viewBox="0, 0, 400,400"><g id="svgg"><path id="path0" d="M242.832 181.903 C 242.849 182.286,242.948 182.394,243.051 182.142 C 243.154 181.891,243.635 181.782,244.119 181.902 C 244.604 182.021,244.860 181.967,244.690 181.782 C 244.060 181.100,242.799 181.182,242.832 181.903 M61.442 182.159 C 61.689 182.807,61.581 182.890,60.702 182.722 C 59.890 182.566,59.719 182.660,59.890 183.162 C 60.040 183.603,59.898 183.553,59.429 183.000 C 58.946 182.431,58.689 182.345,58.541 182.702 C 58.426 182.979,58.167 183.103,57.966 182.979 C 57.765 182.855,57.600 182.938,57.600 183.164 C 57.600 183.390,57.330 183.471,57.000 183.345 C 56.670 183.218,56.400 183.324,56.400 183.581 C 56.400 183.837,56.220 183.936,56.000 183.800 C 55.780 183.664,55.600 183.855,55.600 184.225 C 55.600 184.778,55.493 184.809,55.000 184.400 C 54.503 183.988,54.399 184.031,54.394 184.651 C 54.389 185.240,54.312 185.281,54.034 184.842 C 53.800 184.472,53.431 184.393,52.940 184.607 C 52.533 184.785,52.028 184.946,51.818 184.965 C 51.608 184.984,51.311 185.450,51.158 186.000 C 50.982 186.631,50.865 186.742,50.840 186.300 C 50.818 185.915,50.609 185.600,50.376 185.600 C 50.143 185.600,50.064 185.780,50.200 186.000 C 50.426 186.365,50.231 186.438,48.700 186.560 C 48.425 186.582,48.092 186.746,47.961 186.925 C 47.829 187.104,47.161 187.266,46.475 187.286 C 45.789 187.305,45.296 187.432,45.380 187.567 C 45.463 187.702,45.097 188.018,44.565 188.269 C 44.034 188.520,43.702 188.558,43.829 188.354 C 43.955 188.149,43.280 188.333,42.329 188.762 C 39.452 190.060,33.928 192.133,33.346 192.133 C 33.046 192.133,32.800 192.303,32.800 192.509 C 32.800 192.716,32.551 192.790,32.246 192.673 C 31.941 192.556,31.356 192.692,30.946 192.974 C 30.536 193.257,29.885 193.439,29.500 193.379 C 29.115 193.320,28.798 193.480,28.796 193.735 C 28.793 193.991,27.181 194.725,25.213 195.366 C 23.245 196.007,21.543 196.772,21.430 197.066 C 21.317 197.360,20.974 197.600,20.668 197.600 C 19.961 197.600,15.200 202.681,15.200 203.436 C 15.200 203.746,15.061 204.000,14.891 204.000 C 14.537 204.000,13.193 206.375,13.064 207.230 C 13.016 207.543,12.813 208.064,12.611 208.388 C 11.568 210.060,12.363 220.321,13.567 220.722 C 13.780 220.793,13.856 221.110,13.735 221.426 C 13.614 221.742,13.714 222.000,13.957 222.000 C 14.201 222.000,14.361 222.135,14.314 222.300 C 14.166 222.819,16.240 225.748,17.649 227.009 C 19.378 228.557,21.827 230.291,21.472 229.716 C 21.295 229.430,21.479 229.348,21.995 229.483 C 22.433 229.597,22.700 229.838,22.589 230.018 C 22.478 230.198,22.570 230.458,22.793 230.596 C 23.017 230.734,23.200 230.629,23.200 230.362 C 23.200 230.096,23.515 230.240,23.900 230.684 C 24.886 231.819,34.800 233.116,34.800 232.110 C 34.800 231.919,35.475 231.718,36.299 231.663 C 37.124 231.607,37.970 231.390,38.179 231.181 C 38.389 230.971,38.869 230.800,39.247 230.800 C 39.624 230.800,39.993 230.622,40.067 230.403 C 40.140 230.185,40.695 229.966,41.300 229.916 C 41.905 229.866,42.400 229.685,42.400 229.513 C 42.400 229.341,42.749 229.200,43.176 229.200 C 43.603 229.200,44.064 229.020,44.200 228.800 C 44.336 228.580,44.797 228.400,45.224 228.400 C 45.651 228.400,46.000 228.220,46.000 228.000 C 46.000 227.780,46.452 227.600,47.005 227.600 C 47.558 227.600,48.323 227.436,48.705 227.236 C 50.605 226.241,52.206 225.680,52.546 225.890 C 52.754 226.018,52.795 225.916,52.638 225.662 C 52.447 225.352,52.748 225.200,53.553 225.200 C 54.213 225.200,54.866 225.017,55.004 224.793 C 55.142 224.570,55.416 224.486,55.613 224.608 C 55.809 224.729,56.697 224.370,57.585 223.809 C 58.473 223.249,59.200 222.873,59.200 222.975 C 59.200 223.076,59.830 222.896,60.600 222.574 C 61.370 222.252,62.000 222.104,62.000 222.244 C 62.000 222.384,62.239 222.299,62.531 222.057 C 62.824 221.814,63.409 221.554,63.831 221.478 C 64.254 221.403,65.297 221.039,66.149 220.670 C 67.001 220.302,67.822 220.000,67.974 220.000 C 68.126 220.000,68.995 219.640,69.906 219.200 C 70.816 218.760,71.840 218.400,72.181 218.400 C 72.521 218.400,72.800 218.220,72.800 218.000 C 72.800 217.780,73.340 217.600,74.000 217.600 C 74.660 217.600,75.200 217.420,75.200 217.200 C 75.200 216.980,75.472 216.800,75.805 216.800 C 76.138 216.800,76.768 216.620,77.205 216.400 C 77.642 216.180,78.358 215.820,78.795 215.600 C 79.232 215.380,79.864 215.200,80.200 215.200 C 80.536 215.200,81.123 215.041,81.505 214.847 C 81.887 214.652,82.740 214.271,83.400 214.000 C 84.060 213.729,84.913 213.348,85.295 213.153 C 85.677 212.959,86.337 212.800,86.761 212.800 C 87.186 212.800,87.624 212.575,87.735 212.300 C 87.846 212.025,87.951 212.464,87.968 213.276 C 87.986 214.088,87.820 214.864,87.600 215.000 C 87.380 215.136,87.200 215.766,87.200 216.400 C 87.200 217.034,87.020 217.664,86.800 217.800 C 86.580 217.936,86.400 218.476,86.400 219.000 C 86.400 219.524,86.220 220.064,86.000 220.200 C 85.780 220.336,85.600 221.067,85.600 221.824 C 85.600 222.581,85.420 223.200,85.200 223.200 C 84.980 223.200,84.800 223.710,84.800 224.333 C 84.800 224.957,84.673 225.593,84.518 225.748 C 84.363 225.903,84.172 226.518,84.094 227.115 C 84.015 227.712,83.782 228.371,83.575 228.580 C 83.369 228.789,83.197 229.689,83.194 230.580 C 83.189 231.838,83.092 232.066,82.760 231.600 C 82.433 231.141,82.384 231.298,82.549 232.265 C 82.693 233.105,82.570 233.693,82.183 234.014 C 81.862 234.280,81.621 234.881,81.646 235.349 C 81.686 236.067,81.722 236.086,81.881 235.471 C 81.985 235.069,82.302 234.830,82.584 234.939 C 82.867 235.047,83.332 234.701,83.617 234.168 L 84.135 233.200 104.439 233.200 L 124.743 233.200 124.625 234.963 C 124.560 235.933,124.660 236.968,124.847 237.263 C 125.093 237.650,125.189 237.547,125.194 236.895 C 125.197 236.397,125.423 235.632,125.696 235.195 C 126.072 234.593,126.082 234.223,125.737 233.671 C 125.371 233.084,125.420 232.855,125.991 232.498 C 126.655 232.084,126.902 231.347,127.463 228.096 C 127.587 227.379,127.849 226.694,128.044 226.573 C 128.240 226.452,128.400 225.823,128.400 225.176 C 128.400 224.529,128.539 224.000,128.709 224.000 C 129.029 224.000,130.000 220.304,130.000 219.088 C 130.000 218.710,130.160 218.400,130.356 218.400 C 130.552 218.400,130.801 217.815,130.910 217.100 C 131.188 215.270,132.463 210.640,132.756 210.400 C 132.890 210.290,133.066 209.750,133.146 209.200 C 133.226 208.650,133.325 208.020,133.366 207.800 C 133.440 207.394,134.533 203.612,135.222 201.372 C 135.430 200.696,135.600 199.841,135.600 199.472 C 135.600 199.102,135.750 198.800,135.933 198.800 C 136.116 198.800,136.231 198.395,136.188 197.900 C 136.145 197.405,136.256 196.713,136.436 196.362 C 136.615 196.011,136.854 195.291,136.967 194.762 C 137.320 193.103,138.063 190.226,138.299 189.600 C 138.424 189.270,138.490 188.775,138.446 188.500 C 138.401 188.225,138.547 188.000,138.770 188.000 C 138.993 188.000,139.060 187.700,138.919 187.334 C 138.730 186.840,138.810 186.752,139.232 186.993 C 139.692 187.256,139.705 187.215,139.300 186.779 C 138.725 186.160,138.624 185.444,139.158 185.774 C 139.355 185.896,139.625 185.712,139.758 185.365 C 140.100 184.473,140.073 184.400,139.400 184.400 C 139.070 184.400,138.800 184.119,138.800 183.776 C 138.800 183.384,138.985 183.264,139.300 183.453 C 139.640 183.657,139.624 183.537,139.251 183.077 C 138.742 182.450,135.897 182.400,100.431 182.400 C 70.350 182.400,62.052 182.293,61.656 181.900 C 61.252 181.499,61.210 181.550,61.442 182.159 M241.252 182.137 C 241.007 182.432,240.913 182.780,241.043 182.910 C 241.173 183.040,240.886 183.043,240.406 182.917 C 239.747 182.745,239.663 182.606,240.066 182.351 C 240.433 182.118,240.259 182.010,239.508 182.006 C 238.674 182.001,238.356 182.236,238.165 182.997 C 238.027 183.546,237.745 183.890,237.538 183.762 C 237.317 183.625,237.375 183.271,237.677 182.907 C 238.120 182.373,238.080 182.318,237.397 182.521 C 236.959 182.651,235.925 182.877,235.100 183.023 C 234.275 183.169,233.600 183.445,233.600 183.635 C 233.600 183.825,233.195 183.839,232.700 183.666 C 231.734 183.328,231.667 183.331,229.706 183.793 C 228.958 183.969,228.522 184.274,228.672 184.517 C 228.840 184.789,228.663 184.829,228.166 184.629 C 226.815 184.089,226.220 184.106,225.288 184.714 C 224.786 185.041,224.268 185.201,224.137 185.070 C 224.006 184.939,223.396 185.092,222.781 185.410 C 221.916 185.857,221.617 185.876,221.463 185.494 C 221.353 185.222,221.249 185.180,221.232 185.400 C 221.214 185.623,220.129 185.786,218.782 185.768 C 217.451 185.751,216.271 185.886,216.158 186.068 C 216.045 186.251,216.173 186.400,216.443 186.400 C 216.713 186.400,216.818 186.516,216.676 186.657 C 216.535 186.798,216.145 186.686,215.810 186.408 C 215.360 186.035,215.200 186.026,215.200 186.375 C 215.200 186.635,215.035 186.745,214.834 186.621 C 214.633 186.497,214.377 186.621,214.266 186.898 C 214.115 187.272,214.055 187.260,214.032 186.851 C 214.008 186.434,213.869 186.410,213.456 186.754 C 212.923 187.196,210.624 187.157,210.164 186.697 C 210.036 186.570,210.307 186.264,210.766 186.018 C 211.225 185.773,211.600 185.330,211.600 185.035 C 211.600 184.740,211.859 184.283,212.176 184.020 C 212.493 183.757,212.652 183.280,212.530 182.961 C 212.358 182.514,212.178 182.486,211.753 182.839 C 211.342 183.180,211.200 183.181,211.200 182.843 C 211.200 182.506,205.256 182.415,188.438 182.494 C 175.919 182.552,165.760 182.465,165.862 182.300 C 165.964 182.135,165.772 182.000,165.436 182.000 C 165.031 182.000,164.911 182.224,165.081 182.666 C 165.252 183.113,165.183 183.236,164.868 183.042 C 164.249 182.659,164.258 183.698,164.880 184.320 C 165.144 184.584,165.209 184.800,165.024 184.800 C 164.839 184.800,164.429 184.485,164.111 184.100 C 163.577 183.451,163.550 183.450,163.750 184.087 C 163.868 184.465,163.777 184.890,163.548 185.032 C 163.318 185.174,163.219 185.630,163.328 186.045 C 163.452 186.521,163.317 186.800,162.963 186.800 C 162.653 186.800,162.400 187.081,162.400 187.424 C 162.400 187.793,162.212 187.931,161.938 187.762 C 161.664 187.593,161.585 187.651,161.742 187.906 C 161.888 188.142,161.771 188.575,161.481 188.868 C 161.192 189.160,160.836 189.715,160.690 190.100 C 160.544 190.485,160.229 190.800,159.989 190.800 C 159.749 190.800,159.646 190.951,159.760 191.136 C 159.875 191.321,159.615 192.130,159.184 192.934 C 158.753 193.739,158.400 194.668,158.400 194.999 C 158.400 195.329,158.220 195.600,158.000 195.600 C 157.780 195.600,157.600 195.855,157.600 196.167 C 157.600 196.478,157.465 196.793,157.300 196.867 C 156.868 197.059,155.200 200.372,155.200 201.038 C 155.200 201.347,155.065 201.601,154.900 201.603 C 154.541 201.607,153.600 203.544,153.600 204.280 C 153.600 204.566,153.420 204.800,153.200 204.800 C 152.980 204.800,152.800 205.329,152.800 205.976 C 152.800 206.623,152.620 207.264,152.400 207.400 C 152.175 207.539,152.000 209.471,152.000 211.824 C 152.000 214.341,152.159 216.000,152.400 216.000 C 152.620 216.000,152.800 216.529,152.800 217.176 C 152.800 217.823,152.980 218.464,153.200 218.600 C 153.420 218.736,153.600 219.287,153.600 219.824 C 153.600 220.361,153.780 220.800,154.000 220.800 C 154.220 220.800,154.400 221.070,154.400 221.400 C 154.400 221.730,154.580 222.000,154.800 222.000 C 155.020 222.000,155.200 222.281,155.200 222.624 C 155.200 222.967,155.380 223.136,155.600 223.000 C 155.820 222.864,156.000 223.064,156.000 223.445 C 156.000 224.177,159.321 227.600,160.031 227.600 C 160.260 227.600,160.319 227.808,160.162 228.062 C 159.993 228.336,160.051 228.415,160.306 228.258 C 160.542 228.112,161.007 228.264,161.339 228.596 C 161.671 228.928,162.136 229.200,162.371 229.200 C 162.607 229.200,162.800 229.380,162.800 229.600 C 162.800 229.820,163.160 230.000,163.600 230.000 C 164.040 230.000,164.400 230.180,164.400 230.400 C 164.400 230.620,164.850 230.800,165.400 230.800 C 165.950 230.800,166.400 230.980,166.400 231.200 C 166.400 231.420,166.929 231.600,167.576 231.600 C 168.223 231.600,168.856 231.767,168.982 231.971 C 169.253 232.409,177.999 232.533,178.003 232.098 C 178.005 231.934,178.455 231.592,179.004 231.337 C 179.552 231.083,179.900 231.038,179.777 231.237 C 179.654 231.437,179.923 231.600,180.376 231.600 C 180.829 231.600,181.203 231.375,181.206 231.100 C 181.211 230.731,181.302 230.742,181.555 231.141 C 181.837 231.586,182.068 231.591,182.849 231.172 C 183.372 230.891,184.655 230.705,185.700 230.760 C 186.849 230.820,187.600 230.689,187.600 230.430 C 187.600 230.181,188.441 230.000,189.600 230.000 C 190.741 230.000,191.600 229.818,191.600 229.576 C 191.600 229.343,191.780 229.264,192.000 229.400 C 192.220 229.536,192.400 229.489,192.400 229.295 C 192.400 229.101,193.282 229.013,194.360 229.098 C 195.488 229.188,196.431 229.074,196.583 228.827 C 196.728 228.592,197.636 228.400,198.600 228.400 C 199.564 228.400,200.445 228.251,200.557 228.069 C 200.670 227.887,201.801 227.696,203.072 227.645 C 204.343 227.594,205.477 227.415,205.591 227.248 C 205.706 227.081,206.789 226.896,207.998 226.837 C 209.207 226.779,210.291 226.577,210.407 226.389 C 210.523 226.201,211.559 226.005,212.709 225.952 C 213.859 225.900,214.800 225.709,214.800 225.529 C 214.800 225.348,215.760 225.200,216.933 225.200 C 218.107 225.200,219.200 225.067,219.363 224.904 C 219.526 224.741,220.532 224.580,221.598 224.547 C 222.664 224.513,223.769 224.343,224.053 224.168 C 224.336 223.992,225.547 223.806,226.743 223.753 C 227.939 223.700,229.026 223.509,229.159 223.328 C 229.292 223.148,229.760 222.987,230.200 222.972 C 230.848 222.949,235.226 222.365,236.000 222.198 C 236.110 222.174,236.745 222.025,237.410 221.865 C 238.076 221.706,239.246 221.509,240.010 221.427 C 240.775 221.345,242.551 221.086,243.959 220.852 C 245.366 220.617,246.671 220.520,246.859 220.636 C 247.046 220.752,247.200 220.657,247.200 220.424 C 247.200 220.191,247.818 220.000,248.574 220.000 C 249.330 220.000,250.396 219.830,250.944 219.621 C 251.493 219.413,252.854 219.201,253.970 219.150 C 255.087 219.099,256.000 218.909,256.000 218.729 C 256.000 218.548,256.979 218.400,258.176 218.400 C 259.373 218.400,260.464 218.220,260.600 218.000 C 260.736 217.780,261.455 217.600,262.198 217.600 C 262.940 217.600,263.992 217.431,264.534 217.225 C 265.076 217.019,266.528 216.795,267.760 216.727 C 268.992 216.660,270.000 216.469,270.000 216.302 C 270.000 216.136,270.799 216.000,271.776 216.000 C 272.753 216.000,273.664 215.820,273.800 215.600 C 273.936 215.380,274.667 215.200,275.424 215.200 C 276.181 215.200,276.800 215.020,276.800 214.800 C 276.800 214.580,277.053 214.400,277.362 214.400 C 278.095 214.400,281.003 212.843,281.993 211.921 C 282.419 211.524,282.909 211.198,283.083 211.196 C 283.257 211.194,283.850 210.623,284.400 209.926 C 284.950 209.229,285.584 208.466,285.809 208.230 C 288.951 204.925,291.621 193.449,289.545 192.166 C 289.355 192.049,289.200 191.603,289.200 191.176 C 289.200 190.749,289.009 190.400,288.776 190.400 C 288.543 190.400,288.453 190.239,288.574 190.041 C 288.870 189.563,287.823 187.110,287.473 187.460 C 287.224 187.709,287.037 187.033,287.153 186.300 C 287.179 186.135,287.009 186.000,286.776 186.000 C 286.543 186.000,286.464 185.820,286.600 185.600 C 286.736 185.380,286.482 185.200,286.036 185.200 C 285.444 185.200,285.294 185.020,285.481 184.534 C 285.672 184.035,285.594 183.954,285.168 184.211 C 284.696 184.495,284.700 184.422,285.187 183.777 C 285.510 183.350,285.616 183.133,285.424 183.297 C 285.231 183.460,284.797 183.370,284.460 183.097 C 284.031 182.749,283.932 182.742,284.130 183.072 C 284.512 183.709,283.902 184.036,283.181 183.580 C 282.782 183.328,282.757 183.210,283.100 183.206 C 283.375 183.203,283.600 182.829,283.600 182.376 C 283.600 181.920,283.419 181.665,283.193 181.804 C 282.970 181.942,282.891 182.223,283.017 182.428 C 283.259 182.818,282.290 182.957,281.918 182.585 C 281.625 182.291,243.783 182.355,243.014 182.650 C 242.619 182.802,242.400 182.656,242.400 182.243 C 242.400 181.460,241.856 181.410,241.252 182.137 M347.835 182.300 C 338.865 182.365,332.480 182.567,332.206 182.795 C 331.903 183.047,331.582 183.022,331.285 182.725 C 330.945 182.385,330.731 182.528,330.440 183.296 C 330.225 183.860,329.855 184.442,329.618 184.589 C 329.381 184.735,329.291 185.023,329.417 185.228 C 329.544 185.432,329.422 185.600,329.147 185.600 C 328.869 185.600,328.991 185.869,329.424 186.206 C 329.851 186.539,330.020 186.788,329.800 186.758 C 328.577 186.596,327.814 186.821,328.379 187.179 C 328.842 187.472,328.739 187.645,327.864 188.044 C 327.175 188.358,326.851 188.755,326.989 189.116 C 327.135 189.497,327.015 189.614,326.630 189.467 C 326.274 189.330,325.927 189.582,325.726 190.122 C 325.547 190.605,324.538 192.440,323.484 194.200 C 320.824 198.642,320.661 198.899,320.126 199.485 C 319.866 199.771,319.538 200.364,319.399 200.802 C 319.260 201.241,318.978 201.600,318.773 201.600 C 318.568 201.600,318.400 201.836,318.400 202.125 C 318.400 202.413,318.040 203.036,317.600 203.508 C 317.160 203.980,316.800 204.532,316.800 204.734 C 316.800 204.937,316.526 205.330,316.190 205.608 C 315.855 205.886,315.664 206.198,315.766 206.300 C 315.868 206.402,315.775 206.691,315.559 206.943 C 315.343 207.194,314.551 208.390,313.800 209.600 C 313.049 210.810,312.282 211.980,312.095 212.200 C 311.908 212.420,311.497 213.185,311.180 213.900 C 310.864 214.615,310.466 215.200,310.297 215.200 C 310.128 215.200,309.596 216.010,309.115 217.000 C 308.634 217.990,308.096 218.800,307.920 218.800 C 307.744 218.800,307.600 219.070,307.600 219.400 C 307.600 219.730,307.420 220.000,307.200 220.000 C 306.980 220.000,306.800 220.360,306.800 220.800 C 306.800 221.240,306.650 221.600,306.468 221.600 C 306.285 221.600,305.880 222.095,305.568 222.700 C 305.255 223.305,304.685 224.149,304.300 224.575 C 303.915 225.002,303.600 225.587,303.600 225.875 C 303.600 226.164,303.420 226.400,303.200 226.400 C 302.980 226.400,302.800 226.732,302.800 227.138 C 302.800 227.544,302.444 228.198,302.009 228.591 C 301.575 228.985,301.315 229.463,301.433 229.653 C 301.551 229.844,301.461 230.000,301.234 230.000 C 300.597 230.000,299.397 232.532,299.947 232.716 C 300.196 232.799,300.400 233.122,300.400 233.433 C 300.400 233.745,300.591 234.000,300.824 234.000 C 301.057 234.000,301.136 233.820,301.000 233.600 C 300.836 233.334,315.129 233.200,343.576 233.200 L 386.400 233.200 386.447 234.300 C 386.473 234.905,386.469 235.611,386.437 235.870 C 386.405 236.128,386.556 236.449,386.772 236.583 C 386.988 236.716,387.048 237.135,386.905 237.513 C 386.670 238.134,386.705 238.140,387.270 237.581 C 388.809 236.057,386.943 225.672,385.118 225.610 C 384.963 225.604,384.410 225.195,383.888 224.700 C 382.102 223.004,381.190 222.400,380.419 222.400 C 379.995 222.400,379.536 222.220,379.400 222.000 C 379.264 221.780,378.634 221.600,378.000 221.600 C 377.366 221.600,376.723 221.399,376.571 221.154 C 376.390 220.861,375.663 220.805,374.448 220.990 C 373.432 221.146,370.440 221.436,367.800 221.634 C 365.160 221.833,360.930 222.182,358.400 222.410 C 355.870 222.638,351.910 222.920,349.600 223.037 C 347.290 223.155,345.229 223.419,345.020 223.625 C 344.539 224.100,338.400 224.122,338.400 223.649 C 338.400 223.456,338.674 223.070,339.010 222.792 C 339.345 222.514,339.529 222.195,339.418 222.085 C 339.307 221.974,339.753 221.154,340.408 220.263 C 341.064 219.372,341.600 218.408,341.600 218.121 C 341.600 217.835,341.780 217.600,342.000 217.600 C 342.220 217.600,342.400 217.330,342.400 217.000 C 342.400 216.670,342.580 216.400,342.800 216.400 C 343.020 216.400,343.200 216.130,343.200 215.800 C 343.200 215.470,343.380 215.200,343.600 215.200 C 343.820 215.200,344.000 214.880,344.000 214.488 C 344.000 214.097,344.350 213.524,344.779 213.215 C 345.207 212.907,345.481 212.530,345.387 212.379 C 345.293 212.227,345.591 211.675,346.048 211.152 C 346.506 210.628,347.175 209.525,347.534 208.700 C 347.894 207.875,348.326 207.200,348.494 207.200 C 348.662 207.200,348.800 206.922,348.800 206.583 C 348.800 206.244,349.176 205.569,349.635 205.083 C 350.094 204.597,350.839 203.480,351.290 202.600 C 351.741 201.720,352.600 200.280,353.200 199.400 C 353.800 198.520,354.417 197.395,354.572 196.900 C 354.727 196.405,355.022 196.000,355.227 196.000 C 355.432 196.000,355.600 195.812,355.600 195.583 C 355.600 195.193,355.905 194.751,357.081 193.434 C 357.345 193.138,357.455 192.789,357.325 192.659 C 357.195 192.528,357.574 191.785,358.168 191.006 C 358.762 190.228,359.320 189.215,359.409 188.755 C 359.497 188.295,359.779 187.667,360.034 187.359 C 360.289 187.052,360.394 186.800,360.267 186.800 C 360.140 186.800,360.433 186.367,360.918 185.838 C 362.476 184.139,362.847 183.597,363.002 182.790 C 363.086 182.356,363.119 182.043,363.077 182.095 C 363.035 182.147,356.176 182.240,347.835 182.300 M212.201 183.598 C 211.730 184.360,210.390 184.891,210.651 184.212 C 210.779 183.878,211.033 183.696,211.214 183.809 C 211.396 183.921,211.658 183.830,211.796 183.607 C 211.934 183.383,212.137 183.200,212.247 183.200 C 212.357 183.200,212.337 183.379,212.201 183.598 M298.220 236.662 C 298.040 237.381,298.155 237.927,298.577 238.348 C 298.990 238.761,299.200 238.808,299.200 238.486 C 299.200 238.219,299.050 238.000,298.867 238.000 C 298.683 238.000,298.533 237.722,298.533 237.383 C 298.533 237.043,298.753 236.850,299.021 236.953 C 299.337 237.074,299.438 236.869,299.308 236.370 C 299.024 235.283,298.533 235.415,298.220 236.662 M81.200 236.967 C 81.200 237.279,81.086 237.864,80.946 238.267 C 80.723 238.911,80.770 238.903,81.333 238.200 C 82.062 237.291,82.194 236.400,81.600 236.400 C 81.380 236.400,81.200 236.655,81.200 236.967 M385.660 239.442 C 385.362 239.778,385.226 240.159,385.356 240.290 C 385.486 240.420,385.460 240.731,385.297 240.982 C 385.133 241.233,385.315 241.094,385.700 240.675 C 386.085 240.255,386.400 239.661,386.400 239.356 C 386.400 238.669,386.336 238.677,385.660 239.442 M123.341 242.704 C 123.486 242.939,123.403 243.199,123.157 243.281 C 122.910 243.363,122.774 243.736,122.854 244.110 C 122.970 244.652,123.094 244.588,123.462 243.795 C 123.785 243.102,123.796 242.721,123.500 242.538 C 123.263 242.392,123.193 242.465,123.341 242.704 M370.200 246.800 C 369.486 247.107,369.515 247.147,370.476 247.172 C 371.068 247.187,371.664 247.020,371.800 246.800 C 372.095 246.322,371.311 246.322,370.200 246.800 M350.800 248.400 L 349.400 248.695 350.800 248.741 C 351.570 248.767,352.470 248.613,352.800 248.400 C 353.527 247.930,353.033 247.930,350.800 248.400 M77.300 250.100 C 76.870 251.275,76.880 251.326,77.412 250.624 C 77.921 249.952,78.221 248.800,77.888 248.800 C 77.826 248.800,77.561 249.385,77.300 250.100 M331.620 249.987 C 331.360 250.148,331.695 250.292,332.376 250.312 C 333.049 250.331,333.600 250.290,333.600 250.220 C 333.600 249.910,332.042 249.727,331.620 249.987 M323.400 250.802 C 322.710 251.100,322.751 251.139,323.700 251.087 C 324.305 251.053,324.800 250.885,324.800 250.713 C 324.800 250.329,324.442 250.352,323.400 250.802 " stroke="none" fill="#45bfe6" fill-rule="evenodd"></path><path id="path1" d="M65.921 297.100 C 66.040 297.722,65.901 298.000,65.470 298.000 C 65.053 298.000,64.899 298.277,65.006 298.832 C 65.252 300.108,64.384 301.281,63.640 300.680 C 63.196 300.321,63.118 300.319,63.330 300.672 C 63.486 300.932,63.427 301.260,63.200 301.400 C 62.973 301.540,62.891 301.824,63.019 302.030 C 63.146 302.237,62.981 302.509,62.651 302.636 C 62.321 302.763,62.149 303.124,62.270 303.438 C 62.391 303.753,62.267 304.278,61.996 304.605 C 61.636 305.038,61.628 305.200,61.965 305.200 C 62.299 305.200,62.313 305.416,62.014 305.974 C 61.786 306.399,61.600 307.097,61.600 307.525 C 61.600 307.952,61.343 308.516,61.028 308.777 C 60.713 309.038,60.523 309.600,60.605 310.026 C 60.701 310.523,60.532 310.800,60.133 310.800 C 59.644 310.800,59.565 311.087,59.763 312.145 C 59.935 313.058,59.839 313.636,59.464 313.947 C 59.147 314.210,58.993 314.830,59.103 315.403 C 59.214 315.984,59.107 316.400,58.847 316.400 C 58.601 316.400,58.400 316.839,58.400 317.376 C 58.400 317.913,58.220 318.464,58.000 318.600 C 57.780 318.736,57.600 319.467,57.600 320.224 C 57.600 320.981,57.459 321.600,57.287 321.600 C 57.115 321.600,56.935 322.077,56.887 322.660 C 56.839 323.242,56.574 323.997,56.300 324.336 C 55.885 324.849,55.902 324.897,56.400 324.618 C 56.888 324.345,56.907 324.383,56.500 324.821 C 55.937 325.428,55.777 333.415,56.321 333.751 C 56.497 333.860,56.890 334.861,57.193 335.975 C 57.496 337.089,57.892 338.000,58.072 338.000 C 58.253 338.000,58.400 338.278,58.400 338.617 C 58.400 338.956,58.754 339.613,59.186 340.077 C 59.619 340.541,59.878 341.074,59.763 341.261 C 59.647 341.447,59.761 341.600,60.016 341.600 C 60.519 341.600,62.800 343.889,62.800 344.394 C 62.800 344.564,63.385 344.940,64.100 345.229 C 64.815 345.518,65.490 345.865,65.600 346.000 C 65.997 346.486,69.609 348.000,70.372 348.000 C 70.801 348.000,71.264 348.180,71.400 348.400 C 71.543 348.632,73.737 348.800,76.624 348.800 C 79.675 348.800,81.600 348.645,81.600 348.400 C 81.600 348.180,82.219 348.000,82.976 348.000 C 83.733 348.000,84.464 347.820,84.600 347.600 C 84.736 347.380,85.197 347.200,85.624 347.200 C 86.051 347.200,86.400 347.020,86.400 346.800 C 86.400 346.580,86.762 346.400,87.205 346.400 C 87.648 346.400,88.368 346.220,88.805 346.000 C 89.242 345.780,89.958 345.420,90.395 345.200 C 90.832 344.980,91.562 344.800,92.018 344.800 C 92.474 344.800,92.736 344.620,92.600 344.400 C 92.460 344.174,92.788 344.000,93.353 344.000 C 93.903 344.000,94.464 343.820,94.600 343.600 C 94.736 343.380,95.287 343.200,95.824 343.200 C 96.361 343.200,96.800 343.020,96.800 342.800 C 96.800 342.580,97.250 342.400,97.800 342.400 C 98.350 342.400,98.800 342.240,98.800 342.045 C 98.800 341.850,99.385 341.574,100.100 341.431 C 103.234 340.804,103.600 340.689,103.600 340.331 C 103.600 340.123,103.768 340.056,103.972 340.183 C 104.177 340.309,104.455 340.235,104.589 340.017 C 104.826 339.634,107.687 338.702,108.700 338.678 C 108.975 338.672,109.200 338.517,109.200 338.333 C 109.200 338.150,109.436 338.000,109.725 338.000 C 110.014 338.000,110.995 337.640,111.906 337.200 C 112.816 336.760,113.829 336.400,114.157 336.400 C 114.485 336.400,114.864 336.220,115.000 336.000 C 115.136 335.780,115.687 335.600,116.224 335.600 C 116.761 335.600,117.200 335.420,117.200 335.200 C 117.200 334.980,117.472 334.800,117.804 334.800 C 118.137 334.800,119.172 334.455,120.104 334.033 C 121.037 333.612,122.967 332.865,124.393 332.374 C 125.819 331.883,127.580 331.148,128.305 330.741 C 129.031 330.333,130.069 330.000,130.612 330.000 C 131.155 330.000,131.600 329.820,131.600 329.600 C 131.600 329.380,132.050 329.200,132.600 329.200 C 133.150 329.200,133.600 329.020,133.600 328.800 C 133.600 328.580,134.241 328.400,135.024 328.400 C 135.871 328.400,136.347 328.238,136.200 328.000 C 136.064 327.780,136.323 327.600,136.776 327.600 C 137.229 327.600,137.600 327.420,137.600 327.200 C 137.600 326.980,138.140 326.800,138.800 326.800 C 139.460 326.800,140.000 326.664,140.000 326.497 C 140.000 326.331,140.765 325.961,141.700 325.675 C 143.876 325.009,145.600 324.265,145.600 323.990 C 145.600 323.871,146.085 323.734,146.678 323.685 C 147.270 323.636,147.898 323.372,148.071 323.098 C 148.245 322.824,148.391 322.734,148.394 322.897 C 148.400 323.189,151.117 322.305,152.516 321.556 C 152.910 321.345,153.405 321.280,153.616 321.410 C 153.827 321.540,154.000 321.457,154.000 321.224 C 154.000 320.991,154.450 320.800,155.000 320.800 C 155.550 320.800,156.000 320.620,156.000 320.400 C 156.000 320.180,156.135 320.043,156.300 320.095 C 156.465 320.147,157.230 319.946,158.000 319.649 C 158.770 319.351,160.390 318.732,161.600 318.273 C 162.810 317.815,163.971 317.296,164.180 317.120 C 164.389 316.944,164.850 316.800,165.205 316.800 C 165.560 316.800,166.595 316.440,167.506 316.000 C 168.416 315.560,169.425 315.200,169.747 315.200 C 170.070 315.200,170.396 315.012,170.473 314.782 C 170.549 314.552,171.014 314.334,171.506 314.297 C 171.998 314.260,172.400 314.088,172.400 313.915 C 172.400 313.742,172.690 313.600,173.046 313.600 C 173.849 313.600,176.800 311.970,176.800 311.526 C 176.800 311.347,177.070 311.200,177.400 311.200 C 177.730 311.200,178.000 311.020,178.000 310.800 C 178.000 310.580,178.225 310.395,178.500 310.388 C 178.775 310.381,179.407 309.886,179.906 309.288 C 180.404 308.690,181.173 307.762,181.616 307.226 C 182.059 306.691,182.523 305.848,182.648 305.353 C 182.802 304.739,183.073 304.530,183.502 304.695 C 183.896 304.846,184.031 304.773,183.862 304.500 C 183.714 304.261,183.824 303.825,184.106 303.532 C 184.677 302.940,184.756 302.222,184.300 301.767 C 184.135 301.602,184.003 301.272,184.006 301.033 C 184.009 300.795,184.187 300.870,184.400 301.200 C 184.633 301.561,184.790 301.610,184.794 301.324 C 184.797 301.062,184.620 300.736,184.400 300.600 C 183.682 300.156,183.979 298.513,184.900 297.830 C 185.395 297.463,185.575 297.272,185.300 297.405 C 185.010 297.545,184.800 297.385,184.800 297.024 C 184.800 296.464,181.252 296.400,150.000 296.400 C 127.067 296.400,115.200 296.536,115.200 296.800 C 115.200 297.020,114.795 297.197,114.300 297.194 C 113.572 297.189,113.515 297.114,114.000 296.800 C 114.330 296.587,114.420 296.415,114.200 296.419 C 113.519 296.430,112.396 297.462,112.706 297.791 C 112.868 297.962,112.415 298.020,111.700 297.920 C 110.426 297.742,109.913 298.137,110.900 298.535 C 111.175 298.646,110.357 298.751,109.082 298.768 C 107.446 298.791,106.784 298.653,106.830 298.300 C 107.091 296.292,108.441 296.423,86.274 296.307 L 65.749 296.200 65.921 297.100 " stroke="none" fill="#5ad4d9" fill-rule="evenodd"></path><path id="path2" d="M75.957 258.900 C 75.933 259.175,75.909 259.891,75.903 260.490 C 75.896 261.090,75.736 261.484,75.546 261.366 C 75.356 261.249,75.200 261.613,75.200 262.176 C 75.200 262.739,74.974 263.200,74.698 263.200 C 74.036 263.200,73.164 265.930,73.717 266.272 C 73.957 266.421,73.832 266.733,73.410 267.042 C 72.991 267.348,72.800 267.824,72.945 268.202 C 73.105 268.617,73.032 268.743,72.737 268.561 C 72.429 268.370,72.346 268.607,72.480 269.304 C 72.631 270.096,72.539 270.275,72.072 270.096 C 71.707 269.955,71.572 270.032,71.732 270.289 C 71.993 270.713,71.214 273.387,70.330 275.099 C 70.074 275.594,69.979 276.113,70.119 276.252 C 70.258 276.391,70.160 276.887,69.902 277.353 C 69.644 277.819,69.367 278.740,69.287 279.400 C 69.207 280.060,68.975 280.771,68.771 280.980 C 68.567 281.189,68.400 281.763,68.400 282.256 C 68.400 282.749,68.220 283.264,68.000 283.400 C 67.780 283.536,67.600 284.166,67.600 284.800 C 67.600 285.434,67.420 286.064,67.200 286.200 C 66.980 286.336,66.800 286.966,66.800 287.600 C 66.800 288.234,66.617 288.866,66.393 289.004 C 66.170 289.142,66.086 289.415,66.206 289.610 C 66.327 289.805,66.159 290.603,65.833 291.382 C 65.507 292.162,65.324 292.800,65.426 292.800 C 65.528 292.800,65.336 293.458,65.000 294.261 C 64.664 295.065,64.476 295.809,64.581 295.914 C 64.686 296.019,64.570 296.482,64.323 296.943 C 63.535 298.416,63.252 300.345,63.761 300.768 C 64.381 301.282,65.225 299.969,65.006 298.832 C 64.899 298.277,65.053 298.000,65.470 298.000 C 65.901 298.000,66.040 297.722,65.921 297.100 L 65.749 296.200 86.274 296.307 C 108.441 296.423,107.091 296.292,106.830 298.300 C 106.784 298.653,107.446 298.791,109.082 298.768 C 110.357 298.751,111.175 298.646,110.900 298.535 C 109.913 298.137,110.426 297.742,111.700 297.920 C 112.415 298.020,112.868 297.962,112.706 297.791 C 112.396 297.462,113.519 296.430,114.200 296.419 C 114.420 296.415,114.330 296.587,114.000 296.800 C 113.515 297.114,113.572 297.189,114.300 297.194 C 114.795 297.197,115.200 297.020,115.200 296.800 C 115.200 296.536,127.067 296.400,150.000 296.400 C 181.252 296.400,184.800 296.464,184.800 297.024 C 184.800 297.394,185.003 297.542,185.300 297.389 C 185.575 297.247,185.398 297.461,184.907 297.865 C 184.004 298.608,183.695 301.364,184.461 301.838 C 184.642 301.950,184.669 301.717,184.521 301.321 C 184.274 300.665,184.318 300.654,185.002 301.200 C 185.415 301.530,185.633 301.598,185.485 301.352 C 185.338 301.105,185.491 299.850,185.826 298.563 C 186.738 295.062,185.965 290.309,183.979 287.200 C 183.768 286.870,183.310 286.050,182.961 285.379 C 182.612 284.707,181.804 283.807,181.165 283.379 C 180.525 282.950,180.001 282.420,180.000 282.200 C 179.998 281.781,176.300 279.112,175.729 279.118 C 175.548 279.120,175.040 278.920,174.600 278.675 C 174.160 278.429,173.710 278.207,173.600 278.182 C 172.147 277.842,171.236 277.465,171.364 277.257 C 171.451 277.116,169.487 277.000,166.999 277.000 C 164.511 277.000,162.556 277.130,162.654 277.288 C 162.752 277.447,162.330 277.690,161.716 277.828 C 159.961 278.224,154.817 280.028,152.400 281.096 C 151.190 281.631,149.769 282.151,149.243 282.252 C 148.717 282.354,147.558 282.788,146.668 283.218 C 145.778 283.648,144.811 284.000,144.519 284.000 C 144.228 284.000,143.677 284.165,143.295 284.366 C 141.730 285.191,139.591 286.022,138.432 286.254 C 137.754 286.389,137.200 286.657,137.200 286.850 C 137.200 287.043,136.750 287.200,136.200 287.200 C 135.650 287.200,135.200 287.380,135.200 287.600 C 135.200 287.820,134.750 288.000,134.200 288.000 C 133.650 288.000,133.200 288.180,133.200 288.400 C 133.200 288.620,132.750 288.800,132.200 288.800 C 131.650 288.800,131.200 288.980,131.200 289.200 C 131.200 289.420,130.750 289.600,130.200 289.600 C 129.650 289.600,129.200 289.780,129.200 290.000 C 129.200 290.220,128.808 290.400,128.328 290.400 C 127.164 290.400,124.800 291.274,124.800 291.704 C 124.800 291.893,124.652 291.956,124.471 291.844 C 124.291 291.732,123.655 291.894,123.059 292.203 C 122.463 292.512,121.681 292.653,121.322 292.515 C 120.915 292.358,120.768 292.425,120.932 292.690 C 121.245 293.196,120.543 293.509,119.323 293.409 C 118.840 293.369,118.480 293.531,118.523 293.769 C 118.565 294.006,118.015 294.256,117.300 294.325 C 116.585 294.394,116.000 294.619,116.000 294.825 C 116.000 295.031,115.638 295.200,115.195 295.200 C 114.355 295.200,113.142 295.777,111.831 296.800 C 111.148 297.333,111.102 297.333,111.416 296.800 C 111.689 296.336,111.523 296.361,110.685 296.909 C 110.088 297.299,109.600 297.518,109.600 297.395 C 109.600 297.272,109.240 297.365,108.800 297.600 C 108.122 297.963,108.000 297.904,108.000 297.214 C 108.000 296.766,108.180 296.400,108.400 296.400 C 108.620 296.400,108.800 295.871,108.800 295.224 C 108.800 294.577,108.980 293.936,109.200 293.800 C 109.420 293.664,109.600 292.833,109.600 291.953 C 109.600 291.073,109.743 290.441,109.917 290.549 C 110.091 290.656,110.276 290.197,110.327 289.528 C 110.378 288.859,110.595 287.983,110.810 287.582 C 111.024 287.181,111.200 286.481,111.200 286.026 C 111.200 285.572,111.380 285.200,111.600 285.200 C 111.820 285.200,112.000 284.658,112.000 283.995 C 112.000 283.332,112.158 282.477,112.352 282.095 C 112.724 281.359,113.889 277.015,114.255 275.000 C 114.374 274.340,114.636 273.740,114.836 273.667 C 115.036 273.593,115.200 273.156,115.200 272.695 C 115.200 272.234,115.425 271.234,115.700 270.472 C 116.130 269.281,116.111 269.031,115.560 268.684 C 114.982 268.319,114.991 268.209,115.660 267.540 C 116.067 267.133,116.400 266.344,116.400 265.787 C 116.400 265.231,116.652 264.678,116.961 264.560 C 117.269 264.441,117.489 264.132,117.449 263.872 C 117.323 263.040,116.756 262.380,116.372 262.617 C 116.168 262.744,116.000 262.676,116.000 262.466 C 116.000 262.257,116.281 261.978,116.625 261.846 C 116.969 261.714,117.133 261.415,116.989 261.182 C 116.845 260.949,117.186 260.334,117.746 259.815 C 118.579 259.043,118.652 258.829,118.149 258.636 C 116.586 258.036,76.800 258.386,76.800 259.000 C 76.800 259.330,76.626 259.600,76.413 259.600 C 76.199 259.600,76.129 259.330,76.255 259.000 C 76.382 258.670,76.376 258.400,76.243 258.400 C 76.109 258.400,75.981 258.625,75.957 258.900 M182.485 305.698 C 181.870 307.329,182.068 307.471,182.927 306.015 C 183.304 305.377,183.465 304.764,183.285 304.652 C 183.104 304.541,182.745 305.012,182.485 305.698 " stroke="none" fill="#54ccdc" fill-rule="evenodd"></path><path id="path3" d="M188.800 138.600 C 188.800 138.930,188.607 139.200,188.371 139.200 C 187.818 139.200,187.029 140.004,186.680 140.925 C 186.522 141.345,186.210 141.530,185.941 141.364 C 185.650 141.184,185.584 141.251,185.766 141.545 C 185.925 141.802,186.246 141.895,186.480 141.751 C 186.723 141.600,186.826 141.725,186.721 142.044 C 186.620 142.350,186.136 142.659,185.646 142.731 C 185.156 142.803,184.556 143.298,184.313 143.831 C 184.070 144.364,183.760 144.800,183.623 144.800 C 183.486 144.800,183.337 145.256,183.291 145.813 C 183.245 146.370,182.851 147.208,182.417 147.674 C 181.983 148.140,181.722 148.674,181.837 148.861 C 181.953 149.047,181.846 149.200,181.600 149.200 C 181.354 149.200,181.256 149.368,181.383 149.572 C 181.509 149.777,181.445 150.049,181.240 150.176 C 181.034 150.302,180.182 151.800,179.347 153.503 C 178.511 155.206,177.686 156.660,177.514 156.733 C 177.341 156.807,177.200 157.190,177.200 157.584 C 177.200 157.979,176.932 158.524,176.604 158.796 C 176.277 159.068,176.107 159.450,176.228 159.645 C 176.349 159.840,176.302 160.001,176.124 160.003 C 175.746 160.007,174.800 161.920,174.800 162.680 C 174.800 162.966,174.665 163.201,174.500 163.203 C 174.149 163.207,173.200 165.137,173.200 165.846 C 173.200 166.114,173.064 166.393,172.898 166.467 C 172.732 166.540,171.971 167.860,171.206 169.400 C 170.442 170.940,169.722 172.290,169.607 172.400 C 169.493 172.510,169.129 173.140,168.800 173.800 C 168.471 174.460,168.101 175.090,167.978 175.200 C 167.855 175.310,167.508 176.030,167.207 176.800 C 166.907 177.570,166.318 178.698,165.899 179.306 C 165.480 179.914,165.210 180.630,165.299 180.898 C 165.388 181.165,165.105 181.672,164.670 182.025 C 163.812 182.720,163.974 184.800,164.888 184.800 C 165.247 184.800,165.245 184.685,164.880 184.320 C 164.258 183.698,164.249 182.659,164.868 183.042 C 165.183 183.236,165.252 183.113,165.081 182.666 C 164.911 182.224,165.031 182.000,165.436 182.000 C 165.772 182.000,165.964 182.135,165.862 182.300 C 165.760 182.465,175.919 182.552,188.438 182.494 C 205.256 182.415,211.200 182.506,211.200 182.843 C 211.200 183.164,211.376 183.152,211.800 182.800 C 212.135 182.522,212.400 182.479,212.400 182.702 C 212.400 183.217,211.393 184.060,211.113 183.779 C 210.995 183.662,210.796 183.834,210.670 184.162 C 210.514 184.567,210.627 184.688,211.020 184.537 C 211.940 184.184,211.712 185.512,210.766 186.018 C 210.307 186.264,210.037 186.571,210.167 186.700 C 210.617 187.150,213.144 187.214,213.411 186.782 C 213.559 186.542,213.437 186.380,213.140 186.421 C 211.330 186.669,211.173 186.472,212.002 184.997 C 212.435 184.225,212.792 183.505,212.795 183.397 C 212.798 183.289,212.800 183.009,212.800 182.776 C 212.800 182.543,212.980 182.464,213.200 182.600 C 213.420 182.736,213.600 182.602,213.600 182.303 C 213.600 181.549,214.535 179.607,214.900 179.603 C 215.065 179.601,215.200 179.370,215.200 179.089 C 215.200 178.808,215.756 177.503,216.435 176.189 C 219.256 170.731,220.054 169.140,222.649 163.800 C 224.146 160.720,225.512 158.140,225.685 158.067 C 225.858 157.993,226.000 157.695,226.000 157.404 C 226.000 156.763,227.680 153.453,228.100 153.267 C 228.265 153.193,228.400 152.788,228.400 152.367 C 228.400 151.945,228.580 151.600,228.800 151.600 C 229.020 151.600,229.163 151.465,229.119 151.300 C 229.074 151.135,229.605 149.875,230.298 148.500 C 230.992 147.125,231.433 145.997,231.280 145.994 C 231.126 145.991,231.184 145.856,231.408 145.694 C 232.473 144.927,233.181 142.580,232.734 141.300 C 232.501 140.631,232.571 140.400,233.010 140.400 C 233.334 140.400,233.613 140.265,233.630 140.100 C 233.646 139.935,233.735 139.395,233.827 138.900 L 233.995 138.000 211.397 138.000 C 191.577 138.000,188.800 138.074,188.800 138.600 M360.679 140.172 C 360.139 140.582,360.089 140.772,360.479 140.928 C 360.815 141.063,360.752 141.148,360.300 141.168 C 359.915 141.186,359.597 140.975,359.594 140.700 C 359.590 140.367,359.458 140.400,359.200 140.800 C 358.873 141.306,358.811 141.283,358.806 140.657 C 358.802 140.145,358.603 139.990,358.167 140.157 C 357.819 140.291,357.449 140.400,357.344 140.400 C 357.239 140.400,357.280 140.625,357.435 140.900 C 357.659 141.298,357.608 141.299,357.184 140.905 C 356.758 140.510,356.492 140.550,355.858 141.105 C 355.208 141.674,355.105 141.688,355.288 141.182 C 355.442 140.757,355.246 140.544,354.661 140.500 C 354.070 140.455,353.972 140.535,354.339 140.762 C 354.760 141.023,354.740 141.137,354.238 141.330 C 353.873 141.470,353.649 141.378,353.705 141.109 C 353.757 140.855,353.485 140.579,353.100 140.494 C 352.640 140.394,352.389 140.592,352.368 141.071 C 352.350 141.495,352.252 141.590,352.134 141.298 C 352.023 141.021,351.771 140.894,351.574 141.016 C 351.377 141.138,350.888 141.061,350.487 140.846 C 349.662 140.405,349.154 140.641,348.436 141.800 C 348.063 142.400,347.994 142.425,348.157 141.900 C 348.427 141.033,347.386 140.938,347.055 141.800 C 346.794 142.480,345.600 142.625,345.600 141.976 C 345.600 141.743,345.386 141.685,345.124 141.847 C 344.266 142.378,342.062 142.338,341.851 141.789 C 341.584 141.092,340.686 141.257,339.774 142.169 C 339.307 142.635,338.980 142.740,338.885 142.454 C 338.801 142.204,338.468 142.000,338.143 142.000 C 337.818 142.000,337.672 142.193,337.818 142.430 C 337.975 142.683,337.762 142.658,337.301 142.371 C 336.668 141.975,336.272 142.005,335.221 142.529 C 334.178 143.050,333.965 143.067,334.139 142.616 C 334.413 141.902,332.808 142.146,332.336 142.891 C 332.108 143.249,332.009 143.162,332.000 142.600 C 331.990 141.936,331.922 141.902,331.600 142.400 C 331.270 142.910,331.211 142.913,331.206 142.420 C 331.201 141.969,331.093 141.947,330.720 142.320 C 330.456 142.584,329.556 142.800,328.720 142.800 C 327.884 142.800,327.245 142.935,327.300 143.100 C 327.355 143.265,327.220 143.434,327.000 143.477 C 326.780 143.519,326.625 143.296,326.655 142.981 C 326.685 142.666,326.580 142.489,326.420 142.587 C 326.261 142.686,325.467 142.811,324.654 142.866 C 323.624 142.935,323.239 143.124,323.380 143.492 C 323.537 143.900,323.405 143.924,322.791 143.595 C 322.356 143.362,321.997 143.313,321.994 143.486 C 321.991 143.659,321.813 143.530,321.600 143.200 C 321.387 142.870,321.209 142.798,321.206 143.040 C 321.203 143.283,320.705 143.459,320.100 143.433 C 319.495 143.406,318.505 143.510,317.900 143.664 C 317.188 143.846,316.800 143.786,316.800 143.496 C 316.800 143.249,316.517 143.396,316.170 143.824 C 315.824 144.251,315.655 144.375,315.794 144.100 C 315.940 143.811,315.797 143.600,315.456 143.600 C 315.131 143.600,314.579 143.490,314.228 143.355 C 313.743 143.169,313.656 143.282,313.865 143.825 C 314.089 144.410,313.999 144.481,313.369 144.222 C 312.946 144.047,312.420 143.921,312.200 143.942 C 311.980 143.962,310.990 144.058,310.000 144.154 C 309.010 144.251,307.120 144.372,305.800 144.424 C 304.480 144.475,303.220 144.621,303.000 144.747 C 302.780 144.874,302.262 145.029,301.849 145.094 C 301.437 145.158,300.537 145.470,299.849 145.787 C 299.162 146.104,298.346 146.417,298.035 146.482 C 297.546 146.584,295.940 148.115,293.854 150.470 C 292.869 151.581,292.346 152.790,292.643 153.270 C 292.815 153.548,292.745 153.613,292.462 153.438 C 292.124 153.230,292.000 154.237,292.000 157.176 C 292.000 159.389,292.157 161.200,292.350 161.200 C 292.543 161.200,292.814 161.769,292.953 162.464 C 293.388 164.638,297.274 168.027,300.600 169.133 C 303.287 170.027,309.434 170.244,310.657 169.488 C 310.857 169.365,312.816 169.217,315.010 169.161 C 317.205 169.105,319.450 168.919,320.000 168.749 C 320.550 168.579,322.800 168.338,325.000 168.215 C 327.200 168.091,330.710 167.893,332.800 167.775 C 334.890 167.656,336.870 167.454,337.200 167.326 C 338.375 166.870,340.400 166.783,340.400 167.189 C 340.400 167.415,340.220 167.600,340.000 167.600 C 339.780 167.600,339.600 167.836,339.600 168.125 C 339.600 168.413,339.285 169.006,338.900 169.442 C 338.012 170.447,336.817 172.391,336.529 173.300 C 336.407 173.685,336.148 174.000,335.953 174.000 C 335.759 174.000,335.600 174.270,335.600 174.600 C 335.600 174.930,335.254 175.546,334.830 175.970 C 333.557 177.243,332.692 179.161,333.662 178.562 C 333.948 178.385,334.015 178.452,333.838 178.738 C 333.681 178.992,333.274 179.200,332.934 179.200 C 332.550 179.200,332.401 179.426,332.543 179.795 C 332.668 180.123,332.615 180.348,332.425 180.295 C 332.064 180.196,330.000 182.983,330.000 183.569 C 330.000 183.752,329.730 184.126,329.400 184.400 C 328.703 184.978,328.612 185.600,329.224 185.600 C 329.457 185.600,329.544 185.432,329.417 185.228 C 329.291 185.023,329.381 184.735,329.618 184.589 C 329.855 184.442,330.221 183.870,330.431 183.318 C 330.723 182.550,330.937 182.415,331.336 182.747 C 331.667 183.022,331.999 183.041,332.240 182.800 C 333.091 181.949,363.133 182.109,362.969 182.964 C 362.832 183.674,362.877 183.668,363.611 182.881 C 364.045 182.415,364.400 181.839,364.400 181.601 C 364.400 181.136,365.967 178.769,366.558 178.340 C 366.755 178.198,366.802 177.783,366.663 177.420 C 366.505 177.009,366.569 176.857,366.832 177.019 C 367.064 177.163,367.353 176.902,367.474 176.440 C 367.594 175.978,367.852 175.600,368.047 175.600 C 368.241 175.600,368.400 175.433,368.400 175.229 C 368.400 175.024,369.075 173.759,369.900 172.416 C 370.725 171.074,371.803 169.216,372.296 168.288 C 372.789 167.360,373.198 166.780,373.205 167.000 C 373.212 167.220,373.522 166.770,373.892 166.000 C 374.263 165.230,374.677 164.510,374.813 164.400 C 374.949 164.290,375.496 163.391,376.030 162.402 C 376.563 161.413,377.315 160.255,377.700 159.827 C 378.085 159.399,378.400 158.811,378.400 158.519 C 378.400 158.228,378.562 157.677,378.761 157.295 C 379.553 155.771,380.092 153.206,379.846 152.133 C 379.702 151.510,379.488 150.460,379.370 149.800 C 379.080 148.184,378.052 146.000,377.581 146.000 C 377.372 146.000,377.245 145.782,377.300 145.515 C 377.355 145.248,376.993 144.844,376.496 144.618 C 375.999 144.392,375.492 143.891,375.369 143.504 C 375.247 143.117,374.890 142.800,374.576 142.800 C 374.263 142.800,373.782 142.440,373.507 142.000 C 372.978 141.153,372.000 140.909,372.000 141.624 C 372.000 141.857,372.180 141.936,372.400 141.800 C 372.620 141.664,372.800 141.743,372.800 141.976 C 372.800 142.209,372.530 142.400,372.200 142.400 C 371.870 142.400,371.600 142.220,371.600 142.000 C 371.600 141.780,371.350 141.600,371.044 141.600 C 370.739 141.600,370.514 141.285,370.544 140.900 C 370.576 140.503,370.365 140.249,370.058 140.314 C 369.760 140.377,369.245 140.204,368.915 139.929 C 368.425 139.523,368.220 139.557,367.813 140.115 C 367.297 140.820,366.571 141.093,366.983 140.428 C 367.109 140.223,367.002 139.925,366.745 139.766 C 366.463 139.592,366.383 139.649,366.545 139.911 C 366.692 140.149,366.630 140.458,366.407 140.596 C 366.183 140.734,366.000 140.597,366.000 140.290 C 366.000 139.940,365.561 139.733,364.818 139.733 C 364.167 139.733,363.728 139.883,363.841 140.067 C 363.955 140.250,364.317 140.400,364.647 140.400 C 364.977 140.400,365.136 140.580,364.999 140.801 C 364.836 141.065,364.470 141.051,363.925 140.760 C 363.290 140.420,363.011 140.443,362.723 140.859 C 362.462 141.235,362.425 141.125,362.601 140.500 C 362.898 139.442,361.873 139.267,360.679 140.172 M115.800 161.200 C 115.664 161.420,115.207 161.600,114.785 161.600 C 113.704 161.600,103.979 164.941,102.042 165.978 C 101.579 166.225,101.197 166.287,101.194 166.114 C 101.191 165.941,101.056 165.981,100.894 166.202 C 100.732 166.423,99.880 166.840,99.000 167.129 C 97.298 167.686,95.839 168.270,94.705 168.847 C 94.323 169.041,93.744 169.200,93.418 169.200 C 93.091 169.200,92.183 169.560,91.400 170.000 C 90.617 170.440,89.531 170.800,88.988 170.800 C 88.445 170.800,88.000 170.980,88.000 171.200 C 88.000 171.420,87.550 171.600,87.000 171.600 C 86.450 171.600,86.000 171.780,86.000 172.000 C 86.000 172.220,85.651 172.400,85.224 172.400 C 84.797 172.400,84.336 172.580,84.200 172.800 C 84.064 173.020,83.513 173.200,82.976 173.200 C 82.439 173.200,82.000 173.380,82.000 173.600 C 82.000 173.820,81.651 174.000,81.224 174.000 C 80.797 174.000,80.336 174.180,80.200 174.400 C 80.064 174.620,79.513 174.800,78.976 174.800 C 78.439 174.800,78.000 174.980,78.000 175.200 C 78.000 175.420,77.647 175.600,77.215 175.600 C 76.409 175.600,72.764 176.883,71.484 177.617 C 71.090 177.842,70.607 177.928,70.411 177.807 C 70.216 177.686,69.925 177.798,69.766 178.055 C 69.573 178.367,69.651 178.416,70.000 178.200 C 70.355 177.981,70.427 178.032,70.225 178.359 C 70.061 178.625,69.718 178.766,69.463 178.673 C 69.209 178.580,68.412 178.743,67.693 179.035 C 66.974 179.326,66.298 179.571,66.191 179.578 C 66.084 179.585,65.345 179.863,64.549 180.195 C 63.753 180.528,62.925 180.800,62.708 180.800 C 62.492 180.800,62.428 181.095,62.566 181.457 C 62.786 182.030,62.733 182.042,62.144 181.557 C 61.563 181.077,61.497 181.082,61.668 181.600 C 61.842 182.127,66.551 182.212,100.286 182.302 C 135.772 182.396,138.747 182.456,139.253 183.079 C 139.627 183.540,139.642 183.658,139.300 183.453 C 138.985 183.264,138.800 183.384,138.800 183.776 C 138.800 184.640,139.995 184.566,140.023 183.700 C 140.246 176.973,139.982 175.158,138.295 171.800 C 136.033 167.298,131.629 163.339,127.600 162.186 C 126.390 161.840,124.847 161.386,124.172 161.178 C 122.539 160.676,116.114 160.692,115.800 161.200 M267.000 177.237 C 265.900 177.423,264.100 177.688,263.000 177.827 C 261.900 177.966,260.783 178.257,260.518 178.474 C 260.252 178.691,259.859 178.760,259.643 178.627 C 259.428 178.493,258.475 178.578,257.526 178.814 C 256.577 179.050,255.170 179.289,254.400 179.344 C 253.630 179.400,252.550 179.568,252.000 179.717 C 251.450 179.866,250.190 180.097,249.200 180.232 C 248.210 180.366,246.713 180.569,245.874 180.683 C 244.787 180.830,244.410 181.048,244.562 181.444 C 244.683 181.760,244.526 182.000,244.200 182.000 C 243.837 182.000,243.704 181.742,243.840 181.300 C 243.958 180.915,243.797 181.032,243.481 181.561 C 243.058 182.269,242.849 182.374,242.685 181.961 C 242.530 181.570,242.454 181.625,242.432 182.143 C 242.410 182.652,242.593 182.812,243.014 182.650 C 243.783 182.355,281.625 182.291,281.918 182.585 C 282.446 183.112,283.086 182.721,283.038 181.900 C 283.003 181.312,282.747 181.019,282.297 181.055 C 281.918 181.085,281.703 180.957,281.818 180.770 C 282.127 180.270,278.784 178.679,277.502 178.715 C 276.896 178.732,276.400 178.615,276.400 178.454 C 276.400 177.408,270.504 176.645,267.000 177.237 M60.800 181.939 C 60.800 182.151,60.440 182.231,60.000 182.116 C 59.130 181.888,58.993 182.260,59.600 183.200 C 59.858 183.600,59.990 183.633,59.994 183.300 C 59.997 183.025,60.360 182.800,60.800 182.800 C 61.644 182.800,61.876 182.218,61.200 181.800 C 60.980 181.664,60.800 181.727,60.800 181.939 M239.945 181.958 C 240.397 182.244,240.399 182.334,239.956 182.481 C 239.636 182.588,239.794 182.758,240.350 182.903 C 240.861 183.036,241.173 183.040,241.043 182.910 C 240.913 182.780,241.007 182.432,241.252 182.137 C 241.608 181.709,241.465 181.601,240.549 181.606 C 239.748 181.610,239.565 181.717,239.945 181.958 M237.693 182.800 C 237.431 183.219,237.372 183.659,237.563 183.777 C 237.753 183.895,238.012 183.596,238.139 183.113 C 238.439 181.964,238.283 181.855,237.693 182.800 M283.600 182.600 C 283.600 182.930,283.375 183.203,283.100 183.206 C 282.760 183.210,282.788 183.331,283.187 183.583 C 283.558 183.818,283.961 183.798,284.287 183.528 C 284.766 183.130,284.972 183.356,284.837 184.130 C 284.806 184.311,284.995 184.327,285.258 184.164 C 285.584 183.963,285.655 184.080,285.481 184.534 C 285.295 185.019,285.444 185.200,286.029 185.200 C 286.721 185.200,286.627 184.978,285.352 183.600 C 283.694 181.808,283.600 181.755,283.600 182.600 M233.050 182.973 C 231.977 183.447,231.957 183.495,232.750 183.703 C 233.218 183.825,233.600 183.781,233.600 183.606 C 233.600 183.430,234.455 183.108,235.500 182.891 L 237.400 182.495 235.800 182.480 C 234.920 182.472,233.683 182.694,233.050 182.973 M55.230 183.764 C 54.909 184.150,54.894 184.411,55.181 184.588 C 55.411 184.731,55.600 184.556,55.600 184.200 C 55.600 183.844,55.780 183.664,56.000 183.800 C 56.220 183.936,56.400 183.857,56.400 183.624 C 56.400 183.024,55.782 183.098,55.230 183.764 M228.964 183.659 C 228.761 183.987,228.956 184.053,229.617 183.880 C 230.135 183.744,230.763 183.803,231.013 184.010 C 231.311 184.258,231.467 184.212,231.467 183.874 C 231.467 183.219,229.348 183.037,228.964 183.659 M224.400 184.600 C 223.762 185.369,224.413 185.377,225.424 184.613 C 226.076 184.119,226.096 184.023,225.549 184.013 C 225.191 184.006,224.674 184.270,224.400 184.600 M361.808 184.773 C 361.645 185.288,361.290 185.494,360.746 185.390 C 360.069 185.259,360.012 185.332,360.413 185.816 C 360.754 186.227,360.765 186.400,360.449 186.400 C 360.202 186.400,360.038 186.535,360.085 186.700 C 360.132 186.865,359.948 187.401,359.676 187.891 C 359.277 188.609,359.281 188.744,359.696 188.585 C 359.979 188.476,360.433 187.884,360.705 187.269 C 360.978 186.654,361.560 185.764,362.000 185.292 C 362.879 184.348,362.994 184.000,362.427 184.000 C 362.222 184.000,361.943 184.348,361.808 184.773 M162.629 185.661 C 162.283 186.355,162.000 187.106,162.000 187.330 C 162.000 187.554,161.702 188.066,161.338 188.469 C 160.974 188.871,160.869 189.200,161.104 189.200 C 161.340 189.200,161.772 188.660,162.064 188.000 C 162.356 187.340,162.816 186.800,163.085 186.800 C 163.358 186.800,163.472 186.532,163.343 186.195 C 163.215 185.862,163.333 185.322,163.604 184.995 C 163.910 184.627,163.938 184.400,163.678 184.400 C 163.447 184.400,162.975 184.968,162.629 185.661 M219.600 185.217 C 219.600 185.376,219.960 185.601,220.400 185.716 C 220.858 185.836,221.203 185.727,221.206 185.463 C 221.211 185.116,221.286 185.117,221.509 185.466 C 221.730 185.814,222.058 185.791,222.803 185.374 C 223.750 184.844,223.695 184.819,221.700 184.872 C 220.545 184.902,219.600 185.057,219.600 185.217 M48.813 186.291 C 48.289 186.882,48.303 186.923,48.946 186.676 C 49.342 186.524,49.841 186.400,50.056 186.400 C 50.271 186.400,50.336 186.220,50.200 186.000 C 49.857 185.445,49.498 185.521,48.813 186.291 M138.900 186.631 C 138.900 187.552,138.961 187.613,139.291 187.022 C 139.547 186.566,139.547 186.187,139.291 185.931 C 139.036 185.676,138.900 185.920,138.900 186.631 M214.984 186.027 C 214.839 186.261,214.828 186.561,214.960 186.693 C 215.092 186.825,215.200 186.701,215.200 186.418 C 215.200 186.001,215.317 185.999,215.810 186.408 C 216.145 186.686,216.535 186.798,216.676 186.657 C 216.818 186.516,216.713 186.400,216.443 186.400 C 216.173 186.400,216.064 186.220,216.200 186.000 C 216.336 185.780,216.177 185.600,215.847 185.600 C 215.517 185.600,215.129 185.792,214.984 186.027 M328.202 186.397 C 328.060 186.626,328.377 186.760,328.949 186.712 C 329.495 186.667,329.855 186.488,329.748 186.315 C 329.473 185.871,328.495 185.923,328.202 186.397 M327.384 187.627 C 326.948 188.332,327.407 188.430,328.229 187.809 C 328.906 187.297,328.917 187.224,328.324 187.213 C 327.952 187.206,327.529 187.392,327.384 187.627 M137.328 193.100 C 136.914 194.428,136.925 194.511,137.430 193.824 C 137.908 193.173,138.239 191.600,137.898 191.600 C 137.842 191.600,137.585 192.275,137.328 193.100 M290.114 196.200 C 290.117 197.300,290.195 197.703,290.287 197.095 C 290.379 196.486,290.377 195.586,290.282 195.095 C 290.187 194.603,290.111 195.100,290.114 196.200 " stroke="none" fill="#3cb4ec" fill-rule="evenodd"></path><path id="path4" d="M239.000 51.600 C 238.864 51.820,237.874 52.000,236.800 52.000 C 235.726 52.000,234.736 52.180,234.600 52.400 C 234.464 52.620,233.373 52.800,232.176 52.800 C 230.979 52.800,230.000 52.980,230.000 53.200 C 230.000 53.420,229.010 53.600,227.800 53.600 C 226.590 53.600,225.600 53.780,225.600 54.000 C 225.600 54.222,224.533 54.400,223.200 54.400 C 221.867 54.400,220.800 54.578,220.800 54.800 C 220.800 55.022,219.733 55.200,218.400 55.200 C 217.067 55.200,216.000 55.378,216.000 55.600 C 216.000 55.823,214.925 56.000,213.576 56.000 C 212.063 56.000,211.246 56.150,211.400 56.400 C 211.554 56.650,210.737 56.800,209.224 56.800 C 207.875 56.800,206.800 56.977,206.800 57.200 C 206.800 57.422,205.733 57.600,204.400 57.600 C 203.067 57.600,202.000 57.778,202.000 58.000 C 202.000 58.220,201.100 58.400,200.000 58.400 C 198.900 58.400,198.000 58.562,198.000 58.760 C 198.000 58.958,197.100 59.078,196.000 59.026 C 194.404 58.951,193.999 59.060,193.994 59.566 C 193.989 60.121,193.940 60.126,193.600 59.600 C 193.387 59.270,193.209 59.182,193.206 59.405 C 193.203 59.629,192.391 59.789,191.402 59.762 C 190.293 59.732,189.426 59.928,189.138 60.275 C 188.797 60.686,188.150 60.771,186.735 60.592 C 185.671 60.457,184.800 60.508,184.800 60.706 C 184.800 61.099,184.658 61.126,182.000 61.223 C 181.010 61.259,179.885 61.456,179.499 61.659 C 179.113 61.863,177.985 62.046,176.991 62.066 C 175.997 62.085,175.087 62.259,174.969 62.451 C 174.850 62.643,173.968 62.800,173.010 62.800 C 172.051 62.800,171.202 62.995,171.122 63.233 C 171.039 63.483,169.926 63.661,168.478 63.654 C 167.002 63.647,166.074 63.797,166.213 64.021 C 166.349 64.241,165.597 64.400,164.424 64.400 C 163.311 64.400,162.400 64.580,162.400 64.800 C 162.400 65.020,162.209 65.200,161.976 65.200 C 161.743 65.200,161.688 64.975,161.853 64.700 C 162.093 64.300,162.029 64.301,161.535 64.700 C 161.195 64.976,159.991 65.243,158.859 65.294 C 157.726 65.346,156.800 65.526,156.800 65.694 C 156.800 65.862,155.821 66.000,154.624 66.000 C 153.427 66.000,152.336 66.180,152.200 66.400 C 152.064 66.620,150.883 66.800,149.576 66.800 C 148.259 66.800,147.200 66.978,147.200 67.200 C 147.200 67.420,146.572 67.600,145.803 67.600 C 144.840 67.600,144.252 67.848,143.907 68.400 C 143.632 68.840,143.260 69.200,143.080 69.200 C 142.900 69.200,142.864 69.020,143.000 68.800 C 143.136 68.580,143.057 68.400,142.824 68.400 C 142.591 68.400,142.400 68.580,142.400 68.800 C 142.400 69.020,142.130 69.200,141.800 69.200 C 141.470 69.200,141.200 69.380,141.200 69.600 C 141.200 69.820,140.880 70.000,140.488 70.000 C 140.097 70.000,139.517 70.360,139.200 70.800 C 138.883 71.240,138.284 71.600,137.869 71.600 C 137.351 71.600,137.189 71.795,137.353 72.221 C 137.490 72.579,137.423 72.738,137.192 72.595 C 136.730 72.309,135.600 73.319,135.600 74.019 C 135.600 74.280,135.019 75.002,134.308 75.622 C 133.598 76.243,133.145 76.879,133.302 77.035 C 133.459 77.192,133.312 77.522,132.976 77.768 C 132.639 78.014,132.334 78.617,132.297 79.108 C 132.260 79.598,132.043 80.003,131.815 80.006 C 131.587 80.009,131.625 80.155,131.901 80.330 C 132.279 80.571,132.202 80.861,131.585 81.524 C 131.136 82.006,130.946 82.400,131.162 82.400 C 131.378 82.400,131.838 81.995,132.185 81.500 C 132.532 81.005,132.906 80.659,133.018 80.730 C 133.129 80.801,133.351 80.786,133.510 80.696 C 133.669 80.605,133.575 80.586,133.300 80.653 C 132.692 80.801,132.674 80.582,133.214 79.574 C 133.506 79.028,133.499 78.800,133.190 78.800 C 132.950 78.800,132.865 78.619,133.002 78.397 C 133.156 78.147,133.480 78.223,133.854 78.597 C 134.643 79.385,134.674 79.373,134.899 78.197 C 135.041 77.450,134.968 77.295,134.612 77.590 C 134.277 77.868,134.133 77.809,134.133 77.394 C 134.133 76.724,135.022 76.588,135.400 77.200 C 135.563 77.464,157.404 77.600,199.624 77.600 C 234.811 77.600,263.613 77.735,263.630 77.900 C 263.646 78.065,263.737 78.616,263.831 79.124 C 263.925 79.633,263.835 79.945,263.630 79.819 C 263.141 79.516,262.711 80.904,263.034 81.744 C 263.306 82.452,264.400 82.658,264.400 82.000 C 264.400 81.780,264.130 81.600,263.800 81.600 C 263.090 81.600,263.006 80.967,263.662 80.562 C 263.969 80.372,264.014 80.454,263.796 80.806 C 263.555 81.196,263.653 81.265,264.167 81.068 C 264.551 80.921,264.951 80.800,265.056 80.800 C 265.161 80.800,265.145 80.635,265.020 80.432 C 264.895 80.230,265.077 79.780,265.425 79.432 C 265.998 78.859,265.998 78.800,265.429 78.800 C 264.630 78.800,264.608 78.049,265.398 77.746 C 265.726 77.619,265.894 77.352,265.770 77.152 C 265.646 76.951,265.377 76.891,265.172 77.017 C 264.968 77.144,264.800 77.037,264.800 76.780 C 264.800 76.482,265.161 76.404,265.800 76.564 C 266.550 76.753,266.800 76.658,266.800 76.184 C 266.800 75.804,266.614 75.668,266.332 75.842 C 265.999 76.048,265.960 75.910,266.197 75.366 C 266.379 74.945,266.519 74.195,266.507 73.700 C 266.494 73.186,266.724 72.800,267.042 72.800 C 267.687 72.800,267.842 70.149,267.210 69.933 C 266.995 69.860,266.787 68.848,266.746 67.684 C 266.705 66.520,266.521 65.475,266.336 65.360 C 266.151 65.246,266.000 64.638,266.000 64.010 C 266.000 63.381,265.834 62.807,265.630 62.733 C 265.427 62.660,265.202 62.330,265.130 62.000 C 265.059 61.670,264.685 61.165,264.300 60.877 C 263.915 60.590,263.600 60.158,263.600 59.917 C 263.600 59.257,259.272 55.200,258.567 55.200 C 258.229 55.200,258.064 55.020,258.200 54.800 C 258.336 54.580,258.156 54.400,257.800 54.400 C 257.413 54.400,257.267 54.215,257.438 53.938 C 257.607 53.664,257.549 53.585,257.294 53.742 C 257.058 53.888,256.593 53.736,256.261 53.404 C 255.929 53.072,255.374 52.800,255.029 52.800 C 254.683 52.800,254.400 52.620,254.400 52.400 C 254.400 52.180,253.875 52.000,253.233 52.000 C 252.592 52.000,251.975 51.775,251.864 51.500 C 251.706 51.111,251.576 51.121,251.280 51.543 C 251.015 51.922,250.818 51.952,250.626 51.643 C 250.273 51.070,239.352 51.030,239.000 51.600 M203.200 97.600 C 202.715 97.914,202.772 97.989,203.500 97.994 C 203.995 97.997,204.400 97.820,204.400 97.600 C 204.400 97.099,203.976 97.099,203.200 97.600 M185.200 100.800 C 184.715 101.114,184.772 101.189,185.500 101.194 C 185.995 101.197,186.400 101.020,186.400 100.800 C 186.400 100.299,185.976 100.299,185.200 100.800 M180.400 101.600 C 180.400 101.820,180.670 102.000,181.000 102.000 C 181.330 102.000,181.600 101.820,181.600 101.600 C 181.600 101.380,181.330 101.200,181.000 101.200 C 180.670 101.200,180.400 101.380,180.400 101.600 M175.400 102.400 C 174.691 102.705,174.725 102.747,175.700 102.772 C 176.305 102.787,176.800 102.620,176.800 102.400 C 176.800 101.931,176.493 101.931,175.400 102.400 M148.612 106.346 C 148.959 106.692,153.200 106.797,153.200 106.459 C 153.200 106.295,152.117 106.151,150.794 106.140 C 149.470 106.130,148.489 106.222,148.612 106.346 M239.665 130.217 C 238.995 131.688,239.123 132.002,239.847 130.665 C 240.186 130.040,240.388 129.454,240.296 129.363 C 240.205 129.271,239.921 129.656,239.665 130.217 " stroke="none" fill="#2ca4f9" fill-rule="evenodd"></path><path id="path5" d="M188.980 59.961 C 188.771 60.160,188.240 60.409,187.800 60.515 C 187.041 60.697,187.044 60.710,187.851 60.754 C 188.319 60.779,188.926 60.530,189.200 60.200 C 189.743 59.546,189.591 59.381,188.980 59.961 M134.133 77.394 C 134.133 77.809,134.277 77.868,134.612 77.590 C 134.968 77.295,135.041 77.450,134.899 78.197 C 134.674 79.373,134.643 79.385,133.854 78.597 C 133.480 78.223,133.156 78.147,133.002 78.397 C 132.865 78.619,132.950 78.800,133.190 78.800 C 133.499 78.800,133.506 79.028,133.214 79.574 C 132.642 80.643,132.691 80.810,133.500 80.550 C 134.071 80.366,134.093 80.401,133.619 80.736 C 133.300 80.962,132.940 81.102,132.819 81.048 C 132.699 80.993,132.201 81.365,131.714 81.874 C 130.950 82.674,130.922 82.802,131.514 82.813 C 132.114 82.824,132.099 82.902,131.400 83.430 C 130.508 84.104,130.485 84.354,131.266 84.849 C 131.560 85.035,131.620 85.191,131.400 85.194 C 130.922 85.201,130.856 90.375,131.324 91.100 C 131.514 91.395,131.463 91.600,131.200 91.600 C 130.954 91.600,130.866 91.783,131.004 92.007 C 131.142 92.230,131.468 92.291,131.728 92.142 C 131.987 91.994,132.067 92.019,131.903 92.199 C 131.740 92.379,131.830 92.803,132.103 93.140 C 132.500 93.629,132.499 93.693,132.100 93.453 C 131.422 93.046,131.470 93.439,132.203 94.295 C 132.535 94.683,132.821 95.180,132.840 95.400 C 132.892 96.031,134.139 98.000,134.486 98.000 C 134.659 98.000,134.800 98.266,134.800 98.591 C 134.800 98.916,135.243 99.472,135.784 99.827 C 136.326 100.181,136.877 100.812,137.009 101.228 C 137.141 101.644,137.373 101.966,137.524 101.945 C 138.321 101.831,138.818 102.047,138.594 102.410 C 138.455 102.635,138.489 102.787,138.670 102.746 C 139.201 102.628,140.502 103.246,141.900 104.280 C 142.615 104.808,143.200 105.146,143.200 105.030 C 143.200 104.915,143.672 104.999,144.249 105.219 C 146.015 105.890,148.135 106.027,148.475 105.492 C 148.721 105.105,148.789 105.107,148.794 105.500 C 148.797 105.775,149.081 106.000,149.424 106.000 C 149.767 106.000,149.940 106.173,149.810 106.384 C 149.670 106.610,150.078 106.592,150.799 106.341 C 151.473 106.105,152.424 106.014,152.912 106.137 C 153.709 106.337,153.730 106.308,153.117 105.849 C 152.742 105.567,151.699 105.364,150.801 105.398 C 149.735 105.438,149.229 105.303,149.341 105.008 C 149.647 104.213,146.909 104.288,146.403 105.089 C 146.114 105.546,146.009 105.587,146.109 105.204 C 146.298 104.478,145.487 103.600,144.629 103.600 C 144.283 103.600,144.000 103.426,144.000 103.213 C 144.000 102.999,143.732 102.928,143.403 103.054 C 143.063 103.185,142.701 103.008,142.561 102.644 C 142.427 102.292,142.136 102.116,141.915 102.252 C 141.668 102.405,141.722 102.645,142.057 102.880 C 142.507 103.196,142.503 103.235,142.035 103.109 C 141.724 103.025,141.423 102.635,141.365 102.242 C 141.205 101.149,140.783 100.930,140.345 101.712 C 139.873 102.556,139.229 102.282,139.374 101.298 C 139.494 100.477,175.600 99.976,175.600 100.796 C 175.600 101.018,174.970 101.200,174.200 101.200 C 173.430 101.200,172.800 101.380,172.800 101.600 C 172.800 101.820,172.991 102.000,173.224 102.000 C 173.457 102.000,173.543 102.169,173.415 102.376 C 173.287 102.582,173.537 102.725,173.971 102.692 C 174.506 102.652,174.639 102.489,174.386 102.183 C 174.138 101.884,174.212 101.733,174.606 101.733 C 174.933 101.733,175.200 101.883,175.200 102.067 C 175.200 102.250,175.391 102.400,175.624 102.400 C 175.857 102.400,175.963 102.265,175.861 102.100 C 175.759 101.935,176.738 101.833,178.037 101.873 C 179.810 101.928,180.400 101.809,180.400 101.397 C 180.400 101.094,180.608 100.719,180.862 100.562 C 181.163 100.376,181.214 100.453,181.010 100.784 C 180.675 101.325,183.001 101.207,186.852 100.488 C 187.871 100.297,189.068 100.168,189.513 100.201 C 189.957 100.234,190.247 100.067,190.156 99.830 C 190.050 99.555,190.711 99.418,191.995 99.451 C 193.590 99.492,194.006 99.369,194.032 98.851 C 194.049 98.493,194.139 98.380,194.231 98.600 C 194.324 98.823,195.375 98.939,196.600 98.863 C 198.134 98.767,198.717 98.585,198.524 98.263 C 198.356 97.982,198.498 98.003,198.884 98.317 C 199.235 98.601,199.585 98.666,199.661 98.461 C 199.805 98.074,201.895 97.668,205.500 97.325 C 206.655 97.216,207.600 96.927,207.600 96.683 C 207.600 96.366,207.729 96.369,208.054 96.694 C 208.576 97.216,207.529 98.573,206.983 98.081 C 206.812 97.926,206.792 98.010,206.940 98.268 C 207.087 98.525,206.923 99.020,206.575 99.368 C 206.225 99.718,206.141 100.000,206.387 100.000 C 206.631 100.000,206.464 100.394,206.016 100.875 C 205.077 101.883,205.002 102.705,205.757 103.700 C 206.454 104.619,206.800 104.585,206.800 103.600 C 206.800 103.160,207.000 102.800,207.245 102.800 C 207.512 102.800,207.621 102.322,207.516 101.610 C 207.383 100.703,207.458 100.516,207.832 100.826 C 208.165 101.103,208.367 101.101,208.461 100.823 C 208.737 100.008,253.296 100.244,253.896 101.063 C 254.198 101.477,254.400 101.553,254.400 101.253 C 254.400 100.978,254.558 100.850,254.751 100.970 C 254.945 101.089,255.217 100.617,255.356 99.920 C 255.495 99.223,255.865 98.371,256.176 98.026 C 256.756 97.385,256.800 97.256,256.800 96.176 C 256.800 95.833,256.960 95.651,257.155 95.772 C 257.350 95.893,257.485 95.678,257.455 95.296 C 257.424 94.911,257.637 94.649,257.930 94.710 C 258.288 94.784,258.380 94.567,258.214 94.044 C 258.078 93.617,258.167 93.144,258.411 92.993 C 258.655 92.842,258.758 92.467,258.640 92.160 C 258.521 91.850,258.667 91.600,258.966 91.600 C 259.418 91.600,259.711 91.107,260.151 89.600 C 260.560 88.199,261.381 86.864,261.708 87.067 C 261.937 87.209,262.005 87.132,261.859 86.895 C 261.713 86.660,261.805 85.957,262.062 85.334 C 262.319 84.710,262.496 84.052,262.455 83.870 C 262.414 83.689,262.566 83.655,262.793 83.796 C 263.430 84.189,263.716 82.964,263.209 82.016 C 262.714 81.093,263.030 79.448,263.630 79.819 C 263.835 79.945,263.925 79.633,263.831 79.124 C 263.737 78.616,263.646 78.065,263.630 77.900 C 263.613 77.735,234.811 77.600,199.624 77.600 C 157.404 77.600,135.563 77.464,135.400 77.200 C 135.022 76.588,134.133 76.724,134.133 77.394 M265.067 77.867 C 264.606 78.327,264.775 78.800,265.400 78.800 C 265.730 78.800,266.000 78.530,266.000 78.200 C 266.000 77.575,265.527 77.406,265.067 77.867 M252.400 101.201 C 251.892 101.529,251.910 101.589,252.524 101.594 C 252.922 101.597,253.134 101.783,252.996 102.007 C 252.858 102.230,252.558 102.298,252.330 102.156 C 252.066 101.994,252.010 102.200,252.175 102.720 C 252.347 103.264,252.218 103.662,251.792 103.900 C 251.317 104.166,251.224 104.556,251.434 105.393 C 251.748 106.645,252.800 105.859,252.800 104.373 C 252.800 104.002,253.070 103.474,253.400 103.200 C 254.438 102.339,253.511 100.486,252.400 101.201 M172.028 101.639 C 172.004 102.178,171.549 102.254,169.133 102.124 C 166.156 101.963,165.619 102.205,165.606 103.714 C 165.601 104.305,165.738 104.354,166.400 104.000 C 166.984 103.688,167.200 103.696,167.200 104.030 C 167.200 104.282,167.574 104.064,168.030 103.544 C 168.487 103.025,168.747 102.825,168.607 103.100 C 168.425 103.458,168.786 103.596,169.876 103.587 C 171.821 103.571,172.789 102.877,172.368 101.800 C 172.140 101.214,172.049 101.171,172.028 101.639 M161.336 103.378 C 161.454 103.685,160.753 103.804,159.127 103.753 C 157.253 103.694,156.789 103.795,156.955 104.226 C 157.070 104.528,156.965 104.898,156.721 105.049 C 156.444 105.220,156.389 105.141,156.576 104.839 C 156.799 104.478,156.259 104.378,154.437 104.443 C 153.097 104.492,152.000 104.587,152.000 104.655 C 152.000 105.050,154.384 105.843,155.400 105.787 C 157.542 105.667,159.990 105.140,160.234 104.746 C 160.377 104.514,160.726 104.567,161.112 104.881 C 161.473 105.173,161.634 105.201,161.481 104.945 C 161.331 104.695,161.511 104.245,161.881 103.945 C 162.344 103.570,162.460 103.556,162.253 103.900 C 161.749 104.739,163.513 104.487,164.408 103.592 L 165.215 102.785 163.189 102.856 C 161.877 102.903,161.224 103.087,161.336 103.378 M144.000 104.250 C 144.000 104.707,143.856 104.717,143.200 104.307 C 142.760 104.032,142.400 103.688,142.400 103.541 C 142.400 103.395,142.760 103.369,143.200 103.484 C 143.640 103.599,144.000 103.944,144.000 104.250 M204.136 104.800 C 203.746 105.460,203.286 106.000,203.114 106.000 C 202.941 106.000,202.800 106.270,202.800 106.600 C 202.800 106.930,203.081 107.200,203.424 107.200 C 203.767 107.200,203.945 107.034,203.820 106.832 C 203.695 106.630,204.050 106.104,204.610 105.664 C 205.217 105.186,205.458 104.759,205.207 104.604 C 204.976 104.462,204.891 104.177,205.017 103.972 C 205.144 103.768,205.157 103.600,205.046 103.600 C 204.936 103.600,204.526 104.140,204.136 104.800 M159.200 104.424 C 159.200 104.584,158.930 104.818,158.600 104.945 C 158.256 105.077,158.000 104.953,158.000 104.654 C 158.000 104.368,158.270 104.133,158.600 104.133 C 158.930 104.133,159.200 104.264,159.200 104.424 M250.800 107.200 C 250.800 107.947,250.907 108.053,251.280 107.680 C 251.653 107.307,251.653 107.093,251.280 106.720 C 250.907 106.347,250.800 106.453,250.800 107.200 M202.148 108.192 C 201.817 109.053,202.086 109.243,202.696 108.581 C 203.011 108.239,203.047 107.952,202.793 107.796 C 202.574 107.660,202.283 107.838,202.148 108.192 M249.709 109.237 C 249.419 110.004,249.067 110.365,248.781 110.188 C 248.440 109.977,248.431 110.110,248.746 110.699 C 248.980 111.137,249.058 111.608,248.919 111.747 C 248.780 111.886,248.885 112.000,249.151 112.000 C 249.417 112.000,249.606 111.775,249.570 111.500 C 249.438 110.483,249.611 109.960,250.000 110.200 C 250.233 110.344,250.400 109.937,250.400 109.224 C 250.400 107.689,250.292 107.691,249.709 109.237 M200.400 111.824 C 200.400 112.193,200.212 112.331,199.938 112.162 C 199.652 111.985,199.585 112.052,199.762 112.338 C 200.154 112.973,200.305 112.924,200.800 112.000 C 201.090 111.458,201.095 111.200,200.814 111.200 C 200.586 111.200,200.400 111.481,200.400 111.824 M197.200 117.362 C 197.200 118.047,195.555 121.286,195.000 121.694 C 194.752 121.876,194.790 121.990,195.099 121.994 C 195.374 121.997,196.018 121.130,196.530 120.068 C 197.859 117.314,198.025 116.800,197.587 116.800 C 197.374 116.800,197.200 117.053,197.200 117.362 M244.292 120.242 C 244.131 120.402,244.000 120.809,244.000 121.147 C 244.000 121.597,244.118 121.642,244.445 121.315 C 244.690 121.070,244.821 120.663,244.737 120.410 C 244.652 120.157,244.452 120.081,244.292 120.242 M238.418 132.366 C 238.173 132.825,238.139 133.200,238.343 133.200 C 238.754 133.200,239.322 131.988,239.042 131.708 C 238.944 131.611,238.664 131.907,238.418 132.366 M336.800 141.600 C 335.424 141.890,335.432 141.896,337.276 141.947 C 338.308 141.976,339.264 141.820,339.400 141.600 C 339.674 141.156,338.907 141.156,336.800 141.600 M327.600 142.407 C 326.667 142.712,326.685 142.731,327.872 142.684 C 328.572 142.657,329.056 142.491,328.949 142.317 C 328.841 142.143,328.718 142.018,328.676 142.040 C 328.634 142.062,328.150 142.227,327.600 142.407 M299.293 145.380 C 298.794 145.655,298.260 146.007,298.105 146.162 C 297.766 146.501,299.235 145.998,299.800 145.581 C 300.020 145.419,300.560 145.198,301.000 145.089 L 301.800 144.893 301.000 144.886 C 300.560 144.882,299.792 145.104,299.293 145.380 M291.720 157.200 C 291.720 158.410,291.795 158.905,291.887 158.300 C 291.978 157.695,291.978 156.705,291.887 156.100 C 291.795 155.495,291.720 155.990,291.720 157.200 M131.200 163.754 C 131.200 163.839,131.657 164.207,132.215 164.573 C 133.207 165.223,133.219 165.219,132.719 164.419 C 132.289 163.730,131.200 163.253,131.200 163.754 M137.055 169.400 C 137.980 170.979,138.000 171.003,138.000 170.511 C 138.000 170.279,137.629 169.664,137.176 169.144 L 136.353 168.200 137.055 169.400 M371.453 170.100 L 370.733 171.400 371.558 170.400 C 372.289 169.513,372.614 168.800,372.286 168.800 C 372.224 168.800,371.849 169.385,371.453 170.100 M310.693 213.708 C 310.312 214.178,310.000 214.730,310.000 214.935 C 310.000 215.140,310.381 214.824,310.846 214.233 C 311.311 213.642,311.623 213.089,311.539 213.006 C 311.455 212.922,311.075 213.238,310.693 213.708 M12.000 218.200 C 12.000 218.750,12.155 219.200,12.345 219.200 C 12.534 219.200,12.603 218.750,12.498 218.200 C 12.393 217.650,12.238 217.200,12.153 217.200 C 12.069 217.200,12.000 217.650,12.000 218.200 " stroke="none" fill="#2cacf4" fill-rule="evenodd"></path><path id="path6" d="M230.700 100.303 C 214.640 100.378,208.400 100.531,208.400 100.852 C 208.400 101.177,208.256 101.178,207.871 100.859 C 207.447 100.507,207.376 100.657,207.516 101.610 C 207.621 102.322,207.512 102.800,207.245 102.800 C 207.000 102.800,206.800 103.160,206.800 103.600 C 206.800 104.581,206.182 104.651,205.821 103.711 C 205.596 103.125,205.503 103.109,205.195 103.608 C 204.979 103.957,204.979 104.339,205.196 104.556 C 205.412 104.772,205.162 105.229,204.575 105.691 C 204.035 106.116,203.695 106.630,203.820 106.832 C 203.945 107.034,203.747 107.200,203.381 107.200 C 202.953 107.200,202.797 107.415,202.945 107.800 C 203.071 108.130,203.046 108.401,202.887 108.403 C 202.616 108.405,201.151 110.711,201.296 110.908 C 201.392 111.039,199.851 113.760,199.544 114.000 C 199.153 114.307,195.200 122.666,195.200 123.188 C 195.200 123.441,195.020 123.536,194.800 123.400 C 194.580 123.264,194.400 123.523,194.400 123.976 C 194.400 124.429,194.264 124.800,194.098 124.800 C 193.931 124.800,193.571 125.340,193.298 126.000 C 193.024 126.660,192.576 127.740,192.302 128.400 C 192.029 129.060,191.669 129.600,191.502 129.600 C 191.336 129.600,191.200 129.887,191.200 130.238 C 191.200 130.589,190.829 131.398,190.375 132.036 C 189.921 132.673,189.655 133.365,189.783 133.573 C 189.912 133.781,189.786 134.097,189.503 134.275 C 189.220 134.454,188.541 135.500,187.994 136.600 C 187.447 137.700,186.865 138.660,186.700 138.733 C 186.535 138.807,186.400 139.176,186.400 139.553 C 186.400 139.931,186.204 140.436,185.965 140.675 C 185.652 140.988,185.653 141.185,185.968 141.380 C 186.209 141.529,186.529 141.324,186.680 140.925 C 187.029 140.004,187.818 139.200,188.371 139.200 C 188.607 139.200,188.800 138.930,188.800 138.600 C 188.800 138.074,191.577 138.000,211.397 138.000 L 233.995 138.000 233.827 138.900 C 233.735 139.395,233.646 139.935,233.630 140.100 C 233.613 140.265,233.347 140.400,233.037 140.400 C 232.681 140.400,232.548 140.679,232.675 141.164 C 232.809 141.676,232.632 141.989,232.137 142.117 C 231.469 142.289,231.475 142.312,232.200 142.360 C 232.867 142.404,232.900 142.477,232.400 142.800 C 231.964 143.082,231.943 143.189,232.324 143.194 C 232.617 143.197,232.722 143.403,232.562 143.662 C 232.384 143.950,232.452 144.015,232.745 143.834 C 233.002 143.675,233.117 143.390,233.000 143.200 C 232.883 143.010,232.955 142.751,233.160 142.624 C 233.576 142.368,236.295 136.943,236.482 136.000 C 236.547 135.670,236.704 135.310,236.832 135.200 C 237.357 134.747,240.800 128.001,240.800 127.425 C 240.800 127.081,240.980 126.800,241.200 126.800 C 241.420 126.800,241.600 126.440,241.600 126.000 C 241.600 125.560,241.735 125.197,241.900 125.194 C 242.186 125.188,243.363 122.859,244.459 120.129 C 244.740 119.430,245.112 118.945,245.285 119.052 C 245.458 119.160,245.600 119.057,245.600 118.825 C 245.600 118.348,248.006 113.109,248.367 112.800 C 248.824 112.408,249.652 110.721,249.271 110.956 C 249.058 111.088,248.777 110.917,248.646 110.577 C 248.504 110.206,248.576 110.061,248.826 110.216 C 249.055 110.358,249.451 109.918,249.709 109.237 C 249.965 108.556,250.316 108.000,250.488 108.000 C 250.659 108.000,250.800 107.640,250.800 107.200 C 250.800 106.760,250.994 106.400,251.232 106.400 C 251.499 106.400,251.567 105.963,251.411 105.251 C 251.224 104.399,251.327 104.037,251.807 103.853 C 252.259 103.679,252.373 103.346,252.185 102.752 C 252.012 102.207,252.064 101.992,252.330 102.156 C 252.558 102.298,252.858 102.230,252.996 102.007 C 253.134 101.783,252.922 101.597,252.524 101.594 C 251.910 101.589,251.892 101.529,252.400 101.201 C 252.828 100.926,253.143 101.007,253.500 101.484 C 253.937 102.068,254.000 102.073,254.000 101.525 C 254.000 100.273,252.645 100.202,230.700 100.303 M139.569 100.500 C 139.111 101.998,139.684 102.893,140.345 101.712 C 140.763 100.966,141.203 101.140,141.345 102.107 C 141.495 103.125,144.000 105.239,144.000 104.347 C 144.000 104.043,143.459 103.556,142.798 103.263 C 142.136 102.970,141.704 102.556,141.836 102.342 C 141.972 102.122,142.295 102.250,142.578 102.637 C 142.853 103.014,143.286 103.194,143.539 103.038 C 143.793 102.881,144.000 102.943,144.000 103.176 C 144.000 103.409,144.283 103.600,144.629 103.600 C 145.487 103.600,146.298 104.478,146.109 105.204 C 146.009 105.587,146.114 105.546,146.403 105.089 C 146.980 104.175,149.642 104.226,149.289 105.144 C 149.150 105.506,149.233 105.627,149.504 105.459 C 149.747 105.309,150.058 105.370,150.196 105.593 C 150.334 105.817,150.662 105.997,150.924 105.994 C 151.209 105.990,151.160 105.834,150.800 105.604 C 150.111 105.163,152.410 105.348,153.289 105.804 C 153.570 105.950,153.376 105.724,152.859 105.302 L 151.917 104.534 154.396 104.445 C 156.251 104.378,156.799 104.477,156.576 104.839 C 156.389 105.141,156.444 105.220,156.721 105.049 C 156.965 104.898,157.074 104.537,156.963 104.247 C 156.810 103.850,157.305 103.721,158.975 103.725 C 160.568 103.729,161.085 103.856,160.817 104.180 C 160.561 104.488,160.730 104.653,161.355 104.705 C 161.911 104.751,162.267 104.559,162.267 104.212 C 162.267 103.900,162.094 103.679,161.883 103.722 C 161.673 103.765,161.427 103.604,161.338 103.364 C 161.236 103.089,161.954 102.900,163.279 102.853 C 165.103 102.789,165.287 102.849,164.664 103.304 C 163.984 103.801,163.989 103.829,164.751 103.829 C 165.261 103.829,165.642 103.486,165.790 102.897 C 166.013 102.008,166.159 101.973,168.995 102.119 C 171.458 102.246,171.995 102.163,172.137 101.636 C 172.278 101.108,172.315 101.119,172.354 101.700 C 172.380 102.096,172.704 102.386,173.100 102.368 C 173.518 102.350,173.599 102.256,173.300 102.135 C 172.312 101.736,172.828 101.200,174.200 101.200 C 174.970 101.200,175.600 101.020,175.600 100.800 C 175.600 100.459,139.674 100.159,139.569 100.500 M158.000 104.654 C 158.000 104.953,158.256 105.077,158.600 104.945 C 158.930 104.818,159.200 104.584,159.200 104.424 C 159.200 104.264,158.930 104.133,158.600 104.133 C 158.270 104.133,158.000 104.368,158.000 104.654 M357.416 140.139 C 356.840 140.560,356.793 140.749,357.201 141.001 C 357.546 141.214,357.627 141.167,357.438 140.862 C 357.281 140.608,357.239 140.400,357.344 140.400 C 357.449 140.400,357.819 140.291,358.167 140.157 C 358.603 139.990,358.802 140.145,358.806 140.657 C 358.811 141.283,358.873 141.306,359.200 140.800 C 359.458 140.400,359.590 140.367,359.594 140.700 C 359.597 140.975,359.915 141.186,360.300 141.168 C 360.788 141.146,360.835 141.071,360.455 140.920 C 360.011 140.743,360.006 140.643,360.432 140.380 C 360.755 140.181,361.149 140.314,361.464 140.729 C 361.932 141.344,361.976 141.345,361.987 140.743 C 362.010 139.548,358.804 139.124,357.416 140.139 M362.643 140.233 C 362.293 141.144,362.355 141.490,362.755 140.859 C 363.014 140.450,363.294 140.422,363.897 140.745 C 364.336 140.980,364.806 141.061,364.941 140.925 C 365.077 140.790,364.720 140.436,364.148 140.139 C 362.865 139.474,362.936 139.469,362.643 140.233 M366.933 140.255 C 366.933 140.555,367.083 140.800,367.267 140.800 C 367.450 140.800,367.600 140.650,367.600 140.467 C 367.600 140.284,368.005 140.179,368.500 140.234 C 368.995 140.288,369.546 140.348,369.724 140.367 C 369.902 140.385,369.919 140.608,369.762 140.862 C 369.589 141.141,369.652 141.215,369.921 141.049 C 370.165 140.898,370.273 140.535,370.161 140.242 C 369.880 139.510,366.933 139.522,366.933 140.255 M348.370 140.500 C 348.000 141.745,348.060 142.514,348.471 141.800 C 348.724 141.360,349.127 140.868,349.366 140.706 C 349.630 140.527,349.526 140.410,349.100 140.406 C 348.715 140.403,348.387 140.445,348.370 140.500 M350.503 140.834 C 350.890 141.059,351.370 141.142,351.569 141.019 C 351.768 140.896,352.023 141.021,352.134 141.298 C 352.256 141.601,352.349 141.522,352.368 141.100 C 352.392 140.568,352.088 140.403,351.100 140.412 C 350.019 140.422,349.919 140.493,350.503 140.834 M353.734 141.078 C 353.733 141.410,353.948 141.442,354.434 141.182 C 354.900 140.932,355.185 140.954,355.282 141.247 C 355.376 141.529,355.606 141.474,355.920 141.096 C 356.338 140.592,356.212 140.511,355.073 140.552 C 354.328 140.579,353.734 140.812,353.734 141.078 M370.640 141.039 C 370.516 141.363,370.673 141.600,371.013 141.600 C 371.336 141.600,371.600 141.780,371.600 142.000 C 371.600 142.220,371.870 142.400,372.200 142.400 C 372.530 142.400,372.800 142.209,372.800 141.976 C 372.800 141.743,372.608 141.671,372.373 141.817 C 372.120 141.973,371.998 141.797,372.073 141.386 C 372.227 140.541,370.950 140.233,370.640 141.039 M339.280 141.680 C 338.625 142.335,338.675 142.823,339.369 142.557 C 339.990 142.318,340.565 141.200,340.067 141.200 C 339.898 141.200,339.544 141.416,339.280 141.680 M341.094 141.901 C 341.273 142.367,341.371 142.373,341.650 141.934 C 341.862 141.598,341.990 141.570,341.994 141.859 C 342.000 142.343,344.310 142.350,345.090 141.868 C 345.333 141.718,345.603 141.809,345.690 142.069 C 345.874 142.623,347.200 142.225,347.200 141.616 C 347.200 141.367,345.966 141.232,344.038 141.271 C 341.493 141.322,340.919 141.445,341.094 141.901 M373.295 141.600 C 373.381 141.930,373.847 142.378,374.330 142.596 C 374.812 142.814,375.308 143.309,375.431 143.696 C 375.634 144.337,376.800 144.729,376.800 144.158 C 376.800 143.835,374.708 142.200,374.295 142.200 C 374.117 142.200,373.784 141.930,373.555 141.600 C 373.185 141.067,373.156 141.067,373.295 141.600 M185.039 141.894 C 184.907 142.026,184.800 142.296,184.800 142.494 C 184.800 142.986,186.503 142.705,186.674 142.185 C 186.819 141.742,185.438 141.496,185.039 141.894 M332.006 142.766 C 332.011 143.254,332.088 143.280,332.343 142.879 C 332.659 142.380,333.578 142.350,334.000 142.825 C 334.110 142.948,334.626 142.831,335.148 142.564 C 336.004 142.125,335.899 142.081,334.048 142.105 C 332.454 142.126,332.001 142.272,332.006 142.766 M319.800 143.202 C 319.110 143.500,319.151 143.539,320.100 143.487 C 320.705 143.453,321.200 143.285,321.200 143.113 C 321.200 142.729,320.842 142.752,319.800 143.202 M321.600 143.267 C 321.600 143.523,321.714 143.620,321.853 143.481 C 321.992 143.342,322.437 143.406,322.844 143.623 C 323.432 143.938,323.535 143.895,323.348 143.409 C 323.076 142.699,321.600 142.578,321.600 143.267 M326.460 143.180 C 326.632 143.696,327.181 143.788,327.230 143.310 C 327.247 143.151,327.044 142.948,326.780 142.860 C 326.516 142.772,326.372 142.916,326.460 143.180 M316.800 143.545 C 316.800 143.734,317.250 143.803,317.800 143.698 C 318.350 143.593,318.800 143.438,318.800 143.353 C 318.800 143.269,318.350 143.200,317.800 143.200 C 317.250 143.200,316.800 143.355,316.800 143.545 M312.800 144.000 C 313.576 144.501,314.000 144.501,314.000 144.000 C 314.000 143.780,313.595 143.603,313.100 143.606 C 312.372 143.611,312.315 143.686,312.800 144.000 M140.101 180.200 C 140.105 181.080,140.187 181.393,140.283 180.895 C 140.379 180.398,140.375 179.678,140.275 179.295 C 140.175 178.913,140.096 179.320,140.101 180.200 " stroke="none" fill="#34aef3" fill-rule="evenodd"></path><path id="path7" d="M299.200 233.244 C 298.694 233.608,298.709 233.640,299.300 233.450 C 299.746 233.307,300.000 233.433,300.000 233.800 C 300.000 234.136,299.761 234.283,299.425 234.154 C 298.845 233.932,298.829 235.877,299.403 236.805 C 299.542 237.030,299.341 237.083,298.921 236.932 C 298.524 236.789,298.333 236.820,298.497 236.999 C 298.660 237.179,298.593 237.568,298.348 237.863 C 298.026 238.250,298.023 238.546,298.337 238.924 C 298.576 239.212,298.871 240.247,298.994 241.224 C 299.116 242.201,299.394 243.060,299.611 243.134 C 299.827 243.208,299.903 243.433,299.779 243.634 C 299.655 243.835,299.833 244.000,300.176 244.000 C 300.519 244.000,300.762 244.135,300.715 244.300 C 300.668 244.465,300.831 244.960,301.076 245.400 C 301.321 245.840,301.584 246.380,301.661 246.600 C 301.737 246.820,301.935 246.955,302.100 246.900 C 302.265 246.845,302.400 246.991,302.400 247.224 C 302.400 247.457,302.535 247.565,302.700 247.466 C 302.865 247.366,303.232 247.535,303.516 247.842 C 303.799 248.149,303.927 248.400,303.800 248.400 C 303.673 248.400,303.801 248.651,304.084 248.958 C 304.368 249.265,304.736 249.434,304.903 249.333 C 305.069 249.232,305.744 249.533,306.403 250.002 C 307.061 250.471,307.600 250.730,307.600 250.578 C 307.600 250.426,307.857 250.515,308.170 250.775 C 308.484 251.036,309.069 251.193,309.470 251.124 C 309.878 251.055,310.158 251.215,310.105 251.486 C 310.049 251.769,310.261 251.875,310.615 251.739 C 311.109 251.549,311.128 251.386,310.722 250.853 C 310.448 250.494,310.687 250.612,311.254 251.115 L 312.283 252.029 312.960 251.115 C 313.332 250.612,313.551 250.389,313.445 250.619 C 313.339 250.850,313.418 251.300,313.620 251.619 C 313.896 252.055,313.989 252.069,313.994 251.675 C 313.997 251.386,314.332 251.206,314.739 251.275 C 315.145 251.344,315.809 251.130,316.215 250.800 C 316.621 250.470,316.841 250.388,316.704 250.617 C 316.568 250.846,316.803 251.060,317.228 251.092 C 317.652 251.124,318.000 250.981,318.000 250.775 C 318.000 250.569,317.784 250.400,317.520 250.400 C 317.147 250.400,317.147 250.293,317.520 249.920 C 317.893 249.547,318.111 249.560,318.500 249.979 C 318.904 250.414,318.893 250.456,318.438 250.197 C 318.037 249.968,317.969 250.025,318.199 250.399 C 318.451 250.806,318.652 250.753,319.111 250.161 C 319.679 249.427,319.693 249.431,319.495 250.270 C 319.348 250.898,319.445 251.081,319.845 250.927 C 320.150 250.810,320.400 250.564,320.400 250.381 C 320.400 250.198,320.895 250.305,321.500 250.620 C 322.531 251.157,322.616 251.137,322.860 250.296 C 323.053 249.633,323.131 249.584,323.160 250.108 C 323.190 250.635,323.429 250.758,324.100 250.592 C 324.595 250.469,326.018 250.330,327.262 250.284 C 328.506 250.238,329.440 250.065,329.338 249.900 C 329.236 249.735,329.343 249.600,329.576 249.600 C 329.809 249.600,330.000 249.780,330.000 250.000 C 330.000 250.631,331.200 250.466,331.455 249.800 C 331.753 249.025,332.564 249.033,333.216 249.819 C 333.522 250.188,333.828 250.278,333.974 250.042 C 334.109 249.824,335.114 249.620,336.209 249.587 C 339.168 249.499,340.441 249.204,340.174 248.667 C 340.046 248.410,340.180 248.470,340.472 248.800 C 341.158 249.575,342.000 249.741,342.000 249.100 C 342.000 248.740,343.063 248.581,345.800 248.532 C 349.901 248.458,351.571 248.312,352.200 247.971 C 352.420 247.851,353.892 247.770,355.471 247.791 C 357.049 247.811,358.254 247.687,358.147 247.514 C 357.839 247.015,358.586 247.150,359.179 247.700 C 359.612 248.102,359.659 248.096,359.417 247.670 C 359.167 247.231,359.264 247.231,359.983 247.670 C 360.715 248.118,360.922 248.107,361.324 247.600 C 361.679 247.153,362.818 246.973,365.800 246.896 C 371.890 246.737,375.228 246.370,374.933 245.892 C 374.774 245.635,374.874 245.599,375.196 245.797 C 375.943 246.259,377.959 246.132,378.623 245.581 C 378.935 245.322,379.471 245.219,379.816 245.351 C 380.160 245.483,380.348 245.440,380.234 245.256 C 380.121 245.071,380.516 244.670,381.114 244.363 C 381.711 244.056,382.491 243.489,382.847 243.103 C 383.203 242.716,383.691 242.400,383.933 242.400 C 384.411 242.400,385.427 240.798,385.278 240.279 C 385.147 239.823,386.254 238.787,386.552 239.086 C 386.689 239.222,386.821 239.078,386.846 238.767 C 386.872 238.455,386.919 237.930,386.952 237.600 C 386.986 237.270,386.868 236.794,386.692 236.542 C 386.516 236.290,386.400 235.930,386.433 235.742 C 386.467 235.554,386.473 234.905,386.447 234.300 L 386.400 233.200 343.576 233.200 C 315.129 233.200,300.836 233.334,301.000 233.600 C 301.136 233.820,301.057 234.000,300.824 234.000 C 300.591 234.000,300.400 233.730,300.400 233.400 C 300.400 232.695,300.030 232.647,299.200 233.244 M84.000 233.624 C 84.000 233.857,83.816 233.933,83.590 233.794 C 83.365 233.655,83.206 233.689,83.237 233.870 C 83.389 234.742,83.145 235.154,82.600 234.945 C 82.206 234.793,81.985 234.969,81.957 235.457 C 81.839 237.529,81.763 237.793,81.314 237.705 C 81.040 237.651,80.925 237.860,81.050 238.186 C 81.172 238.503,81.003 239.146,80.676 239.613 C 80.325 240.114,80.158 240.962,80.271 241.675 C 80.397 242.476,80.316 242.795,80.031 242.619 C 79.758 242.451,79.600 242.811,79.600 243.600 C 79.600 244.491,79.457 244.761,79.100 244.547 C 78.809 244.372,78.850 244.561,79.200 245.000 C 79.550 245.439,79.591 245.628,79.300 245.453 C 78.944 245.240,78.800 245.499,78.800 246.353 C 78.800 247.013,78.603 247.675,78.362 247.824 C 78.120 247.973,77.998 248.604,78.089 249.226 C 78.181 249.849,78.125 250.277,77.967 250.179 C 77.808 250.081,77.500 250.511,77.283 251.134 C 76.982 251.998,77.011 252.267,77.406 252.267 C 77.705 252.267,77.830 251.999,77.703 251.633 C 77.539 251.164,77.604 251.112,77.954 251.433 C 78.573 252.001,78.098 253.213,77.367 252.932 C 77.023 252.800,76.800 252.967,76.800 253.357 C 76.800 253.711,76.963 254.000,77.163 254.000 C 77.362 254.000,77.420 254.400,77.292 254.890 C 77.164 255.379,76.986 255.559,76.897 255.290 C 76.807 255.020,76.549 254.800,76.324 254.800 C 76.099 254.800,76.022 255.079,76.153 255.421 C 76.289 255.777,76.222 255.937,75.995 255.797 C 75.778 255.663,75.600 255.833,75.600 256.176 C 75.600 256.733,77.840 256.800,96.533 256.800 C 108.047 256.800,117.590 256.924,117.741 257.075 C 118.306 257.640,119.509 257.462,119.406 256.830 C 119.349 256.483,119.482 255.975,119.700 255.700 C 119.919 255.425,119.964 255.200,119.800 255.200 C 119.636 255.200,119.724 254.932,119.996 254.605 C 120.267 254.278,120.392 253.755,120.272 253.443 C 120.152 253.131,120.402 252.560,120.827 252.176 C 121.788 251.306,121.814 250.802,120.900 250.794 C 120.463 250.790,120.367 250.677,120.646 250.494 C 120.891 250.332,121.219 249.792,121.375 249.294 C 121.530 248.796,121.799 248.476,121.972 248.583 C 122.146 248.690,122.220 248.165,122.137 247.416 C 122.055 246.668,122.170 245.942,122.394 245.804 C 122.617 245.666,122.800 245.023,122.800 244.376 C 122.800 243.729,122.991 243.200,123.224 243.200 C 123.457 243.200,123.556 243.052,123.444 242.871 C 123.332 242.691,123.473 242.096,123.756 241.551 C 124.039 241.005,124.225 240.253,124.170 239.879 C 124.116 239.506,124.245 239.200,124.459 239.200 C 124.673 239.200,124.744 239.032,124.617 238.828 C 124.491 238.623,124.570 238.342,124.795 238.203 C 125.052 238.044,125.067 237.699,124.835 237.265 C 124.605 236.835,124.623 236.302,124.884 235.835 C 125.201 235.269,125.183 235.163,124.808 235.395 C 124.437 235.624,124.383 235.389,124.589 234.450 L 124.864 233.200 104.432 233.200 C 90.318 233.200,84.000 233.331,84.000 233.624 M117.950 259.520 C 117.862 260.362,117.794 260.589,117.487 261.072 C 117.322 261.332,117.398 261.675,117.655 261.834 C 117.948 262.015,118.016 261.950,117.838 261.662 C 117.681 261.408,117.724 261.200,117.934 261.200 C 118.523 261.200,118.876 259.916,118.413 259.453 C 118.129 259.169,117.984 259.190,117.950 259.520 " stroke="none" fill="#4ccce4" fill-rule="evenodd"></path><path id="path8" d="M331.600 249.576 C 331.600 249.783,331.808 250.081,332.062 250.238 C 332.369 250.428,332.414 250.346,332.196 249.994 C 331.956 249.606,332.053 249.535,332.555 249.727 C 332.963 249.884,333.142 249.830,332.997 249.595 C 332.686 249.092,331.600 249.077,331.600 249.576 M317.466 249.900 C 317.366 250.065,317.519 250.417,317.806 250.682 C 318.215 251.060,318.373 251.047,318.536 250.621 C 318.853 249.795,317.913 249.162,317.466 249.900 M319.088 250.133 C 318.930 250.536,318.800 250.904,318.800 250.951 C 318.800 250.998,319.458 251.081,320.263 251.135 C 321.582 251.224,321.672 251.169,321.178 250.573 C 320.838 250.164,320.573 250.081,320.481 250.356 C 320.254 251.037,319.675 250.883,319.518 250.100 C 319.386 249.449,319.356 249.452,319.088 250.133 M77.452 251.809 C 77.082 252.773,77.627 253.452,78.097 252.613 C 78.345 252.169,78.345 251.785,78.095 251.535 C 77.843 251.283,77.616 251.380,77.452 251.809 M76.406 254.113 C 76.419 255.155,77.079 255.706,77.300 254.860 C 77.426 254.378,77.287 253.966,76.956 253.838 C 76.650 253.721,76.403 253.844,76.406 254.113 M119.060 256.907 C 118.522 257.469,118.200 257.560,117.880 257.240 C 117.570 256.930,111.231 256.814,96.420 256.846 C 84.859 256.872,75.721 256.976,76.113 257.078 C 76.742 257.242,76.706 257.358,75.813 258.061 C 74.803 258.856,74.441 260.000,75.200 260.000 C 75.420 260.000,75.600 260.210,75.600 260.467 C 75.600 260.723,75.489 260.822,75.352 260.686 C 74.952 260.285,74.000 261.471,74.000 262.371 C 74.000 262.868,74.259 263.200,74.647 263.200 C 75.125 263.200,75.242 262.933,75.098 262.177 C 74.968 261.500,75.060 261.214,75.369 261.333 C 75.626 261.431,75.865 261.130,75.900 260.662 C 75.936 260.194,76.152 259.749,76.382 259.673 C 76.612 259.596,76.800 259.278,76.800 258.967 C 76.800 258.485,79.862 258.400,97.167 258.400 C 116.923 258.400,119.043 258.483,118.574 259.242 C 118.452 259.439,118.564 259.600,118.823 259.600 C 119.091 259.600,119.206 259.267,119.091 258.826 C 118.980 258.400,119.157 257.668,119.485 257.200 C 120.261 256.093,120.007 255.918,119.060 256.907 M116.800 259.624 C 116.800 259.857,116.968 259.944,117.172 259.817 C 117.377 259.691,117.658 259.770,117.796 259.993 C 117.934 260.217,117.767 260.400,117.424 260.400 C 116.687 260.400,116.569 261.188,117.300 261.227 C 117.575 261.242,117.395 261.449,116.900 261.688 C 116.405 261.927,116.000 262.285,116.000 262.485 C 116.000 262.684,116.168 262.744,116.372 262.617 C 116.577 262.491,116.858 262.570,116.996 262.793 C 117.516 263.636,118.041 263.155,117.859 262.002 C 117.755 261.343,117.843 260.697,118.055 260.566 C 118.290 260.421,118.258 260.110,117.970 259.764 C 117.418 259.098,116.800 259.024,116.800 259.624 M116.900 264.665 C 116.625 264.776,116.400 265.302,116.400 265.833 C 116.400 266.365,116.054 267.146,115.631 267.569 C 114.977 268.223,114.952 268.373,115.467 268.570 C 116.177 268.843,116.903 268.490,116.609 268.015 C 116.497 267.834,116.666 266.946,116.985 266.043 C 117.304 265.139,117.527 264.414,117.482 264.432 C 117.437 264.449,117.175 264.554,116.900 264.665 M180.000 282.236 C 180.000 282.534,181.705 283.969,182.081 283.987 C 182.235 283.994,181.945 283.550,181.435 283.000 C 180.539 282.034,180.000 281.746,180.000 282.236 " stroke="none" fill="#4cccdc" fill-rule="evenodd"></path></g></svg>